<?xml version="1.0" standalone="no"?><!DOCTYPE svg PUBLIC "-//W3C//DTD SVG 1.1//EN" "http://www.w3.org/Graphics/SVG/1.1/DTD/svg11.dtd"><svg class="chart" filename="chart1.svg" id="chart1" version="1.1" xmlns="http://www.w3.org/2000/svg" xlink="http://www.w3.org/1999/xlink"><defs><style type="text/css"><![CDATA[
html, body  { width: 1000px; height: 100%; margin-top: auto; margin-right: auto; margin-bottom: auto; margin-left: auto; }
.container { width: 40%; display: inline-block; }
.eighty { width: 80%; display: inline-block; }
ul { width: 15%; display: inline-block; }
li { list-style-type: none; list-style-position: initial; list-style-image: initial; margin-top: -3em; margin-right: -1em; margin-bottom: 0px; margin-left: 0px; font-size: 0.7em; }
li::before { content: •; font-size: 4em; position: relative; top: 0.3em; }
.ct-label, body { font-family: serif; color: black; fill: #000000; }
.ct-line { stroke-width: 0.8pt; }
.ct-line.Javascript, .ct-line.npm { stroke-width: 2pt; }
.axis path, .axis line { fill: none; stroke: #000000; shape-rendering: crispedges; }
.grid .tick { stroke: #d3d3d3; opacity: 0.7; }
.grid path { stroke-width: 0px; }
li.Javascript::before { color: rgb(240, 37, 61); }
li.C::before { color: rgb(38, 107, 133); }
li.Cplusplus::before { color: rgb(60, 173, 215); }
li.Java::before { color: rgb(175, 196, 219); }
li.PHP::before { color: rgb(137, 150, 168); }
li.XML_Schema::before { color: rgb(245, 117, 66); }
li.Ruby::before { color: rgb(215, 80, 60); }
li.Autoconf::before { color: rgb(189, 66, 48); }
li.Python::before { color: rgb(94, 235, 184); }
li.Csharp::before { color: rgb(74, 190, 149); }
li.Assembler::before { color: rgb(221, 183, 0); }
li.Shell::before { color: rgb(247, 240, 157); }
li.SQL::before { color: rgb(243, 255, 181); }
li.Make::before { color: rgb(159, 58, 44); }
li.Perl::before { color: rgb(27, 39, 53); }
li.VisualBasicNET::before { color: rgb(67, 174, 136); }
.slice.Javascript { fill: #f0253d; }
.slice.C { fill: #266b85; }
.slice.Cplusplus { fill: #3cadd7; }
.slice.Java { fill: #afc4db; }
.slice.PHP { fill: #8996a8; }
.slice.XML_Schema { fill: #f57542; }
.slice.Ruby { fill: #d7503c; }
.slice.Autoconf { fill: #bd4230; }
.slice.Python { fill: #5eebb8; }
.slice.Csharp { fill: #4abe95; }
.slice.Assembler { fill: #ddb700; }
.slice.Shell { fill: #f7f09d; }
.slice.SQL { fill: #f3ffb5; }
.slice.Make { fill: #9f3a2c; }
.slice.Perl { fill: #1b2735; }
.slice.VisualBasicNET { fill: #43ae88; }
.line { stroke-width: 2pt; fill: rgba(0, 0, 0, 0.0); }
.line.Javascript, .line.JavaScript { stroke: #f0253d; }
.line.C { stroke: #266b85; }
.line.Cplusplus { stroke: #3cadd7; }
.line.Java { stroke: #afc4db; }
.line.PHP { stroke: #8996a8; }
.line.XML_Schema { stroke: #f57542; }
.line.Ruby { stroke: #d7503c; }
.line.Autoconf { stroke: #bd4230; }
.line.Python { stroke: #5eebb8; }
.line.Csharp { stroke: #4abe95; }
.line.Assembler { stroke: #ddb700; }
.line.Shell { stroke: #f7f09d; }
.line.SQL { stroke: #f3ffb5; }
.line.Make { stroke: #9f3a2c; }
.line.Perl { stroke: #1b2735; }
.line.VisualBasicNET { stroke: #43ae88; }
li.Bower::before { color: rgb(176, 37, 61); }
li.Clojars::before { color: black; }
li.CPAN::before { color: black; }
li.CPANsearch::before { color: black; }
li.CRAN::before { color: black; }
li.Crates::before { color: black; }
li.GoDoc::before { color: black; }
li.Hackage::before { color: black; }
li.Hex::before { color: black; }
li.LuaRocks::before { color: black; }
li.Maven::before { color: rgb(175, 196, 219); }
li.MELPA::before { color: black; }
li.npm::before { color: rgb(240, 37, 61); }
li.nuget::before { color: rgb(74, 190, 149); }
li.Packagist::before { color: rgb(137, 150, 168); }
li.Pear::before { color: rgb(137, 150, 184); }
li.PyPI::before { color: rgb(94, 235, 184); }
li.Rubygems::before { color: rgb(215, 80, 60); }
.line.Bower_JS { stroke: #b0253d; }
.line.Clojars_Closure { stroke: #000000; }
.line.CPAN { stroke: #000000; }
.line.CPAN_search { stroke: #000000; }
.line.CRAN_R.io { stroke: #000000; }
.line.Cratesio_Rust { stroke: #000000; }
.line.Drupal_php { stroke: #000000; }
.line.GoDoc_Go { stroke: #000000; }
.line.Hackage_Haskell { stroke: #000000; }
.line.Hexpm_ElixirErlang { stroke: #000000; }
.line.LuaRocks_Lua { stroke: #000000; }
.line.Maven_Central_Java { stroke: #afc4db; }
.line.MELPA_Emacs { stroke: #000000; }
.line.npm_nodejs { stroke: #f0253d; }
.line.nuget_NET { stroke: #4abe95; }
.line.Packagist_PHP { stroke: #8996a8; }
.line.Pear_PHP { stroke: #8996b8; }
.line.Perl_6_Ecosystem_perl_6 { stroke: #8996b8; }
.line.PyPI { stroke: #5eebb8; }
.line.Rubygemsorg { stroke: #d7503c; }
svg { width: 100%; height: 500px; }
path.slice { stroke-width: 1px; }
polyline { stroke: #000000; stroke-width: 1px; fill: none; }]]></style></defs><g transform="translate(480,225)"><g class="slices"><path class="slice C" d="M1.1021821192326179e-14,-180A180,180 0 1,1 -20.599796257053928,178.81736043843134L-10.299898128526964,89.40868021921567A90,90 0 1,0 5.5109105961630896e-15,-90Z"></path><path class="slice Cplusplus" d="M-20.599796257053928,178.81736043843134A180,180 0 0,1 -134.25803177077617,119.8948743901809L-67.12901588538809,59.94743719509045A90,90 0 0,0 -10.299898128526964,89.40868021921567Z"></path><path class="slice Java" d="M-134.25803177077617,119.8948743901809A180,180 0 0,1 -177.28229576288783,31.16067407871591L-88.64114788144391,15.580337039357955A90,90 0 0,0 -67.12901588538809,59.94743719509045Z"></path><path class="slice Javascript" d="M-177.28229576288783,31.16067407871591A180,180 0 0,1 -169.1813136749083,-61.462859543241926L-84.59065683745415,-30.731429771620963A90,90 0 0,0 -88.64114788144391,15.580337039357955Z"></path><path class="slice PHP" d="M-169.1813136749083,-61.462859543241926A180,180 0 0,1 -146.41984683054267,-104.69588556443094L-73.20992341527133,-52.34794278221547A90,90 0 0,0 -84.59065683745415,-30.731429771620963Z"></path><path class="slice Shell" d="M-146.41984683054267,-104.69588556443094A180,180 0 0,1 -129.27921602488695,-125.24729260143954L-64.63960801244347,-62.62364630071977A90,90 0 0,0 -73.20992341527133,-52.34794278221547Z"></path><path class="slice Autoconf" d="M-129.27921602488695,-125.24729260143954A180,180 0 0,1 -110.20816612122805,-142.31711112932206L-55.10408306061402,-71.15855556466103A90,90 0 0,0 -64.63960801244347,-62.62364630071977Z"></path><path class="slice Python" d="M-110.20816612122805,-142.31711112932206A180,180 0 0,1 -92.74611976807662,-154.2665137609766L-46.37305988403831,-77.1332568804883A90,90 0 0,0 -55.10408306061402,-71.15855556466103Z"></path><path class="slice Ruby" d="M-92.74611976807662,-154.2665137609766A180,180 0 0,1 -74.96085176914542,-163.648619615456L-37.48042588457271,-81.824309807728A90,90 0 0,0 -46.37305988403831,-77.1332568804883Z"></path><path class="slice Assembler" d="M-74.96085176914542,-163.648619615456A180,180 0 0,1 -56.79536831190155,-170.8048188380979L-28.397684155950774,-85.40240941904895A90,90 0 0,0 -37.48042588457271,-81.824309807728Z"></path><path class="slice Perl" d="M-56.79536831190155,-170.8048188380979A180,180 0 0,1 -41.83958544672837,-175.0698406055307L-20.919792723364186,-87.53492030276534A90,90 0 0,0 -28.397684155950774,-85.40240941904895Z"></path><path class="slice Csharp" d="M-41.83958544672837,-175.0698406055307A180,180 0 0,1 -30.036827203423783,-177.4761646293712L-15.018413601711892,-88.7380823146856A90,90 0 0,0 -20.919792723364186,-87.53492030276534Z"></path><path class="slice XML_Schema" d="M-30.036827203423783,-177.4761646293712A180,180 0 0,1 -18.681340669410176,-179.02795175835934L-9.340670334705088,-89.51397587917967A90,90 0 0,0 -15.018413601711892,-88.7380823146856Z"></path><path class="slice SQL" d="M-18.681340669410176,-179.02795175835934A180,180 0 0,1 -8.769203182342466,-179.7862649802448L-4.384601591171233,-89.8931324901224A90,90 0 0,0 -9.340670334705088,-89.51397587917967Z"></path><path class="slice Make" d="M-8.769203182342466,-179.7862649802448A180,180 0 0,1 -3.3065463576978534e-14,-180L-1.6532731788489267e-14,-90A90,90 0 0,0 -4.384601591171233,-89.8931324901224Z"></path></g><g class="labels"><text dy=".35em" transform="translate(225,11.606465334456104)" style="text-anchor: start; ">C</text><text dy=".35em" transform="translate(-225,179.77766968719106)" style="text-anchor: end; ">C++</text><text dy=".35em" transform="translate(-225,88.34808083741376)" style="text-anchor: end; ">Java</text><text dy=".35em" transform="translate(-225,-17.643575841774723)" style="text-anchor: end; ">Javascript</text><text dy=".35em" transform="translate(-225,-94.3371581591164)" style="text-anchor: end; ">PHP</text><text dy=".35em" transform="translate(-225,-129.70189647750308)" style="text-anchor: end; ">Shell</text><text dy=".35em" transform="translate(-225,-150.88680077796386)" style="text-anchor: end; ">Autoconf</text><text dy=".35em" transform="translate(-225,-167.117197121612)" style="text-anchor: end; ">Python</text><text dy=".35em" transform="translate(-225,-179.10687899869754)" style="text-anchor: end; ">Ruby</text><text dy=".35em" transform="translate(-225,-188.4073469852569)" style="text-anchor: end; ">Assembler</text><text></text><text></text><text></text><text></text><text></text></g><g class="lines"><polyline class="line C" points="134.77807266835205,7.737643556304069,202.1671090025281,11.606465334456104,213.75,11.606465334456104"></polyline><polyline class="line Cplusplus" points="-62.133331480125946,119.8517797914607,-93.19999722018892,179.77766968719106,-213.75,179.77766968719106"></polyline><polyline class="line Java" points="-121.47403309595897,58.89872055827584,-182.21104964393845,88.34808083741376,-213.75,88.34808083741376"></polyline><polyline class="line Javascript" points="-134.48660277186727,-11.762383894516482,-201.72990415780092,-17.643575841774723,-213.75,-17.643575841774723"></polyline><polyline class="line PHP" points="-119.45571116147674,-62.891438772744266,-179.1835667422151,-94.3371581591164,-213.75,-94.3371581591164"></polyline><polyline class="line Shell" points="-103.67399341769816,-86.46793098500206,-155.51099012654723,-129.70189647750308,-213.75,-129.70189647750308"></polyline><polyline class="line Autoconf" points="-90.03560616899428,-100.59120051864258,-135.05340925349142,-150.88680077796386,-213.75,-150.88680077796386"></polyline><polyline class="line Python" points="-76.23965846436349,-111.41146474774133,-114.35948769654523,-167.117197121612,-213.75,-167.117197121612"></polyline><polyline class="line Ruby" points="-62.988450071231036,-119.40458599913168,-94.48267510684656,-179.10687899869754,-213.75,-179.10687899869754"></polyline><polyline class="line Assembler" points="-49.48140661782635,-125.60489799017127,-74.22210992673952,-188.4073469852569,-213.75,-188.4073469852569"></polyline><polyline></polyline><polyline></polyline><polyline></polyline><polyline></polyline><polyline></polyline></g></g></svg>