<?xml version="1.0" standalone="no"?><!DOCTYPE svg PUBLIC "-//W3C//DTD SVG 1.1//EN" "http://www.w3.org/Graphics/SVG/1.1/DTD/svg11.dtd"><svg width="560" height="560" class="chart" filename="blackduck-alltime.svg" version="1.1" xmlns="http://www.w3.org/2000/svg" xlink="http://www.w3.org/1999/xlink"><defs><style type="text/css"><![CDATA[
html, body  { width: 1000px; height: 100%; margin-top: auto; margin-right: auto; margin-bottom: auto; margin-left: auto; }
text { font-family: Helvetica; color: blue; }
.axis path, .axis line { fill: none; stroke: #000000; shape-rendering: crispedges; }
.grid .tick { stroke: #d3d3d3; opacity: 0.7; }
.grid path { stroke-width: 0px; }
.line { stroke-width: 1.5pt; fill: rgba(0, 0, 0, 0.0); }
.label.Javascript, .slice.Javascript { fill: #e31a1c; }
.line.Javascript { stroke: #e31a1c; }
.label.Ruby, .slice.Ruby { fill: #fc4e2a; }
.line.Ruby { stroke: #fc4e2a; }
.label.Python, .slice.Python { fill: #fd8d3c; }
.line.Python { stroke: #fd8d3c; }
.label.Csharp, .slice.Csharp { fill: #bd0026; }
.line.Csharp { stroke: #bd0026; }
.label.PHP, .slice.PHP { fill: #78c679; }
.line.PHP { stroke: #78c679; }
.label.XML_Schema, .slice.XML_Schema { fill: #41ab5d; }
.line.XML_Schema { stroke: #41ab5d; }
.label.SQL, .slice.SQL { fill: #238443; }
.line.SQL { stroke: #238443; }
.label.Perl, .slice.Perl { fill: #006837; }
.line.Perl { stroke: #006837; }
.label.C, .slice.C { fill: #41b6c4; }
.line.C { stroke: #41b6c4; }
.label.Cplusplus, .slice.Cplusplus { fill: #1d91c0; }
.line.Cplusplus { stroke: #1d91c0; }
.label.Java, .slice.Java { fill: #225ea8; }
.line.Java { stroke: #225ea8; }
.label.VisualBasicNET, .slice.VisualBasicNET { fill: #253494; }
.line.VisualBasicNET { stroke: #253494; }
.label.Autoconf, .slice.Autoconf { fill: #f768a1; }
.line.Autoconf { stroke: #f768a1; }
.label.Assembler, .slice.Assembler { fill: #dd3497; }
.line.Assembler { stroke: #dd3497; }
.label.Shell, .slice.Shell { fill: #ae017e; }
.line.Shell { stroke: #ae017e; }
.label.Make, .slice.Make { fill: #7a0177; }
.line.Make { stroke: #7a0177; }
.label.Swift, .slice.Swift { fill: #addd8e; }
.line.Swift { stroke: #addd8e; }
.label.ObjectiveC, .slice.ObjectiveC, .label.iOS, .slice.iOS { fill: #78c679; }
.line.ObjectiveC, .line.iOS { stroke: #78c679; }
.label.CSS, .slice.CSS { fill: #41ab5d; }
.line.CSS { stroke: #41ab5d; }
.slice.Arduino__Raspberry_Pi { fill: #7fcdbb; }
.line.Arduino__Raspberry_Pi { stroke: #7fcdbb; }
.slice.Android { fill: #41b6c4; }
.line.Android { stroke: #41b6c4; }
.label.AngularJS, .slice.AngularJS { fill: #feb24c; }
.line.AngularJS { stroke: #feb24c; }
.label.Nodejs, .slice.Nodejs { fill: #fd8d3c; }
.line.Nodejs { stroke: #fd8d3c; }
.label.Bower { fill: #bd0026; }
.line.Bower { stroke: #bd0026; }
.label.npm { fill: #e31a1c; }
.line.npm { stroke: #e31a1c; }
.label.PyPI { fill: #fd8d3c; }
.line.PyPI { stroke: #fd8d3c; }
.label.Rubygems { fill: #fc4e2a; }
.line.Rubygems { stroke: #fc4e2a; }
.label.Clojars { fill: #000000; }
.line.Clojars { stroke: #000000; }
.label.Hackage { fill: #000000; }
.line.Hackage { stroke: #000000; }
.label.Hex { fill: #000000; }
.line.Hex { stroke: #000000; }
.label.LuaRocks { fill: #000000; }
.line.LuaRocks { stroke: #000000; }
.label.CPAN { fill: #41ab5d; }
.line.CPAN { stroke: #41ab5d; }
.label.CPAN_search { fill: #000000; }
.line.CPAN_search { stroke: #000000; }
.label.CRAN { fill: #000000; }
.line.CRAN { stroke: #000000; }
.label.Perl { fill: #006837; }
.line.Perl { stroke: #006837; }
.label.Drupal { fill: #000000; }
.line.Drupal { stroke: #000000; }
.label.Packagist { fill: #dd3497; }
.line.Packagist { stroke: #dd3497; }
.label.Pear { fill: #8996b8; }
.line.Pear { stroke: #8996b8; }
.label.MELPA { fill: #000000; }
.line.MELPA { stroke: #000000; }
.label.Crates { fill: #000000; }
.line.Crates { stroke: #000000; }
.label.GoDoc { fill: #41b6c4; }
.line.GoDoc { stroke: #41b6c4; }
.label.Maven { fill: #225ea8; }
.line.Maven { stroke: #225ea8; }
.label.nugets { fill: #253494; }
.line.nugets { stroke: #253494; }
.slice.nocont { fill: #feb24c; }
.line.nocont { stroke: #feb24c; }
.slice.eval { fill: #fd8d3c; }
.line.eval { stroke: #fd8d3c; }
.slice.lib { fill: #fc4e2a; }
.line.lib { stroke: #fc4e2a; }
.slice.err { fill: #e31a1c; }
.line.err { stroke: #e31a1c; }
.slice.fail { fill: #bd0026; }
.line.fail { stroke: #bd0026; }
.slice.notest { fill: #800026; }
.line.notest { stroke: #800026; }
.slice.ok { fill: #7fcdbb; }
.line.ok { stroke: #7fcdbb; }
svg { overflow-x: visible; overflow-y: visible; border-top-width: 2px; border-right-width: 2px; border-bottom-width: 2px; border-left-width: 2px; border-top-style: dotted; border-right-style: dotted; border-bottom-style: dotted; border-left-style: dotted; border-top-color: black; border-right-color: black; border-bottom-color: black; border-left-color: black; }]]></style></defs><g transform="translate(280,280)"><g class="slices"><path class="slice C" d="M4.2862637970157365e-15,-70A70,70 0 1,1 -8.011031877743195,69.54008461494551L-5.7679429519751,50.06886092276077A50.4,50.4 0 1,0 3.08610993385133e-15,-50.4Z"></path><path class="slice Cplusplus" d="M-8.011031877743195,69.54008461494551A70,70 0 0,1 -52.21145679974629,46.62578448507035L-37.59224889581733,33.57056482925065A50.4,50.4 0 0,0 -5.7679429519751,50.06886092276077Z"></path><path class="slice Java" d="M-52.21145679974629,46.62578448507035A70,70 0 0,1 -68.94311501890083,12.118039919500632L-49.6390428136086,8.724988742040454A50.4,50.4 0 0,0 -37.59224889581733,33.57056482925065Z"></path><path class="slice Javascript" d="M-68.94311501890083,12.118039919500632A70,70 0 0,1 -65.79273309579767,-23.902223155705194L-47.37076782897432,-17.20960067210774A50.4,50.4 0 0,0 -49.6390428136086,8.724988742040454Z"></path><path class="slice PHP" d="M-65.79273309579767,-23.902223155705194A70,70 0 0,1 -56.94105154521104,-40.715066608389805L-40.997557112551945,-29.31484795804066A50.4,50.4 0 0,0 -47.37076782897432,-17.20960067210774Z"></path><path class="slice Shell" d="M-56.94105154521104,-40.715066608389805A70,70 0 0,1 -50.275250676344925,-48.70728045611537L-36.19818048696835,-35.069241928403066A50.4,50.4 0 0,0 -40.997557112551945,-29.31484795804066Z"></path><path class="slice Autoconf" d="M-50.275250676344925,-48.70728045611537A70,70 0 0,1 -42.858731269366466,-55.345543216958575L-30.858286513943852,-39.84879111621017A50.4,50.4 0 0,0 -36.19818048696835,-35.069241928403066Z"></path><path class="slice Python" d="M-42.858731269366466,-55.345543216958575A70,70 0 0,1 -36.06793546536313,-59.992533129268686L-25.968913535061454,-43.19462385307345A50.4,50.4 0 0,0 -30.858286513943852,-39.84879111621017Z"></path><path class="slice Ruby" d="M-36.06793546536313,-59.992533129268686A70,70 0 0,1 -29.151442354667665,-63.64112985045511L-20.98903849536072,-45.82161349232768A50.4,50.4 0 0,0 -25.968913535061454,-43.19462385307345Z"></path><path class="slice Assembler" d="M-29.151442354667665,-63.64112985045511A70,70 0 0,1 -22.087087676850604,-66.42409621481586L-15.902703127332433,-47.82534927466742A50.4,50.4 0 0,0 -20.98903849536072,-45.82161349232768Z"></path><path class="slice Perl" d="M-22.087087676850604,-66.42409621481586A70,70 0 0,1 -16.270949895949922,-68.0827157910397L-11.715083925083944,-49.019555369548584A50.4,50.4 0 0,0 -15.902703127332433,-47.82534927466742Z"></path><path class="slice Csharp" d="M-16.270949895949922,-68.0827157910397A70,70 0 0,1 -11.680988356887028,-69.01850846697768L-8.410311616958658,-49.693326096223934A50.4,50.4 0 0,0 -11.715083925083944,-49.019555369548584Z"></path><path class="slice XML_Schema" d="M-11.680988356887028,-69.01850846697768A70,70 0 0,1 -7.264965815881736,-69.62198123936197L-5.23077538743485,-50.12782649234062A50.4,50.4 0 0,0 -8.410311616958658,-49.693326096223934Z"></path><path class="slice SQL" d="M-7.264965815881736,-69.62198123936197A70,70 0 0,1 -3.41024568202207,-69.91688082565075L-2.45537689105589,-50.34015419446854A50.4,50.4 0 0,0 -5.23077538743485,-50.12782649234062Z"></path><path class="slice Make" d="M-3.41024568202207,-69.91688082565075A70,70 0 0,1 -1.2858791391047208e-14,-70L-9.258329801553989e-15,-50.4A50.4,50.4 0 0,0 -2.45537689105589,-50.34015419446854Z"></path></g><g class="labels"><text dy=".35em" transform="translate(84,4.4935648504758445)" style="font-family: cmr10; text-anchor: start; ">C (            50.11%)</text><text dy=".35em" transform="translate(-84,69.60281137518903)" style="font-family: cmr10; text-anchor: end; ">C++ (          11.19%)</text><text dy=".35em" transform="translate(-84,34.20488660569501)" style="font-family: cmr10; text-anchor: end; ">Java (          8.54%)</text><text dy=".35em" transform="translate(-84,-6.830895535778461)" style="font-family: cmr10; text-anchor: end; ">Javascript (    8.04%)</text><text dy=".35em" transform="translate(-84,-36.52362073913445)" style="font-family: cmr10; text-anchor: end; ">PHP (           4.19%)</text><text dy=".35em" transform="translate(-84,-56.52362073913445)" style="font-family: cmr10; text-anchor: end; ">Shell (         2.29%)</text><text dy=".35em" transform="translate(-84,-76.52362073913446)" style="font-family: cmr10; text-anchor: end; ">Autoconf (      2.19%)</text><text dy=".35em" transform="translate(-84,-96.52362073913446)" style="font-family: cmr10; text-anchor: end; ">Python (        1.81%)</text><text dy=".35em" transform="translate(-84,-116.52362073913446)" style="font-family: cmr10; text-anchor: end; ">Ruby (          1.72%)</text><text dy=".35em" transform="translate(-84,-136.52362073913446)" style="font-family: cmr10; text-anchor: end; ">Assembler (     1.67%)</text><text dy=".35em" transform="translate(-84,-156.52362073913446)" style="font-family: cmr10; text-anchor: end; ">Perl (          1.33%)</text><text dy=".35em" transform="translate(-84,-176.52362073913446)" style="font-family: cmr10; text-anchor: end; ">C# (            1.03%)</text><text dy=".35em" transform="translate(-84,-196.52362073913446)" style="font-family: cmr10; text-anchor: end; ">XML Schema (    0.98%)</text><text dy=".35em" transform="translate(-84,-216.52362073913446)" style="font-family: cmr10; text-anchor: end; ">SQL (           0.85%)</text><text dy=".35em" transform="translate(-84,-236.52362073913446)" style="font-family: cmr10; text-anchor: end; ">Make (          0.75%)</text></g><g class="lines"><polyline fill="none" class="line C" points="60.101036849146624,3.4504158673296663,78.27111775702816,4.4935648504758445,78.39999999999999,4.4935648504758445"></polyline><polyline fill="none" class="line Cplusplus" points="-27.706863371137644,53.445015877377294,-36.08335694845833,69.60281137518903,-78.39999999999999,69.60281137518903"></polyline><polyline fill="none" class="line Java" points="-54.16842068427208,26.26446650080152,-70.54491996091248,34.20488660569501,-78.39999999999999,34.20488660569501"></polyline><polyline fill="none" class="line Javascript" points="-59.97106286567712,-5.245151929258461,-78.10184931343997,-6.830895535778461,-78.39999999999999,-6.830895535778461"></polyline><polyline fill="none" class="line PHP" points="-53.268398606821485,-28.044923067549668,-69.37279818562799,-36.52362073913445,-78.39999999999999,-36.52362073913445"></polyline><polyline fill="none" class="line Shell" points="-46.230921509225404,-38.5582921873861,-67.77113107366847,-56.52362073913445,-78.39999999999999,-56.52362073913445"></polyline><polyline fill="none" class="line Autoconf" points="-40.149211047210784,-44.85622423127617,-68.49357144532037,-76.52362073913446,-78.39999999999999,-76.52362073913446"></polyline><polyline fill="none" class="line Python" points="-33.997240292997645,-49.68126057640021,-66.05180082281032,-96.52362073913446,-78.39999999999999,-96.52362073913446"></polyline><polyline fill="none" class="line Ruby" points="-28.088182920652656,-53.24560057146465,-61.46867983026554,-116.52362073913446,-78.39999999999999,-116.52362073913446"></polyline><polyline fill="none" class="line Assembler" points="-22.065042062171454,-56.0104804370986,-53.782781554105,-136.52362073913446,-78.39999999999999,-136.52362073913446"></polyline><polyline fill="none" class="line Perl" points="-16.50936864572487,-57.891974805836064,-44.63669040852093,-156.52362073913446,-78.39999999999999,-156.52362073913446"></polyline><polyline fill="none" class="line Csharp" points="-12.02606731014783,-58.986555290606645,-35.98930187364067,-176.52362073913446,-78.39999999999999,-176.52362073913446"></polyline><polyline fill="none" class="line XML_Schema" points="-8.15089197948834,-59.645644936899735,-26.855989330943437,-196.52362073913446,-78.39999999999999,-196.52362073913446"></polyline><polyline fill="none" class="line SQL" points="-4.592092110705154,-60.024600707100085,-16.564815073561718,-216.52362073913446,-78.39999999999999,-216.52362073913446"></polyline><polyline fill="none" class="line Make" points="-1.4668411458657409,-60.1821267242426,-5.764877344049573,-236.52362073913446,-78.39999999999999,-236.52362073913446"></polyline></g></g></svg>