<?xml version="1.0" standalone="no"?><!DOCTYPE svg PUBLIC "-//W3C//DTD SVG 1.1//EN" "http://www.w3.org/Graphics/SVG/1.1/DTD/svg11.dtd"><svg width="560" height="560" class="chart" filename="blackduck-2015.svg" version="1.1" xmlns="http://www.w3.org/2000/svg" xlink="http://www.w3.org/1999/xlink"><defs><style type="text/css"><![CDATA[
html, body  { width: 1000px; height: 100%; margin-top: auto; margin-right: auto; margin-bottom: auto; margin-left: auto; }
text { font-family: 'Gotham Rounded'; font-weight: 100; color: blue; }
.axis path, .axis line { fill: none; stroke: #000000; shape-rendering: crispedges; }
.grid .tick { stroke: #d3d3d3; opacity: 0.7; }
.grid path { stroke-width: 0px; }
.line { stroke-width: 1.5pt; fill: rgba(0, 0, 0, 0.0); }
.label.Javascript, .slice.Javascript { fill: #e31a1c; }
.line.Javascript { stroke: #e31a1c; }
.label.Ruby, .slice.Ruby { fill: #fc4e2a; }
.line.Ruby { stroke: #fc4e2a; }
.label.Python, .slice.Python { fill: #fd8d3c; }
.line.Python { stroke: #fd8d3c; }
.label.Csharp, .slice.Csharp { fill: #bd0026; }
.line.Csharp { stroke: #bd0026; }
.label.PHP, .slice.PHP { fill: #78c679; }
.line.PHP { stroke: #78c679; }
.label.XML_Schema, .slice.XML_Schema { fill: #41ab5d; }
.line.XML_Schema { stroke: #41ab5d; }
.label.SQL, .slice.SQL { fill: #238443; }
.line.SQL { stroke: #238443; }
.label.Perl, .slice.Perl { fill: #006837; }
.line.Perl { stroke: #006837; }
.label.C, .slice.C { fill: #41b6c4; }
.line.C { stroke: #41b6c4; }
.label.Cplusplus, .slice.Cplusplus { fill: #1d91c0; }
.line.Cplusplus { stroke: #1d91c0; }
.label.Java, .slice.Java { fill: #225ea8; }
.line.Java { stroke: #225ea8; }
.label.VisualBasicNET, .slice.VisualBasicNET { fill: #253494; }
.line.VisualBasicNET { stroke: #253494; }
.label.Autoconf, .slice.Autoconf { fill: #f768a1; }
.line.Autoconf { stroke: #f768a1; }
.label.Assembler, .slice.Assembler { fill: #dd3497; }
.line.Assembler { stroke: #dd3497; }
.label.Shell, .slice.Shell { fill: #ae017e; }
.line.Shell { stroke: #ae017e; }
.label.Make, .slice.Make { fill: #7a0177; }
.line.Make { stroke: #7a0177; }
.label.Swift, .slice.Swift { fill: #addd8e; }
.line.Swift { stroke: #addd8e; }
.label.ObjectiveC, .slice.ObjectiveC, .label.iOS, .slice.iOS { fill: #78c679; }
.line.ObjectiveC, .line.iOS { stroke: #78c679; }
.label.CSS, .slice.CSS { fill: #41ab5d; }
.line.CSS { stroke: #41ab5d; }
.slice.Arduino__Raspberry_Pi { fill: #7fcdbb; }
.line.Arduino__Raspberry_Pi { stroke: #7fcdbb; }
.slice.Android { fill: #41b6c4; }
.line.Android { stroke: #41b6c4; }
.label.AngularJS, .slice.AngularJS { fill: #feb24c; }
.line.AngularJS { stroke: #feb24c; }
.label.Nodejs, .slice.Nodejs { fill: #fd8d3c; }
.line.Nodejs { stroke: #fd8d3c; }
.label.Bower { fill: #bd0026; }
.line.Bower { stroke: #bd0026; }
.label.npm { fill: #e31a1c; }
.line.npm { stroke: #e31a1c; }
.label.PyPI { fill: #fd8d3c; }
.line.PyPI { stroke: #fd8d3c; }
.label.Rubygems { fill: #fc4e2a; }
.line.Rubygems { stroke: #fc4e2a; }
.label.Clojars { fill: #000000; }
.line.Clojars { stroke: #000000; }
.label.Hackage { fill: #000000; }
.line.Hackage { stroke: #000000; }
.label.Hex { fill: #000000; }
.line.Hex { stroke: #000000; }
.label.LuaRocks { fill: #000000; }
.line.LuaRocks { stroke: #000000; }
.label.CPAN { fill: #41ab5d; }
.line.CPAN { stroke: #41ab5d; }
.label.CPAN_search { fill: #000000; }
.line.CPAN_search { stroke: #000000; }
.label.CRAN { fill: #000000; }
.line.CRAN { stroke: #000000; }
.label.Perl6Eco { fill: #006837; }
.line.Perl6Eco { stroke: #006837; }
.label.Drupal { fill: #000000; }
.line.Drupal { stroke: #000000; }
.label.Packagist { fill: #dd3497; }
.line.Packagist { stroke: #dd3497; }
.label.Pear { fill: #8996b8; }
.line.Pear { stroke: #8996b8; }
.label.MELPA { fill: #000000; }
.line.MELPA { stroke: #000000; }
.label.Crates { fill: #000000; }
.line.Crates { stroke: #000000; }
.label.GoDoc { fill: #41b6c4; }
.line.GoDoc { stroke: #41b6c4; }
.label.Maven { fill: #225ea8; }
.line.Maven { stroke: #225ea8; }
.label.nugets { fill: #253494; }
.line.nugets { stroke: #253494; }
.slice.nocont { fill: #feb24c; }
.line.nocont { stroke: #feb24c; }
.slice.eval { fill: #fd8d3c; }
.line.eval { stroke: #fd8d3c; }
.slice.lib { fill: #fc4e2a; }
.line.lib { stroke: #fc4e2a; }
.slice.err { fill: #e31a1c; }
.line.err { stroke: #e31a1c; }
.slice.fail { fill: #bd0026; }
.line.fail { stroke: #bd0026; }
.slice.notest { fill: #800026; }
.line.notest { stroke: #800026; }
.slice.ok { fill: #7fcdbb; }
.line.ok { stroke: #7fcdbb; }
svg { overflow-x: visible; overflow-y: visible; border-top-width: 2px; border-right-width: 2px; border-bottom-width: 2px; border-left-width: 2px; border-top-style: dotted; border-right-style: dotted; border-bottom-style: dotted; border-left-style: dotted; border-top-color: black; border-right-color: black; border-bottom-color: black; border-left-color: black; }]]></style></defs><g transform="translate(280,280)"><g class="slices"><path class="slice Javascript" d="M4.2862637970157365e-15,-70A70,70 0 0,1 69.99973719012328,-0.19181583269034705L50.39981077688876,-0.13810739953704987A50.4,50.4 0 0,0 3.08610993385133e-15,-50.4Z"></path><path class="slice C" d="M69.99973719012328,-0.19181583269034705A70,70 0 0,1 2.549461465846784,69.95355778110333L1.8356122554096843,50.3665616023944A50.4,50.4 0 0,0 50.39981077688876,-0.13810739953704987Z"></path><path class="slice Cplusplus" d="M2.549461465846784,69.95355778110333A70,70 0 0,1 -64.9665488385229,26.06429611579448L-46.775915163736485,18.766293203372026A50.4,50.4 0 0,0 1.8356122554096843,50.3665616023944Z"></path><path class="slice Java" d="M-64.9665488385229,26.06429611579448A70,70 0 0,1 -61.8844367427446,-32.715691785949474L-44.55679445477611,-23.555298085883624A50.4,50.4 0 0,0 -46.775915163736485,18.766293203372026Z"></path><path class="slice PHP" d="M-61.8844367427446,-32.715691785949474A70,70 0 0,1 -54.97655077128366,-43.33103812848787L-39.58311655532424,-31.198347452511268A50.4,50.4 0 0,0 -44.55679445477611,-23.555298085883624Z"></path><path class="slice XML_Schema" d="M-54.97655077128366,-43.33103812848787A70,70 0 0,1 -47.740343651463405,-51.194331600678L-34.37304742905365,-36.859918752488156A50.4,50.4 0 0,0 -39.58311655532424,-31.198347452511268Z"></path><path class="slice Ruby" d="M-47.740343651463405,-51.194331600678A70,70 0 0,1 -40.06044133659174,-57.40349327277472L-28.843517762346053,-41.330515156397794A50.4,50.4 0 0,0 -34.37304742905365,-36.859918752488156Z"></path><path class="slice Autoconf" d="M-40.06044133659174,-57.40349327277472A70,70 0 0,1 -31.94510501423737,-62.28571477978997L-23.000475610250906,-44.84571464144877A50.4,50.4 0 0,0 -28.843517762346053,-41.330515156397794Z"></path><path class="slice Python" d="M-31.94510501423737,-62.28571477978997A70,70 0 0,1 -23.92491598576723,-65.78448445548524L-17.225939509752408,-47.36482880794937A50.4,50.4 0 0,0 -23.000475610250906,-44.84571464144877Z"></path><path class="slice Csharp" d="M-23.92491598576723,-65.78448445548524A70,70 0 0,1 -18.681616890212478,-67.46107907799376L-13.450764160952986,-48.57197693615551A50.4,50.4 0 0,0 -17.225939509752408,-47.36482880794937Z"></path><path class="slice Assembler" d="M-18.681616890212478,-67.46107907799376A70,70 0 0,1 -14.119417324641153,-68.56122850717178L-10.16598047374163,-49.364084525163676A50.4,50.4 0 0,0 -13.450764160952986,-48.57197693615551Z"></path><path class="slice Shell" d="M-14.119417324641153,-68.56122850717178A70,70 0 0,1 -10.208696229653816,-69.25158858315564L-7.350261285350747,-49.86114377987206A50.4,50.4 0 0,0 -10.16598047374163,-49.364084525163676Z"></path><path class="slice SQL" d="M-10.208696229653816,-69.25158858315564A70,70 0 0,1 -6.624650633554846,-69.68582355101603L-4.769748456159489,-50.173792956731546A50.4,50.4 0 0,0 -7.350261285350747,-49.86114377987206Z"></path><path class="slice Make" d="M-6.624650633554846,-69.68582355101603A70,70 0 0,1 -3.2935067740458894,-69.92247716671166L-2.37132487731304,-50.3441835600324A50.4,50.4 0 0,0 -4.769748456159489,-50.173792956731546Z"></path><path class="slice Perl" d="M-3.2935067740458894,-69.92247716671166A70,70 0 0,1 -1.2858791391047208e-14,-70L-9.258329801553989e-15,-50.4A50.4,50.4 0 0,0 -2.37132487731304,-50.3441835600324Z"></path></g><g class="labels"><text dy=".35em" transform="translate(84,-55.513074877171384)" style="font-family: 'Gotham Rounded'; text-anchor: start; ">Javascript (      24.32%)</text><text dy=".35em" transform="translate(84,54.34089591682118)" style="font-family: 'Gotham Rounded'; text-anchor: start; ">C (               23.84%)</text><text dy=".35em" transform="translate(-84,65.73226450649162)" style="font-family: 'Gotham Rounded'; text-anchor: end; ">C++ (             19.01%)</text><text dy=".35em" transform="translate(-84,-4.105242297171229)" style="font-family: 'Gotham Rounded'; text-anchor: end; ">Java (            13.46%)</text><text dy=".35em" transform="translate(-84,-42.76150619943542)" style="font-family: 'Gotham Rounded'; text-anchor: end; ">PHP (              2.81%)</text><text dy=".35em" transform="translate(-84,-62.76150619943542)" style="font-family: 'Gotham Rounded'; text-anchor: end; ">XML Schema (       2.37%)</text><text dy=".35em" transform="translate(-84,-82.76150619943542)" style="font-family: 'Gotham Rounded'; text-anchor: end; ">Ruby (             2.19%)</text><text dy=".35em" transform="translate(-84,-102.76150619943542)" style="font-family: 'Gotham Rounded'; text-anchor: end; ">Autoconf (         2.10%)</text><text dy=".35em" transform="translate(-84,-122.76150619943542)" style="font-family: 'Gotham Rounded'; text-anchor: end; ">Python (           1.94%)</text><text dy=".35em" transform="translate(-84,-142.76150619943542)" style="font-family: 'Gotham Rounded'; text-anchor: end; ">C# (               1.22%)</text><text dy=".35em" transform="translate(-84,-162.76150619943542)" style="font-family: 'Gotham Rounded'; text-anchor: end; ">Assembler (        1.04%)</text><text dy=".35em" transform="translate(-84,-182.76150619943542)" style="font-family: 'Gotham Rounded'; text-anchor: end; ">Shell (            0.88%)</text><text dy=".35em" transform="translate(-84,-202.76150619943542)" style="font-family: 'Gotham Rounded'; text-anchor: end; ">SQL (              0.80%)</text><text dy=".35em" transform="translate(-84,-222.76150619943542)" style="font-family: 'Gotham Rounded'; text-anchor: end; ">Make (             0.74%)</text><text dy=".35em" transform="translate(-84,-242.76150619943542)" style="font-family: 'Gotham Rounded'; text-anchor: end; ">Perl (             0.73%)</text></g><g class="lines"><polyline fill="none" class="line Javascript" stroke-linecap="round" points="42.50946547952559,-42.62611106639946,55.361164345428676,-55.513074877171384,78.39999999999999,-55.513074877171384"></polyline><polyline fill="none" class="line C" stroke-linecap="round" points="43.39328475773973,41.726045078987696,56.51218480077733,54.34089591682118,78.39999999999999,54.34089591682118"></polyline><polyline fill="none" class="line Cplusplus" stroke-linecap="round" points="-32.810324591964516,50.472988817484634,-42.729725050000305,65.73226450649162,-78.39999999999999,65.73226450649162"></polyline><polyline fill="none" class="line Java" stroke-linecap="round" points="-60.117413329014184,-3.152239621042193,-78.29244526569289,-4.105242297171229,-78.39999999999999,-4.105242297171229"></polyline><polyline fill="none" class="line PHP" stroke-linecap="round" points="-50.4571168303959,-32.83472797456648,-65.71159401167839,-42.76150619943542,-78.39999999999999,-42.76150619943542"></polyline><polyline fill="none" class="line XML_Schema" stroke-linecap="round" points="-44.29749677890446,-40.76483508028641,-68.20038921372107,-62.76150619943542,-78.39999999999999,-62.76150619943542"></polyline><polyline fill="none" class="line Ruby" stroke-linecap="round" points="-37.84862719421448,-46.81368837758213,-66.91225371752874,-82.76150619943542,-78.39999999999999,-82.76150619943542"></polyline><polyline fill="none" class="line Autoconf" stroke-linecap="round" points="-31.03347504009024,-51.584527010878915,-61.82176754377731,-102.76150619943542,-78.39999999999999,-102.76150619943542"></polyline><polyline fill="none" class="line Python" stroke-linecap="round" points="-24.071170465030523,-55.17806405124633,-53.55412867559215,-122.76150619943542,-78.39999999999999,-122.76150619943542"></polyline><polyline fill="none" class="line Csharp" stroke-linecap="round" points="-18.33498829255439,-57.33993551018255,-45.649345809418506,-142.76150619943542,-78.39999999999999,-142.76150619943542"></polyline><polyline fill="none" class="line Assembler" stroke-linecap="round" points="-14.112375789841805,-58.522481573889934,-39.24904545797481,-162.76150619943542,-78.39999999999999,-162.76150619943542"></polyline><polyline fill="none" class="line Shell" stroke-linecap="round" points="-10.465299912866513,-59.28336611338594,-32.26291117218519,-182.76150619943542,-78.39999999999999,-182.76150619943542"></polyline><polyline fill="none" class="line SQL" stroke-linecap="round" points="-7.240747089413726,-59.76296161994607,-24.5661316986792,-202.76150619943542,-78.39999999999999,-202.76150619943542"></polyline><polyline fill="none" class="line Make" stroke-linecap="round" points="-4.266021554632295,-60.048655772593385,-15.825589678276753,-222.76150619943542,-78.39999999999999,-222.76150619943542"></polyline><polyline fill="none" class="line Perl" stroke-linecap="round" points="-1.416600177361925,-60.183330282873996,-5.714140296364245,-242.76150619943542,-78.39999999999999,-242.76150619943542"></polyline></g></g></svg>