<?xml version="1.0" standalone="no"?><!DOCTYPE svg PUBLIC "-//W3C//DTD SVG 1.1//EN" "http://www.w3.org/Graphics/SVG/1.1/DTD/svg11.dtd"><svg width="600" height="300" class="chart" filename="github-languages.svg" version="1.1" xmlns="http://www.w3.org/2000/svg" xlink="http://www.w3.org/1999/xlink"><defs><style type="text/css"><![CDATA[
html, body  { width: 1000px; height: 100%; margin-top: auto; margin-right: auto; margin-bottom: auto; margin-left: auto; }
text { font-family: Helvetica; color: blue; }
.axis path, .axis line { fill: none; stroke: #000000; shape-rendering: crispedges; }
.grid .tick { stroke: #d3d3d3; opacity: 0.7; }
.grid path { stroke-width: 0px; }
.line { stroke-width: 1.5pt; fill: rgba(0, 0, 0, 0.0); }
.label.Javascript, .slice.Javascript { fill: #e31a1c; }
.line.Javascript { stroke: #e31a1c; }
.label.Ruby, .slice.Ruby { fill: #fc4e2a; }
.line.Ruby { stroke: #fc4e2a; }
.label.Python, .slice.Python { fill: #fd8d3c; }
.line.Python { stroke: #fd8d3c; }
.label.Csharp, .slice.Csharp { fill: #bd0026; }
.line.Csharp { stroke: #bd0026; }
.label.PHP, .slice.PHP { fill: #78c679; }
.line.PHP { stroke: #78c679; }
.label.XML_Schema, .slice.XML_Schema { fill: #41ab5d; }
.line.XML_Schema { stroke: #41ab5d; }
.label.SQL, .slice.SQL { fill: #238443; }
.line.SQL { stroke: #238443; }
.label.Perl, .slice.Perl { fill: #006837; }
.line.Perl { stroke: #006837; }
.label.C, .slice.C { fill: #41b6c4; }
.line.C { stroke: #41b6c4; }
.label.Cplusplus, .slice.Cplusplus { fill: #1d91c0; }
.line.Cplusplus { stroke: #1d91c0; }
.label.Java, .slice.Java { fill: #225ea8; }
.line.Java { stroke: #225ea8; }
.label.VisualBasicNET, .slice.VisualBasicNET { fill: #253494; }
.line.VisualBasicNET { stroke: #253494; }
.label.Autoconf, .slice.Autoconf { fill: #f768a1; }
.line.Autoconf { stroke: #f768a1; }
.label.Assembler, .slice.Assembler { fill: #dd3497; }
.line.Assembler { stroke: #dd3497; }
.label.Shell, .slice.Shell { fill: #ae017e; }
.line.Shell { stroke: #ae017e; }
.label.Make, .slice.Make { fill: #7a0177; }
.line.Make { stroke: #7a0177; }
.label.Swift, .slice.Swift { fill: #addd8e; }
.line.Swift { stroke: #addd8e; }
.label.ObjectiveC, .slice.ObjectiveC, .label.iOS, .slice.iOS { fill: #78c679; }
.line.ObjectiveC, .line.iOS { stroke: #78c679; }
.label.CSS, .slice.CSS { fill: #41ab5d; }
.line.CSS { stroke: #41ab5d; }
.slice.Arduino__Raspberry_Pi { fill: #7fcdbb; }
.line.Arduino__Raspberry_Pi { stroke: #7fcdbb; }
.slice.Android { fill: #41b6c4; }
.line.Android { stroke: #41b6c4; }
.label.AngularJS, .slice.AngularJS { fill: #feb24c; }
.line.AngularJS { stroke: #feb24c; }
.label.Nodejs, .slice.Nodejs { fill: #fd8d3c; }
.line.Nodejs { stroke: #fd8d3c; }
.label.Bower { fill: #bd0026; }
.line.Bower { stroke: #bd0026; }
.label.npm { fill: #e31a1c; }
.line.npm { stroke: #e31a1c; }
.label.PyPI { fill: #fd8d3c; }
.line.PyPI { stroke: #fd8d3c; }
.label.Rubygems { fill: #fc4e2a; }
.line.Rubygems { stroke: #fc4e2a; }
.label.Clojars { fill: #000000; }
.line.Clojars { stroke: #000000; }
.label.Hackage { fill: #000000; }
.line.Hackage { stroke: #000000; }
.label.Hex { fill: #000000; }
.line.Hex { stroke: #000000; }
.label.LuaRocks { fill: #000000; }
.line.LuaRocks { stroke: #000000; }
.label.CPAN { fill: #41ab5d; }
.line.CPAN { stroke: #41ab5d; }
.label.CPAN_search { fill: #000000; }
.line.CPAN_search { stroke: #000000; }
.label.CRAN { fill: #000000; }
.line.CRAN { stroke: #000000; }
.label.Perl { fill: #006837; }
.line.Perl { stroke: #006837; }
.label.Drupal { fill: #000000; }
.line.Drupal { stroke: #000000; }
.label.Packagist { fill: #dd3497; }
.line.Packagist { stroke: #dd3497; }
.label.Pear { fill: #8996b8; }
.line.Pear { stroke: #8996b8; }
.label.MELPA { fill: #000000; }
.line.MELPA { stroke: #000000; }
.label.Crates { fill: #000000; }
.line.Crates { stroke: #000000; }
.label.GoDoc { fill: #41b6c4; }
.line.GoDoc { stroke: #41b6c4; }
.label.Maven { fill: #225ea8; }
.line.Maven { stroke: #225ea8; }
.label.nugets { fill: #253494; }
.line.nugets { stroke: #253494; }
.slice.nocont { fill: #feb24c; }
.line.nocont { stroke: #feb24c; }
.slice.eval { fill: #fd8d3c; }
.line.eval { stroke: #fd8d3c; }
.slice.lib { fill: #fc4e2a; }
.line.lib { stroke: #fc4e2a; }
.slice.err { fill: #e31a1c; }
.line.err { stroke: #e31a1c; }
.slice.fail { fill: #bd0026; }
.line.fail { stroke: #bd0026; }
.slice.notest { fill: #800026; }
.line.notest { stroke: #800026; }
.slice.ok { fill: #7fcdbb; }
.line.ok { stroke: #7fcdbb; }
svg { overflow-x: visible; overflow-y: visible; border-top-width: 2px; border-right-width: 2px; border-bottom-width: 2px; border-left-width: 2px; border-top-style: dotted; border-right-style: dotted; border-bottom-style: dotted; border-left-style: dotted; border-top-color: black; border-right-color: black; border-bottom-color: black; border-left-color: black; }]]></style></defs><g transform="translate(20,20)"><g class="x axis" transform="translate(0,260)"><g class="tick" style="opacity: 1; " transform="translate(0,0)"><line y2="6" x2="0" stroke-width="1pt"></line><text dy="3pt" style="text-anchor: middle; font-family: cmr10; " y="14" x="0">2008</text></g><g class="tick" style="opacity: 1; " transform="translate(6.7892061008994915,0)"><line y2="3" x2="0" stroke-width="0.4pt"></line></g><g class="tick" style="opacity: 1; " transform="translate(13.140398904966759,0)"><line y2="3" x2="0" stroke-width="0.4pt"></line></g><g class="tick" style="opacity: 1; " transform="translate(19.92047972884891,0)"><line y2="3" x2="0" stroke-width="0.4pt"></line></g><g class="tick" style="opacity: 1; " transform="translate(26.490679181332293,0)"><line y2="3" x2="0" stroke-width="0.4pt"></line></g><g class="tick" style="opacity: 1; " transform="translate(33.27988528223178,0)"><line y2="3" x2="0" stroke-width="0.4pt"></line></g><g class="tick" style="opacity: 1; " transform="translate(39.85008473471516,0)"><line y2="3" x2="0" stroke-width="0.4pt"></line></g><g class="tick" style="opacity: 1; " transform="translate(46.63929083561465,0)"><line y2="3" x2="0" stroke-width="0.4pt"></line></g><g class="tick" style="opacity: 1; " transform="translate(53.428496936514144,0)"><line y2="3" x2="0" stroke-width="0.4pt"></line></g><g class="tick" style="opacity: 1; " transform="translate(59.99869638899752,0)"><line y2="3" x2="0" stroke-width="0.4pt"></line></g><g class="tick" style="opacity: 1; " transform="translate(66.79702776691435,0)"><line y2="3" x2="0" stroke-width="0.4pt"></line></g><g class="tick" style="opacity: 1; " transform="translate(73.36722721939773,0)"><line y2="3" x2="0" stroke-width="0.4pt"></line></g><g class="tick" style="opacity: 1; " transform="translate(80.15643332029723,0)"><line y2="6" x2="0" stroke-width="1pt"></line></g><g class="tick" style="opacity: 1; " transform="translate(86.9456394211967,0)"><line y2="3" x2="0" stroke-width="0.4pt"></line></g><g class="tick" style="opacity: 1; " transform="translate(93.07782557684787,0)"><line y2="3" x2="0" stroke-width="0.4pt"></line></g><g class="tick" style="opacity: 1; " transform="translate(99.85790640073003,0)"><line y2="3" x2="0" stroke-width="0.4pt"></line></g><g class="tick" style="opacity: 1; " transform="translate(106.4281058532134,0)"><line y2="3" x2="0" stroke-width="0.4pt"></line></g><g class="tick" style="opacity: 1; " transform="translate(113.2173119541129,0)"><line y2="3" x2="0" stroke-width="0.4pt"></line></g><g class="tick" style="opacity: 1; " transform="translate(119.78751140659627,0)"><line y2="3" x2="0" stroke-width="0.4pt"></line></g><g class="tick" style="opacity: 1; " transform="translate(126.57671750749576,0)"><line y2="3" x2="0" stroke-width="0.4pt"></line></g><g class="tick" style="opacity: 1; " transform="translate(133.36592360839526,0)"><line y2="3" x2="0" stroke-width="0.4pt"></line></g><g class="tick" style="opacity: 1; " transform="translate(139.93612306087863,0)"><line y2="3" x2="0" stroke-width="0.4pt"></line></g><g class="tick" style="opacity: 1; " transform="translate(146.73445443879547,0)"><line y2="3" x2="0" stroke-width="0.4pt"></line></g><g class="tick" style="opacity: 1; " transform="translate(153.30465389127883,0)"><line y2="3" x2="0" stroke-width="0.4pt"></line></g><g class="tick" style="opacity: 1; " transform="translate(160.09385999217835,0)"><line y2="6" x2="0" stroke-width="1pt"></line><text dy="3pt" style="text-anchor: middle; font-family: cmr10; " y="14" x="0">2010</text></g><g class="tick" style="opacity: 1; " transform="translate(166.88306609307782,0)"><line y2="3" x2="0" stroke-width="0.4pt"></line></g><g class="tick" style="opacity: 1; " transform="translate(173.01525224872898,0)"><line y2="3" x2="0" stroke-width="0.4pt"></line></g><g class="tick" style="opacity: 1; " transform="translate(179.79533307261113,0)"><line y2="3" x2="0" stroke-width="0.4pt"></line></g><g class="tick" style="opacity: 1; " transform="translate(186.3655325250945,0)"><line y2="3" x2="0" stroke-width="0.4pt"></line></g><g class="tick" style="opacity: 1; " transform="translate(193.154738625994,0)"><line y2="3" x2="0" stroke-width="0.4pt"></line></g><g class="tick" style="opacity: 1; " transform="translate(199.72493807847738,0)"><line y2="3" x2="0" stroke-width="0.4pt"></line></g><g class="tick" style="opacity: 1; " transform="translate(206.51414417937687,0)"><line y2="3" x2="0" stroke-width="0.4pt"></line></g><g class="tick" style="opacity: 1; " transform="translate(213.30335028027636,0)"><line y2="3" x2="0" stroke-width="0.4pt"></line></g><g class="tick" style="opacity: 1; " transform="translate(219.87354973275976,0)"><line y2="3" x2="0" stroke-width="0.4pt"></line></g><g class="tick" style="opacity: 1; " transform="translate(226.67188111067657,0)"><line y2="3" x2="0" stroke-width="0.4pt"></line></g><g class="tick" style="opacity: 1; " transform="translate(233.24208056315996,0)"><line y2="3" x2="0" stroke-width="0.4pt"></line></g><g class="tick" style="opacity: 1; " transform="translate(240.03128666405945,0)"><line y2="6" x2="0" stroke-width="1pt"></line></g><g class="tick" style="opacity: 1; " transform="translate(246.82049276495894,0)"><line y2="3" x2="0" stroke-width="0.4pt"></line></g><g class="tick" style="opacity: 1; " transform="translate(252.95267892061008,0)"><line y2="3" x2="0" stroke-width="0.4pt"></line></g><g class="tick" style="opacity: 1; " transform="translate(259.7327597444922,0)"><line y2="3" x2="0" stroke-width="0.4pt"></line></g><g class="tick" style="opacity: 1; " transform="translate(266.3029591969756,0)"><line y2="3" x2="0" stroke-width="0.4pt"></line></g><g class="tick" style="opacity: 1; " transform="translate(273.0921652978751,0)"><line y2="3" x2="0" stroke-width="0.4pt"></line></g><g class="tick" style="opacity: 1; " transform="translate(279.6623647503585,0)"><line y2="3" x2="0" stroke-width="0.4pt"></line></g><g class="tick" style="opacity: 1; " transform="translate(286.451570851258,0)"><line y2="3" x2="0" stroke-width="0.4pt"></line></g><g class="tick" style="opacity: 1; " transform="translate(293.2407769521575,0)"><line y2="3" x2="0" stroke-width="0.4pt"></line></g><g class="tick" style="opacity: 1; " transform="translate(299.8109764046408,0)"><line y2="3" x2="0" stroke-width="0.4pt"></line></g><g class="tick" style="opacity: 1; " transform="translate(306.60930778255766,0)"><line y2="3" x2="0" stroke-width="0.4pt"></line></g><g class="tick" style="opacity: 1; " transform="translate(313.17950723504106,0)"><line y2="3" x2="0" stroke-width="0.4pt"></line></g><g class="tick" style="opacity: 1; " transform="translate(319.96871333594055,0)"><line y2="6" x2="0" stroke-width="1pt"></line><text dy="3pt" style="text-anchor: middle; font-family: cmr10; " y="14" x="0">2012</text></g><g class="tick" style="opacity: 1; " transform="translate(326.75791943684004,0)"><line y2="3" x2="0" stroke-width="0.4pt"></line></g><g class="tick" style="opacity: 1; " transform="translate(333.10911224090734,0)"><line y2="3" x2="0" stroke-width="0.4pt"></line></g><g class="tick" style="opacity: 1; " transform="translate(339.8891930647895,0)"><line y2="3" x2="0" stroke-width="0.4pt"></line></g><g class="tick" style="opacity: 1; " transform="translate(346.4593925172729,0)"><line y2="3" x2="0" stroke-width="0.4pt"></line></g><g class="tick" style="opacity: 1; " transform="translate(353.24859861817237,0)"><line y2="3" x2="0" stroke-width="0.4pt"></line></g><g class="tick" style="opacity: 1; " transform="translate(359.8187980706557,0)"><line y2="3" x2="0" stroke-width="0.4pt"></line></g><g class="tick" style="opacity: 1; " transform="translate(366.60800417155525,0)"><line y2="3" x2="0" stroke-width="0.4pt"></line></g><g class="tick" style="opacity: 1; " transform="translate(373.39721027245474,0)"><line y2="3" x2="0" stroke-width="0.4pt"></line></g><g class="tick" style="opacity: 1; " transform="translate(379.9674097249381,0)"><line y2="3" x2="0" stroke-width="0.4pt"></line></g><g class="tick" style="opacity: 1; " transform="translate(386.76574110285486,0)"><line y2="3" x2="0" stroke-width="0.4pt"></line></g><g class="tick" style="opacity: 1; " transform="translate(393.3359405553383,0)"><line y2="3" x2="0" stroke-width="0.4pt"></line></g><g class="tick" style="opacity: 1; " transform="translate(400.12514665623775,0)"><line y2="6" x2="0" stroke-width="1pt"></line></g><g class="tick" style="opacity: 1; " transform="translate(406.91435275713724,0)"><line y2="3" x2="0" stroke-width="0.4pt"></line></g><g class="tick" style="opacity: 1; " transform="translate(413.04653891278844,0)"><line y2="3" x2="0" stroke-width="0.4pt"></line></g><g class="tick" style="opacity: 1; " transform="translate(419.8266197366706,0)"><line y2="3" x2="0" stroke-width="0.4pt"></line></g><g class="tick" style="opacity: 1; " transform="translate(426.396819189154,0)"><line y2="3" x2="0" stroke-width="0.4pt"></line></g><g class="tick" style="opacity: 1; " transform="translate(433.18602529005346,0)"><line y2="3" x2="0" stroke-width="0.4pt"></line></g><g class="tick" style="opacity: 1; " transform="translate(439.75622474253686,0)"><line y2="3" x2="0" stroke-width="0.4pt"></line></g><g class="tick" style="opacity: 1; " transform="translate(446.5454308434363,0)"><line y2="3" x2="0" stroke-width="0.4pt"></line></g><g class="tick" style="opacity: 1; " transform="translate(453.3346369443358,0)"><line y2="3" x2="0" stroke-width="0.4pt"></line></g><g class="tick" style="opacity: 1; " transform="translate(459.9048363968192,0)"><line y2="3" x2="0" stroke-width="0.4pt"></line></g><g class="tick" style="opacity: 1; " transform="translate(466.703167774736,0)"><line y2="3" x2="0" stroke-width="0.4pt"></line></g><g class="tick" style="opacity: 1; " transform="translate(473.27336722721935,0)"><line y2="3" x2="0" stroke-width="0.4pt"></line></g><g class="tick" style="opacity: 1; " transform="translate(480.0625733281189,0)"><line y2="6" x2="0" stroke-width="1pt"></line><text dy="3pt" style="text-anchor: middle; font-family: cmr10; " y="14" x="0">2014</text></g><g class="tick" style="opacity: 1; " transform="translate(486.8517794290184,0)"><line y2="3" x2="0" stroke-width="0.4pt"></line></g><g class="tick" style="opacity: 1; " transform="translate(492.98396558466953,0)"><line y2="3" x2="0" stroke-width="0.4pt"></line></g><g class="tick" style="opacity: 1; " transform="translate(499.7640464085517,0)"><line y2="3" x2="0" stroke-width="0.4pt"></line></g><g class="tick" style="opacity: 1; " transform="translate(506.334245861035,0)"><line y2="3" x2="0" stroke-width="0.4pt"></line></g><g class="tick" style="opacity: 1; " transform="translate(513.1234519619346,0)"><line y2="3" x2="0" stroke-width="0.4pt"></line></g><g class="tick" style="opacity: 1; " transform="translate(519.6936514144179,0)"><line y2="3" x2="0" stroke-width="0.4pt"></line></g><g class="tick" style="opacity: 1; " transform="translate(526.4828575153174,0)"><line y2="3" x2="0" stroke-width="0.4pt"></line></g><g class="tick" style="opacity: 1; " transform="translate(533.272063616217,0)"><line y2="3" x2="0" stroke-width="0.4pt"></line></g><g class="tick" style="opacity: 1; " transform="translate(539.8422630687003,0)"><line y2="3" x2="0" stroke-width="0.4pt"></line></g><g class="tick" style="opacity: 1; " transform="translate(546.6405944466171,0)"><line y2="3" x2="0" stroke-width="0.4pt"></line></g><g class="tick" style="opacity: 1; " transform="translate(553.2107938991005,0)"><line y2="3" x2="0" stroke-width="0.4pt"></line></g><g class="tick" style="opacity: 1; " transform="translate(560,0)"><line y2="6" x2="0" stroke-width="1pt"></line></g><path class="domain" d="M0,6V0H560V6"></path></g><g class="y axis"><g class="tick" style="opacity: 1; " transform="translate(0,0)"><line x2="-6" y2="0"></line><text dy="3pt" style="text-anchor: end; font-family: cmr10; " x="-9" y="0">1</text></g><g class="tick" style="opacity: 1; " transform="translate(0,28.888888888888886)"><line x2="-6" y2="0"></line><text dy="3pt" style="text-anchor: end; font-family: cmr10; " x="-9" y="0">2</text></g><g class="tick" style="opacity: 1; " transform="translate(0,57.77777777777777)"><line x2="-6" y2="0"></line><text dy="3pt" style="text-anchor: end; font-family: cmr10; " x="-9" y="0">3</text></g><g class="tick" style="opacity: 1; " transform="translate(0,86.66666666666666)"><line x2="-6" y2="0"></line><text dy="3pt" style="text-anchor: end; font-family: cmr10; " x="-9" y="0">4</text></g><g class="tick" style="opacity: 1; " transform="translate(0,115.55555555555554)"><line x2="-6" y2="0"></line><text dy="3pt" style="text-anchor: end; font-family: cmr10; " x="-9" y="0">5</text></g><g class="tick" style="opacity: 1; " transform="translate(0,144.44444444444446)"><line x2="-6" y2="0"></line><text dy="3pt" style="text-anchor: end; font-family: cmr10; " x="-9" y="0">6</text></g><g class="tick" style="opacity: 1; " transform="translate(0,173.33333333333331)"><line x2="-6" y2="0"></line><text dy="3pt" style="text-anchor: end; font-family: cmr10; " x="-9" y="0">7</text></g><g class="tick" style="opacity: 1; " transform="translate(0,202.22222222222223)"><line x2="-6" y2="0"></line><text dy="3pt" style="text-anchor: end; font-family: cmr10; " x="-9" y="0">8</text></g><g class="tick" style="opacity: 1; " transform="translate(0,231.1111111111111)"><line x2="-6" y2="0"></line><text dy="3pt" style="text-anchor: end; font-family: cmr10; " x="-9" y="0">9</text></g><g class="tick" style="opacity: 1; " transform="translate(0,260)"><line x2="-6" y2="0"></line><text dy="3pt" style="text-anchor: end; font-family: cmr10; " x="-9" y="0">10</text></g><path class="domain" d="M-6,0H0V260H-6"></path></g><text transform="rotate(-90)" y="-30" x="-130" dy="1em" style="text-anchor: middle; font-family: cmr10; ">Rank</text><g class="serie"><path class="line ObjectiveC" d="M0,231.1111111111111L80.15643332029723,231.1111111111111L160.09385999217835,231.1111111111111L240.03128666405945,202.22222222222223L319.96871333594055,202.22222222222223L400.12514665623775,202.22222222222223L480.0625733281189,231.1111111111111" fill="none"></path></g><g class="serie"><path class="line C" d="M0,115.55555555555554L80.15643332029723,144.44444444444446L160.09385999217835,144.44444444444446L240.03128666405945,144.44444444444446L319.96871333594055,144.44444444444446L400.12514665623775,144.44444444444446L480.0625733281189,202.22222222222223L560,231.1111111111111" fill="none"></path></g><g class="serie"><path class="line Csharp" d="M240.03128666405945,260L319.96871333594055,231.1111111111111L400.12514665623775,231.1111111111111L480.0625733281189,260L560,202.22222222222223" fill="none"></path></g><g class="serie"><path class="line Cplusplus" d="M0,202.22222222222223L80.15643332029723,202.22222222222223L160.09385999217835,202.22222222222223L240.03128666405945,173.33333333333331L319.96871333594055,173.33333333333331L400.12514665623775,173.33333333333331L480.0625733281189,173.33333333333331L560,173.33333333333331" fill="none"></path></g><g class="serie"><path class="line CSS" d="M400.12514665623775,260L480.0625733281189,144.44444444444446L560,144.44444444444446" fill="none"></path></g><g class="serie"><path class="line Python" d="M0,57.77777777777777L80.15643332029723,57.77777777777777L160.09385999217835,57.77777777777777L240.03128666405945,57.77777777777777L319.96871333594055,115.55555555555554L400.12514665623775,115.55555555555554L480.0625733281189,115.55555555555554L560,115.55555555555554" fill="none"></path></g><g class="serie"><path class="line PHP" d="M0,86.66666666666666L80.15643332029723,86.66666666666666L160.09385999217835,86.66666666666666L240.03128666405945,86.66666666666666L319.96871333594055,86.66666666666666L400.12514665623775,86.66666666666666L480.0625733281189,86.66666666666666L560,86.66666666666666" fill="none"></path></g><g class="serie"><path class="line Ruby" d="M0,0L80.15643332029723,0L160.09385999217835,0L240.03128666405945,0L319.96871333594055,0L400.12514665623775,28.888888888888886L480.0625733281189,57.77777777777777L560,57.77777777777777" fill="none"></path></g><g class="serie"><path class="line Java" d="M0,173.33333333333331L80.15643332029723,173.33333333333331L160.09385999217835,115.55555555555554L240.03128666405945,115.55555555555554L319.96871333594055,57.77777777777777L400.12514665623775,57.77777777777777L480.0625733281189,28.888888888888886L560,28.888888888888886" fill="none"></path></g><g class="serie"><path class="line Javascript" d="M0,28.888888888888886L80.15643332029723,28.888888888888886L160.09385999217835,28.888888888888886L240.03128666405945,28.888888888888886L319.96871333594055,28.888888888888886L400.12514665623775,0L480.0625733281189,0L560,0" fill="none"></path></g><g class="label " transform="translate(590,0)"><circle cy="0" cx="0" r="0.4em" class="label Javascript"></circle><text y="2pt" x="8pt" style="font-family: cmr10; ">Javascript</text></g><g class="label " transform="translate(590,20)"><circle cy="0" cx="0" r="0.4em" class="label Java"></circle><text y="2pt" x="8pt" style="font-family: cmr10; ">Java</text></g><g class="label " transform="translate(590,40)"><circle cy="0" cx="0" r="0.4em" class="label Ruby"></circle><text y="2pt" x="8pt" style="font-family: cmr10; ">Ruby</text></g><g class="label " transform="translate(590,60)"><circle cy="0" cx="0" r="0.4em" class="label PHP"></circle><text y="2pt" x="8pt" style="font-family: cmr10; ">PHP</text></g><g class="label " transform="translate(590,80)"><circle cy="0" cx="0" r="0.4em" class="label Python"></circle><text y="2pt" x="8pt" style="font-family: cmr10; ">Python</text></g><g class="label " transform="translate(590,100)"><circle cy="0" cx="0" r="0.4em" class="label CSS"></circle><text y="2pt" x="8pt" style="font-family: cmr10; ">CSS</text></g><g class="label " transform="translate(590,120)"><circle cy="0" cx="0" r="0.4em" class="label Cplusplus"></circle><text y="2pt" x="8pt" style="font-family: cmr10; ">C++</text></g><g class="label " transform="translate(590,140)"><circle cy="0" cx="0" r="0.4em" class="label Csharp"></circle><text y="2pt" x="8pt" style="font-family: cmr10; ">C sharp</text></g><g class="label " transform="translate(590,160)"><circle cy="0" cx="0" r="0.4em" class="label C"></circle><text y="2pt" x="8pt" style="font-family: cmr10; ">C</text></g><g class="label " transform="translate(590,180)"><circle cy="0" cx="0" r="0.4em" class="label ObjectiveC"></circle><text y="2pt" x="8pt" style="font-family: cmr10; ">ObjectiveC</text></g></g></svg>