<?xml version="1.0" standalone="no"?><!DOCTYPE svg PUBLIC "-//W3C//DTD SVG 1.1//EN" "http://www.w3.org/Graphics/SVG/1.1/DTD/svg11.dtd"><svg width="600" height="300" class="chart" filename="javascript-timeline.svg" version="1.1" xmlns="http://www.w3.org/2000/svg" xlink="http://www.w3.org/1999/xlink"><defs><style type="text/css"><![CDATA[
html, body  { width: 1000px; height: 100%; margin-top: auto; margin-right: auto; margin-bottom: auto; margin-left: auto; }
text { font-family: Helvetica; color: blue; }
.axis path, .axis line { fill: none; stroke: #000000; shape-rendering: crispedges; }
.grid .tick { stroke: #d3d3d3; opacity: 0.7; }
.grid path { stroke-width: 0px; }
.line { stroke-width: 1.5pt; fill: rgba(0, 0, 0, 0.0); }
.label.Javascript, .slice.Javascript { fill: #e31a1c; }
.line.Javascript { stroke: #e31a1c; }
.label.Ruby, .slice.Ruby { fill: #fc4e2a; }
.line.Ruby { stroke: #fc4e2a; }
.label.Python, .slice.Python { fill: #fd8d3c; }
.line.Python { stroke: #fd8d3c; }
.label.Csharp, .slice.Csharp { fill: #bd0026; }
.line.Csharp { stroke: #bd0026; }
.label.PHP, .slice.PHP { fill: #78c679; }
.line.PHP { stroke: #78c679; }
.label.XML_Schema, .slice.XML_Schema { fill: #41ab5d; }
.line.XML_Schema { stroke: #41ab5d; }
.label.SQL, .slice.SQL { fill: #238443; }
.line.SQL { stroke: #238443; }
.label.Perl, .slice.Perl { fill: #006837; }
.line.Perl { stroke: #006837; }
.label.C, .slice.C { fill: #41b6c4; }
.line.C { stroke: #41b6c4; }
.label.Cplusplus, .slice.Cplusplus { fill: #1d91c0; }
.line.Cplusplus { stroke: #1d91c0; }
.label.Java, .slice.Java { fill: #225ea8; }
.line.Java { stroke: #225ea8; }
.label.VisualBasicNET, .slice.VisualBasicNET { fill: #253494; }
.line.VisualBasicNET { stroke: #253494; }
.label.Autoconf, .slice.Autoconf { fill: #f768a1; }
.line.Autoconf { stroke: #f768a1; }
.label.Assembler, .slice.Assembler { fill: #dd3497; }
.line.Assembler { stroke: #dd3497; }
.label.Shell, .slice.Shell { fill: #ae017e; }
.line.Shell { stroke: #ae017e; }
.label.Make, .slice.Make { fill: #7a0177; }
.line.Make { stroke: #7a0177; }
.label.Swift, .slice.Swift { fill: #addd8e; }
.line.Swift { stroke: #addd8e; }
.label.ObjectiveC, .slice.ObjectiveC, .label.iOS, .slice.iOS { fill: #78c679; }
.line.ObjectiveC, .line.iOS { stroke: #78c679; }
.label.CSS, .slice.CSS { fill: #41ab5d; }
.line.CSS { stroke: #41ab5d; }
.slice.Arduino__Raspberry_Pi { fill: #7fcdbb; }
.line.Arduino__Raspberry_Pi { stroke: #7fcdbb; }
.slice.Android { fill: #41b6c4; }
.line.Android { stroke: #41b6c4; }
.label.AngularJS, .slice.AngularJS { fill: #feb24c; }
.line.AngularJS { stroke: #feb24c; }
.label.Nodejs, .slice.Nodejs { fill: #fd8d3c; }
.line.Nodejs { stroke: #fd8d3c; }
.label.Bower { fill: #bd0026; }
.line.Bower { stroke: #bd0026; }
.label.npm { fill: #e31a1c; }
.line.npm { stroke: #e31a1c; }
.label.PyPI { fill: #fd8d3c; }
.line.PyPI { stroke: #fd8d3c; }
.label.Rubygems { fill: #fc4e2a; }
.line.Rubygems { stroke: #fc4e2a; }
.label.Clojars { fill: #000000; }
.line.Clojars { stroke: #000000; }
.label.Hackage { fill: #000000; }
.line.Hackage { stroke: #000000; }
.label.Hex { fill: #000000; }
.line.Hex { stroke: #000000; }
.label.LuaRocks { fill: #000000; }
.line.LuaRocks { stroke: #000000; }
.label.CPAN { fill: #41ab5d; }
.line.CPAN { stroke: #41ab5d; }
.label.CPAN_search { fill: #000000; }
.line.CPAN_search { stroke: #000000; }
.label.CRAN { fill: #000000; }
.line.CRAN { stroke: #000000; }
.label.Perl6Eco { fill: #006837; }
.line.Perl6Eco { stroke: #006837; }
.label.Drupal { fill: #000000; }
.line.Drupal { stroke: #000000; }
.label.Packagist { fill: #dd3497; }
.line.Packagist { stroke: #dd3497; }
.label.Pear { fill: #8996b8; }
.line.Pear { stroke: #8996b8; }
.label.MELPA { fill: #000000; }
.line.MELPA { stroke: #000000; }
.label.Crates { fill: #000000; }
.line.Crates { stroke: #000000; }
.label.GoDoc { fill: #41b6c4; }
.line.GoDoc { stroke: #41b6c4; }
.label.Maven { fill: #225ea8; }
.line.Maven { stroke: #225ea8; }
.label.nugets { fill: #253494; }
.line.nugets { stroke: #253494; }
.slice.nocont { fill: #feb24c; }
.line.nocont { stroke: #feb24c; }
.slice.eval { fill: #fd8d3c; }
.line.eval { stroke: #fd8d3c; }
.slice.lib { fill: #fc4e2a; }
.line.lib { stroke: #fc4e2a; }
.slice.err { fill: #e31a1c; }
.line.err { stroke: #e31a1c; }
.slice.fail { fill: #bd0026; }
.line.fail { stroke: #bd0026; }
.slice.notest { fill: #800026; }
.line.notest { stroke: #800026; }
.slice.ok { fill: #7fcdbb; }
.line.ok { stroke: #7fcdbb; }
svg { overflow-x: visible; overflow-y: visible; border-top-width: 2px; border-right-width: 2px; border-bottom-width: 2px; border-left-width: 2px; border-top-style: dotted; border-right-style: dotted; border-bottom-style: dotted; border-left-style: dotted; border-top-color: black; border-right-color: black; border-bottom-color: black; border-left-color: black; }]]></style></defs><g><g class="x axis" transform="translate(0,260)"><g class="tick" style="opacity: 1; " transform="translate(0,0)"><line y2="6" x2="0" stroke-width="0.4pt"></line></g><g class="tick" style="opacity: 1; " transform="translate(2.366412213740458,0)"><line y2="6" x2="0" stroke-width="0.4pt"></line></g><g class="tick" style="opacity: 1; " transform="translate(4.656488549618321,0)"><line y2="6" x2="0" stroke-width="0.4pt"></line></g><g class="tick" style="opacity: 1; " transform="translate(7.022900763358779,0)"><line y2="6" x2="0" stroke-width="0.4pt"></line></g><g class="tick" style="opacity: 1; " transform="translate(9.389312977099236,0)"><line y2="6" x2="0" stroke-width="0.4pt"></line></g><g class="tick" style="opacity: 1; " transform="translate(11.679389312977099,0)"><line y2="6" x2="0" stroke-width="0.4pt"></line></g><g class="tick" style="opacity: 1; " transform="translate(14.048982188295165,0)"><line y2="6" x2="0" stroke-width="0.4pt"></line></g><g class="tick" style="opacity: 1; " transform="translate(16.339058524173026,0)"><line y2="6" x2="0" stroke-width="0.4pt"></line></g><g class="tick" style="opacity: 1; " transform="translate(18.705470737913487,0)"><line y2="10" x2="0" stroke-width="1pt"></line><text dy="3pt" style="text-anchor: middle; font-family: cmr10; " y="14" x="0">1996</text></g><g class="tick" style="opacity: 1; " transform="translate(21.071882951653944,0)"><line y2="6" x2="0" stroke-width="0.4pt"></line></g><g class="tick" style="opacity: 1; " transform="translate(23.28562340966921,0)"><line y2="6" x2="0" stroke-width="0.4pt"></line></g><g class="tick" style="opacity: 1; " transform="translate(25.64885496183206,0)"><line y2="6" x2="0" stroke-width="0.4pt"></line></g><g class="tick" style="opacity: 1; " transform="translate(27.938931297709924,0)"><line y2="6" x2="0" stroke-width="0.4pt"></line></g><g class="tick" style="opacity: 1; " transform="translate(30.30534351145038,0)"><line y2="6" x2="0" stroke-width="0.4pt"></line></g><g class="tick" style="opacity: 1; " transform="translate(32.595419847328245,0)"><line y2="6" x2="0" stroke-width="0.4pt"></line></g><g class="tick" style="opacity: 1; " transform="translate(34.961832061068705,0)"><line y2="6" x2="0" stroke-width="0.4pt"></line></g><g class="tick" style="opacity: 1; " transform="translate(37.32824427480916,0)"><line y2="6" x2="0" stroke-width="0.4pt"></line></g><g class="tick" style="opacity: 1; " transform="translate(39.61832061068703,0)"><line y2="6" x2="0" stroke-width="0.4pt"></line></g><g class="tick" style="opacity: 1; " transform="translate(41.98791348600509,0)"><line y2="6" x2="0" stroke-width="0.4pt"></line></g><g class="tick" style="opacity: 1; " transform="translate(44.277989821882954,0)"><line y2="6" x2="0" stroke-width="0.4pt"></line></g><g class="tick" style="opacity: 1; " transform="translate(46.644402035623415,0)"><line y2="10" x2="0" stroke-width="1pt"></line></g><g class="tick" style="opacity: 1; " transform="translate(49.01081424936387,0)"><line y2="6" x2="0" stroke-width="0.4pt"></line></g><g class="tick" style="opacity: 1; " transform="translate(51.14821882951654,0)"><line y2="6" x2="0" stroke-width="0.4pt"></line></g><g class="tick" style="opacity: 1; " transform="translate(53.51145038167939,0)"><line y2="6" x2="0" stroke-width="0.4pt"></line></g><g class="tick" style="opacity: 1; " transform="translate(55.80152671755725,0)"><line y2="6" x2="0" stroke-width="0.4pt"></line></g><g class="tick" style="opacity: 1; " transform="translate(58.167938931297705,0)"><line y2="6" x2="0" stroke-width="0.4pt"></line></g><g class="tick" style="opacity: 1; " transform="translate(60.45801526717557,0)"><line y2="6" x2="0" stroke-width="0.4pt"></line></g><g class="tick" style="opacity: 1; " transform="translate(62.82442748091603,0)"><line y2="6" x2="0" stroke-width="0.4pt"></line></g><g class="tick" style="opacity: 1; " transform="translate(65.19083969465649,0)"><line y2="6" x2="0" stroke-width="0.4pt"></line></g><g class="tick" style="opacity: 1; " transform="translate(67.48091603053436,0)"><line y2="6" x2="0" stroke-width="0.4pt"></line></g><g class="tick" style="opacity: 1; " transform="translate(69.85050890585242,0)"><line y2="6" x2="0" stroke-width="0.4pt"></line></g><g class="tick" style="opacity: 1; " transform="translate(72.14058524173028,0)"><line y2="6" x2="0" stroke-width="0.4pt"></line></g><g class="tick" style="opacity: 1; " transform="translate(74.50699745547074,0)"><line y2="10" x2="0" stroke-width="1pt"></line><text dy="3pt" style="text-anchor: middle; font-family: cmr10; " y="14" x="0">1998</text></g><g class="tick" style="opacity: 1; " transform="translate(76.8734096692112,0)"><line y2="6" x2="0" stroke-width="0.4pt"></line></g><g class="tick" style="opacity: 1; " transform="translate(79.01081424936388,0)"><line y2="6" x2="0" stroke-width="0.4pt"></line></g><g class="tick" style="opacity: 1; " transform="translate(81.3740458015267,0)"><line y2="6" x2="0" stroke-width="0.4pt"></line></g><g class="tick" style="opacity: 1; " transform="translate(83.66412213740458,0)"><line y2="6" x2="0" stroke-width="0.4pt"></line></g><g class="tick" style="opacity: 1; " transform="translate(86.03053435114504,0)"><line y2="6" x2="0" stroke-width="0.4pt"></line></g><g class="tick" style="opacity: 1; " transform="translate(88.32061068702289,0)"><line y2="6" x2="0" stroke-width="0.4pt"></line></g><g class="tick" style="opacity: 1; " transform="translate(90.68702290076335,0)"><line y2="6" x2="0" stroke-width="0.4pt"></line></g><g class="tick" style="opacity: 1; " transform="translate(93.05343511450381,0)"><line y2="6" x2="0" stroke-width="0.4pt"></line></g><g class="tick" style="opacity: 1; " transform="translate(95.34351145038168,0)"><line y2="6" x2="0" stroke-width="0.4pt"></line></g><g class="tick" style="opacity: 1; " transform="translate(97.71310432569975,0)"><line y2="6" x2="0" stroke-width="0.4pt"></line></g><g class="tick" style="opacity: 1; " transform="translate(100.0031806615776,0)"><line y2="6" x2="0" stroke-width="0.4pt"></line></g><g class="tick" style="opacity: 1; " transform="translate(102.36959287531806,0)"><line y2="10" x2="0" stroke-width="1pt"></line></g><g class="tick" style="opacity: 1; " transform="translate(104.73600508905852,0)"><line y2="6" x2="0" stroke-width="0.4pt"></line></g><g class="tick" style="opacity: 1; " transform="translate(106.8734096692112,0)"><line y2="6" x2="0" stroke-width="0.4pt"></line></g><g class="tick" style="opacity: 1; " transform="translate(109.23664122137406,0)"><line y2="6" x2="0" stroke-width="0.4pt"></line></g><g class="tick" style="opacity: 1; " transform="translate(111.5267175572519,0)"><line y2="6" x2="0" stroke-width="0.4pt"></line></g><g class="tick" style="opacity: 1; " transform="translate(113.89312977099236,0)"><line y2="6" x2="0" stroke-width="0.4pt"></line></g><g class="tick" style="opacity: 1; " transform="translate(116.18320610687023,0)"><line y2="6" x2="0" stroke-width="0.4pt"></line></g><g class="tick" style="opacity: 1; " transform="translate(118.54961832061068,0)"><line y2="6" x2="0" stroke-width="0.4pt"></line></g><g class="tick" style="opacity: 1; " transform="translate(120.91603053435114,0)"><line y2="6" x2="0" stroke-width="0.4pt"></line></g><g class="tick" style="opacity: 1; " transform="translate(123.20610687022901,0)"><line y2="6" x2="0" stroke-width="0.4pt"></line></g><g class="tick" style="opacity: 1; " transform="translate(125.57569974554707,0)"><line y2="6" x2="0" stroke-width="0.4pt"></line></g><g class="tick" style="opacity: 1; " transform="translate(127.86577608142494,0)"><line y2="6" x2="0" stroke-width="0.4pt"></line></g><g class="tick" style="opacity: 1; " transform="translate(130.2321882951654,0)"><line y2="10" x2="0" stroke-width="1pt"></line><text dy="3pt" style="text-anchor: middle; font-family: cmr10; " y="14" x="0">2000</text></g><g class="tick" style="opacity: 1; " transform="translate(132.59860050890586,0)"><line y2="6" x2="0" stroke-width="0.4pt"></line></g><g class="tick" style="opacity: 1; " transform="translate(134.8123409669211,0)"><line y2="6" x2="0" stroke-width="0.4pt"></line></g><g class="tick" style="opacity: 1; " transform="translate(137.17557251908397,0)"><line y2="6" x2="0" stroke-width="0.4pt"></line></g><g class="tick" style="opacity: 1; " transform="translate(139.46564885496184,0)"><line y2="6" x2="0" stroke-width="0.4pt"></line></g><g class="tick" style="opacity: 1; " transform="translate(141.8320610687023,0)"><line y2="6" x2="0" stroke-width="0.4pt"></line></g><g class="tick" style="opacity: 1; " transform="translate(144.12213740458017,0)"><line y2="6" x2="0" stroke-width="0.4pt"></line></g><g class="tick" style="opacity: 1; " transform="translate(146.48854961832063,0)"><line y2="6" x2="0" stroke-width="0.4pt"></line></g><g class="tick" style="opacity: 1; " transform="translate(148.85496183206106,0)"><line y2="6" x2="0" stroke-width="0.4pt"></line></g><g class="tick" style="opacity: 1; " transform="translate(151.14503816793894,0)"><line y2="6" x2="0" stroke-width="0.4pt"></line></g><g class="tick" style="opacity: 1; " transform="translate(153.514631043257,0)"><line y2="6" x2="0" stroke-width="0.4pt"></line></g><g class="tick" style="opacity: 1; " transform="translate(155.80470737913487,0)"><line y2="6" x2="0" stroke-width="0.4pt"></line></g><g class="tick" style="opacity: 1; " transform="translate(158.1711195928753,0)"><line y2="10" x2="0" stroke-width="1pt"></line></g><g class="tick" style="opacity: 1; " transform="translate(160.53753180661576,0)"><line y2="6" x2="0" stroke-width="0.4pt"></line></g><g class="tick" style="opacity: 1; " transform="translate(162.67493638676845,0)"><line y2="6" x2="0" stroke-width="0.4pt"></line></g><g class="tick" style="opacity: 1; " transform="translate(165.03816793893128,0)"><line y2="6" x2="0" stroke-width="0.4pt"></line></g><g class="tick" style="opacity: 1; " transform="translate(167.32824427480915,0)"><line y2="6" x2="0" stroke-width="0.4pt"></line></g><g class="tick" style="opacity: 1; " transform="translate(169.6946564885496,0)"><line y2="6" x2="0" stroke-width="0.4pt"></line></g><g class="tick" style="opacity: 1; " transform="translate(171.98473282442748,0)"><line y2="6" x2="0" stroke-width="0.4pt"></line></g><g class="tick" style="opacity: 1; " transform="translate(174.35114503816794,0)"><line y2="6" x2="0" stroke-width="0.4pt"></line></g><g class="tick" style="opacity: 1; " transform="translate(176.7175572519084,0)"><line y2="6" x2="0" stroke-width="0.4pt"></line></g><g class="tick" style="opacity: 1; " transform="translate(179.00763358778624,0)"><line y2="6" x2="0" stroke-width="0.4pt"></line></g><g class="tick" style="opacity: 1; " transform="translate(181.37722646310434,0)"><line y2="6" x2="0" stroke-width="0.4pt"></line></g><g class="tick" style="opacity: 1; " transform="translate(183.6673027989822,0)"><line y2="6" x2="0" stroke-width="0.4pt"></line></g><g class="tick" style="opacity: 1; " transform="translate(186.03371501272267,0)"><line y2="10" x2="0" stroke-width="1pt"></line><text dy="3pt" style="text-anchor: middle; font-family: cmr10; " y="14" x="0">2002</text></g><g class="tick" style="opacity: 1; " transform="translate(188.40012722646313,0)"><line y2="6" x2="0" stroke-width="0.4pt"></line></g><g class="tick" style="opacity: 1; " transform="translate(190.5375318066158,0)"><line y2="6" x2="0" stroke-width="0.4pt"></line></g><g class="tick" style="opacity: 1; " transform="translate(192.90076335877862,0)"><line y2="6" x2="0" stroke-width="0.4pt"></line></g><g class="tick" style="opacity: 1; " transform="translate(195.1908396946565,0)"><line y2="6" x2="0" stroke-width="0.4pt"></line></g><g class="tick" style="opacity: 1; " transform="translate(197.55725190839695,0)"><line y2="6" x2="0" stroke-width="0.4pt"></line></g><g class="tick" style="opacity: 1; " transform="translate(199.84732824427482,0)"><line y2="6" x2="0" stroke-width="0.4pt"></line></g><g class="tick" style="opacity: 1; " transform="translate(202.21374045801528,0)"><line y2="6" x2="0" stroke-width="0.4pt"></line></g><g class="tick" style="opacity: 1; " transform="translate(204.58015267175574,0)"><line y2="6" x2="0" stroke-width="0.4pt"></line></g><g class="tick" style="opacity: 1; " transform="translate(206.8702290076336,0)"><line y2="6" x2="0" stroke-width="0.4pt"></line></g><g class="tick" style="opacity: 1; " transform="translate(209.23982188295165,0)"><line y2="6" x2="0" stroke-width="0.4pt"></line></g><g class="tick" style="opacity: 1; " transform="translate(211.52989821882952,0)"><line y2="6" x2="0" stroke-width="0.4pt"></line></g><g class="tick" style="opacity: 1; " transform="translate(213.89631043256998,0)"><line y2="10" x2="0" stroke-width="1pt"></line></g><g class="tick" style="opacity: 1; " transform="translate(216.26272264631044,0)"><line y2="6" x2="0" stroke-width="0.4pt"></line></g><g class="tick" style="opacity: 1; " transform="translate(218.4001272264631,0)"><line y2="6" x2="0" stroke-width="0.4pt"></line></g><g class="tick" style="opacity: 1; " transform="translate(220.76335877862593,0)"><line y2="6" x2="0" stroke-width="0.4pt"></line></g><g class="tick" style="opacity: 1; " transform="translate(223.0534351145038,0)"><line y2="6" x2="0" stroke-width="0.4pt"></line></g><g class="tick" style="opacity: 1; " transform="translate(225.41984732824426,0)"><line y2="6" x2="0" stroke-width="0.4pt"></line></g><g class="tick" style="opacity: 1; " transform="translate(227.70992366412213,0)"><line y2="6" x2="0" stroke-width="0.4pt"></line></g><g class="tick" style="opacity: 1; " transform="translate(230.0763358778626,0)"><line y2="6" x2="0" stroke-width="0.4pt"></line></g><g class="tick" style="opacity: 1; " transform="translate(232.44274809160305,0)"><line y2="6" x2="0" stroke-width="0.4pt"></line></g><g class="tick" style="opacity: 1; " transform="translate(234.73282442748092,0)"><line y2="6" x2="0" stroke-width="0.4pt"></line></g><g class="tick" style="opacity: 1; " transform="translate(237.10241730279898,0)"><line y2="6" x2="0" stroke-width="0.4pt"></line></g><g class="tick" style="opacity: 1; " transform="translate(239.39249363867685,0)"><line y2="6" x2="0" stroke-width="0.4pt"></line></g><g class="tick" style="opacity: 1; " transform="translate(241.7589058524173,0)"><line y2="10" x2="0" stroke-width="1pt"></line><text dy="3pt" style="text-anchor: middle; font-family: cmr10; " y="14" x="0">2004</text></g><g class="tick" style="opacity: 1; " transform="translate(244.12531806615777,0)"><line y2="6" x2="0" stroke-width="0.4pt"></line></g><g class="tick" style="opacity: 1; " transform="translate(246.33905852417303,0)"><line y2="6" x2="0" stroke-width="0.4pt"></line></g><g class="tick" style="opacity: 1; " transform="translate(248.70229007633588,0)"><line y2="6" x2="0" stroke-width="0.4pt"></line></g><g class="tick" style="opacity: 1; " transform="translate(250.99236641221376,0)"><line y2="6" x2="0" stroke-width="0.4pt"></line></g><g class="tick" style="opacity: 1; " transform="translate(253.3587786259542,0)"><line y2="6" x2="0" stroke-width="0.4pt"></line></g><g class="tick" style="opacity: 1; " transform="translate(255.64885496183206,0)"><line y2="6" x2="0" stroke-width="0.4pt"></line></g><g class="tick" style="opacity: 1; " transform="translate(258.01526717557255,0)"><line y2="6" x2="0" stroke-width="0.4pt"></line></g><g class="tick" style="opacity: 1; " transform="translate(260.381679389313,0)"><line y2="6" x2="0" stroke-width="0.4pt"></line></g><g class="tick" style="opacity: 1; " transform="translate(262.67175572519085,0)"><line y2="6" x2="0" stroke-width="0.4pt"></line></g><g class="tick" style="opacity: 1; " transform="translate(265.0413486005089,0)"><line y2="6" x2="0" stroke-width="0.4pt"></line></g><g class="tick" style="opacity: 1; " transform="translate(267.3314249363868,0)"><line y2="6" x2="0" stroke-width="0.4pt"></line></g><g class="tick" style="opacity: 1; " transform="translate(269.6978371501272,0)"><line y2="10" x2="0" stroke-width="1pt"></line></g><g class="tick" style="opacity: 1; " transform="translate(272.0642493638677,0)"><line y2="6" x2="0" stroke-width="0.4pt"></line></g><g class="tick" style="opacity: 1; " transform="translate(274.20165394402034,0)"><line y2="6" x2="0" stroke-width="0.4pt"></line></g><g class="tick" style="opacity: 1; " transform="translate(276.5648854961832,0)"><line y2="6" x2="0" stroke-width="0.4pt"></line></g><g class="tick" style="opacity: 1; " transform="translate(278.85496183206106,0)"><line y2="6" x2="0" stroke-width="0.4pt"></line></g><g class="tick" style="opacity: 1; " transform="translate(281.2213740458015,0)"><line y2="6" x2="0" stroke-width="0.4pt"></line></g><g class="tick" style="opacity: 1; " transform="translate(283.5114503816794,0)"><line y2="6" x2="0" stroke-width="0.4pt"></line></g><g class="tick" style="opacity: 1; " transform="translate(285.87786259541986,0)"><line y2="6" x2="0" stroke-width="0.4pt"></line></g><g class="tick" style="opacity: 1; " transform="translate(288.24427480916034,0)"><line y2="6" x2="0" stroke-width="0.4pt"></line></g><g class="tick" style="opacity: 1; " transform="translate(290.53435114503816,0)"><line y2="6" x2="0" stroke-width="0.4pt"></line></g><g class="tick" style="opacity: 1; " transform="translate(292.9039440203562,0)"><line y2="6" x2="0" stroke-width="0.4pt"></line></g><g class="tick" style="opacity: 1; " transform="translate(295.1940203562341,0)"><line y2="6" x2="0" stroke-width="0.4pt"></line></g><g class="tick" style="opacity: 1; " transform="translate(297.5604325699745,0)"><line y2="10" x2="0" stroke-width="1pt"></line><text dy="3pt" style="text-anchor: middle; font-family: cmr10; " y="14" x="0">2006</text></g><g class="tick" style="opacity: 1; " transform="translate(299.926844783715,0)"><line y2="6" x2="0" stroke-width="0.4pt"></line></g><g class="tick" style="opacity: 1; " transform="translate(302.0642493638677,0)"><line y2="6" x2="0" stroke-width="0.4pt"></line></g><g class="tick" style="opacity: 1; " transform="translate(304.4274809160305,0)"><line y2="6" x2="0" stroke-width="0.4pt"></line></g><g class="tick" style="opacity: 1; " transform="translate(306.71755725190843,0)"><line y2="6" x2="0" stroke-width="0.4pt"></line></g><g class="tick" style="opacity: 1; " transform="translate(309.08396946564886,0)"><line y2="6" x2="0" stroke-width="0.4pt"></line></g><g class="tick" style="opacity: 1; " transform="translate(311.37404580152673,0)"><line y2="6" x2="0" stroke-width="0.4pt"></line></g><g class="tick" style="opacity: 1; " transform="translate(313.74045801526717,0)"><line y2="6" x2="0" stroke-width="0.4pt"></line></g><g class="tick" style="opacity: 1; " transform="translate(316.10687022900765,0)"><line y2="6" x2="0" stroke-width="0.4pt"></line></g><g class="tick" style="opacity: 1; " transform="translate(318.39694656488547,0)"><line y2="6" x2="0" stroke-width="0.4pt"></line></g><g class="tick" style="opacity: 1; " transform="translate(320.76653944020353,0)"><line y2="6" x2="0" stroke-width="0.4pt"></line></g><g class="tick" style="opacity: 1; " transform="translate(323.05661577608146,0)"><line y2="6" x2="0" stroke-width="0.4pt"></line></g><g class="tick" style="opacity: 1; " transform="translate(325.4230279898219,0)"><line y2="10" x2="0" stroke-width="1pt"></line></g><g class="tick" style="opacity: 1; " transform="translate(327.7894402035624,0)"><line y2="6" x2="0" stroke-width="0.4pt"></line></g><g class="tick" style="opacity: 1; " transform="translate(329.926844783715,0)"><line y2="6" x2="0" stroke-width="0.4pt"></line></g><g class="tick" style="opacity: 1; " transform="translate(332.29007633587787,0)"><line y2="6" x2="0" stroke-width="0.4pt"></line></g><g class="tick" style="opacity: 1; " transform="translate(334.58015267175574,0)"><line y2="6" x2="0" stroke-width="0.4pt"></line></g><g class="tick" style="opacity: 1; " transform="translate(336.9465648854962,0)"><line y2="6" x2="0" stroke-width="0.4pt"></line></g><g class="tick" style="opacity: 1; " transform="translate(339.23664122137404,0)"><line y2="6" x2="0" stroke-width="0.4pt"></line></g><g class="tick" style="opacity: 1; " transform="translate(341.6030534351145,0)"><line y2="6" x2="0" stroke-width="0.4pt"></line></g><g class="tick" style="opacity: 1; " transform="translate(343.96946564885496,0)"><line y2="6" x2="0" stroke-width="0.4pt"></line></g><g class="tick" style="opacity: 1; " transform="translate(346.25954198473283,0)"><line y2="6" x2="0" stroke-width="0.4pt"></line></g><g class="tick" style="opacity: 1; " transform="translate(348.6291348600509,0)"><line y2="6" x2="0" stroke-width="0.4pt"></line></g><g class="tick" style="opacity: 1; " transform="translate(350.91921119592877,0)"><line y2="6" x2="0" stroke-width="0.4pt"></line></g><g class="tick" style="opacity: 1; " transform="translate(353.2856234096692,0)"><line y2="10" x2="0" stroke-width="1pt"></line><text dy="3pt" style="text-anchor: middle; font-family: cmr10; " y="14" x="0">2008</text></g><g class="tick" style="opacity: 1; " transform="translate(355.6520356234097,0)"><line y2="6" x2="0" stroke-width="0.4pt"></line></g><g class="tick" style="opacity: 1; " transform="translate(357.86577608142494,0)"><line y2="6" x2="0" stroke-width="0.4pt"></line></g><g class="tick" style="opacity: 1; " transform="translate(360.2290076335878,0)"><line y2="6" x2="0" stroke-width="0.4pt"></line></g><g class="tick" style="opacity: 1; " transform="translate(362.51908396946567,0)"><line y2="6" x2="0" stroke-width="0.4pt"></line></g><g class="tick" style="opacity: 1; " transform="translate(364.88549618320616,0)"><line y2="6" x2="0" stroke-width="0.4pt"></line></g><g class="tick" style="opacity: 1; " transform="translate(367.17557251908397,0)"><line y2="6" x2="0" stroke-width="0.4pt"></line></g><g class="tick" style="opacity: 1; " transform="translate(369.5419847328244,0)"><line y2="6" x2="0" stroke-width="0.4pt"></line></g><g class="tick" style="opacity: 1; " transform="translate(371.9083969465649,0)"><line y2="6" x2="0" stroke-width="0.4pt"></line></g><g class="tick" style="opacity: 1; " transform="translate(374.19847328244276,0)"><line y2="6" x2="0" stroke-width="0.4pt"></line></g><g class="tick" style="opacity: 1; " transform="translate(376.56806615776077,0)"><line y2="6" x2="0" stroke-width="0.4pt"></line></g><g class="tick" style="opacity: 1; " transform="translate(378.8581424936387,0)"><line y2="6" x2="0" stroke-width="0.4pt"></line></g><g class="tick" style="opacity: 1; " transform="translate(381.2245547073791,0)"><line y2="10" x2="0" stroke-width="1pt"></line></g><g class="tick" style="opacity: 1; " transform="translate(383.5909669211196,0)"><line y2="6" x2="0" stroke-width="0.4pt"></line></g><g class="tick" style="opacity: 1; " transform="translate(385.72837150127225,0)"><line y2="6" x2="0" stroke-width="0.4pt"></line></g><g class="tick" style="opacity: 1; " transform="translate(388.0916030534351,0)"><line y2="6" x2="0" stroke-width="0.4pt"></line></g><g class="tick" style="opacity: 1; " transform="translate(390.381679389313,0)"><line y2="6" x2="0" stroke-width="0.4pt"></line></g><g class="tick" style="opacity: 1; " transform="translate(392.74809160305347,0)"><line y2="6" x2="0" stroke-width="0.4pt"></line></g><g class="tick" style="opacity: 1; " transform="translate(395.0381679389313,0)"><line y2="6" x2="0" stroke-width="0.4pt"></line></g><g class="tick" style="opacity: 1; " transform="translate(397.4045801526717,0)"><line y2="6" x2="0" stroke-width="0.4pt"></line></g><g class="tick" style="opacity: 1; " transform="translate(399.7709923664122,0)"><line y2="6" x2="0" stroke-width="0.4pt"></line></g><g class="tick" style="opacity: 1; " transform="translate(402.0610687022901,0)"><line y2="6" x2="0" stroke-width="0.4pt"></line></g><g class="tick" style="opacity: 1; " transform="translate(404.4306615776082,0)"><line y2="6" x2="0" stroke-width="0.4pt"></line></g><g class="tick" style="opacity: 1; " transform="translate(406.720737913486,0)"><line y2="6" x2="0" stroke-width="0.4pt"></line></g><g class="tick" style="opacity: 1; " transform="translate(409.08715012722644,0)"><line y2="10" x2="0" stroke-width="1pt"></line><text dy="3pt" style="text-anchor: middle; font-family: cmr10; " y="14" x="0">2010</text></g><g class="tick" style="opacity: 1; " transform="translate(411.4535623409669,0)"><line y2="6" x2="0" stroke-width="0.4pt"></line></g><g class="tick" style="opacity: 1; " transform="translate(413.59096692111956,0)"><line y2="6" x2="0" stroke-width="0.4pt"></line></g><g class="tick" style="opacity: 1; " transform="translate(415.9541984732825,0)"><line y2="6" x2="0" stroke-width="0.4pt"></line></g><g class="tick" style="opacity: 1; " transform="translate(418.2442748091603,0)"><line y2="6" x2="0" stroke-width="0.4pt"></line></g><g class="tick" style="opacity: 1; " transform="translate(420.6106870229008,0)"><line y2="6" x2="0" stroke-width="0.4pt"></line></g><g class="tick" style="opacity: 1; " transform="translate(422.90076335877865,0)"><line y2="6" x2="0" stroke-width="0.4pt"></line></g><g class="tick" style="opacity: 1; " transform="translate(425.26717557251914,0)"><line y2="6" x2="0" stroke-width="0.4pt"></line></g><g class="tick" style="opacity: 1; " transform="translate(427.63358778625957,0)"><line y2="6" x2="0" stroke-width="0.4pt"></line></g><g class="tick" style="opacity: 1; " transform="translate(429.9236641221374,0)"><line y2="6" x2="0" stroke-width="0.4pt"></line></g><g class="tick" style="opacity: 1; " transform="translate(432.2932569974555,0)"><line y2="6" x2="0" stroke-width="0.4pt"></line></g><g class="tick" style="opacity: 1; " transform="translate(434.5833333333333,0)"><line y2="6" x2="0" stroke-width="0.4pt"></line></g><g class="tick" style="opacity: 1; " transform="translate(436.94974554707375,0)"><line y2="10" x2="0" stroke-width="1pt"></line></g><g class="tick" style="opacity: 1; " transform="translate(439.31615776081424,0)"><line y2="6" x2="0" stroke-width="0.4pt"></line></g><g class="tick" style="opacity: 1; " transform="translate(441.4535623409669,0)"><line y2="6" x2="0" stroke-width="0.4pt"></line></g><g class="tick" style="opacity: 1; " transform="translate(443.8167938931298,0)"><line y2="6" x2="0" stroke-width="0.4pt"></line></g><g class="tick" style="opacity: 1; " transform="translate(446.1068702290076,0)"><line y2="6" x2="0" stroke-width="0.4pt"></line></g><g class="tick" style="opacity: 1; " transform="translate(448.4732824427481,0)"><line y2="6" x2="0" stroke-width="0.4pt"></line></g><g class="tick" style="opacity: 1; " transform="translate(450.76335877862596,0)"><line y2="6" x2="0" stroke-width="0.4pt"></line></g><g class="tick" style="opacity: 1; " transform="translate(453.12977099236645,0)"><line y2="6" x2="0" stroke-width="0.4pt"></line></g><g class="tick" style="opacity: 1; " transform="translate(455.4961832061069,0)"><line y2="6" x2="0" stroke-width="0.4pt"></line></g><g class="tick" style="opacity: 1; " transform="translate(457.7862595419847,0)"><line y2="6" x2="0" stroke-width="0.4pt"></line></g><g class="tick" style="opacity: 1; " transform="translate(460.1558524173028,0)"><line y2="6" x2="0" stroke-width="0.4pt"></line></g><g class="tick" style="opacity: 1; " transform="translate(462.4459287531807,0)"><line y2="6" x2="0" stroke-width="0.4pt"></line></g><g class="tick" style="opacity: 1; " transform="translate(464.81234096692117,0)"><line y2="10" x2="0" stroke-width="1pt"></line><text dy="3pt" style="text-anchor: middle; font-family: cmr10; " y="14" x="0">2012</text></g><g class="tick" style="opacity: 1; " transform="translate(467.1787531806616,0)"><line y2="6" x2="0" stroke-width="0.4pt"></line></g><g class="tick" style="opacity: 1; " transform="translate(469.39249363867685,0)"><line y2="6" x2="0" stroke-width="0.4pt"></line></g><g class="tick" style="opacity: 1; " transform="translate(471.7557251908397,0)"><line y2="6" x2="0" stroke-width="0.4pt"></line></g><g class="tick" style="opacity: 1; " transform="translate(474.0458015267175,0)"><line y2="6" x2="0" stroke-width="0.4pt"></line></g><g class="tick" style="opacity: 1; " transform="translate(476.412213740458,0)"><line y2="6" x2="0" stroke-width="0.4pt"></line></g><g class="tick" style="opacity: 1; " transform="translate(478.7022900763359,0)"><line y2="6" x2="0" stroke-width="0.4pt"></line></g><g class="tick" style="opacity: 1; " transform="translate(481.0687022900764,0)"><line y2="6" x2="0" stroke-width="0.4pt"></line></g><g class="tick" style="opacity: 1; " transform="translate(483.4351145038168,0)"><line y2="6" x2="0" stroke-width="0.4pt"></line></g><g class="tick" style="opacity: 1; " transform="translate(485.7251908396947,0)"><line y2="6" x2="0" stroke-width="0.4pt"></line></g><g class="tick" style="opacity: 1; " transform="translate(488.09478371501274,0)"><line y2="6" x2="0" stroke-width="0.4pt"></line></g><g class="tick" style="opacity: 1; " transform="translate(490.38486005089055,0)"><line y2="6" x2="0" stroke-width="0.4pt"></line></g><g class="tick" style="opacity: 1; " transform="translate(492.75127226463104,0)"><line y2="10" x2="0" stroke-width="1pt"></line></g><g class="tick" style="opacity: 1; " transform="translate(495.1176844783715,0)"><line y2="6" x2="0" stroke-width="0.4pt"></line></g><g class="tick" style="opacity: 1; " transform="translate(497.25508905852416,0)"><line y2="6" x2="0" stroke-width="0.4pt"></line></g><g class="tick" style="opacity: 1; " transform="translate(499.618320610687,0)"><line y2="6" x2="0" stroke-width="0.4pt"></line></g><g class="tick" style="opacity: 1; " transform="translate(501.90839694656484,0)"><line y2="6" x2="0" stroke-width="0.4pt"></line></g><g class="tick" style="opacity: 1; " transform="translate(504.2748091603053,0)"><line y2="6" x2="0" stroke-width="0.4pt"></line></g><g class="tick" style="opacity: 1; " transform="translate(506.5648854961832,0)"><line y2="6" x2="0" stroke-width="0.4pt"></line></g><g class="tick" style="opacity: 1; " transform="translate(508.9312977099237,0)"><line y2="6" x2="0" stroke-width="0.4pt"></line></g><g class="tick" style="opacity: 1; " transform="translate(511.2977099236641,0)"><line y2="6" x2="0" stroke-width="0.4pt"></line></g><g class="tick" style="opacity: 1; " transform="translate(513.587786259542,0)"><line y2="6" x2="0" stroke-width="0.4pt"></line></g><g class="tick" style="opacity: 1; " transform="translate(515.95737913486,0)"><line y2="6" x2="0" stroke-width="0.4pt"></line></g><g class="tick" style="opacity: 1; " transform="translate(518.2474554707379,0)"><line y2="6" x2="0" stroke-width="0.4pt"></line></g><g class="tick" style="opacity: 1; " transform="translate(520.6138676844784,0)"><line y2="10" x2="0" stroke-width="1pt"></line><text dy="3pt" style="text-anchor: middle; font-family: cmr10; " y="14" x="0">2014</text></g><g class="tick" style="opacity: 1; " transform="translate(522.9802798982189,0)"><line y2="6" x2="0" stroke-width="0.4pt"></line></g><g class="tick" style="opacity: 1; " transform="translate(525.1176844783715,0)"><line y2="6" x2="0" stroke-width="0.4pt"></line></g><g class="tick" style="opacity: 1; " transform="translate(527.4809160305343,0)"><line y2="6" x2="0" stroke-width="0.4pt"></line></g><g class="tick" style="opacity: 1; " transform="translate(529.7709923664122,0)"><line y2="6" x2="0" stroke-width="0.4pt"></line></g><g class="tick" style="opacity: 1; " transform="translate(532.1374045801526,0)"><line y2="6" x2="0" stroke-width="0.4pt"></line></g><g class="tick" style="opacity: 1; " transform="translate(534.4274809160305,0)"><line y2="6" x2="0" stroke-width="0.4pt"></line></g><g class="tick" style="opacity: 1; " transform="translate(536.7938931297709,0)"><line y2="6" x2="0" stroke-width="0.4pt"></line></g><g class="tick" style="opacity: 1; " transform="translate(539.1603053435115,0)"><line y2="6" x2="0" stroke-width="0.4pt"></line></g><g class="tick" style="opacity: 1; " transform="translate(541.4503816793894,0)"><line y2="6" x2="0" stroke-width="0.4pt"></line></g><g class="tick" style="opacity: 1; " transform="translate(543.8199745547073,0)"><line y2="6" x2="0" stroke-width="0.4pt"></line></g><g class="tick" style="opacity: 1; " transform="translate(546.1100508905853,0)"><line y2="6" x2="0" stroke-width="0.4pt"></line></g><g class="tick" style="opacity: 1; " transform="translate(548.4764631043257,0)"><line y2="10" x2="0" stroke-width="1pt"></line></g><g class="tick" style="opacity: 1; " transform="translate(550.8428753180661,0)"><line y2="6" x2="0" stroke-width="0.4pt"></line></g><g class="tick" style="opacity: 1; " transform="translate(552.9802798982188,0)"><line y2="6" x2="0" stroke-width="0.4pt"></line></g><g class="tick" style="opacity: 1; " transform="translate(555.3435114503817,0)"><line y2="6" x2="0" stroke-width="0.4pt"></line></g><g class="tick" style="opacity: 1; " transform="translate(557.6335877862596,0)"><line y2="6" x2="0" stroke-width="0.4pt"></line></g><g class="tick" style="opacity: 1; " transform="translate(560,0)"><line y2="6" x2="0" stroke-width="0.4pt"></line></g><path class="domain" d="M0,6V0H560V6"></path></g><g class="event" transform="translate(560,260)"><text y="-15" x="-5pt" style="font-family: cmr10; ">ECMAScript v6.0</text><circle cy="0" cx="0" r="1.5pt"></circle><line x1="0" x2="0" y1="-10" y2="-7" stroke-width="1px" stroke="black"></line></g><g class="event" transform="translate(549.4688295165395,260)"><text y="-45" x="-5pt" style="font-family: cmr10; ">io.js</text><circle cy="0" cx="0" r="1.5pt"></circle><line x1="0" x2="0" y1="-40" y2="-7" stroke-width="1px" stroke="black"></line></g><g class="event" transform="translate(448.4732824427481,260)"><text y="-75" x="-5pt" style="font-family: cmr10; ">ECMAScript V5.1</text><circle cy="0" cx="0" r="1.5pt"></circle><line x1="0" x2="0" y1="-70" y2="-7" stroke-width="1px" stroke="black"></line></g><g class="event" transform="translate(406.720737913486,260)"><text y="-105" x="-5pt" style="font-family: cmr10; ">ECMAScript v5.0</text><circle cy="0" cx="0" r="1.5pt"></circle><line x1="0" x2="0" y1="-100" y2="-7" stroke-width="1px" stroke="black"></line></g><g class="event" transform="translate(394.7328244274809,260)"><text y="-135" x="-5pt" style="font-family: cmr10; ">Node.js</text><circle cy="0" cx="0" r="1.5pt"></circle><line x1="0" x2="0" y1="-130" y2="-7" stroke-width="1px" stroke="black"></line></g><g class="event" transform="translate(371.9847328244275,260)"><text y="-165" x="-5pt" style="font-family: cmr10; ">V8</text><circle cy="0" cx="0" r="1.5pt"></circle><line x1="0" x2="0" y1="-160" y2="-7" stroke-width="1px" stroke="black"></line></g><g class="event" transform="translate(354.88867684478373,260)"><text y="-195" x="-5pt" style="font-family: cmr10; ">HTML5 public draft</text><circle cy="0" cx="0" r="1.5pt"></circle><line x1="0" x2="0" y1="-190" y2="-7" stroke-width="1px" stroke="black"></line></g><g class="event" transform="translate(253.58778625954199,260)"><text y="-195" x="-5pt" style="font-family: cmr10; ">WHATWG</text><circle cy="0" cx="0" r="1.5pt"></circle><line x1="0" x2="0" y1="-190" y2="-7" stroke-width="1px" stroke="black"></line></g><g class="event" transform="translate(127.86577608142494,260)"><text y="-75" x="-5pt" style="font-family: cmr10; ">ECMAScript v3.0</text><circle cy="0" cx="0" r="1.5pt"></circle><line x1="0" x2="0" y1="-70" y2="-7" stroke-width="1px" stroke="black"></line></g><g class="event" transform="translate(86.03053435114504,260)"><text y="-105" x="-5pt" style="font-family: cmr10; ">ECMAScript v2.0</text><circle cy="0" cx="0" r="1.5pt"></circle><line x1="0" x2="0" y1="-100" y2="-7" stroke-width="1px" stroke="black"></line></g><g class="event" transform="translate(58.167938931297705,260)"><text y="-135" x="-5pt" style="font-family: cmr10; ">ECMAScript v1.0</text><circle cy="0" cx="0" r="1.5pt"></circle><line x1="0" x2="0" y1="-130" y2="-7" stroke-width="1px" stroke="black"></line></g><g class="event" transform="translate(41.98791348600509,260)"><text y="-165" x="-5pt" style="font-family: cmr10; ">ECMA Standardization</text><circle cy="0" cx="0" r="1.5pt"></circle><line x1="0" x2="0" y1="-160" y2="-7" stroke-width="1px" stroke="black"></line></g><g class="event" transform="translate(0,260)"><text y="-195" x="-5pt" style="font-family: cmr10; ">Javascript</text><circle cy="0" cx="0" r="1.5pt"></circle><line x1="0" x2="0" y1="-190" y2="-7" stroke-width="1px" stroke="black"></line></g></g></svg>