<?xml version="1.0" standalone="no"?><!DOCTYPE svg PUBLIC "-//W3C//DTD SVG 1.1//EN" "http://www.w3.org/Graphics/SVG/1.1/DTD/svg11.dtd"><svg width="1000" height="400" class="chart" filename="stackoverflow-tags.svg" version="1.1" xmlns="http://www.w3.org/2000/svg" xlink="http://www.w3.org/1999/xlink"><defs><style type="text/css"><![CDATA[
html, body  { width: 1000px; height: 100%; margin-top: auto; margin-right: auto; margin-bottom: auto; margin-left: auto; }
.axis path, .axis line { fill: none; stroke: #000000; shape-rendering: crispedges; }
.grid .tick { stroke: #d3d3d3; opacity: 0.7; }
.grid path { stroke-width: 0px; }
.line { stroke-width: 2pt; fill: rgba(0, 0, 0, 0.0); }
.label.Javascript, .slice.Javascript { fill: #e31a1c; }
.line.Javascript { stroke: #e31a1c; }
.label.Ruby, .slice.Ruby { fill: #fc4e2a; }
.line.Ruby { stroke: #fc4e2a; }
.label.Python, .slice.Python { fill: #fd8d3c; }
.line.Python { stroke: #fd8d3c; }
.label.Csharp, .slice.Csharp { fill: #bd0026; }
.line.Csharp { stroke: #bd0026; }
.label.PHP, .slice.PHP { fill: #78c679; }
.line.PHP { stroke: #78c679; }
.label.XML_Schema, .slice.XML_Schema { fill: #41ab5d; }
.line.XML_Schema { stroke: #41ab5d; }
.label.SQL, .slice.SQL { fill: #238443; }
.line.SQL { stroke: #238443; }
.label.Perl, .slice.Perl { fill: #006837; }
.line.Perl { stroke: #006837; }
.label.C, .slice.C { fill: #41b6c4; }
.line.C { stroke: #41b6c4; }
.label.Cplusplus, .slice.Cplusplus { fill: #1d91c0; }
.line.Cplusplus { stroke: #1d91c0; }
.label.Java, .slice.Java { fill: #225ea8; }
.line.Java { stroke: #225ea8; }
.label.VisualBasicNET, .slice.VisualBasicNET { fill: #253494; }
.line.VisualBasicNET { stroke: #253494; }
.label.Autoconf, .slice.Autoconf { fill: #f768a1; }
.line.Autoconf { stroke: #f768a1; }
.label.Assembler, .slice.Assembler { fill: #dd3497; }
.line.Assembler { stroke: #dd3497; }
.label.Shell, .slice.Shell { fill: #ae017e; }
.line.Shell { stroke: #ae017e; }
.label.Make, .slice.Make { fill: #7a0177; }
.line.Make { stroke: #7a0177; }
.slice.Swift { fill: #addd8e; }
.line.Swift { stroke: #addd8e; }
.slice.iOS { fill: #78c679; }
.line.iOS { stroke: #78c679; }
.slice.Arduino__Raspberry_Pi { fill: #7fcdbb; }
.line.Arduino__Raspberry_Pi { stroke: #7fcdbb; }
.slice.Android { fill: #41b6c4; }
.line.Android { stroke: #41b6c4; }
.slice.AngularJS { fill: #feb24c; }
.line.AngularJS { stroke: #feb24c; }
.slice.Nodejs { fill: #fd8d3c; }
.line.Nodejs { stroke: #fd8d3c; }
.label.Bower { fill: #bd0026; }
.line.Bower { stroke: #bd0026; }
.label.npm { fill: #e31a1c; }
.line.npm { stroke: #e31a1c; }
.label.PyPI { fill: #fd8d3c; }
.line.PyPI { stroke: #fd8d3c; }
.label.Rubygems { fill: #fc4e2a; }
.line.Rubygems { stroke: #fc4e2a; }
.label.Clojars { fill: #000000; }
.line.Clojars { stroke: #000000; }
.label.Hackage { fill: #000000; }
.line.Hackage { stroke: #000000; }
.label.Hex { fill: #000000; }
.line.Hex { stroke: #000000; }
.label.LuaRocks { fill: #000000; }
.line.LuaRocks { stroke: #000000; }
.label.CPAN { fill: #41ab5d; }
.line.CPAN { stroke: #41ab5d; }
.label.CPAN_search { fill: #000000; }
.line.CPAN_search { stroke: #000000; }
.label.CRAN { fill: #000000; }
.line.CRAN { stroke: #000000; }
.label.Perl { fill: #006837; }
.line.Perl { stroke: #006837; }
.label.Drupal { fill: #000000; }
.line.Drupal { stroke: #000000; }
.label.Packagist { fill: #dd3497; }
.line.Packagist { stroke: #dd3497; }
.label.Pear { fill: #8996b8; }
.line.Pear { stroke: #8996b8; }
.label.MELPA { fill: #000000; }
.line.MELPA { stroke: #000000; }
.label.Crates { fill: #000000; }
.line.Crates { stroke: #000000; }
.label.GoDoc { fill: #41b6c4; }
.line.GoDoc { stroke: #41b6c4; }
.label.Maven { fill: #225ea8; }
.line.Maven { stroke: #225ea8; }
.label.nugets { fill: #253494; }
.line.nugets { stroke: #253494; }
svg { border-top-width: 2px; border-right-width: 2px; border-bottom-width: 2px; border-left-width: 2px; border-top-style: dotted; border-right-style: dotted; border-bottom-style: dotted; border-left-style: dotted; border-top-color: black; border-right-color: black; border-bottom-color: black; border-left-color: black; }]]></style></defs><g transform="translate(100,20)"><g class="x axis" transform="translate(0,350)"><g class="tick" style="opacity: 1; " transform="translate(47.01722905673575,0)"><line y2="6" x2="0"></line><text dy=".71em" style="text-anchor: middle; " y="40" x="0">2009</text></g><g class="tick" style="opacity: 1; " transform="translate(140.2639862532504,0)"><line y2="6" x2="0"></line><text dy=".71em" style="text-anchor: middle; " y="40" x="0">2010</text></g><g class="tick" style="opacity: 1; " transform="translate(233.51074344976504,0)"><line y2="6" x2="0"></line><text dy=".71em" style="text-anchor: middle; " y="40" x="0">2011</text></g><g class="tick" style="opacity: 1; " transform="translate(326.7575006462797,0)"><line y2="6" x2="0"></line><text dy=".71em" style="text-anchor: middle; " y="40" x="0">2012</text></g><g class="tick" style="opacity: 1; " transform="translate(420.2597284104561,0)"><line y2="6" x2="0"></line><text dy=".71em" style="text-anchor: middle; " y="40" x="0">2013</text></g><g class="tick" style="opacity: 1; " transform="translate(513.5064856069707,0)"><line y2="6" x2="0"></line><text dy=".71em" style="text-anchor: middle; " y="40" x="0">2014</text></g><g class="tick" style="opacity: 1; " transform="translate(606.7532428034854,0)"><line y2="6" x2="0"></line><text dy=".71em" style="text-anchor: middle; " y="40" x="0">2015</text></g><g class="tick" style="opacity: 1; " transform="translate(700,0)"><line y2="6" x2="0"></line><text dy=".71em" style="text-anchor: middle; " y="40" x="0">2016</text></g><path class="domain" d="M0,6V0H700V6"></path></g><g class="y axis"><g class="tick" style="opacity: 1; " transform="translate(0,350)"><line x2="-6" y2="0"></line><text dy=".32em" style="text-anchor: end; " x="-9" y="0">0</text></g><g class="tick" style="opacity: 1; " transform="translate(0,284.0443975426827)"><line x2="-6" y2="0"></line><text dy=".32em" style="text-anchor: end; " x="-9" y="0">5,000</text></g><g class="tick" style="opacity: 1; " transform="translate(0,218.08879508536538)"><line x2="-6" y2="0"></line><text dy=".32em" style="text-anchor: end; " x="-9" y="0">10,000</text></g><g class="tick" style="opacity: 1; " transform="translate(0,152.1331926280481)"><line x2="-6" y2="0"></line><text dy=".32em" style="text-anchor: end; " x="-9" y="0">15,000</text></g><g class="tick" style="opacity: 1; " transform="translate(0,86.17759017073078)"><line x2="-6" y2="0"></line><text dy=".32em" style="text-anchor: end; " x="-9" y="0">20,000</text></g><g class="tick" style="opacity: 1; " transform="translate(0,20.22198771341347)"><line x2="-6" y2="0"></line><text dy=".32em" style="text-anchor: end; " x="-9" y="0">25,000</text></g><path class="domain" d="M-6,0H0V350H-6"></path></g><text transform="rotate(-90)" y="-100" x="-175" dy="1em" style="text-anchor: middle; ">Tags</text><g class="serie"><path class="line C" d="M7.919587597512202,348.82599027625974L9.239518863764236,348.2829558160278C10.55945013001627,347.7399213557959,13.199312662520338,346.65385243533206,15.796596767080791,346.1789720976394C18.393880871641244,345.70409175994666,20.948586548258085,345.8404000050251,23.547644753982855,346.00309049108654C26.146702959707625,346.1657809771479,28.790113694540327,346.35485370419224,31.3891719002651,346.60988203369385C33.98823010598987,346.8649103631955,36.54293578260671,347.18589429515447,39.14021988716716,347.0451890099122C41.73750399172762,346.9044837246699,44.37736652423168,346.30208922222636,47.01722905673575,345.9833038103493C49.65709158923981,345.6645183984723,52.29695412174388,345.6293420771617,54.80908137041711,345.38750486815155C57.321208619090335,345.1456676591414,59.70560058393272,344.69716956243167,62.21595373144163,344.4113619517833C64.72630687895054,344.12555434113494,67.36262120912598,344.00243721654795,69.95813121252212,343.89910677269813C72.55364121591825,343.7957763288483,75.10834689253508,343.71223256573575,77.70563099709554,343.61329916204977C80.302915101656,343.5143657583638,82.94277763416007,343.4000427141044,85.54006173872052,343.2593374288622C88.13734584328097,343.11863214361983,90.6920515198978,342.9515446173947,93.28933562445826,342.89438309526497C95.88661972901872,342.8372215731353,98.52648226152277,342.8899860551012,101.16634479402686,342.81523637231624C103.80620732653091,342.7404866895312,106.44606985903499,342.53822284199543,109.04335396359544,341.9973869018454C111.6406380681559,341.4565509616955,114.19534374477274,340.5771429289312,116.7944019504975,339.6955363760851C119.39346015622228,338.81392982323894,122.03687089105497,337.93012475031094,124.63592909677975,337.75644166384C127.23498730250452,337.5827585773691,129.78969297912136,338.11919747735527,132.3869770836818,338.0884181962085C134.98426118824227,338.0576389150618,137.62412372074635,337.4596414527821,140.2639862532504,337.05071671754666C142.90384878575446,336.6417919823113,145.54371131825854,336.4219399741202,148.05583856693178,336.11854420281657C150.567965815605,335.8151484315129,152.95235778044736,335.4282088970967,155.46271092795627,335.11162200530157C157.97306407546517,334.79503511350646,160.60937840564063,334.54880086433246,163.20488840903678,334.41908817949974C165.8003984124329,334.289375494667,168.35510408904975,334.27618437417556,170.9523881936102,334.31355921556803C173.54967229817063,334.3509340569605,176.1895348306747,334.4388748602369,178.78681893523517,334.20583173155444C181.3841030397956,333.9727886028719,183.93880871641244,333.4187615422304,186.5360928209729,332.93948416437394C189.13337692553336,332.4602067865174,191.77323945803744,332.0556790914459,194.4131019905415,331.82923152300907C197.05296452304555,331.60278395457226,199.69282705554963,331.5544165127702,202.2901111601101,331.38952750662696C204.88739526467054,331.22463850048365,207.44210094128738,330.9432279299991,210.04115914701214,330.3210467468184C212.64021735273693,329.6988655636377,215.2836280875696,328.73591376776085,217.8826862932944,328.69853892636837C220.48174449901916,328.6611640849759,223.036450175636,329.5493661980678,225.63373428019645,329.98247465420417C228.2310183847569,330.41558311034055,230.870880917261,330.3935979095215,233.51074344976504,330.01765097551475C236.1506059822691,329.6417040415081,238.79046851477318,328.9117953743138,241.30259576344642,327.52672772271006C243.81472301211963,326.14166007110646,246.199114976962,324.10143343509344,248.7094681244709,323.2044372416739C251.2198212719798,322.30744104825436,253.85613560215526,322.55367529742836,256.4516456055514,323.1384816392166C259.04715560894755,323.7232879810048,261.6018612855644,324.6466664154072,264.19914539012484,325.25565647809645C266.7964294946853,325.86464654078566,269.4362920271893,326.1592482317617,272.0335761317498,326.5395922059322C274.63086023631024,326.91993618010275,277.18556591292713,327.3860224374678,279.7828500174876,327.2760964333723C282.38013412204805,327.1661704292767,285.0199966545521,326.48023216372064,287.65985918705616,325.92840362316105C290.29972171956024,325.3765750826015,292.93958425206426,324.9588562670385,295.5368683566247,324.2509328006633C298.1341524611852,323.54300933428806,300.6888581378021,322.5448812171007,303.28791634352683,321.8809281523637C305.8869745492516,321.2169750876267,308.5303852840843,320.8871970753401,311.1294434898091,321.1576150454151C313.7285016955338,321.42803301549014,316.2832073721506,322.29864696792674,318.88049147671114,322.243683965879C321.47777558127154,322.1887209638312,324.1176381137756,321.20818100729906,326.7575006462797,320.3199788942072C329.39736317878373,319.43177678111533,332.0372257112878,318.63591251146374,334.59193138790465,317.49268206887024C337.1466370645215,316.34945162627673,339.6161858852511,314.8588550107413,342.16911746070366,314.2718501488712C344.7220490361562,313.68484528700105,347.3583633663316,314.0014321787962,349.9538733697278,314.57304740009295C352.5493833731239,315.14466262138967,355.1040890497407,315.97130617218806,357.70137315430117,316.7429867209387C360.2986572588616,317.5146672696893,362.9385197913657,318.23138481639216,365.53580389592616,318.4490383045013C368.1330880004866,318.66669179261044,370.68779367710346,318.3852812221259,373.2850777816639,318.37428862171635C375.8823618862244,318.36329602130684,378.52222441872846,318.62272139097223,381.1620869512325,318.26436261762086C383.80194948373656,317.9060038442694,386.44181201624065,316.92986092790113,389.0390961208011,315.07211145868666C391.63638022536156,313.21436198947225,394.1910859019784,310.4750059674117,396.7901441077031,309.0305782735964C399.3892023134279,307.58615057978113,402.0326130482606,307.4366512142112,404.63167125398536,308.7249839822108C407.2307294597101,310.01331675021044,409.78543513632695,312.73948165177956,412.38271924088735,313.35726579479643C414.98000334544787,313.9750499378133,417.61986587795195,312.48445332227794,420.25972841045603,311.2972524780462C422.8995909429601,310.1100516338145,425.53945347546414,309.22624656088647,428.05158072413735,307.99507531501655C430.56370797281056,306.7639040691466,432.94809993765296,305.1853666503348,435.45845308516186,304.1938340933931C437.9688062326708,303.2023015364514,440.60512056284625,302.79777384137986,443.20063056624235,303.36059498234897C445.79614056963857,303.92341612331813,448.3508462462554,305.45358610032787,450.94813035081586,306.7880877900476C453.5454144553763,308.1225894797673,456.18527698788034,309.26142288219705,458.7825610924408,309.66155353710474C461.37984519700126,310.0616841920125,463.93455087361804,309.72311209939824,466.53183497817855,309.62198017563037C469.12911908273895,309.52084825186245,471.7689816152431,309.65715649694096,474.4088441477471,308.82391738589683C477.0487066802512,307.9906782748527,479.6885692127553,306.187891807686,482.28585331731574,303.40236686390534C484.88313742187614,300.6168419201246,487.437843098493,296.8485784997299,490.03690130421774,294.8984911870752C492.6359595099425,292.94840387442053,495.27937024477524,292.81649266950586,497.8784284505,294.43460344979206C500.4774866562248,296.0527142300782,503.03219233284165,299.4208469955652,505.6294764374021,300.6168419201246C508.22676054196256,301.81283684468394,510.86662307446664,300.83669392831564,513.5064856069707,299.83197025088253C516.1463481394748,298.8272465734494,518.7862106719788,297.7939421349514,521.298337920652,295.9032148645083C523.8104651693252,294.0124875940652,526.1948571341677,291.264337491677,528.7052102816765,291.1192351662709C531.2155634291855,290.9741328408648,533.8518777593608,293.4320782924408,536.447387762757,296.3517129612181C539.0428977661531,299.2713476299953,541.5976034427699,302.6526715159738,544.1948875473304,305.45578462040976C546.7921716518908,308.2588977248458,549.432034184395,310.4838000477393,552.0293182889554,311.45114888378C554.6266023935159,312.4184977198206,557.1813080701327,312.1282930690084,559.7785921746931,312.36133619769095C562.3758762792536,312.5943793263734,565.0157388117577,313.35067023455065,567.6556013442618,312.46686516162265C570.2954638767658,311.58306008869454,572.9353264092699,309.0591590346612,575.5326105138304,306.52866242038215C578.1298946183908,303.9981658061031,580.6846002950076,301.4610736315783,583.2836585007324,300.48053367504616C585.8827167064571,299.499993718514,588.5261274412899,300.07600597997464,591.1251856470146,301.49624995288883C593.7242438527394,302.9164939258031,596.2789495293563,305.18096961017096,598.8762336339167,306.01201020113314C601.4735177384772,306.84305079209537,604.1133802709812,306.24065628965184,606.7532428034854,305.60528398597967C609.3931053359894,304.96991168230755,612.0329678684934,304.30156157740674,614.5450951171667,302.63948039548234C617.05722236584,300.97739921355793,619.4416143306823,298.32158695461,621.9519674781912,296.92552670259676C624.4623206257002,295.5294664505835,627.0986349558756,295.3931582055051,629.6941449592717,296.3143381198256C632.2896549626678,297.23551803414614,634.8443606392846,299.21418610786566,637.4416447438451,301.0873252176535C640.0389288484055,302.9604643274413,642.6787913809096,304.7280744732974,645.2760754854701,306.3549793339112C647.8733595900305,307.98188419452504,650.4280652666474,309.46808376989657,653.025349371208,310.7564165378962C655.6226334757683,312.0447493058958,658.2624960082724,313.13521526652346,660.9023585407764,312.5416148444076C663.5422210732804,311.94801442229175,666.1820836057846,309.67034761743236,668.779367710345,307.13545396298946C671.3766518149055,304.60056030854656,673.9313574915222,301.80843980452016,676.530415697247,300.4893277553738C679.1294739029718,299.17021570622745,681.7728846378045,299.3241121119612,684.3719428435293,300.1705423434968C686.971001049254,301.01697257503236,689.5257067258709,302.5559366323697,692.1229908304314,310.59592457191667C694.7202749349918,318.63591251146363,697.3601374674959,333.1769243332202,698.6800687337479,340.44743024409854L700,347.7179361549768" fill="none"></path></g><g class="serie"><path class="line Cplusplus" d="M7.919587597512202,347.8102739984171L9.239518863764236,346.4801693488611C10.55945013001627,345.15006469930523,13.199312662520338,342.48985540019345,15.796596767080791,341.0652143871154C18.393880871641244,339.64057337403733,20.948586548258085,339.45150064699305,23.547644753982855,339.5152577293685C26.146702959707625,339.5790148117439,28.790113694540327,339.895601703539,31.3891719002651,340.28034271787334C33.98823010598987,340.6650837322077,36.54293578260671,341.1179788690813,39.14021988716716,340.8497594190882C41.73750399172762,340.5815399690951,44.37736652423168,339.59220593223534,47.01722905673575,339.1107300342969C49.65709158923981,338.6292541363585,52.29695412174388,338.6556363773414,54.80908137041711,338.2181308810412C57.321208619090335,337.78062538474103,59.70560058393272,336.8792321511577,62.21595373144163,336.50328521715096C64.72630687895054,336.12733828314424,67.36262120912598,336.27683764871415,69.95813121252212,335.90528775487127C72.55364121591825,335.5337378610284,75.10834689253508,334.6411387077727,77.70563099709554,334.1156924081961C80.302915101656,333.59024610861945,82.94277763416007,333.43195266272187,85.54006173872052,332.8999108028995C88.13734584328097,332.36786894307716,90.6920515198978,331.46207866933,93.28933562445826,331.12790361687956C95.88661972901872,330.79372856442916,98.52648226152277,331.0311687332755,101.16634479402686,331.03336725335737C103.80620732653091,331.0355657734393,106.44606985903499,330.8025226447568,109.04335396359544,330.182539981658C111.6406380681559,329.56255731855924,114.19534374477274,328.55563512104425,116.7944019504975,327.89827761655295C119.39346015622228,327.2409201120617,122.03687089105497,326.9331273005942,124.63592909677975,327.00787698337916C127.23498730250452,327.0826266661641,129.78969297912136,327.5399188432015,132.3869770836818,327.036457744444C134.98426118824227,326.53299664568647,137.62412372074635,325.068782271134,140.2639862532504,323.70130278018564C142.90384878575446,322.3338232892373,145.54371131825854,321.063078681893,148.05583856693178,320.0693476048694C150.567965815605,319.07561652784585,152.95235778044736,318.358898981143,155.46271092795627,317.8752245631227C157.97306407546517,317.3915501451023,160.60937840564063,317.1409188557645,163.20488840903678,317.2002788979761C165.8003984124329,317.25963894018764,168.35510408904975,317.62899031394863,170.9523881936102,316.88589052626287C173.54967229817063,316.1427907385771,176.1895348306747,314.2872397894446,178.78681893523517,313.6606615661001C181.3841030397956,313.0340833427556,183.93880871641244,313.63647784519907,186.5360928209729,314.02341737961535C189.13337692553336,314.4103569140316,191.77323945803744,314.5818414804206,194.4131019905415,314.4587243558336C197.05296452304555,314.3356072312466,199.69282705554963,313.9178884156836,202.2901111601101,313.2473397907009C204.88739526467054,312.5767911657182,207.44210094128738,311.6534127313157,210.04115914701214,310.25735247930254C212.64021735273693,308.86129222728925,215.2836280875696,306.9925501576653,217.8826862932944,306.5660372617746C220.48174449901916,306.139524365884,223.036450175636,307.15524064372664,225.63373428019645,306.8496463523411C228.2310183847569,306.54405206095555,230.870880917261,304.9171472003417,233.51074344976504,304.21142225404844C236.1506059822691,303.5056973077551,238.79046851477318,303.72115227578234,241.30259576344642,302.2129674995917C243.81472301211963,300.704782723401,246.199114976962,297.47295820299246,248.7094681244709,295.8592444628701C251.2198212719798,294.24553072274773,253.85613560215526,294.24992776291157,256.4516456055514,294.854520785437C259.04715560894755,295.4591138079624,261.6018612855644,296.6639028128494,264.19914539012484,297.4685611628287C266.7964294946853,298.27321951280794,269.4362920271893,298.67774720787946,272.0335761317498,298.79207025213884C274.63086023631024,298.90639329639816,277.18556591292713,298.73051168984534,279.7828500174876,298.42052035829596C282.38013412204805,298.1105290267466,285.0199966545521,297.66642797020063,287.65985918705616,297.48175228332013C290.29972171956024,297.29707659643964,292.93958425206426,297.3718262792246,295.5368683566247,296.4990138067061C298.1341524611852,295.6262013341876,300.6888581378021,293.8058267063657,303.28791634352683,292.57465546049576C305.8869745492516,291.34348421462585,308.5303852840843,290.70151635070795,311.1294434898091,290.6311637080868C313.7285016955338,290.56081106546566,316.2832073721506,291.06207364414126,318.88049147671114,290.8664053568512C321.47777558127154,290.67073706956114,324.1176381137756,289.77813791630547,326.7575006462797,288.1358434151183C329.39736317878373,286.4935489139311,332.0372257112878,284.10155906481236,334.59193138790465,282.6021683689494C337.1466370645215,281.10277767308634,339.6161858852511,280.495986130479,342.16911746070366,280.01890727270444C344.7220490361562,279.5418284149298,347.3583633663316,279.19446224198794,349.9538733697278,279.73090114197413C352.5493833731239,280.2673400419603,355.1040890497407,281.6875840148746,357.70137315430117,283.16279098983654C360.2986572588616,284.63799796479856,362.9385197913657,286.1681679418083,365.53580389592616,285.49102375657986C368.1330880004866,284.8138795713514,370.68779367710346,281.9294212238847,373.2850777816639,280.76860262063593C375.8823618862244,279.60778401738713,378.52222441872846,280.17060515835624,381.1620869512325,281.03462355054705C383.80194948373656,281.898641942738,386.44181201624065,283.06385758615056,389.0390961208011,281.4215630849634C391.63638022536156,279.7792685837762,394.1910859019784,275.3294639379892,396.7901441077031,272.2977047450345C399.3892023134279,269.2659455520798,402.0326130482606,267.65223181195745,404.63167125398536,268.1315091898139C407.2307294597101,268.61078656767046,409.78543513632695,271.18305506350583,412.38271924088735,271.6799206020176C414.98000334544787,272.17678614052943,417.61986587795195,270.5982487217176,420.25972841045603,269.6616791668237C422.8995909429601,268.7251096119298,425.53945347546414,268.4305079209538,428.05158072413735,265.7746956620058C430.56370797281056,263.1188834030578,432.94809993765296,258.1018605761379,435.45845308516186,255.7538411286574C437.9688062326708,253.40582168117692,440.60512056284625,253.72680561313587,443.20063056624235,254.62380180655538C445.79614056963857,255.5207979999749,448.3508462462554,256.99380645485496,450.94813035081586,259.19232653676556C453.5454144553763,261.3908466186761,456.18527698788034,264.3148783276172,458.7825610924408,264.95464767145313C461.37984519700126,265.59441701528914,463.93455087361804,263.94992399402,466.53183497817855,263.84879207025216C469.12911908273895,263.74766014648424,471.7689816152431,265.1898893202176,474.4088441477471,265.2118745210367C477.0487066802512,265.23385972185577,479.6885692127553,263.83560094976065,482.28585331731574,259.92663224412365C484.88313742187614,256.01766353848666,487.437843098493,249.5979848993078,490.03690130421774,246.08035276825086C492.6359595099425,242.56272063719393,495.27937024477524,241.94713501425895,497.8784284505,244.09069209412175C500.4774866562248,246.23424917398455,503.03219233284165,251.13694895664517,505.6294764374021,252.1152903930954C508.22676054196256,253.0936318295456,510.86662307446664,250.14761491978544,513.5064856069707,248.67900350506915C516.1463481394748,247.21039209035288,518.7862106719788,247.21918617068053,521.298337920652,244.99428384778702C523.8104651693252,242.7693815248935,526.1948571341677,238.31078279877886,528.7052102816765,237.28407392052662C531.2155634291855,236.2573650422744,533.8518777593608,238.66254601188456,536.447387762757,242.82434452694127C539.0428977661531,246.986143041998,541.5976034427699,252.90455910250128,544.1948875473304,258.2645510621993C546.7921716518908,263.62454302189724,549.432034184395,268.42611088078996,552.0293182889554,269.56934132338347C554.6266023935159,270.712571765977,557.1813080701327,268.19746479227126,559.7785921746931,267.7973341373635C562.3758762792536,267.3972034824558,565.0157388117577,269.11204914634607,567.6556013442618,269.2043869897863C570.2954638767658,269.29672483322656,572.9353264092699,267.76655485621677,575.5326105138304,265.64718149725496C578.1298946183908,263.52780813829315,580.6846002950076,260.8192313973793,583.2836585007324,259.99258784658093C585.8827167064571,259.16594429578254,588.5261274412899,260.22123393509963,591.1251856470146,261.87891807686026C593.7242438527394,263.5366022186208,596.2789495293563,265.79668086282487,598.8762336339167,266.0758929132275C601.4735177384772,266.3551049636302,604.1133802709812,264.65345042023137,606.7532428034854,263.07051596125575C609.3931053359894,261.48758150228014,612.0329678684934,260.02336712772774,614.5450951171667,256.9894094146911C617.05722236584,253.95545170165457,619.4416143306823,249.3517506501338,621.9519674781912,247.75342655058478C624.4623206257002,246.1551024510358,627.0986349558756,247.56215530345855,629.6941449592717,248.96920815588135C632.2896549626678,250.3762610083041,634.8443606392846,251.78331386072688,637.4416447438451,253.06065402831692C640.0389288484055,254.33799419590696,642.6787913809096,255.4856216786643,645.2760754854701,255.77142928931266C647.8733595900305,256.057236899961,650.4280652666474,255.48122463850046,653.025349371208,257.03337981632933C655.6226334757683,258.5855349941582,658.2624960082724,262.2658576112765,660.9023585407764,264.08843075918037C663.5422210732804,265.91100390708425,666.1820836057846,265.87582758577366,668.779367710345,263.0990967223206C671.3766518149055,260.32236585886756,673.9313574915222,254.80408045327198,676.530415697247,251.9174235857234C679.1294739029718,249.03076671817485,681.7728846378045,248.77573838867323,684.3719428435293,248.84609103129438C686.971001049254,248.91644367391552,689.5257067258709,249.31217728865943,692.1229908304314,265.46910137062025C694.7202749349918,281.6260254525811,697.3601374674959,313.5441400017588,698.6800687337479,329.5031972763477L700,345.46225455093656" fill="none"></path></g><g class="serie"><path class="line Java" d="M0,349.96042663852563L1.3199312662520337,348.8567695574065C2.6398625325040674,347.75311247628736,5.279725065008135,345.5457983140492,7.919587597512202,341.9204386989786C10.55945013001627,338.2950790839081,13.199312662520338,333.25167401600527,15.796596767080791,329.9824746542042C18.393880871641244,326.7132752924032,20.948586548258085,325.218281636704,23.547644753982855,325.0489955903969C26.146702959707625,324.87970954408974,28.790113694540327,326.0361311071747,31.3891719002651,326.9067450596113C33.98823010598987,327.7773590120479,36.54293578260671,328.3621653538361,39.14021988716716,326.92873026043037C41.73750399172762,325.49529516702466,44.37736652423168,322.0436186384251,47.01722905673575,319.8165177954497C49.65709158923981,317.58941695247427,52.29695412174388,316.58689179512305,54.80908137041711,314.86325205090515C57.321208619090335,313.13961230668724,59.70560058393272,310.6948579756027,62.21595373144163,309.1053279563814C64.72630687895054,307.51579793716,67.36262120912598,306.78149222980187,69.95813121252212,305.89109159662814C72.55364121591825,305.0006909634543,75.10834689253508,303.9541954044649,77.70563099709554,302.7120315581854C80.302915101656,301.4698677119059,82.94277763416007,300.0320355783364,85.54006173872052,298.17428610912197C88.13734584328097,296.31653663990755,90.6920515198978,294.03886983504816,93.28933562445826,292.79011042852295C95.88661972901872,291.54135102199774,98.52648226152277,291.3214990138067,101.16634479402686,291.4072412970012C103.80620732653091,291.4929835801957,106.44606985903499,291.88432015477576,109.04335396359544,291.26873453184083C111.6406380681559,290.65314890890585,114.19534374477274,289.03064108845587,116.7944019504975,288.3117250216711C119.39346015622228,287.5928089548863,122.03687089105497,287.7774846417668,124.63592909677975,288.28314426060626C127.23498730250452,288.7888038794457,129.78969297912136,289.6154474302441,132.3869770836818,288.6217163532205C134.98426118824227,287.6279852761969,137.62412372074635,284.8138795713514,140.2639862532504,283.4420030402392C142.90384878575446,282.07012650912696,145.54371131825854,282.1404791517481,148.05583856693178,280.07387027475215C150.567965815605,278.0072613977562,152.95235778044736,273.8036910011432,155.46271092795627,272.29330770487064C157.97306407546517,270.7829244085981,160.60937840564063,271.96572821266597,163.20488840903678,272.18777874093894C165.8003984124329,272.4098292692119,168.35510408904975,271.67112652169,170.9523881936102,270.83788741064586C173.54967229817063,270.00464829960174,176.1895348306747,269.0768728250355,178.78681893523517,267.38181384188243C181.3841030397956,265.6867548587294,183.93880871641244,263.22441236698955,186.5360928209729,261.3248910162188C189.13337692553336,259.4253696654481,191.77323945803744,258.0886694556464,194.4131019905415,258.69326247817185C197.05296452304555,259.2978555006972,199.69282705554963,261.8437417555497,202.2901111601101,262.3867762157816C204.88739526467054,262.9298106760135,207.44210094128738,261.4699933416249,210.04115914701214,259.4385607859395C212.64021735273693,257.40712823025416,215.2836280875696,254.80408045327204,217.8826862932944,253.98403246271937C220.48174449901916,253.16398447216673,223.036450175636,254.12693626804355,225.63373428019645,252.60995741152527C228.2310183847569,251.09297855500697,230.870880917261,247.09606904609353,233.51074344976504,244.56337391173255C236.1506059822691,242.03067877737158,238.79046851477318,240.96219801756303,241.30259576344642,236.52118745210365C243.81472301211963,232.0801768866443,246.199114976962,224.26663651553412,248.7094681244709,221.9406022688727C251.2198212719798,219.6145680222113,253.85613560215526,222.7760398999987,256.4516456055514,222.6485257352479C259.04715560894755,222.52101157049708,261.6018612855644,219.10451136320805,264.19914539012484,217.99645724192513C266.7964294946853,216.88840312064218,269.4362920271893,218.08879508536535,272.0335761317498,219.00118091935826C274.63086023631024,219.91356675335115,277.18556591292713,220.53794645661378,279.7828500174876,219.9025741529416C282.38013412204805,219.26720184926947,285.0199966545521,217.37207753866255,287.65985918705616,218.10418472593878C290.29972171956024,218.836291913215,292.93958425206426,222.19563059837435,295.5368683566247,224.05997562783455C298.1341524611852,225.9243206572947,300.6888581378021,226.29367203105568,303.28791634352683,224.99874370281034C305.8869745492516,223.703815374565,308.5303852840843,220.74460734431335,311.1294434898091,220.5115642156308C313.7285016955338,220.27852108694833,316.2832073721506,222.7716428598349,318.88049147671114,221.52288345330973C321.47777558127154,220.2741240467845,324.1176381137756,215.2834834608475,326.7575006462797,212.06045302076654C329.39736317878373,208.83742258068565,332.0372257112878,207.38200228646087,334.59193138790465,204.63165366399073C337.1466370645215,201.8813050415206,339.6161858852511,197.83602809080514,342.16911746070366,196.92364225681223C344.7220490361562,196.01125642281937,347.3583633663316,198.23176170554905,349.9538733697278,198.34388622972648C352.5493833731239,198.45601075390394,355.1040890497407,196.45975451952913,357.70137315430117,196.0640209047852C360.2986572588616,195.6682872900413,362.9385197913657,196.8730762949283,365.53580389592616,195.1274513498913C368.1330880004866,193.3818264048543,370.68779367710346,188.68578750989332,373.2850777816639,187.2875287377982C375.8823618862244,185.88926996570308,378.52222441872846,187.78879131647383,381.1620869512325,190.33247905124438C383.80194948373656,192.8761667860149,386.44181201624065,196.0640209047852,389.0390961208011,194.3381826404854C391.63638022536156,192.6123443761856,394.1910859019784,185.97281372881568,396.7901441077031,183.8094699682157C399.3892023134279,181.64612620761568,402.0326130482606,183.9589693337856,404.63167125398536,187.91410696114272C407.2307294597101,191.86924458849987,409.78543513632695,197.46667671704418,412.38271924088735,196.10579278634154C414.98000334544787,194.74490885563887,417.61986587795195,186.42570886568924,420.25972841045603,182.7805625698815C422.8995909429601,179.13541627407378,425.53945347546414,180.16432367240793,428.05158072413735,176.84455834872296C430.56370797281056,173.52479302503798,432.94809993765296,165.8563549793339,435.45845308516186,162.83558838678877C437.9688062326708,159.81482179424364,440.60512056284625,161.44172665485746,443.20063056624235,163.3434465257101C445.79614056963857,165.24516639656275,448.3508462462554,167.42170127765422,450.94813035081586,170.057726855865C453.5454144553763,172.6937524340758,456.18527698788034,175.7892687094059,458.7825610924408,174.22392241108557C461.37984519700126,172.65857611276522,463.93455087361804,166.43236724079446,466.53183497817855,164.14370783552553C469.12911908273895,161.85504843025663,471.7689816152431,163.50393849168955,474.4088441477471,164.4866769683036C477.0487066802512,165.46941544491762,479.6885692127553,165.78600233671276,482.28585331731574,162.7982135453963C484.88313742187614,159.8104247540798,487.437843098493,153.51826027965174,490.03690130421774,151.71107677232123C492.6359595099425,149.90389326499076,495.27937024477524,152.58169072475783,497.8784284505,156.01358057262024C500.4774866562248,159.44547042048265,503.03219233284165,163.6314526564404,505.6294764374021,161.85504843025666C508.22676054196256,160.07864420407293,510.86662307446664,152.33985351574768,513.5064856069707,149.037676352718C516.1463481394748,145.7354991896883,518.7862106719788,146.86993555195414,521.298337920652,144.97920828151103C523.8104651693252,143.08848101106796,526.1948571341677,138.17259010791594,528.7052102816765,137.6449452882574C531.2155634291855,137.11730046859884,533.8518777593608,140.97790173243382,536.447387762757,146.01031419992714C539.0428977661531,151.04272666742042,541.5976034427699,157.24695033857208,544.1948875473304,163.41379916833125C546.7921716518908,169.58064799809043,549.432034184395,175.71012198645712,552.0293182889554,176.15862008316688C554.6266023935159,176.60711817987664,557.1813080701327,171.37464038492945,559.7785921746931,171.47577230869734C562.3758762792536,171.5769042324652,565.0157388117577,177.01164587494816,567.6556013442618,180.08517694945914C570.2954638767658,183.15870802397012,572.9353264092699,183.87102853050916,575.5326105138304,183.69514692395634C578.1298946183908,183.5192653174035,580.6846002950076,182.45518159775875,583.2836585007324,183.42912599404514C585.8827167064571,184.40307039033152,588.5261274412899,187.41504290254903,591.1251856470146,190.64686742295757C593.7242438527394,193.8786919433661,596.2789495293563,197.33036847196573,598.8762336339167,195.2659581150517C601.4735177384772,193.20154775813765,604.1133802709812,185.62105051570998,606.7532428034854,181.54499428384779C609.3931053359894,177.46893805198556,612.0329678684934,176.89732283068884,614.5450951171667,172.8564429201372C617.05722236584,168.81556300958556,619.4416143306823,161.305418409779,621.9519674781912,158.40117338157512C624.4623206257002,155.49692835337126,627.0986349558756,157.19858289677003,629.6941449592717,157.57892687094056C632.2896549626678,157.9592708451111,634.8443606392846,157.01830425005338,637.4416447438451,155.89046344803327C640.0389288484055,154.76262264601314,642.6787913809096,153.44790763703062,645.2760754854701,151.23179939446476C647.8733595900305,149.0156911518989,650.4280652666474,145.89818967574968,653.025349371208,146.65887762409074C655.6226334757683,147.4195655724318,658.2624960082724,152.05844294526312,660.9023585407764,155.0660184173168C663.5422210732804,158.07359388937047,666.1820836057846,159.4498674606465,668.779367710345,159.9951004409603C671.3766518149055,160.5403334212741,673.9313574915222,160.25452581062575,676.530415697247,161.02840487945826C679.1294739029718,161.8022839482908,681.7728846378045,163.63584969660423,684.3719428435293,163.51932813226296C686.971001049254,163.4028065679217,689.5257067258709,161.33619769092576,692.1229908304314,190.87551351147627C694.7202749349918,220.41482933202678,697.3601374674959,281.56006985012374,698.6800687337479,312.1326901091722L700,342.7053103682207" fill="none"></path></g><g class="serie"><path class="line PHP" d="M7.919587597512202,347.8630384803829L9.239518863764236,347.1353283332705C10.55945013001627,346.40761818615806,13.199312662520338,344.9521978919333,15.796596767080791,343.9342830940087C18.393880871641244,342.9163682960841,20.948586548258085,342.3359589944597,23.547644753982855,342.3029811932311C26.146702959707625,342.2700033920024,28.790113694540327,342.7844570911695,31.3891719002651,343.1010439829646C33.98823010598987,343.4176308747597,36.54293578260671,343.53635095918287,39.14021988716716,343.23295518787927C41.73750399172762,342.92955941657556,44.37736652423168,342.2040477895451,47.01722905673575,341.55328584529957C49.65709158923981,340.90252390105405,52.29695412174388,340.3265116395935,54.80908137041711,339.748300858051C57.321208619090335,339.1700900765085,59.70560058393272,338.5896807748841,62.21595373144163,338.1477782384201C64.72630687895054,337.705875701956,67.36262120912598,337.40247993065236,69.95813121252212,336.78249726755365C72.55364121591825,336.1625146044548,75.10834689253508,335.2259450495609,77.70563099709554,333.8870463196774C80.302915101656,332.5481475897938,82.94277763416007,330.8069196849207,85.54006173872052,328.929383534969C88.13734584328097,327.05184738501737,90.6920515198978,325.0380029899873,93.28933562445826,323.6749205392028C95.88661972901872,322.3118380884182,98.52648226152277,321.5995175818792,101.16634479402686,321.0762698023845C103.80620732653091,320.55302202288976,106.44606985903499,320.21884697043936,109.04335396359544,319.82531187577734C111.6406380681559,319.43177678111533,114.19534374477274,318.9788816442417,116.7944019504975,318.0335180090202C119.39346015622228,317.0881543737986,122.03687089105497,315.6503222402291,124.63592909677975,314.63680448246834C127.23498730250452,313.62328672470755,129.78969297912136,313.03408334275554,132.3869770836818,311.3720021608312C134.98426118824227,309.7099209789068,137.62412372074635,306.97496199701,140.2639862532504,306.2274651691604C142.90384878575446,305.4799683413108,145.54371131825854,306.71993366750837,148.05583856693178,306.0471865224437C150.567965815605,305.3744393773791,152.95235778044736,302.78897976105225,155.46271092795627,301.6985138004246C157.97306407546517,300.60804783979694,160.60937840564063,301.01257553486846,163.20488840903678,300.4717395947185C165.8003984124329,299.9309036545685,168.35510408904975,298.4447040791969,170.9523881936102,297.4355833616C173.54967229817063,296.42646264400304,176.1895348306747,295.89442078418074,178.78681893523517,294.4477945702836C181.3841030397956,293.0011683563864,183.93880871641244,290.63995778841445,186.5360928209729,288.2435708991319C189.13337692553336,285.84718400984934,191.77323945803744,283.41562079925626,194.4131019905415,283.2177539918843C197.05296452304555,283.01988718451236,199.69282705554963,285.05571678036154,202.2901111601101,286.447379992211C204.88739526467054,287.8390432040604,207.44210094128738,288.58654003191,210.04115914701214,287.5906104348045C212.64021735273693,286.594680837699,215.2836280875696,283.85532481563837,217.8826862932944,281.8788552620008C220.48174449901916,279.90238570836317,223.036450175636,278.68880262314855,225.63373428019645,275.7713664744532C228.2310183847569,272.85393032575786,230.870880917261,268.23264111358185,233.51074344976504,265.26903604316635C236.1506059822691,262.3054309727509,238.79046851477318,260.99951004409604,241.30259576344642,257.1762836216535C243.81472301211963,253.35305719921104,246.199114976962,247.0125252829809,248.7094681244709,244.85577708262662C251.2198212719798,242.69902888227236,253.85613560215526,244.72606439779392,256.4516456055514,244.82279928139798C259.04715560894755,244.91953416500206,261.6018612855644,243.08596841668864,264.19914539012484,242.3296775085114C266.7964294946853,241.57338660033417,269.4362920271893,241.89437053229312,272.0335761317498,240.5400821618362C274.63086023631024,239.1857937913793,277.18556591292713,236.15623311850652,279.7828500174876,234.06983756077338C282.38013412204805,231.98344200304024,285.0199966545521,230.84021156044673,287.65985918705616,232.12634580836442C290.29972171956024,233.4124800562821,292.93958425206426,237.127978994711,295.5368683566247,239.05388258646465C298.1341524611852,240.97978617821832,300.6888581378021,241.11609442329677,303.28791634352683,239.78598977374088C305.8869745492516,238.45588512418496,308.5303852840843,235.6593675799947,311.1294434898091,235.0789582783703C313.7285016955338,234.4985489767459,316.2832073721506,236.1342479176874,318.88049147671114,234.72059950501887C321.47777558127154,233.3069510923504,324.1176381137756,228.84395532607192,326.7575006462797,225.2185957110014C329.39736317878373,221.59323609593085,332.0372257112878,218.80551263206823,334.59193138790465,215.16036633626047C337.1466370645215,211.51522004045273,339.6161858852511,207.01265091269988,342.16911746070366,205.82545006846817C344.7220490361562,204.63824922423646,347.3583633663316,206.7664166635259,349.9538733697278,206.67847586024948C352.5493833731239,206.59053505697307,355.1040890497407,204.2864860111308,357.70137315430117,203.92592871769747C360.2986572588616,203.56537142426413,362.9385197913657,205.14830588323974,365.53580389592616,203.28835789394338C368.1330880004866,201.42840990464705,370.68779367710346,196.12557946707875,373.2850777816639,193.10701139461554C375.8823618862244,190.0884433221523,378.52222441872846,189.35413761479418,381.1620869512325,191.2096885639267C383.80194948373656,193.06523951305923,386.44181201624065,197.51064711868239,389.0390961208011,197.86680737195192C391.63638022536156,198.22296762522143,394.1910859019784,194.48988052613728,396.7901441077031,192.5200065327454C399.3892023134279,190.5501325393535,402.0326130482606,190.3434716516539,404.63167125398536,191.8384653073531C407.2307294597101,193.3334589630523,409.78543513632695,196.53010716215027,412.38271924088735,194.11173507204865C414.98000334544787,191.69336298194702,417.61986587795195,183.65997060264576,420.25972841045603,180.09836806995062C422.8995909429601,176.53676553725546,425.53945347546414,177.44695285116646,428.05158072413735,174.3162602545258C430.56370797281056,171.18556765788514,432.94809993765296,164.01399515069284,435.45845308516186,162.14965012123264C437.9688062326708,160.2853050917725,440.60512056284625,163.72818754004447,443.20063056624235,166.2938604756341C445.79614056963857,168.85953341122377,448.3508462462554,170.54799683413108,450.94813035081586,172.37936406236258C453.5454144553763,174.21073129059408,456.18527698788034,176.18500232414976,458.7825610924408,173.53798414552944C461.37984519700126,170.8909659669091,463.93455087361804,163.62265857611274,466.53183497817855,160.09623236472817C469.12911908273895,156.56980615334362,471.7689816152431,156.78526112137087,474.4088441477471,156.95234864759607C477.0487066802512,157.11943617382127,479.6885692127553,157.23815625824443,482.28585331731574,154.78460784683222C484.88313742187614,152.33105943542003,487.437843098493,147.30524252817244,490.03690130421774,145.88939559542203C492.6359595099425,144.47354866267162,495.27937024477524,146.66767170441838,497.8784284505,148.7650598625611C500.4774866562248,150.86244802070377,503.03219233284165,152.8631012952424,505.6294764374021,148.38911292855437C508.22676054196256,143.91512456186635,510.86662307446664,132.9664945539517,513.5064856069707,128.09237553235593C516.1463481394748,123.2182565107602,518.7862106719788,124.41864847548337,521.298337920652,120.96477342680183C523.8104651693252,117.51089837812032,526.1948571341677,109.4027563160341,528.7052102816765,106.79311297880625C531.2155634291855,104.1834696415784,533.8518777593608,107.0723250292089,536.447387762757,115.03096772572519C539.0428977661531,122.98961042224147,541.5976034427699,136.01804042764354,544.1948875473304,146.51157677860274C546.7921716518908,157.00511312956192,549.432034184395,164.9637558260782,552.0293182889554,166.13556702973654C554.6266023935159,167.30737823339487,557.1813080701327,161.69235794419527,559.7785921746931,161.3010213696152C562.3758762792536,160.9096847950351,565.0157388117577,165.74203193507455,567.6556013442618,167.82183193256196C570.2954638767658,169.90163193004935,572.9353264092699,169.2288847849847,575.5326105138304,168.32749155140138C578.1298946183908,167.42609831781803,580.6846002950076,166.296058995716,583.2836585007324,167.02596766291032C585.8827167064571,167.75587633010463,588.5261274412899,170.3457329865953,591.1251856470146,173.03892008693575C593.7242438527394,175.7321071872762,596.2789495293563,178.52862473146644,598.8762336339167,174.7735524315632C601.4735177384772,171.01848013165994,604.1133802709812,160.71181798766315,606.7532428034854,155.8135152451664C609.3931053359894,150.91521250266965,612.0329678684934,151.42526916167287,614.5450951171667,147.94501187200842C617.05722236584,144.46475458234397,619.4416143306823,136.99418334401184,621.9519674781912,133.73377806253845C624.4623206257002,130.47337278106508,627.0986349558756,131.42313345645044,629.6941449592717,132.933516752723C632.2896549626678,134.44390004899557,634.8443606392846,136.51490596615534,637.4416447438451,137.53721780424374C640.0389288484055,138.55952964233217,642.6787913809096,138.53314740134923,645.2760754854701,136.00484930715206C647.8733595900305,133.47655121295492,650.4280652666474,128.44633726554352,653.025349371208,128.70356411512705C655.6226334757683,128.9607909647106,658.2624960082724,134.50545861128907,660.9023585407764,138.86732245379966C663.5422210732804,143.22918629631025,666.1820836057846,146.40824633475293,668.779367710345,147.070000879408C671.3766518149055,147.7317554240631,673.9313574915222,145.87620447493057,676.530415697247,146.3137099712308C679.1294739029718,146.75121546753098,681.7728846378045,149.4817774092639,684.3719428435293,147.07219939948993C686.971001049254,144.66262138971592,689.5257067258709,137.112903428435,692.1229908304314,168.22196258746968C694.7202749349918,199.33102174650435,697.3601374674959,269.09885802585455,698.6800687337479,303.9827761655297L700,338.8666943052048" fill="none"></path></g><g class="serie"><path class="line Ruby" d="M7.919587597512202,349.01066596314024L9.239518863764236,348.53578562544755C10.55945013001627,348.06090528775485,13.199312662520338,347.11114461236946,15.796596767080791,346.7198080377894C18.393880871641244,346.3284714632093,20.948586548258085,346.49555898943447,23.547644753982855,346.7813666000829C26.146702959707625,347.06717421073125,28.790113694540327,347.4717019058028,31.3891719002651,347.6695687131747C33.98823010598987,347.8674355205467,36.54293578260671,347.85864144021906,39.14021988716716,347.7487154361235C41.73750399172762,347.63878943202803,44.37736652423168,347.4277315041646,47.01722905673575,347.1507179738438C49.65709158923981,346.87370444352314,52.29695412174388,346.53073531074506,54.80908137041711,346.2669129009158C57.321208619090335,346.00309049108654,59.70560058393272,345.8184148042061,62.21595373144163,345.66451839847235C64.72630687895054,345.5106219927386,67.36262120912598,345.3875048681516,69.95813121252212,345.22041734192635C72.55364121591825,345.0533298157012,75.10834689253508,344.84227188783774,77.70563099709554,344.6773828816945C80.302915101656,344.5124938755512,82.94277763416007,344.393773791128,85.54006173872052,344.1783188231008C88.13734584328097,343.9628638550736,90.6920515198978,343.65067400344225,93.28933562445826,343.53635095918287C95.88661972901872,343.42202791492355,98.52648226152277,343.5055716780362,101.16634479402686,343.558336160002C103.80620732653091,343.6111006419678,106.44606985903499,343.63308584278695,109.04335396359544,343.6176962022136C111.6406380681559,343.6023065616402,114.19534374477274,343.5495420796743,116.7944019504975,343.15160994484853C119.39346015622228,342.75367781002274,122.03687089105497,342.0105780223369,124.63592909677975,341.836894935866C127.23498730250452,341.663211849395,129.78969297912136,342.0589454641389,132.3869770836818,341.99738690184546C134.98426118824227,341.93582833955196,137.62412372074635,341.4169776002211,140.2639862532504,341.1465596301461C142.90384878575446,340.8761416600711,145.54371131825854,340.854156459252,148.05583856693178,340.83876681867866C150.567965815605,340.82337717810526,152.95235778044736,340.8145830977776,155.46271092795627,340.67827485269913C157.97306407546517,340.5419666076207,160.60937840564063,340.27814419779145,163.20488840903678,340.091269990829C165.8003984124329,339.9043957838666,168.35510408904975,339.7944697797711,170.9523881936102,339.55702961092476C173.54967229817063,339.3195894420784,176.1895348306747,338.9546351084812,178.78681893523517,338.6534378572595C181.3841030397956,338.35224060603775,183.93880871641244,338.1148004371914,186.5360928209729,337.79821354539627C189.13337692553336,337.48162665360115,191.77323945803744,337.08589303885725,194.4131019905415,337.01993743639997C197.05296452304555,336.95398183394263,199.69282705554963,337.21780424377187,202.2901111601101,337.3914873302428C204.88739526467054,337.5651704167137,207.44210094128738,337.64871417982636,210.04115914701214,337.6772949408912C212.64021735273693,337.7058757019561,215.2836280875696,337.6794934609731,217.8826862932944,337.4596414527821C220.48174449901916,337.239789444591,223.036450175636,336.82646766919186,225.63373428019645,336.2174776065026C228.2310183847569,335.60848754381334,230.870880917261,334.8038291938341,233.51074344976504,334.29816957499463C236.1506059822691,333.7925099561552,238.79046851477318,333.5858490684556,241.30259576344642,332.618500232415C243.81472301211963,331.6511513963743,246.199114976962,329.9231146119926,248.7094681244709,329.4306461136447C251.2198212719798,328.9381776152967,253.85613560215526,329.68127740298246,256.4516456055514,329.85276196937144C259.04715560894755,330.0242465357605,261.6018612855644,329.62411588085274,264.19914539012484,329.4328446337266C266.7964294946853,329.2415733866003,269.4362920271893,329.25916154725564,272.0335761317498,329.2041985452079C274.63086023631024,329.1492355431601,277.18556591292713,329.0217213784093,279.7828500174876,328.3357831128532C282.38013412204805,327.6498448472971,285.0199966545521,326.4054824809357,287.65985918705616,326.48023216372064C290.29972171956024,326.5549818465056,292.93958425206426,327.94884357843694,295.5368683566247,328.5248558398975C298.1341524611852,329.10086810135806,300.6888581378021,328.8590308923479,303.28791634352683,328.43471651653914C305.8869745492516,328.01040214073043,308.5303852840843,327.40361059812307,311.1294434898091,327.1969497104235C313.7285016955338,326.99028882272387,316.2832073721506,327.18375858993204,318.88049147671114,326.8078116559253C321.47777558127154,326.4318647219186,324.1176381137756,325.48650108669705,326.7575006462797,324.7346072186836C329.39736317878373,323.9827133506702,332.0372257112878,323.4242892498649,334.59193138790465,322.77792434578316C337.1466370645215,322.1315594417015,339.6161858852511,321.3972537343434,342.16911746070366,321.51597381876655C344.7220490361562,321.6346939031897,347.3583633663316,322.6064397793942,349.9538733697278,323.05933491626774C352.5493833731239,323.51223005314137,355.1040890497407,323.44627445068403,357.70137315430117,323.65293533838366C360.2986572588616,323.8595962260832,362.9385197913657,324.33887360393976,365.53580389592616,324.184977198206C368.1330880004866,324.03108079247227,370.68779367710346,323.24401060314824,373.2850777816639,322.84387994824056C375.8823618862244,322.44374929333276,378.52222441872846,322.4305581728413,381.1620869512325,322.6833879822611C383.80194948373656,322.93621779168075,386.44181201624065,323.45506853101165,389.0390961208011,323.03075415520294C391.63638022536156,322.6064397793942,394.1910859019784,321.2389602884458,396.7901441077031,320.8542192741114C399.3892023134279,320.46947825977713,402.0326130482606,321.06747572205677,404.63167125398536,321.8655385117903C407.2307294597101,322.66360130152384,409.78543513632695,323.6617294187113,412.38271924088735,323.25940024372164C414.98000334544787,322.857071068732,417.61986587795195,321.0542846015653,420.25972841045603,320.30019221347C422.8995909429601,319.54609982537465,425.53945347546414,319.8407015163507,428.05158072413735,319.2492996143167C430.56370797281056,318.65789771228276,432.94809993765296,317.1804922172389,435.45845308516186,316.6506488774984C437.9688062326708,316.120805537758,440.60512056284625,316.538524353321,443.20063056624235,317.0573750926519C445.79614056963857,317.5762258319828,448.3508462462554,318.1962084950816,450.94813035081586,318.77002223646025C453.5454144553763,319.3438359778389,456.18527698788034,319.8714807974975,458.7825610924408,319.65822434955214C461.37984519700126,319.4449679016068,463.93455087361804,318.4908101860576,466.53183497817855,317.9213934848427C469.12911908273895,317.35197678362795,471.7689816152431,317.16730109674745,474.4088441477471,317.2728300606791C477.0487066802512,317.37835902461086,479.6885692127553,317.77409263935476,482.28585331731574,317.11453661478157C484.88313742187614,316.4549805902084,487.437843098493,314.74013492631815,490.03690130421774,314.3465998316562C492.6359595099425,313.9530647369942,495.27937024477524,314.88084021156044,497.8784284505,315.62174147916426C500.4774866562248,316.3626427467682,503.03219233284165,316.9166698074096,505.6294764374021,316.4857598713552C508.22676054196256,316.0548499353007,510.86662307446664,314.6390030025503,513.5064856069707,314.25646050829783C516.1463481394748,313.8739180140454,518.7862106719788,314.5246799582909,521.298337920652,314.1267478234651C523.8104651693252,313.7288156886393,526.1948571341677,312.28218947474215,528.7052102816765,312.013970024749C531.2155634291855,311.74575057475596,533.8518777593608,312.6559378886669,536.447387762757,313.2825161120114C539.0428977661531,313.9090943353559,541.5976034427699,314.252063468134,544.1948875473304,315.1468611414716C546.7921716518908,316.04165881480924,549.432034184395,317.4882850287064,552.0293182889554,317.7367177979623C554.6266023935159,317.98515056721817,557.1813080701327,317.0353898918328,559.7785921746931,316.7561778414302C562.3758762792536,316.4769657910275,565.0157388117577,316.8683023656076,567.6556013442618,317.4992776291159C570.2954638767658,318.13025289262424,572.9353264092699,319.00086684506084,575.5326105138304,319.2778803753816C578.1298946183908,319.55489390570233,580.6846002950076,319.2383070139072,583.2836585007324,319.5812761466853C585.8827167064571,319.9242452794633,588.5261274412899,320.92677043681454,591.1251856470146,321.33349665196795C593.7242438527394,321.7402228671214,596.2789495293563,321.5511501400771,598.8762336339167,320.41891229789314C601.4735177384772,319.2866744557092,604.1133802709812,317.2112714983856,606.7532428034854,316.51214211233804C609.3931053359894,315.8130127262905,612.0329678684934,316.49015691151897,614.5450951171667,316.44398798979887C617.05722236584,316.3978190680787,619.4416143306823,315.62833703941004,621.9519674781912,315.14246410130784C624.4623206257002,314.6565911632056,627.0986349558756,314.4543273156698,629.6941449592717,314.36198947222954C632.2896549626678,314.2696516287893,634.8443606392846,314.2872397894446,637.4416447438451,314.0937700222364C640.0389288484055,313.90030025502836,642.6787913809096,313.4957725599568,645.2760754854701,313.3704569152879C647.8733595900305,313.245141270619,650.4280652666474,313.3990376763527,653.025349371208,314.0585937009259C655.6226334757683,314.718149725499,658.2624960082724,315.88336536891165,660.9023585407764,316.8661038455257C663.5422210732804,317.8488423221397,666.1820836057846,318.64910363195514,668.779367710345,318.9107275217025C671.3766518149055,319.1723514114499,673.9313574915222,318.8953378811292,676.530415697247,319.2383070139072C679.1294739029718,319.58127614668524,681.7728846378045,320.5442279425621,684.3719428435293,320.7618814306713C686.971001049254,320.97953491878036,689.5257067258709,320.45189009912184,692.1229908304314,324.99842962851295C694.7202749349918,329.544969157904,697.3601374674959,339.1656930363447,698.6800687337479,343.97605497556503L700,348.7864169147854" fill="none"></path></g><g class="serie"><path class="line Python" d="M7.919587597512202,348.2983454566012L9.239518863764236,347.3859596226083C10.55945013001627,346.47357378861545,13.199312662520338,344.6488021206296,15.796596767080791,343.79797484893027C18.393880871641244,342.9471475772308,20.948586548258085,343.0702647018178,23.547644753982855,343.26373446902596C26.146702959707625,343.4572042362341,28.790113694540327,343.72102664606336,31.3891719002651,343.8749230517971C33.98823010598987,344.02881945753086,36.54293578260671,344.07278985916906,39.14021988716716,343.67485772434327C41.73750399172762,343.2769255895174,44.37736652423168,342.43709091822757,47.01722905673575,342.010578022337C49.65709158923981,341.58406512644626,52.29695412174388,341.5708740059548,54.80908137041711,341.28286787522455C57.321208619090335,340.9948617444943,59.70560058393272,340.43204060352514,62.21595373144163,340.1462329928768C64.72630687895054,339.8604253822284,67.36262120912598,339.85163130190074,69.95813121252212,339.3349790826518C72.55364121591825,338.8183268634028,75.10834689253508,337.7938165052325,77.70563099709554,337.1870249626251C80.302915101656,336.5802334200178,82.94277763416007,336.3911606929735,85.54006173872052,336.01961079913065C88.13734584328097,335.6480609052877,90.6920515198978,335.0940338446463,93.28933562445826,334.87418183645525C95.88661972901872,334.65432982826417,98.52648226152277,334.7686528725235,101.16634479402686,334.757660272114C103.80620732653091,334.74666767170436,106.44606985903499,334.6103594266259,109.04335396359544,333.98597972336336C111.6406380681559,333.3616000201007,114.19534374477274,332.24914885865394,116.7944019504975,331.37413786605356C119.39346015622228,330.4991268734532,122.03687089105497,329.86155604969906,124.63592909677975,329.4878076357743C127.23498730250452,329.1140592218495,129.78969297912136,329.004133217754,132.3869770836818,328.1555044661365C134.98426118824227,327.30687571451904,137.62412372074635,325.71954421537964,140.2639862532504,325.1149511928542C142.90384878575446,324.5103581703288,145.54371131825854,324.8885036244174,148.05583856693178,324.6180856543424C150.567965815605,324.3476676842674,152.95235778044736,323.42868629002874,155.46271092795627,323.52981821379666C157.97306407546517,323.6309501375645,160.60937840564063,324.7521953793389,163.20488840903678,324.873113983844C165.8003984124329,324.9940325883491,168.35510408904975,324.11462455558484,170.9523881936102,323.22202540232917C173.54967229817063,322.32942624907344,176.1895348306747,321.4236359753263,178.78681893523517,320.0891342856066C181.3841030397956,318.75463259588685,183.93880871641244,316.9914194901946,186.5360928209729,316.37803238734153C189.13337692553336,315.76464528448844,191.77323945803744,316.30108418447463,194.4131019905415,317.10134549429006C197.05296452304555,317.90160680410554,199.69282705554963,318.96569052375025,202.2901111601101,318.56995690900635C204.88739526467054,318.1742232942625,207.44210094128738,316.31867234513,210.04115914701214,315.51621251523267C212.64021735273693,314.71375268533524,215.2836280875696,314.96438397467307,217.8826862932944,315.357919069335C220.48174449901916,315.751454163997,223.036450175636,316.2878930639832,225.63373428019645,315.62613851932815C228.2310183847569,314.964383974673,230.870880917261,313.10443598537665,233.51074344976504,311.93482330180024C236.1506059822691,310.7652106182238,238.79046851477318,310.28593324036734,241.30259576344642,308.4149926506615C243.81472301211963,306.54405206095555,246.199114976962,303.28144825940024,248.7094681244709,302.5471425520421C251.2198212719798,301.81283684468394,253.85613560215526,303.60682923152297,256.4516456055514,304.1278784909358C259.04715560894755,304.6489277503486,261.6018612855644,303.89703388233517,264.19914539012484,303.64420407291544C266.7964294946853,303.3913742634958,269.4362920271893,303.6376085126698,272.0335761317498,303.29244085980974C274.63086023631024,302.94727320694983,277.18556591292713,302.0107036520559,279.7828500174876,301.197251221749C282.38013412204805,300.3837987914421,285.0199966545521,299.6934634857222,287.65985918705616,300.0584178193193C290.29972171956024,300.4233721529165,292.93958425206426,301.8436161258307,295.5368683566247,302.28991570245853C298.1341524611852,302.7362152790864,300.6888581378021,302.20857045942785,303.28791634352683,301.4105076696943C305.8869745492516,300.6124448799608,308.5303852840843,299.5439641201523,311.1294434898091,299.5593537607256C313.7285016955338,299.574743401299,316.2832073721506,300.6740034422543,318.88049147671114,299.9331021746504C321.47777558127154,299.1922009070465,324.1176381137756,296.61113833088353,326.7575006462797,294.67863917888417C329.39736317878373,292.74614002688475,332.0372257112878,291.46220429904895,334.59193138790465,289.6088518699983C337.1466370645215,287.7554994409477,339.6161858852511,285.3327303106822,342.16911746070366,284.3719770348873C344.7220490361562,283.4112237590924,347.3583633663316,283.9124863377681,349.9538733697278,283.7475973316248C352.5493833731239,283.58270832548146,355.1040890497407,282.7516677345193,357.70137315430117,281.97998718576866C360.2986572588616,281.20830663701804,362.9385197913657,280.495986130479,365.53580389592616,279.08453623789245C368.1330880004866,277.6730863453058,370.68779367710346,275.5625070666717,373.2850777816639,274.27857133883595C375.8823618862244,272.99463561100015,378.52222441872846,272.53734343396275,381.1620869512325,273.61022123393514C383.80194948373656,274.68309903390747,386.44181201624065,277.2861468108896,389.0390961208011,276.6441789469717C391.63638022536156,276.0022110830538,394.1910859019784,272.11522757823593,396.7901441077031,269.5869294840387C399.3892023134279,267.0586313898416,402.0326130482606,265.8890187062651,404.63167125398536,266.72885337755497C407.2307294597101,267.5686880488448,409.78543513632695,270.41797007500094,412.38271924088735,269.9958542192741C414.98000334544787,269.57373836354725,417.61986587795195,265.8802246259375,420.25972841045603,263.6531237829621C422.8995909429601,261.42602293998664,425.53945347546414,260.66533499164564,428.05158072413735,258.29093330318216C430.56370797281056,255.91653161471876,432.94809993765296,251.92841618613298,435.45845308516186,249.3077802484956C437.9688062326708,246.68714431085817,440.60512056284625,245.43398786416915,443.20063056624235,245.093217251473C445.79614056963857,244.75244663877686,448.3508462462554,245.32406186007358,450.94813035081586,246.0935438887423C453.5454144553763,246.863025917411,456.18527698788034,247.83037475345165,458.7825610924408,246.10673500923377C461.37984519700126,244.38309526501587,463.93455087361804,239.96846694053943,466.53183497817855,239.26054347416425C469.12911908273895,238.55262000778902,471.7689816152431,241.55140139951504,474.4088441477471,242.954057211774C477.0487066802512,244.35671302403296,479.6885692127553,244.16324325682484,482.28585331731574,240.6631992864232C484.88313742187614,237.16315531602154,487.437843098493,230.3565371424264,490.03690130421774,226.96641917612027C492.6359595099425,223.57630120981418,495.27937024477524,223.6026834507971,497.8784284505,225.88474729582026C500.4774866562248,228.16681114084344,503.03219233284165,232.70455658990687,505.6294764374021,231.94167012148392C508.22676054196256,231.17878365306095,510.86662307446664,225.11526526715159,513.5064856069707,221.9384037487908C516.1463481394748,218.76154223043,518.7862106719788,218.4713375796178,521.298337920652,214.9559039686428C523.8104651693252,211.44047035766778,526.1948571341677,204.69980778652996,528.7052102816765,202.69915451199134C531.2155634291855,200.69850123745272,533.8518777593608,203.4378572595133,536.447387762757,208.16907247578484C539.0428977661531,212.90028769205642,541.5976034427699,219.62336210253898,544.1948875473304,223.77856505734997C546.7921716518908,227.93376801216095,549.432034184395,229.52109951130038,552.0293182889554,228.0327014158469C554.6266023935159,226.54430332039345,557.1813080701327,221.9801756303471,559.7785921746931,221.50749381273633C562.3758762792536,221.03481199512555,565.0157388117577,224.65357604995037,567.6556013442618,227.1774771039837C570.2954638767658,229.70137815801706,572.9353264092699,231.13041621125893,575.5326105138304,230.0289576502217C578.1298946183908,228.92749908918452,580.6846002950076,225.29554391386824,583.2836585007324,223.5213382077664C585.8827167064571,221.7471325016646,588.5261274412899,221.8306762647772,591.1251856470146,223.05964899056522C593.7242438527394,224.28862171635322,596.2789495293563,226.66302340481664,598.8762336339167,224.9899496224827C601.4735177384772,223.31687584014875,604.1133802709812,217.59632658701744,606.7532428034854,213.40155027073206C609.3931053359894,209.20677395444667,612.0329678684934,206.53777057500722,614.5450951171667,201.93187100340452C617.05722236584,197.3259714318019,619.4416143306823,190.78317566803602,621.9519674781912,188.0965841279413C624.4623206257002,185.40999258784657,627.0986349558756,186.57960527142302,629.6941449592717,187.71184311360696C632.2896549626678,188.8440809557909,634.8443606392846,189.93894395658236,637.4416447438451,188.91003655824824C640.0389288484055,187.88112915991405,642.6787913809096,184.72845136245428,645.2760754854701,181.70108920966345C647.8733595900305,178.67372705687256,650.4280652666474,175.77168054875062,653.025349371208,177.0116458749482C655.6226334757683,178.25161120114575,658.2624960082724,183.63358836166282,660.9023585407764,187.05888264927947C663.5422210732804,190.48417693689618,666.1820836057846,191.9527883516124,668.779367710345,188.67479490948378C671.3766518149055,185.3968014673551,673.9313574915222,177.3722031683815,676.530415697247,173.90733551929046C679.1294739029718,170.44246787019938,681.7728846378045,171.53733087099084,684.3719428435293,172.32659958039673C686.971001049254,173.11586828980262,689.5257067258709,173.59954270782293,692.1229908304314,201.8615183607834C694.7202749349918,230.12349401374388,697.3601374674959,286.16377090164445,698.6800687337479,314.18390934559477L700,342.2040477895451" fill="none"></path></g><g class="serie"><path class="line SQL" d="M7.919587597512202,348.03452304677194L9.239518863764236,347.26064397793937C10.55945013001627,346.48676490910685,13.199312662520338,344.9390067714418,15.796596767080791,344.0793854194148C18.393880871641244,343.21976406738776,20.948586548258085,343.0482795009987,23.547644753982855,343.24174926820683C26.146702959707625,343.435219035415,28.790113694540327,343.99364313622027,31.3891719002651,344.2442744255581C33.98823010598987,344.49490571489594,36.54293578260671,344.4377441927662,39.14021988716716,344.0530031784318C41.73750399172762,343.66826216409754,44.37736652423168,342.95594165755847,47.01722905673575,342.4217012776543C49.65709158923981,341.88746089775,52.29695412174388,341.53130064448044,54.80908137041711,341.3664116383371C57.321208619090335,341.20152263219387,59.70560058393272,341.2279048731768,62.21595373144163,341.06521438711536C64.72630687895054,340.902523901054,67.36262120912598,340.55076068794835,69.95813121252212,340.1462329928768C72.55364121591825,339.74170529780525,75.10834689253508,339.28441312076785,77.70563099709554,338.8776869056144C80.302915101656,338.4709606904609,82.94277763416007,338.1148004371914,85.54006173872052,337.58935413761475C88.13734584328097,337.0639078380381,90.6920515198978,336.3691754921544,93.28933562445826,336.14272792371764C95.88661972901872,335.91628035528083,98.52648226152277,336.158117564291,101.16634479402686,335.55352454176557C103.80620732653091,334.9489315192402,106.44606985903499,333.49790826517926,109.04335396359544,332.5107727484014C111.6406380681559,331.5236372316235,114.19534374477274,331.00038945212884,116.7944019504975,331.3125793037601C119.39346015622228,331.6247691553914,122.03687089105497,332.7723966381487,124.63592909677975,333.41656302214847C127.23498730250452,334.0607294061483,129.78969297912136,334.20143469139055,132.3869770836818,334.10909684795035C134.98426118824227,334.0167590045101,137.62412372074635,333.6913780323873,140.2639862532504,333.4561363836229C142.90384878575446,333.22089473485846,145.54371131825854,333.07579240945233,148.05583856693178,332.61850023241493C150.567965815605,332.16120805537753,152.95235778044736,331.39172602670885,155.46271092795627,331.31917486400584C157.97306407546517,331.2466237013028,160.60937840564063,331.8710034045654,163.20488840903678,331.90837824595786C165.8003984124329,331.94575308735034,168.35510408904975,331.39612306687275,170.9523881936102,330.71678036156237C173.54967229817063,330.037437656252,176.1895348306747,329.2283822661089,178.78681893523517,328.36656239399997C181.3841030397956,327.504742521891,183.93880871641244,326.5901581678162,186.5360928209729,325.9503888239802C189.13337692553336,325.3106194801442,191.77323945803744,324.94566514654707,194.4131019905415,325.15012751416475C197.05296452304555,325.35458988178243,199.69282705554963,326.12846895061494,202.2901111601101,326.2669757157753C204.88739526467054,326.4054824809357,207.44210094128738,325.90861694242386,210.04115914701214,325.3941632432568C212.64021735273693,324.87970954408974,215.2836280875696,324.3476676842674,217.8826862932944,324.26632244123664C220.48174449901916,324.18497719820596,223.036450175636,324.55432857196695,225.63373428019645,323.7254865010867C228.2310183847569,322.8966444302064,230.870880917261,320.8696089146848,233.51074344976504,320.348559655272C236.1506059822691,319.82751039585924,238.79046851477318,320.8124473925552,241.30259576344642,320.12431060691716C243.81472301211963,319.43617382127917,246.199114976962,317.0749632533072,248.7094681244709,316.6968177992186C251.2198212719798,316.3186723451299,253.85613560215526,317.92359200492467,256.4516456055514,317.81806304099297C259.04715560894755,317.71253407706126,261.6018612855644,315.8965564894031,264.19914539012484,315.11168482016103C266.7964294946853,314.32681315091895,269.4362920271893,314.57304740009295,272.0335761317498,314.63460596238644C274.63086023631024,314.69616452467994,277.18556591292713,314.57304740009295,279.7828500174876,314.522481438209C282.38013412204805,314.4719154763251,285.0199966545521,314.49390067714415,287.65985918705616,314.6917674845161C290.29972171956024,314.88963429188806,292.93958425206426,315.2633827058129,295.5368683566247,315.44585987261144C298.1341524611852,315.62833703941,300.6888581378021,315.61954295908237,303.28791634352683,315.063317378359C305.8869745492516,314.5070917976356,308.5303852840843,313.40343471651653,311.1294434898091,313.40123619643464C313.7285016955338,313.3990376763527,316.2832073721506,314.498297717308,318.88049147671114,314.59723112099397C321.47777558127154,314.69616452467994,324.1176381137756,313.7947712910966,326.7575006462797,312.55700448498095C329.39736317878373,311.3192376788653,332.0372257112878,309.7450973002173,334.59193138790465,307.9291197125592C337.1466370645215,306.11314212490106,339.6161858852511,304.0553273282328,342.16911746070366,303.61342479176875C344.7220490361562,303.1715222553047,347.3583633663316,304.34553197904495,349.9538733697278,304.5851706679732C352.5493833731239,304.8248093569014,355.1040890497407,304.1300770110177,357.70137315430117,304.19823113355693C360.2986572588616,304.26638525609616,362.9385197913657,305.09742584705833,365.53580389592616,304.6049573487104C368.1330880004866,304.1124888503624,370.68779367710346,302.29651126270426,373.2850777816639,301.45667659141446C375.8823618862244,300.6168419201246,378.52222441872846,300.7531501652031,381.1620869512325,301.00817849470474C383.80194948373656,301.26320682420635,386.44181201624065,301.6369552381311,389.0390961208011,300.72676792422016C391.63638022536156,299.8165806103092,394.1910859019784,297.62245756856237,396.7901441077031,296.0065453083581C399.3892023134279,294.39063304815386,402.0326130482606,293.35293156949206,404.63167125398536,293.8541941481676C407.2307294597101,294.3554567268433,409.78543513632695,296.3956833628563,412.38271924088735,295.6811643362353C414.98000334544787,294.96664530961436,417.61986587795195,291.49738062035954,420.25972841045603,289.936431362203C422.8995909429601,288.3754821040465,425.53945347546414,288.72284827698843,428.05158072413735,287.4081332680059C430.56370797281056,286.09341825902334,432.94809993765296,283.1166220681164,435.45845308516186,282.0569353886355C437.9688062326708,280.99724870915463,440.60512056284625,281.8546715410998,443.20063056624235,282.4614630837071C445.79614056963857,283.0682546263144,448.3508462462554,283.4244148795839,450.94813035081586,284.14113242628673C453.5454144553763,284.8578499729896,456.18527698788034,285.93512481312575,458.7825610924408,284.994158218068C461.37984519700126,284.05319162301026,463.93455087361804,281.09398359275866,466.53183497817855,279.71111446123695C469.12911908273895,278.3282453297152,471.7689816152431,278.5217150969233,474.4088441477471,277.43344765637755C477.0487066802512,276.3451802158318,479.6885692127553,273.97517556753223,482.28585331731574,270.6949836053216C484.88313742187614,267.4147916431111,487.437843098493,263.2244123669895,490.03690130421774,261.7514039121094C492.6359595099425,260.27839545722935,495.27937024477524,261.5227578235907,497.8784284505,262.81548763175414C500.4774866562248,264.10821743991755,503.03219233284165,265.449314689883,505.6294764374021,264.3456576087639C508.22676054196256,263.2420005276448,510.86662307446664,259.6935891154411,513.5064856069707,258.13263985728463C516.1463481394748,256.57169059912815,518.7862106719788,256.9982034950188,521.298337920652,255.42846015653464C523.8104651693252,253.85871681805048,526.1948571341677,250.2927172451915,528.7052102816765,248.35142401286447C531.2155634291855,246.41013078053743,533.8518777593608,246.0935438887423,536.447387762757,248.22390984811364C539.0428977661531,250.354275807485,541.5976034427699,254.9315946180228,544.1948875473304,258.12824281712085C546.7921716518908,261.32489101621877,549.432034184395,263.1408686038769,552.0293182889554,262.96058995716027C554.6266023935159,262.7803113104436,557.1813080701327,260.60377642935214,559.7785921746931,260.951142602294C562.3758762792536,261.29850877523586,565.0157388117577,264.16977600221105,567.6556013442618,265.3437857259513C570.2954638767658,266.51779544969156,572.9353264092699,265.9945476701968,575.5326105138304,267.7137903742509C578.1298946183908,269.43303307830496,580.6846002950076,273.39476626590783,583.2836585007324,277.9808791567733C585.8827167064571,282.5669920476388,588.5261274412899,287.7774846417669,591.1251856470146,290.5410243847285C593.7242438527394,293.30456412769007,596.2789495293563,293.6211510194852,598.8762336339167,292.8472719506526C601.4735177384772,292.0733928818201,604.1133802709812,290.2090478523599,606.7532428034854,289.3758087413158C609.3931053359894,288.5425696302717,612.0329678684934,288.74043643764367,614.5450951171667,287.46089774997165C617.05722236584,286.18135906229975,619.4416143306823,283.4244148795839,621.9519674781912,282.4438749230518C624.4623206257002,281.4633349665197,627.0986349558756,282.2591992361713,629.6941449592717,283.077048706642C632.2896549626678,283.89489817711274,634.8443606392846,284.7347328484026,637.4416447438451,285.04032713978813C640.0389288484055,285.34592143117374,642.6787913809096,285.11727534265503,645.2760754854701,284.5544542016859C647.8733595900305,283.9916330607168,650.4280652666474,283.0946368672973,653.025349371208,283.66185504843025C655.6226334757683,284.22907322956314,658.2624960082724,286.26050578524854,660.9023585407764,287.57082375406725C663.5422210732804,288.88114172288596,666.1820836057846,289.470345104838,668.779367710345,289.4571539843465C671.3766518149055,289.44396286385506,673.9313574915222,288.8283772409201,676.530415697247,288.69866455608735C679.1294739029718,288.5689518712546,681.7728846378045,288.92511212452416,684.3719428435293,288.9756780864081C686.971001049254,289.026244048292,689.5257067258709,288.7712157187904,692.1229908304314,298.5238508021457C694.7202749349918,308.2764858855011,697.3601374674959,328.03678438171335,698.6800687337479,337.9169336298195L700,347.7970828779256" fill="none"></path></g><g class="serie"><path class="line Javascript" d="M7.919587597512202,347.82346511890853L9.239518863764236,346.77696955991905C10.55945013001627,345.7304740009297,13.199312662520338,343.6374828829508,15.796596767080791,342.4107086772447C18.393880871641244,341.1839344715386,20.948586548258085,340.82337717810526,23.547644753982855,340.97287654367517C26.146702959707625,341.1223759092451,28.790113694540327,341.7819319338182,31.3891719002651,341.9863943014359C33.98823010598987,342.1908566690536,36.54293578260671,341.9402253797158,39.14021988716716,341.4631465219412C41.73750399172762,340.9860676641666,44.37736652423168,340.28254123795523,47.01722905673575,339.57461777158C49.65709158923981,338.86669430520476,52.29695412174388,338.1543737986658,54.80908137041711,337.67069938064543C57.321208619090335,337.1870249626251,59.70560058393272,336.9319966331235,62.21595373144163,336.70774758476864C64.72630687895054,336.4834985364138,67.36262120912598,336.2900287692056,69.95813121252212,335.3534592143117C72.55364121591825,334.4168896594178,75.10834689253508,332.73722031683815,77.70563099709554,331.62257063530944C80.302915101656,330.5079209537808,82.94277763416007,329.95829093330315,85.54006173872052,329.2657571075014C88.13734584328097,328.5732232816995,90.6920515198978,327.73778565057347,93.28933562445826,327.06943554567266C95.88661972901872,326.40108544077185,98.52648226152277,325.89982286209624,101.16634479402686,325.89982286209624C103.80620732653091,325.89982286209624,106.44606985903499,326.40108544077185,109.04335396359544,326.02074146660135C111.6406380681559,325.6403974924308,114.19534374477274,324.3784469654141,116.7944019504975,323.32095880601514C119.39346015622228,322.26347064661616,122.03687089105497,321.41044485483485,124.63592909677975,320.8234399929647C127.23498730250452,320.2364351310946,129.78969297912136,319.91545119913565,132.3869770836818,319.0580283671905C134.98426118824227,318.20060553524536,137.62412372074635,316.8067438033141,140.2639862532504,316.0504528951369C142.90384878575446,315.29416198695964,145.54371131825854,315.1754419025365,148.05583856693178,314.36858503247527C150.567965815605,313.5617281624141,152.95235778044736,312.0667345067149,155.46271092795627,311.2203042751793C157.97306407546517,310.37387404364375,160.60937840564063,310.1760072362718,163.20488840903678,309.63297277603994C165.8003984124329,309.08993831580796,168.35510408904975,308.2017362027161,170.9523881936102,307.1772258445458C173.54967229817063,306.1527154863754,176.1895348306747,304.9918968831266,178.78681893523517,303.5298810286561C181.3841030397956,302.06786517418556,183.93880871641244,300.3046520684933,186.5360928209729,299.0866719431148C189.13337692553336,297.86869181773636,191.77323945803744,297.1959446726717,194.4131019905415,296.83978441940224C197.05296452304555,296.4836241661327,199.69282705554963,296.44405080465833,202.2901111601101,296.18242691491093C204.88739526467054,295.92080302516365,207.44210094128738,295.4371286071433,210.04115914701214,294.2301410821744C212.64021735273693,293.02315355720543,215.2836280875696,291.09285292528796,217.8826862932944,289.2153167753363C220.48174449901916,287.3377806253847,223.036450175636,285.51300895739894,225.63373428019645,283.52994384351564C228.2310183847569,281.5468787296323,230.870880917261,279.40552016985134,233.51074344976504,277.98747471701904C236.1506059822691,276.56942926418674,238.79046851477318,275.87469691830296,241.30259576344642,272.92648148846087C243.81472301211963,269.97826605861883,246.199114976962,264.77656754481836,248.7094681244709,261.7821831932562C251.2198212719798,258.787798841694,253.85613560215526,258.00072865236996,256.4516456055514,256.7981381675649C259.04715560894755,255.59554768275984,261.6018612855644,253.97743690247364,264.19914539012484,252.33514240128645C266.7964294946853,250.69284790009922,269.4362920271893,249.026369678011,272.0335761317498,247.3005314137112C274.63086023631024,245.5746931494114,277.18556591292713,243.7894948429,279.7828500174876,241.07652106182238C282.38013412204805,238.36354728074474,285.0199966545521,234.72279802510081,287.65985918705616,234.46117413535347C290.29972171956024,234.1995502456061,292.93958425206426,237.31705172175532,295.5368683566247,239.26054347416425C298.1341524611852,241.20403522657318,300.6888581378021,241.9735172552419,303.28791634352683,240.90943353559717C305.8869745492516,239.84534981595243,308.5303852840843,236.94770034799433,311.1294434898091,236.32991620497745C313.7285016955338,235.71213206196057,316.2832073721506,237.37421324388498,318.88049147671114,235.34717772836342C321.47777558127154,233.32014221284186,324.1176381137756,227.60398999987436,326.7575006462797,223.82693249915198C329.39736317878373,220.04987499842963,332.0372257112878,218.2119122099524,334.59193138790465,215.6330481538713C337.1466370645215,213.0541840977902,339.6161858852511,209.73441877410522,342.16911746070366,208.1273005942286C344.7220490361562,206.52018241435195,347.3583633663316,206.62571137828365,349.9538733697278,204.80093971029788C352.5493833731239,202.97616804231208,355.1040890497407,199.2210957424088,357.70137315430117,197.9987185768665C360.2986572588616,196.77634141132424,362.9385197913657,198.08665938014295,365.53580389592616,196.2640862322391C368.1330880004866,194.4415130843352,370.68779367710346,189.4860488197088,373.2850777816639,186.80825135994172C375.8823618862244,184.13045390017464,378.52222441872846,183.7303232452669,381.1620869512325,186.43889998618073C383.80194948373656,189.14747672709456,386.44181201624065,194.96476086382995,389.0390961208011,195.0834809482531C391.63638022536156,195.2022010326763,394.1910859019784,189.62235706478725,396.7901441077031,186.93136848452872C399.3892023134279,184.24037990427016,402.0326130482606,184.43824671164208,404.63167125398536,185.88926996570305C407.2307294597101,187.34029321976402,409.78543513632695,190.04447292051404,412.38271924088735,186.72031055666525C414.98000334544787,183.39614819281647,417.61986587795195,174.04364376436888,420.25972841045603,169.48831015465018C422.8995909429601,164.93297654493145,425.53945347546414,165.17481375394163,428.05158072413735,161.7187401851782C430.56370797281056,158.26266661641478,432.94809993765296,151.10868226987776,435.45845308516186,147.4811241347253C437.9688062326708,143.85356599957285,440.60512056284625,143.75243407580496,443.20063056624235,144.66701842987976C445.79614056963857,145.58160278395457,448.3508462462554,147.51190341587204,450.94813035081586,149.42901292729806C453.5454144553763,151.34612243872408,456.18527698788034,153.25004082965864,458.7825610924408,149.22894759984422C461.37984519700126,145.20785437002976,463.93455087361804,135.26174951946632,466.53183497817855,130.27770449377505C469.12911908273895,125.29365946808377,471.7689816152431,125.27167426726464,474.4088441477471,123.32158695460997C477.0487066802512,121.3714996419553,479.6885692127553,117.49331021746505,482.28585331731574,111.04505081722132C484.88313742187614,104.59679141697761,487.437843098493,95.57846204098041,490.03690130421774,93.78446965414139C492.6359595099425,91.99047726730235,495.27937024477524,97.42082186962148,497.8784284505,101.21546753099913C500.4774866562248,105.01011319237679,503.03219233284165,107.16905991281298,505.6294764374021,101.38035653714245C508.22676054196256,95.5916531614719,510.86662307446664,81.8552996896946,513.5064856069707,74.85741026897324C516.1463481394748,67.85952084825186,518.7862106719788,67.60009547858641,521.298337920652,64.04069146597318C523.8104651693252,60.481287453359954,526.1948571341677,53.62190479779896,528.7052102816765,52.907385771178014C531.2155634291855,52.19286674455708,533.8518777593608,57.623211346876204,536.447387762757,63.950552142614846C539.0428977661531,70.27789293835349,541.5976034427699,77.50222992751165,544.1948875473304,84.41437706503851C546.7921716518908,91.32652420256537,549.432034184395,97.92648148846091,552.0293182889554,97.28451362454302C554.6266023935159,96.64254576062513,557.1813080701327,88.7586527468938,559.7785921746931,88.4068895337881C562.3758762792536,88.05512632068242,565.0157388117577,95.23549290820235,567.6556013442618,99.68529755398936C570.2954638767658,104.13510219977636,572.9353264092699,105.85434490383045,575.5326105138304,104.86501086697069C578.1298946183908,103.87567683011093,580.6846002950076,100.17776605233735,583.2836585007324,100.358044699054C585.8827167064571,100.53832334577068,588.5261274412899,104.59679141697761,591.1251856470146,108.83553813490119C593.7242438527394,113.07428485282479,596.2789495293563,117.49331021746504,598.8762336339167,112.50047111144613C601.4735177384772,107.5076320054272,604.1133802709812,93.10292842874911,606.7532428034854,85.48285782484704C609.3931053359894,77.862787220945,612.0329678684934,77.02734958981897,614.5450951171667,71.68934283094009C617.05722236584,66.3513360720612,619.4416143306823,56.51076018542946,621.9519674781912,51.72238344702822C624.4623206257002,46.93400670862698,627.0986349558756,47.19782911845625,629.6941449592717,44.34195153205441C632.2896549626678,41.486073945652564,634.8443606392846,35.51049636301963,637.4416447438451,30.988140554529572C640.0389288484055,26.46578474603952,642.6787913809096,23.396650711692367,645.2760754854701,18.474164248294585C647.8733595900305,13.551677784896805,650.4280652666474,6.7758388924484025,653.025349371208,7.712408447342307C655.6226334757683,8.648978002236213,658.2624960082724,17.297956004472425,660.9023585407764,23.216372064975697C663.5422210732804,29.13478812547897,666.1820836057846,32.32264224424931,668.779367710345,32.71397881882939C671.3766518149055,33.10531539340947,673.9313574915222,30.700134423799298,676.530415697247,30.609995100440962C679.1294739029718,30.51985577708263,681.7728846378045,32.74475809997613,684.3719428435293,32.294061483184464C686.971001049254,31.843364866392797,689.5257067258709,28.717069309915953,692.1229908304314,79.00381914345657C694.7202749349918,129.29056897699718,697.3601374674959,232.99036420055526,698.6800687337479,284.84026181233435L700,336.69015942411335" fill="none"></path></g><g class="label " transform="translate(730,0)"><circle cy="0" cx="0" r="0.4em" class="label C"></circle><text y="10pt" x="20pt">C</text></g><g class="label " transform="translate(730,40)"><circle cy="0" cx="0" r="0.4em" class="label Cplusplus"></circle><text y="10pt" x="20pt">C++</text></g><g class="label " transform="translate(730,80)"><circle cy="0" cx="0" r="0.4em" class="label Java"></circle><text y="10pt" x="20pt">Java</text></g><g class="label " transform="translate(730,120)"><circle cy="0" cx="0" r="0.4em" class="label PHP"></circle><text y="10pt" x="20pt">PHP</text></g><g class="label " transform="translate(730,160)"><circle cy="0" cx="0" r="0.4em" class="label Ruby"></circle><text y="10pt" x="20pt">Ruby</text></g><g class="label " transform="translate(730,200)"><circle cy="0" cx="0" r="0.4em" class="label Python"></circle><text y="10pt" x="20pt">Python</text></g><g class="label " transform="translate(730,240)"><circle cy="0" cx="0" r="0.4em" class="label SQL"></circle><text y="10pt" x="20pt">SQL</text></g><g class="label " transform="translate(730,280)"><circle cy="0" cx="0" r="0.4em" class="label Javascript"></circle><text y="10pt" x="20pt">Javascript</text></g></g></svg>