<?xml version="1.0" standalone="no"?><!DOCTYPE svg PUBLIC "-//W3C//DTD SVG 1.1//EN" "http://www.w3.org/Graphics/SVG/1.1/DTD/svg11.dtd"><svg width="600" height="300" class="chart" filename="stackoverflow-tags.svg" transform="translate(20,20)" version="1.1" xmlns="http://www.w3.org/2000/svg" xlink="http://www.w3.org/1999/xlink"><defs><style type="text/css"><![CDATA[
html, body  { width: 1000px; height: 100%; margin-top: auto; margin-right: auto; margin-bottom: auto; margin-left: auto; }
text { font-family: 'Gotham Rounded'; font-weight: 100; color: blue; }
.axis path, .axis line { fill: none; stroke: #000000; shape-rendering: crispedges; }
.grid .tick { stroke: #d3d3d3; opacity: 0.7; }
.grid path { stroke-width: 0px; }
.line { stroke-width: 1.5pt; stroke: #000000; }
.label.Javascript, .slice.Javascript { fill: #e31a1c; }
.line.Javascript { stroke: #e31a1c; }
.label.Ruby, .slice.Ruby { fill: #fc4e2a; }
.line.Ruby { stroke: #fc4e2a; }
.label.Python, .slice.Python { fill: #fd8d3c; }
.line.Python { stroke: #fd8d3c; }
.label.Csharp, .slice.Csharp { fill: #bd0026; }
.line.Csharp { stroke: #bd0026; }
.label.PHP, .slice.PHP { fill: #78c679; }
.line.PHP { stroke: #78c679; }
.label.XML_Schema, .slice.XML_Schema { fill: #41ab5d; }
.line.XML_Schema { stroke: #41ab5d; }
.label.SQL, .slice.SQL { fill: #238443; }
.line.SQL { stroke: #238443; }
.label.Perl, .slice.Perl { fill: #006837; }
.line.Perl { stroke: #006837; }
.label.C, .slice.C { fill: #41b6c4; }
.line.C { stroke: #41b6c4; }
.label.Cplusplus, .slice.Cplusplus { fill: #1d91c0; }
.line.Cplusplus { stroke: #1d91c0; }
.label.Java, .slice.Java { fill: #225ea8; }
.line.Java { stroke: #225ea8; }
.label.VisualBasicNET, .slice.VisualBasicNET { fill: #253494; }
.line.VisualBasicNET { stroke: #253494; }
.label.Autoconf, .slice.Autoconf { fill: #f768a1; }
.line.Autoconf { stroke: #f768a1; }
.label.Assembler, .slice.Assembler { fill: #dd3497; }
.line.Assembler { stroke: #dd3497; }
.label.Shell, .slice.Shell { fill: #ae017e; }
.line.Shell { stroke: #ae017e; }
.label.Make, .slice.Make { fill: #7a0177; }
.line.Make { stroke: #7a0177; }
.label.Swift, .slice.Swift { fill: #addd8e; }
.line.Swift { stroke: #addd8e; }
.label.ObjectiveC, .slice.ObjectiveC, .label.iOS, .slice.iOS { fill: #78c679; }
.line.ObjectiveC, .line.iOS { stroke: #78c679; }
.label.CSS, .slice.CSS { fill: #41ab5d; }
.line.CSS { stroke: #41ab5d; }
.slice.Arduino__Raspberry_Pi { fill: #7fcdbb; }
.line.Arduino__Raspberry_Pi { stroke: #7fcdbb; }
.slice.Android { fill: #41b6c4; }
.line.Android { stroke: #41b6c4; }
.label.AngularJS, .slice.AngularJS { fill: #feb24c; }
.line.AngularJS { stroke: #feb24c; }
.label.Nodejs, .slice.Nodejs { fill: #fd8d3c; }
.line.Nodejs { stroke: #fd8d3c; }
.label.Bower { fill: #bd0026; }
.line.Bower { stroke: #bd0026; }
.label.npm { fill: #e31a1c; }
.line.npm { stroke: #e31a1c; }
.label.PyPI { fill: #fd8d3c; }
.line.PyPI { stroke: #fd8d3c; }
.label.Rubygems { fill: #fc4e2a; }
.line.Rubygems { stroke: #fc4e2a; }
.label.Clojars { fill: #000000; }
.line.Clojars { stroke: #000000; }
.label.Hackage { fill: #000000; }
.line.Hackage { stroke: #000000; }
.label.Hex { fill: #000000; }
.line.Hex { stroke: #000000; }
.label.LuaRocks { fill: #000000; }
.line.LuaRocks { stroke: #000000; }
.label.CPAN { fill: #41ab5d; }
.line.CPAN { stroke: #41ab5d; }
.label.CPAN_search { fill: #000000; }
.line.CPAN_search { stroke: #000000; }
.label.CRAN { fill: #000000; }
.line.CRAN { stroke: #000000; }
.label.Perl6Eco { fill: #006837; }
.line.Perl6Eco { stroke: #006837; }
.label.Drupal { fill: #000000; }
.line.Drupal { stroke: #000000; }
.label.Packagist { fill: #dd3497; }
.line.Packagist { stroke: #dd3497; }
.label.Pear { fill: #8996b8; }
.line.Pear { stroke: #8996b8; }
.label.MELPA { fill: #000000; }
.line.MELPA { stroke: #000000; }
.label.Crates { fill: #000000; }
.line.Crates { stroke: #000000; }
.label.GoDoc { fill: #41b6c4; }
.line.GoDoc { stroke: #41b6c4; }
.label.Maven { fill: #225ea8; }
.line.Maven { stroke: #225ea8; }
.label.nugets { fill: #253494; }
.line.nugets { stroke: #253494; }
.slice.nocont { fill: #feb24c; }
.line.nocont { stroke: #feb24c; }
.slice.eval { fill: #fd8d3c; }
.line.eval { stroke: #fd8d3c; }
.slice.lib { fill: #fc4e2a; }
.line.lib { stroke: #fc4e2a; }
.slice.err { fill: #e31a1c; }
.line.err { stroke: #e31a1c; }
.slice.fail { fill: #bd0026; }
.line.fail { stroke: #bd0026; }
.slice.notest { fill: #800026; }
.line.notest { stroke: #800026; }
.slice.ok { fill: #7fcdbb; }
.line.ok { stroke: #7fcdbb; }
svg { overflow-x: visible; overflow-y: visible; border-top-width: 2px; border-right-width: 2px; border-bottom-width: 2px; border-left-width: 2px; border-top-style: dotted; border-right-style: dotted; border-bottom-style: dotted; border-left-style: dotted; border-top-color: black; border-right-color: black; border-bottom-color: black; border-left-color: black; }]]></style></defs><rect x="-197.58" y="-20" width="956" height="320" fill="#FDFBF7"></rect><g></g><g class="x axis" transform="translate(0,260)"><g class="tick" style="opacity: 1; " transform="translate(0,0)"><line y2="3" x2="0" stroke-width="0.4pt" stroke-linecap="round"></line></g><g class="tick" style="opacity: 1; " transform="translate(6.408170170878385,0)"><line y2="3" x2="0" stroke-width="0.4pt" stroke-linecap="round"></line></g><g class="tick" style="opacity: 1; " transform="translate(12.81634034175677,0)"><line y2="3" x2="0" stroke-width="0.4pt" stroke-linecap="round"></line></g><g class="tick" style="opacity: 1; " transform="translate(19.017795345832628,0)"><line y2="3" x2="0" stroke-width="0.4pt" stroke-linecap="round"></line></g><g class="tick" style="opacity: 1; " transform="translate(25.43457864866112,0)"><line y2="3" x2="0" stroke-width="0.4pt" stroke-linecap="round"></line></g><g class="tick" style="opacity: 1; " transform="translate(31.636033652736977,0)"><line y2="3" x2="0" stroke-width="0.4pt" stroke-linecap="round"></line></g><g class="tick" style="opacity: 1; " transform="translate(38.04420382361536,0)"><line y2="6" x2="0" stroke-width="1pt" stroke-linecap="round"></line></g><g class="tick" style="opacity: 1; " transform="translate(44.45237399449375,0)"><line y2="3" x2="0" stroke-width="0.4pt" stroke-linecap="round"></line></g><g class="tick" style="opacity: 1; " transform="translate(50.24039866496455,0)"><line y2="3" x2="0" stroke-width="0.4pt" stroke-linecap="round"></line></g><g class="tick" style="opacity: 1; " transform="translate(56.639955703892824,0)"><line y2="3" x2="0" stroke-width="0.4pt" stroke-linecap="round"></line></g><g class="tick" style="opacity: 1; " transform="translate(62.841410707968684,0)"><line y2="3" x2="0" stroke-width="0.4pt" stroke-linecap="round"></line></g><g class="tick" style="opacity: 1; " transform="translate(69.24958087884707,0)"><line y2="3" x2="0" stroke-width="0.4pt" stroke-linecap="round"></line></g><g class="tick" style="opacity: 1; " transform="translate(75.45103588292292,0)"><line y2="3" x2="0" stroke-width="0.4pt" stroke-linecap="round"></line></g><g class="tick" style="opacity: 1; " transform="translate(81.8592060538013,0)"><line y2="3" x2="0" stroke-width="0.4pt" stroke-linecap="round"></line></g><g class="tick" style="opacity: 1; " transform="translate(88.2673762246797,0)"><line y2="3" x2="0" stroke-width="0.4pt" stroke-linecap="round"></line></g><g class="tick" style="opacity: 1; " transform="translate(94.46883122875555,0)"><line y2="3" x2="0" stroke-width="0.4pt" stroke-linecap="round"></line></g><g class="tick" style="opacity: 1; " transform="translate(100.88561453158404,0)"><line y2="3" x2="0" stroke-width="0.4pt" stroke-linecap="round"></line></g><g class="tick" style="opacity: 1; " transform="translate(107.0870695356599,0)"><line y2="3" x2="0" stroke-width="0.4pt" stroke-linecap="round"></line></g><g class="tick" style="opacity: 1; " transform="translate(113.49523970653829,0)"><line y2="6" x2="0" stroke-width="1pt" stroke-linecap="round"></line><text dy="3pt" style="text-anchor: middle; font-family: 'Gotham Rounded'; " y="14" x="0">2010</text></g><g class="tick" style="opacity: 1; " transform="translate(119.90340987741668,0)"><line y2="3" x2="0" stroke-width="0.4pt" stroke-linecap="round"></line></g><g class="tick" style="opacity: 1; " transform="translate(125.69143454788747,0)"><line y2="3" x2="0" stroke-width="0.4pt" stroke-linecap="round"></line></g><g class="tick" style="opacity: 1; " transform="translate(132.09099158681576,0)"><line y2="3" x2="0" stroke-width="0.4pt" stroke-linecap="round"></line></g><g class="tick" style="opacity: 1; " transform="translate(138.29244659089161,0)"><line y2="3" x2="0" stroke-width="0.4pt" stroke-linecap="round"></line></g><g class="tick" style="opacity: 1; " transform="translate(144.70061676177,0)"><line y2="3" x2="0" stroke-width="0.4pt" stroke-linecap="round"></line></g><g class="tick" style="opacity: 1; " transform="translate(150.90207176584585,0)"><line y2="3" x2="0" stroke-width="0.4pt" stroke-linecap="round"></line></g><g class="tick" style="opacity: 1; " transform="translate(157.31024193672425,0)"><line y2="3" x2="0" stroke-width="0.4pt" stroke-linecap="round"></line></g><g class="tick" style="opacity: 1; " transform="translate(163.7184121076026,0)"><line y2="3" x2="0" stroke-width="0.4pt" stroke-linecap="round"></line></g><g class="tick" style="opacity: 1; " transform="translate(169.91986711167849,0)"><line y2="3" x2="0" stroke-width="0.4pt" stroke-linecap="round"></line></g><g class="tick" style="opacity: 1; " transform="translate(176.33665041450698,0)"><line y2="3" x2="0" stroke-width="0.4pt" stroke-linecap="round"></line></g><g class="tick" style="opacity: 1; " transform="translate(182.53810541858283,0)"><line y2="3" x2="0" stroke-width="0.4pt" stroke-linecap="round"></line></g><g class="tick" style="opacity: 1; " transform="translate(188.9462755894612,0)"><line y2="6" x2="0" stroke-width="1pt" stroke-linecap="round"></line></g><g class="tick" style="opacity: 1; " transform="translate(195.3544457603396,0)"><line y2="3" x2="0" stroke-width="0.4pt" stroke-linecap="round"></line></g><g class="tick" style="opacity: 1; " transform="translate(201.14247043081042,0)"><line y2="3" x2="0" stroke-width="0.4pt" stroke-linecap="round"></line></g><g class="tick" style="opacity: 1; " transform="translate(207.54202746973868,0)"><line y2="3" x2="0" stroke-width="0.4pt" stroke-linecap="round"></line></g><g class="tick" style="opacity: 1; " transform="translate(213.74348247381454,0)"><line y2="3" x2="0" stroke-width="0.4pt" stroke-linecap="round"></line></g><g class="tick" style="opacity: 1; " transform="translate(220.15165264469294,0)"><line y2="3" x2="0" stroke-width="0.4pt" stroke-linecap="round"></line></g><g class="tick" style="opacity: 1; " transform="translate(226.35310764876877,0)"><line y2="3" x2="0" stroke-width="0.4pt" stroke-linecap="round"></line></g><g class="tick" style="opacity: 1; " transform="translate(232.76127781964718,0)"><line y2="3" x2="0" stroke-width="0.4pt" stroke-linecap="round"></line></g><g class="tick" style="opacity: 1; " transform="translate(239.16944799052555,0)"><line y2="3" x2="0" stroke-width="0.4pt" stroke-linecap="round"></line></g><g class="tick" style="opacity: 1; " transform="translate(245.37090299460144,0)"><line y2="3" x2="0" stroke-width="0.4pt" stroke-linecap="round"></line></g><g class="tick" style="opacity: 1; " transform="translate(251.7876862974299,0)"><line y2="3" x2="0" stroke-width="0.4pt" stroke-linecap="round"></line></g><g class="tick" style="opacity: 1; " transform="translate(257.98914130150575,0)"><line y2="3" x2="0" stroke-width="0.4pt" stroke-linecap="round"></line></g><g class="tick" style="opacity: 1; " transform="translate(264.39731147238416,0)"><line y2="6" x2="0" stroke-width="1pt" stroke-linecap="round"></line><text dy="3pt" style="text-anchor: middle; font-family: 'Gotham Rounded'; " y="14" x="0">2012</text></g><g class="tick" style="opacity: 1; " transform="translate(270.8054816432625,0)"><line y2="3" x2="0" stroke-width="0.4pt" stroke-linecap="round"></line></g><g class="tick" style="opacity: 1; " transform="translate(276.80022148053587,0)"><line y2="3" x2="0" stroke-width="0.4pt" stroke-linecap="round"></line></g><g class="tick" style="opacity: 1; " transform="translate(283.19977851946413,0)"><line y2="3" x2="0" stroke-width="0.4pt" stroke-linecap="round"></line></g><g class="tick" style="opacity: 1; " transform="translate(289.40123352354,0)"><line y2="3" x2="0" stroke-width="0.4pt" stroke-linecap="round"></line></g><g class="tick" style="opacity: 1; " transform="translate(295.8094036944184,0)"><line y2="3" x2="0" stroke-width="0.4pt" stroke-linecap="round"></line></g><g class="tick" style="opacity: 1; " transform="translate(302.01085869849425,0)"><line y2="3" x2="0" stroke-width="0.4pt" stroke-linecap="round"></line></g><g class="tick" style="opacity: 1; " transform="translate(308.4190288693726,0)"><line y2="3" x2="0" stroke-width="0.4pt" stroke-linecap="round"></line></g><g class="tick" style="opacity: 1; " transform="translate(314.827199040251,0)"><line y2="3" x2="0" stroke-width="0.4pt" stroke-linecap="round"></line></g><g class="tick" style="opacity: 1; " transform="translate(321.02865404432686,0)"><line y2="3" x2="0" stroke-width="0.4pt" stroke-linecap="round"></line></g><g class="tick" style="opacity: 1; " transform="translate(327.44543734715535,0)"><line y2="3" x2="0" stroke-width="0.4pt" stroke-linecap="round"></line></g><g class="tick" style="opacity: 1; " transform="translate(333.6468923512312,0)"><line y2="3" x2="0" stroke-width="0.4pt" stroke-linecap="round"></line></g><g class="tick" style="opacity: 1; " transform="translate(340.0550625221096,0)"><line y2="6" x2="0" stroke-width="1pt" stroke-linecap="round"></line></g><g class="tick" style="opacity: 1; " transform="translate(346.46323269298796,0)"><line y2="3" x2="0" stroke-width="0.4pt" stroke-linecap="round"></line></g><g class="tick" style="opacity: 1; " transform="translate(352.25125736345876,0)"><line y2="3" x2="0" stroke-width="0.4pt" stroke-linecap="round"></line></g><g class="tick" style="opacity: 1; " transform="translate(358.6508144023871,0)"><line y2="3" x2="0" stroke-width="0.4pt" stroke-linecap="round"></line></g><g class="tick" style="opacity: 1; " transform="translate(364.8522694064629,0)"><line y2="3" x2="0" stroke-width="0.4pt" stroke-linecap="round"></line></g><g class="tick" style="opacity: 1; " transform="translate(371.26043957734134,0)"><line y2="3" x2="0" stroke-width="0.4pt" stroke-linecap="round"></line></g><g class="tick" style="opacity: 1; " transform="translate(377.46189458141714,0)"><line y2="3" x2="0" stroke-width="0.4pt" stroke-linecap="round"></line></g><g class="tick" style="opacity: 1; " transform="translate(383.8700647522956,0)"><line y2="3" x2="0" stroke-width="0.4pt" stroke-linecap="round"></line></g><g class="tick" style="opacity: 1; " transform="translate(390.27823492317395,0)"><line y2="3" x2="0" stroke-width="0.4pt" stroke-linecap="round"></line></g><g class="tick" style="opacity: 1; " transform="translate(396.47968992724975,0)"><line y2="3" x2="0" stroke-width="0.4pt" stroke-linecap="round"></line></g><g class="tick" style="opacity: 1; " transform="translate(402.8964732300783,0)"><line y2="3" x2="0" stroke-width="0.4pt" stroke-linecap="round"></line></g><g class="tick" style="opacity: 1; " transform="translate(409.09792823415415,0)"><line y2="3" x2="0" stroke-width="0.4pt" stroke-linecap="round"></line></g><g class="tick" style="opacity: 1; " transform="translate(415.50609840503256,0)"><line y2="6" x2="0" stroke-width="1pt" stroke-linecap="round"></line><text dy="3pt" style="text-anchor: middle; font-family: 'Gotham Rounded'; " y="14" x="0">2014</text></g><g class="tick" style="opacity: 1; " transform="translate(421.9142685759109,0)"><line y2="3" x2="0" stroke-width="0.4pt" stroke-linecap="round"></line></g><g class="tick" style="opacity: 1; " transform="translate(427.70229324638177,0)"><line y2="3" x2="0" stroke-width="0.4pt" stroke-linecap="round"></line></g><g class="tick" style="opacity: 1; " transform="translate(434.10185028531,0)"><line y2="3" x2="0" stroke-width="0.4pt" stroke-linecap="round"></line></g><g class="tick" style="opacity: 1; " transform="translate(440.3033052893859,0)"><line y2="3" x2="0" stroke-width="0.4pt" stroke-linecap="round"></line></g><g class="tick" style="opacity: 1; " transform="translate(446.71147546026424,0)"><line y2="3" x2="0" stroke-width="0.4pt" stroke-linecap="round"></line></g><g class="tick" style="opacity: 1; " transform="translate(452.9129304643401,0)"><line y2="3" x2="0" stroke-width="0.4pt" stroke-linecap="round"></line></g><g class="tick" style="opacity: 1; " transform="translate(459.3211006352185,0)"><line y2="3" x2="0" stroke-width="0.4pt" stroke-linecap="round"></line></g><g class="tick" style="opacity: 1; " transform="translate(465.72927080609685,0)"><line y2="3" x2="0" stroke-width="0.4pt" stroke-linecap="round"></line></g><g class="tick" style="opacity: 1; " transform="translate(471.93072581017276,0)"><line y2="3" x2="0" stroke-width="0.4pt" stroke-linecap="round"></line></g><g class="tick" style="opacity: 1; " transform="translate(478.3475091130012,0)"><line y2="3" x2="0" stroke-width="0.4pt" stroke-linecap="round"></line></g><g class="tick" style="opacity: 1; " transform="translate(484.5489641170771,0)"><line y2="3" x2="0" stroke-width="0.4pt" stroke-linecap="round"></line></g><g class="tick" style="opacity: 1; " transform="translate(490.95713428795545,0)"><line y2="6" x2="0" stroke-width="1pt" stroke-linecap="round"></line></g><g class="tick" style="opacity: 1; " transform="translate(497.36530445883386,0)"><line y2="3" x2="0" stroke-width="0.4pt" stroke-linecap="round"></line></g><g class="tick" style="opacity: 1; " transform="translate(503.15332912930467,0)"><line y2="3" x2="0" stroke-width="0.4pt" stroke-linecap="round"></line></g><g class="tick" style="opacity: 1; " transform="translate(509.55288616823293,0)"><line y2="3" x2="0" stroke-width="0.4pt" stroke-linecap="round"></line></g><g class="tick" style="opacity: 1; " transform="translate(515.7543411723087,0)"><line y2="3" x2="0" stroke-width="0.4pt" stroke-linecap="round"></line></g><g class="tick" style="opacity: 1; " transform="translate(522.1625113431871,0)"><line y2="3" x2="0" stroke-width="0.4pt" stroke-linecap="round"></line></g><g class="tick" style="opacity: 1; " transform="translate(528.363966347263,0)"><line y2="3" x2="0" stroke-width="0.4pt" stroke-linecap="round"></line></g><g class="tick" style="opacity: 1; " transform="translate(534.7721365181415,0)"><line y2="3" x2="0" stroke-width="0.4pt" stroke-linecap="round"></line></g><g class="tick" style="opacity: 1; " transform="translate(541.1803066890197,0)"><line y2="3" x2="0" stroke-width="0.4pt" stroke-linecap="round"></line></g><g class="tick" style="opacity: 1; " transform="translate(547.3817616930957,0)"><line y2="3" x2="0" stroke-width="0.4pt" stroke-linecap="round"></line></g><g class="tick" style="opacity: 1; " transform="translate(553.7985449959241,0)"><line y2="3" x2="0" stroke-width="0.4pt" stroke-linecap="round"></line></g><g class="tick" style="opacity: 1; " transform="translate(560,0)"><line y2="3" x2="0" stroke-width="0.4pt" stroke-linecap="round"></line></g><path class="domain" d="M0,6V0H560V6"></path></g><g class="y axis"><g class="tick" style="opacity: 1; " transform="translate(0,260)"><line x2="-6" y2="0" stroke-linecap="round"></line><text dy="3pt" style="text-anchor: end; font-family: 'Gotham Rounded'; " x="-9" y="0">0</text></g><g class="tick" style="opacity: 1; " transform="translate(0,234.4059724647639)"><line x2="-6" y2="0" stroke-linecap="round"></line><text dy="3pt" style="text-anchor: end; font-family: 'Gotham Rounded'; " x="-9" y="0">100,000</text></g><g class="tick" style="opacity: 1; " transform="translate(0,208.81194492952784)"><line x2="-6" y2="0" stroke-linecap="round"></line><text dy="3pt" style="text-anchor: end; font-family: 'Gotham Rounded'; " x="-9" y="0">200,000</text></g><g class="tick" style="opacity: 1; " transform="translate(0,183.21791739429176)"><line x2="-6" y2="0" stroke-linecap="round"></line><text dy="3pt" style="text-anchor: end; font-family: 'Gotham Rounded'; " x="-9" y="0">300,000</text></g><g class="tick" style="opacity: 1; " transform="translate(0,157.62388985905565)"><line x2="-6" y2="0" stroke-linecap="round"></line><text dy="3pt" style="text-anchor: end; font-family: 'Gotham Rounded'; " x="-9" y="0">400,000</text></g><g class="tick" style="opacity: 1; " transform="translate(0,132.02986232381957)"><line x2="-6" y2="0" stroke-linecap="round"></line><text dy="3pt" style="text-anchor: end; font-family: 'Gotham Rounded'; " x="-9" y="0">500,000</text></g><g class="tick" style="opacity: 1; " transform="translate(0,106.43583478858348)"><line x2="-6" y2="0" stroke-linecap="round"></line><text dy="3pt" style="text-anchor: end; font-family: 'Gotham Rounded'; " x="-9" y="0">600,000</text></g><g class="tick" style="opacity: 1; " transform="translate(0,80.84180725334741)"><line x2="-6" y2="0" stroke-linecap="round"></line><text dy="3pt" style="text-anchor: end; font-family: 'Gotham Rounded'; " x="-9" y="0">700,000</text></g><g class="tick" style="opacity: 1; " transform="translate(0,55.2477797181113)"><line x2="-6" y2="0" stroke-linecap="round"></line><text dy="3pt" style="text-anchor: end; font-family: 'Gotham Rounded'; " x="-9" y="0">800,000</text></g><g class="tick" style="opacity: 1; " transform="translate(0,29.653752182875234)"><line x2="-6" y2="0" stroke-linecap="round"></line><text dy="3pt" style="text-anchor: end; font-family: 'Gotham Rounded'; " x="-9" y="0">900,000</text></g><g class="tick" style="opacity: 1; " transform="translate(0,4.05972464763916)"><line x2="-6" y2="0" stroke-linecap="round"></line><text dy="3pt" style="text-anchor: end; font-family: 'Gotham Rounded'; " x="-9" y="0">1,000,000</text></g><path class="domain" d="M-6,0H0V260H-6"></path></g><text transform="rotate(-90)" y="-80" x="-130" dy="1em" style="text-anchor: middle; font-family: 'Gotham Rounded'; ">Tags</text><g class="serie"><path class="line SQL" d="M6.408170170878385,259.9618648989725L12.81634034175677,259.83363882102094L19.017795345832628,259.6954310723307L25.43457864866112,259.5897277386102L31.636033652736977,259.48069718131006L38.04420382361536,259.33020429940285L44.45237399449375,259.15898025519215L50.24039866496455,258.9892918526335L56.639955703892824,258.79912822804675L62.841410707968684,258.58234681482327L69.24958087884707,258.3448342392963L75.45103588292292,258.0668831002636L81.8592060538013,257.8030086763753L88.2673762246797,257.45467396162076L94.46883122875555,257.0758823540993L100.88561453158404,256.7638911584447L107.0870695356599,256.46009005160147L113.49523970653829,256.13734936438215L119.90340987741668,255.80616264807622L125.69143454788747,255.4301863835836L132.09099158681576,255.090553638191L138.29244659089161,254.71892835837937L144.70061676177,254.30021006790292L150.90207176584585,253.82825620015316L157.31024193672425,253.33505928954918L163.7184121076026,252.8869078674072L169.91986711167849,252.4098351941504L176.33665041450698,251.90179374757594L182.53810541858283,251.4152512841311L188.9462755894612,250.81072035374885L195.3544457603396,250.2635200450455L201.14247043081042,249.57887980847792L207.54202746973868,248.98765777241397L213.74348247381454,248.2907324026295L220.15165264469294,247.60813968826474L226.35310764876877,246.91838064619012L232.76127781964718,246.22990130549226L239.16944799052555,245.5631768881994L245.37090299460144,244.89594059035576L251.7876862974299,244.16446328339873L257.98914130150575,243.4969710452798L264.39731147238416,242.77701105071358L270.8054816432625,241.96542443757124L276.80022148053587,241.034057775564L283.19977851946413,240.17102716707583L289.40123352354,239.26755799508203L295.8094036944184,238.41246153512975L302.01085869849425,237.45166174145703L308.4190288693726,236.49879609632018L314.827199040251,235.56768537458828L321.02865404432686,234.50886045545556L327.44543734715535,233.38963363133968L333.6468923512312,232.3891630949873L340.0550625221096,231.18675568138192L346.46323269298796,230.00456754952938L352.25125736345876,228.64910785126327L358.6508144023871,227.34355650669087L364.8522694064629,226.05873632442203L371.26043957734134,224.8366215096145L377.46189458141714,223.44225888949484L383.8700647522956,222.05915764149066L390.27823492317395,220.53810458507158L396.47968992724975,218.7731404462417L402.8964732300783,217.08060740533656L409.09792823415415,215.46613614841385L415.50609840503256,213.6451210892818L421.9142685759109,211.84893223685893L427.70229324638177,209.8451758211253L434.10185028531,207.82299170556632L440.3033052893859,206.06724141664913L446.71147546026424,204.41719446145245L452.9129304643401,202.64045706995637L459.3211006352185,201.03084867826533L465.72927080609685,199.39078339380742L471.93072581017276,197.98132029744198L478.3475091130012,196.8751464273691L484.5489641170771,195.78740025712153L490.95713428795545,194.5911354101246L497.36530445883386,193.40638787551853L503.15332912930467,192.06116578826652L509.55288616823293,190.7622688908533L515.7543411723087,189.51225658603235L522.1625113431871,188.2489353868931L528.363966347263,186.93340237158196L534.7721365181415,185.73611376348362L541.1803066890197,184.57312115228248L547.3817616930957,183.37429690253205L553.7985449959241,182.1962038150851L560,181.00326619166776" fill="none" stroke-linecap="round" stroke-linejoin="round"></path></g><g class="serie"><path class="line Python" d="M6.408170170878385,259.96698370447956L12.81634034175677,259.82775219468783L19.017795345832628,259.6956870126061L25.43457864866112,259.57897824704537L31.636033652736977,259.4648288842382L38.04420382361536,259.3017949288388L44.45237399449375,259.13799315261326L50.24039866496455,258.94143102114265L56.639955703892824,258.7443570091213L62.841410707968684,258.4876489129429L69.24958087884707,258.2199353849243L75.45103588292292,257.91997338221137L81.8592060538013,257.62666582665753L88.2673762246797,257.3254241225678L94.46883122875555,256.9594295288139L100.88561453158404,256.556323595134L107.0870695356599,256.1468191545702L113.49523970653829,255.6449202746042L119.90340987741668,255.16503225831855L125.69143454788747,254.6316527244842L132.09099158681576,254.16353796086474L138.29244659089161,253.64423514217484L144.70061676177,253.07220862676232L150.90207176584585,252.39755006093347L157.31024193672425,251.75411620869764L163.7184121076026,251.1726199030971L169.91986711167849,250.48311680129783L176.33665041450698,249.80820229519364L182.53810541858283,249.16451250268244L188.9462755894612,248.41255997369723L195.3544457603396,247.63270995469858L201.14247043081042,246.66295225138848L207.54202746973868,245.79761818042215L213.74348247381454,244.88851832237057L220.15165264469294,243.9937511197387L226.35310764876877,243.0444686384568L232.76127781964718,242.05500353394459L239.16944799052555,241.14820713837116L245.37090299460144,240.21069790975545L251.7876862974299,239.21099519422913L257.98914130150575,238.27527754754092L264.39731147238416,237.18932295922085L270.8054816432625,236.0286338104979L276.80022148053587,234.7269215700558L283.19977851946413,233.45438652100384L289.40123352354,232.1334787599103L295.8094036944184,230.77110867420967L302.01085869849425,229.28588725633992L308.4190288693726,227.77404804983354L314.827199040251,226.41372548633575L321.02865404432686,224.82715171942647L327.44543734715535,223.17249783927346L333.6468923512312,221.68369325754878L340.0550625221096,219.9798988445281L346.46323269298796,218.23182676387145L352.25125736345876,216.25161685347027L358.6508144023871,214.1984639645936L364.8522694064629,212.1785833115128L371.26043957734134,210.21500951900947L377.46189458141714,207.9944716900524L383.8700647522956,205.9484851288856L390.27823492317395,203.89123719560334L396.47968992724975,201.4377937160756L402.8964732300783,198.9858858782L409.09792823415415,196.798108404488L415.50609840503256,194.25738929106515L421.9142685759109,191.699778119469L427.70229324638177,188.74981050575767L434.10185028531,185.95929368359086L440.3033052893859,183.56010954243786L446.71147546026424,181.25331984068706L452.9129304643401,178.68086413312045L459.3211006352185,176.31904727216886L465.72927080609685,174.0404110007068L471.93072581017276,171.55036806180368L478.3475091130012,169.06518798813224L484.5489641170771,166.71821566315108L490.95713428795545,164.03826503993653L497.36530445883386,161.20295866958304L503.15332912930467,157.9868131695053L509.55288616823293,154.83874778267128L515.7543411723087,151.75441152439998L522.1625113431871,148.48656608870104L528.363966347263,145.04980007126952L534.7721365181415,141.9263049508693L541.1803066890197,138.88829388243676L547.3817616930957,135.3831918114862L553.7985449959241,131.94181886909834L560,128.52859935699928" fill="none" stroke-linecap="round" stroke-linejoin="round"></path></g><g class="serie"><path class="line Ruby" d="M6.408170170878385,259.9808044793486L12.81634034175677,259.90632585922106L19.017795345832628,259.8415729695569L25.43457864866112,259.80036658522516L31.636033652736977,259.75864832034273L38.04420382361536,259.70464492224335L44.45237399449375,259.63067818266654L50.24039866496455,259.54596195152493L56.639955703892824,259.4540793926734L62.841410707968684,259.349911700605L69.24958087884707,259.23883362110206L75.45103588292292,259.1095837820491L81.8592060538013,258.9851968082279L88.2673762246797,258.8620895357834L94.46883122875555,258.7359109800347L100.88561453158404,258.5664785177514L107.0870695356599,258.4200806802499L113.49523970653829,258.24348189025676L119.90340987741668,258.0656033988869L125.69143454788747,257.88721302696626L132.09099158681576,257.69346623852454L138.29244659089161,257.49332094319897L144.70061676177,257.2719326050192L150.90207176584585,257.0367234919704L157.31024193672425,256.7784797541398L163.7184121076026,256.53559243283047L169.91986711167849,256.29756797675276L176.33665041450698,256.0580078790229L182.53810541858283,255.79438939541L188.9462755894612,255.48393384140758L195.3544457603396,255.16144909446362L201.14247043081042,254.73837981930618L207.54202746973868,254.35856445068325L213.74348247381454,253.95545851700328L220.15165264469294,253.55337634442475L226.35310764876877,253.14387190386094L232.76127781964718,252.66193636537244L239.16944799052555,252.26113389417068L245.37090299460144,251.84625470782447L251.7876862974299,251.3960557634797L257.98914130150575,250.9571181912504L264.39731147238416,250.46315345982035L270.8054816432625,249.9366843134205L276.80022148053587,249.36747314103687L283.19977851946413,248.85482476950608L289.40123352354,248.33833729384503L295.8094036944184,247.84974730819738L302.01085869849425,247.31534401326164L308.4190288693726,246.78017289749985L314.827199040251,246.27520273422965L321.02865404432686,245.69063514532485L327.44543734715535,245.140875433868L333.6468923512312,244.64921416491612L340.0550625221096,244.05261738306976L346.46323269298796,243.473168599672L352.25125736345876,242.80772388375584L358.6508144023871,242.1665934939982L364.8522694064629,241.5615506830652L371.26043957734134,240.9872207051745L377.46189458141714,240.35735168753234L383.8700647522956,239.71673317832543L390.27823492317395,239.09914929390015L396.47968992724975,238.3817487020875L402.8964732300783,237.71835150837418L409.09792823415415,237.08720278935527L415.50609840503256,236.37364130167285L421.9142685759109,235.69795897474265L427.70229324638177,234.93807229722145L434.10185028531,234.23116525669826L440.3033052893859,233.54422155765252L446.71147546026424,232.9414822091977L452.9129304643401,232.28345976126678L459.3211006352185,231.64821599784224L465.72927080609685,231.06364840893744L471.93072581017276,230.46065312020727L478.3475091130012,229.91601221425745L484.5489641170771,229.36036587646748L490.95713428795545,228.68391572871118L497.36530445883386,228.04688038335917L503.15332912930467,227.36505548982046L509.55288616823293,226.67145734361554L515.7543411723087,225.9788829585121L522.1625113431871,225.26276206807617L528.363966347263,224.55559908727759L534.7721365181415,223.9162602794474L541.1803066890197,223.32350260173135L547.3817616930957,222.71462068666807L553.7985449959241,222.16178969190696L560,221.5782458641036" fill="none" stroke-linecap="round" stroke-linejoin="round"></path></g><g class="serie"><path class="line PHP" d="M6.408170170878385,259.9585376753929L12.81634034175677,259.8323591196442L19.017795345832628,259.672396447549L25.43457864866112,259.54237878767L31.636033652736977,259.4192715152255L38.04420382361536,259.25393409734784L44.45237399449375,259.05506850339907L50.24039866496455,258.8224187931038L56.639955703892824,258.5721092038092L62.841410707968684,258.26728433586453L69.24958087884707,257.86110711888034L75.45103588292292,257.3377092557847L81.8592060538013,256.7728490680821L88.2673762246797,256.18853741945264L94.46883122875555,255.57786392246192L100.88561453158404,254.88349795543095L107.0870695356599,254.15483599150278L113.49523970653829,253.26697917630543L119.90340987741668,252.45129751875746L125.69143454788747,251.4851229793023L132.09099158681576,250.54249494517958L138.29244659089161,249.51335909798772L144.70061676177,248.45325447747823L150.90207176584585,247.25570992910457L157.31024193672425,245.916630408461L163.7184121076026,244.6960512353056L169.91986711167849,243.51898190896006L176.33665041450698,242.18246179107004L182.53810541858283,240.77530215718275L188.9462755894612,239.09914929390015L195.3544457603396,237.34698216883788L201.14247043081042,235.22574916671755L207.54202746973868,233.2225046315346L213.74348247381454,231.11253300152973L220.15165264469294,229.02124501162558L226.35310764876877,226.75361417200367L232.76127781964718,224.41943886079014L239.16944799052555,222.30153308224936L245.37090299460144,220.1915614522445L251.7876862974299,217.91881180711553L257.98914130150575,215.74127194441763L264.39731147238416,213.30395270223713L270.8054816432625,210.7043673254832L276.80022148053587,207.84269910676844L283.19977851946413,205.10490598132424L289.40123352354,202.2330001515954L295.8094036944184,199.4532328209934L302.01085869849425,196.36480151831645L308.4190288693726,193.2336281896557L314.827199040251,190.36121047937615L321.02865404432686,187.27149947532243L327.44543734715535,184.16975927832718L333.6468923512312,181.25408766151307L340.0550625221096,177.87081316163022L346.46323269298796,174.5405182987453L352.25125736345876,170.7927848467607L358.6508144023871,167.24545263037695L364.8522694064629,163.79640147972853L371.26043957734134,160.4622675127133L377.46189458141714,156.70506427054067L383.8700647522956,152.9604021018603L390.27823492317395,149.2226503206144L396.47968992724975,145.19235880464078L402.8964732300783,141.289781486068L409.09792823415415,137.50365699278052L415.50609840503256,133.08024121386566L421.9142685759109,128.726697130122L427.70229324638177,123.90119917862859L434.10185028531,119.24385398804168L440.3033052893859,115.34485983332381L446.71147546026424,111.90911757699371L452.9129304643401,108.14653958903868L459.3211006352185,104.66523996369585L465.72927080609685,101.14478147622414L471.93072581017276,97.55854633798685L478.3475091130012,94.1230600219321L484.5489641170771,90.85035172100147L490.95713428795545,86.97771941464492L497.36530445883386,83.1347761802292L503.15332912930467,78.85699041798985L509.55288616823293,74.6344877552266L515.7543411723087,70.5325329621543L522.1625113431871,66.4290425274299L528.363966347263,62.0327564177024L534.7721365181415,57.95921099519423L541.1803066890197,54.07071039176582L547.3817616930957,50.07420299213868L553.7985449959241,46.23663450350541L560,41.95961656209211" fill="none" stroke-linecap="round" stroke-linejoin="round"></path></g><g class="serie"><path class="line Java" d="M0,259.99923217917393L6.408170170878385,259.869982340121L12.81634034175677,259.4471690052389L19.017795345832628,258.937335976737L25.43457864866112,258.49481524065277L31.636033652736977,258.08633456119037L38.04420382361536,257.47694076557644L44.45237399449375,256.8091925871821L50.24039866496455,255.9991416156919L56.639955703892824,255.14634861821784L62.841410707968684,254.2326418352099L69.24958087884707,253.23524258216176L75.45103588292292,252.10526626648107L81.8592060538013,250.9624929370328L88.2673762246797,249.84249829209085L94.46883122875555,248.62806168554388L100.88561453158404,247.42437457056175L107.0870695356599,246.26880422734584L113.49523970653829,244.9494321079044L119.90340987741668,243.63415503286865L125.69143454788747,242.074199054596L132.09099158681576,240.58309101039313L138.29244659089161,239.0489849999311L144.70061676177,237.4608755913697L150.90207176584585,235.72943962861098L157.31024193672425,233.92019782214513L163.7184121076026,232.2591454351083L169.91986711167849,230.5131208766545L176.33665041450698,228.6155796751921L182.53810541858283,226.77408939403188L188.9462755894612,224.69994940257635L195.3544457603396,222.56361592421018L201.14247043081042,219.97247657654287L207.54202746973868,217.56535828685392L213.74348247381454,214.95937440321617L220.15165264469294,212.42326221474963L226.35310764876877,209.9234935453831L232.76127781964718,207.31341461733976L239.16944799052555,204.8988740596656L245.37090299460144,202.50583248512103L251.7876862974299,199.94054310526428L257.98914130150575,197.52037186153237L264.39731147238416,194.80970840527553L270.8054816432625,192.01432871787702L276.80022148053587,188.98348397715438L283.19977851946413,186.08188907548464L289.40123352354,183.06409728880496L295.8094036944184,180.11643313757182L302.01085869849425,176.8954247722624L308.4190288693726,173.78498260590513L314.827199040251,170.86009713917835L321.02865404432686,167.54874185666952L327.44543734715535,164.372011158996L333.6468923512312,161.52109243184603L340.0550625221096,158.18593470372943L346.46323269298796,154.9106670000453L352.25125736345876,151.18903945614662L358.6508144023871,147.5621098141283L364.8522694064629,144.0618706084094L371.26043957734134,140.7418133565386L377.46189458141714,137.05934467476882L383.8700647522956,133.47285359625616L390.27823492317395,129.90479021756892L396.47968992724975,125.97047630485243L402.8964732300783,122.19203001982554L409.09792823415415,118.65723887693406L415.50609840503256,114.67199284942247L421.9142685759109,110.75277941295177L427.70229324638177,106.54742474863711L434.10185028531,102.56678564608184L440.3033052893859,98.94727827204875L446.71147546026424,95.68455164185687L452.9129304643401,92.11725608399566L459.3211006352185,88.86630270646997L465.72927080609685,85.65681165355139L471.93072581017276,82.3853830539975L478.3475091130012,79.28927354305999L484.5489641170771,76.39407714827408L490.95713428795545,73.0576397187807L497.36530445883386,69.68793005349151L503.15332912930467,65.8810743979005L509.55288616823293,62.17326762887086L515.7543411723087,58.4106896409158L522.1625113431871,54.57158551063037L528.363966347263,50.551019725120156L534.7721365181415,46.800470930106655L541.1803066890197,43.13003144127843L547.3817616930957,39.442955834552336L553.7985449959241,35.86260732264817L560,32.161966881328375" fill="none" stroke-linecap="round" stroke-linejoin="round"></path></g><g class="serie"><path class="line Cplusplus" d="M6.408170170878385,259.9575139142915L12.81634034175677,259.76018396199487L19.017795345832628,259.55184857785804L25.43457864866112,259.36194089354655L31.636033652736977,259.19839505759643L38.04420382361536,258.977262659692L44.45237399449375,258.75766590343966L50.24039866496455,258.4856013907401L56.639955703892824,258.2222388474025L62.841410707968684,257.9069204281684L69.24958087884707,257.5823881590216L75.45103588292292,257.2051321931522L81.8592060538013,256.8416970021519L88.2673762246797,256.46469697655783L94.46883122875555,256.0290866279081L100.88561453158404,255.57556045998373L107.0870695356599,255.148652080696L113.49523970653829,254.63651558971594L119.90340987741668,254.05041235915903L125.69143454788747,253.42259086371968L132.09099158681576,252.78018077258525L138.29244659089161,252.15926966458042L144.70061676177,251.43035176037688L150.90207176584585,250.73649767389665L157.31024193672425,250.05262525815513L163.7184121076026,249.34443851625517L169.91986711167849,248.58250431653116L176.33665041450698,247.71179549978245L182.53810541858283,246.90020888664012L188.9462755894612,245.9939243716174L195.3544457603396,245.10018093008694L201.14247043081042,244.01832138617252L207.54202746973868,242.93671778253344L213.74348247381454,241.92524181434092L220.15165264469294,240.9373123514808L226.35310764876877,239.93914527760663L232.76127781964718,238.9151282359218L239.16944799052555,237.895462178918L245.37090299460144,236.76983684791833L251.7876862974299,235.6068442367172L257.98914130150575,234.47302881690624L264.39731147238416,233.28725752119874L270.8054816432625,231.96225471569957L276.80022148053587,230.60193215220178L283.19977851946413,229.22139030695112L289.40123352354,227.92351717063931L295.8094036944184,226.71471125015012L302.01085869849425,225.33800850902978L308.4190288693726,223.9940661231545L314.827199040251,222.71794791024766L321.02865404432686,221.18281813868418L327.44543734715535,219.55375828606643L333.6468923512312,218.07442349452978L340.0550625221096,216.50320614414164L346.46323269298796,214.91484079530488L352.25125736345876,213.0344475922911L358.6508144023871,211.172738029378L364.8522694064629,209.39676845870795L371.26043957734134,207.79099917114726L377.46189458141714,206.08950822060478L383.8700647522956,204.47196568037785L390.27823492317395,202.77303413258886L396.47968992724975,200.70042978278548L402.8964732300783,198.5919937944327L409.09792823415415,196.76893121309786L415.50609840503256,194.77438864727688L421.9142685759109,192.78035796200663L427.70229324638177,190.52680383752912L434.10185028531,188.4132490436693L440.3033052893859,186.6441898604338L446.71147546026424,185.15461745788306L452.9129304643401,183.51864721783076L459.3211006352185,181.9824936851659L465.72927080609685,180.3572729366784L471.93072581017276,178.57439297857385L478.3475091130012,176.8529386865539L484.5489641170771,175.263037696065L490.95713428795545,173.5740878190148L497.36530445883386,171.7999098302722L503.15332912930467,169.75776237323572L509.55288616823293,167.797515804312L515.7543411723087,165.91917012350103L522.1625113431871,164.107624854557L528.363966347263,162.26255140954186L534.7721365181415,160.6316999749966L541.1803066890197,158.99880101824854L547.3817616930957,157.04469701593328L553.7985449959241,155.07574847764758L560,153.12983456414355" fill="none" stroke-linecap="round" stroke-linejoin="round"></path></g><g class="serie"><path class="line C" d="M6.408170170878385,259.97722131549364L12.81634034175677,259.8912253829753L19.017795345832628,259.8131635989928L25.43457864866112,259.74610724685044L31.636033652736977,259.6977345348089L38.04420382361536,259.614298005044L44.45237399449375,259.5288139530763L50.24039866496455,259.4172239930227L56.639955703892824,259.2984677052592L62.841410707968684,259.174848552264L69.24958087884707,259.04457495210966L75.45103588292292,258.90457562149186L81.8592060538013,258.7676475741784L88.2673762246797,258.61894627419866L94.46883122875555,258.4190569191485L100.88561453158404,258.1677235687524L107.0870695356599,257.94761493194943L113.49523970653829,257.69269841769847L119.90340987741668,257.4249848896799L125.69143454788747,257.1347486174303L132.09099158681576,256.830179689761L138.29244659089161,256.5248429412656L144.70061676177,256.2246249982773L150.90207176584585,255.8921585805946L157.31024193672425,255.53614565757948L163.7184121076026,255.17731739153547L169.91986711167849,254.8021089478689L176.33665041450698,254.37084958390017L182.53810541858283,253.99129015555263L188.9462755894612,253.6104510258283L195.3544457603396,253.18712581039551L201.14247043081042,252.64504430719919L207.54202746973868,252.11729545942265L213.74348247381454,251.64329406947007L220.15165264469294,251.1864406779661L226.35310764876877,250.7567169556495L232.76127781964718,250.28706655037792L239.16944799052555,249.79310181894783L245.37090299460144,249.2410386450128L251.7876862974299,248.66977995042632L257.98914130150575,248.14919743035964L264.39731147238416,247.57154022888935L270.8054816432625,246.94755783758032L276.80022148053587,246.2368116929268L283.19977851946413,245.54449324809866L289.40123352354,244.90029157503676L295.8094036944184,244.29780816685732L302.01085869849425,243.6789445810553L308.4190288693726,243.0751814714991L314.827199040251,242.4145996208146L321.02865404432686,241.59456697858568L327.44543734715535,240.76583236699474L333.6468923512312,240.09578072612226L340.0550625221096,239.3389653319053L346.46323269298796,238.53070594234256L352.25125736345876,237.63056399392832L358.6508144023871,236.70687554018164L364.8522694064629,235.87225430225757L371.26043957734134,235.1039215956498L377.46189458141714,234.31588148783987L383.8700647522956,233.5357755285659L390.27823492317395,232.65073405639743L396.47968992724975,231.54635176825198L402.8964732300783,230.43429127184598L409.09792823415415,229.5182810263599L415.50609840503256,228.54545203974556L421.9142685759109,227.51247708842342L427.70229324638177,226.31953946500607L434.10185028531,225.26967245551072L440.3033052893859,224.41662351776125L446.71147546026424,223.69308035934014L452.9129304643401,222.95264514274578L459.3211006352185,222.256231653512L465.72927080609685,221.41290844622594L471.93072581017276,220.4219077000616L478.3475091130012,219.46443512996845L484.5489641170771,218.6387718016817L490.95713428795545,217.77804465567172L497.36530445883386,216.87841458780818L503.15332912930467,215.82419659363183L509.55288616823293,214.76204445091952L515.7543411723087,213.81506543211577L522.1625113431871,212.97097440400367L528.363966347263,212.21339118896068L534.7721365181415,211.5192811622051L541.1803066890197,210.69259407281697L547.3817616930957,209.70338490858012L553.7985449959241,208.72313365398057L560,207.83246149575433" fill="none" stroke-linecap="round" stroke-linejoin="round"></path></g><g class="serie"><path class="line Javascript" d="M6.408170170878385,259.9577698545669L12.81634034175677,259.793712138066L19.017795345832628,259.60866731898625L25.43457864866112,259.46201354120933L31.636033652736977,259.30077116773737L38.04420382361536,259.098578350209L44.45237399449375,258.85492320807356L50.24039866496455,258.59642352996764L56.639955703892824,258.3266624797463L62.841410707968684,257.95913224434025L69.24958087884707,257.55960947451524L75.45103588292292,257.1114580523732L81.8592060538013,256.6341294388411L88.2673762246797,256.18597801669915L94.46883122875555,255.664371735531L100.88561453158404,255.09311304094453L107.0870695356599,254.50317070625735L113.49523970653829,253.83209530428346L119.90340987741668,253.15410951487505L125.69143454788747,252.38910403184684L132.09099158681576,251.6125812364278L138.29244659089161,250.78435850538756L144.70061676177,249.88856754165428L150.90207176584585,248.8901445275047L157.31024193672425,247.85256265122626L163.7184121076026,246.81267731246962L169.91986711167849,245.7446385434242L176.33665041450698,244.5642419934991L182.53810541858283,243.2776302293028L188.9462755894612,241.8663755510099L195.3544457603396,240.4146823092113L201.14247043081042,238.66021172167086L207.54202746973868,236.85992782484234L213.74348247381454,234.96545790668418L220.15165264469294,232.97398662416745L226.35310764876877,230.87860358985768L232.76127781964718,228.57130200755614L239.16944799052555,226.44546208047944L245.37090299460144,224.3644117015894L251.7876862974299,222.11469668124215L257.98914130150575,219.96172708497807L264.39731147238416,217.47603513075595L270.8054816432625,214.88336014143655L276.80022148053587,212.0974502442261L283.19977851946413,209.31768291362408L289.40123352354,206.31934258787118L295.8094036944184,203.39727246417328L302.01085869849425,200.18675765015328L308.4190288693726,196.95295227107619L314.827199040251,194.0577558762903L321.02865404432686,190.83777127208222L327.44543734715535,187.62930398026504L333.6468923512312,184.57823995778952L340.0550625221096,180.98279096963958L346.46323269298796,177.401418696634L352.25125736345876,173.40363159563012L358.6508144023871,169.39995786829314L364.8522694064629,165.50864192183585L371.26043957734134,161.7281481146061L377.46189458141714,157.36871740452935L383.8700647522956,153.0080069930758L390.27823492317395,148.42155725876154L396.47968992724975,143.31017401969953L402.8964732300783,138.5148770206977L409.09792823415415,133.84524669689387L415.50609840503256,128.37605895288925L421.9142685759109,122.89177073263889L427.70229324638177,117.00821568283882L434.10185028531,111.4407468730989L440.3033052893859,106.29378793576292L446.71147546026424,101.53099535173087L452.9129304643401,96.30930185399197L459.3211006352185,91.50555882590352L465.72927080609685,86.80188844547783L471.93072581017276,81.88297229348079L478.3475091130012,77.200289015634L484.5489641170771,72.77482571451634L490.95713428795545,67.51090207134435L497.36530445883386,62.19834977585539L503.15332912930467,56.313003144127855L509.55288616823293,50.443012928921455L515.7543411723087,44.2251998795112L522.1625113431871,37.828740517905L528.363966347263,31.03787719198079L534.7721365181415,24.750448387674705L541.1803066890197,18.64857628299908L547.3817616930957,12.40670484770569L553.7985449959241,6.294339191740617L560,0" fill="none" stroke-linecap="round" stroke-linejoin="round"></path></g><g class="label " transform="translate(590,0)"><circle cy="0" cx="0" r="0.4em" class="label Javascript"></circle><text y="2pt" x="8pt" style="font-family: 'Gotham Rounded'; ">Javascript</text></g><g class="label " transform="translate(590,20)"><circle cy="0" cx="0" r="0.4em" class="label C"></circle><text y="2pt" x="8pt" style="font-family: 'Gotham Rounded'; ">C</text></g><g class="label " transform="translate(590,40)"><circle cy="0" cx="0" r="0.4em" class="label Cplusplus"></circle><text y="2pt" x="8pt" style="font-family: 'Gotham Rounded'; ">C++</text></g><g class="label " transform="translate(590,60)"><circle cy="0" cx="0" r="0.4em" class="label Java"></circle><text y="2pt" x="8pt" style="font-family: 'Gotham Rounded'; ">Java</text></g><g class="label " transform="translate(590,80)"><circle cy="0" cx="0" r="0.4em" class="label PHP"></circle><text y="2pt" x="8pt" style="font-family: 'Gotham Rounded'; ">PHP</text></g><g class="label " transform="translate(590,100)"><circle cy="0" cx="0" r="0.4em" class="label Ruby"></circle><text y="2pt" x="8pt" style="font-family: 'Gotham Rounded'; ">Ruby</text></g><g class="label " transform="translate(590,120)"><circle cy="0" cx="0" r="0.4em" class="label Python"></circle><text y="2pt" x="8pt" style="font-family: 'Gotham Rounded'; ">Python</text></g><g class="label " transform="translate(590,140)"><circle cy="0" cx="0" r="0.4em" class="label SQL"></circle><text y="2pt" x="8pt" style="font-family: 'Gotham Rounded'; ">SQL</text></g></svg>