<?xml version="1.0" standalone="no"?><!DOCTYPE svg PUBLIC "-//W3C//DTD SVG 1.1//EN" "http://www.w3.org/Graphics/SVG/1.1/DTD/svg11.dtd"><svg width="960" height="500" class="chart" filename="stackoverflow-tags.svg" version="1.1" xmlns="http://www.w3.org/2000/svg" xlink="http://www.w3.org/1999/xlink"><defs><style type="text/css"><![CDATA[
html, body  { width: 1000px; height: 100%; margin-top: auto; margin-right: auto; margin-bottom: auto; margin-left: auto; }
.container { width: 40%; display: inline-block; }
.eighty { width: 80%; display: inline-block; }
ul { width: 15%; display: inline-block; }
li { list-style-type: none; list-style-position: initial; list-style-image: initial; margin-top: -3em; margin-right: -1em; margin-bottom: 0px; margin-left: 0px; font-size: 0.7em; }
li::before { content: •; font-size: 4em; position: relative; top: 0.3em; }
.ct-label, body { font-family: serif; color: black; fill: #000000; }
.ct-line { stroke-width: 0.8pt; }
.ct-line.Javascript, .ct-line.npm { stroke-width: 2pt; }
.axis path, .axis line { fill: none; stroke: #000000; shape-rendering: crispedges; }
.grid .tick { stroke: #d3d3d3; opacity: 0.7; }
.grid path { stroke-width: 0px; }
li.Javascript::before { color: rgb(240, 37, 61); }
li.C::before { color: rgb(38, 107, 133); }
li.Cplusplus::before { color: rgb(60, 173, 215); }
li.Java::before { color: rgb(175, 196, 219); }
li.PHP::before { color: rgb(137, 150, 168); }
li.XML_Schema::before { color: rgb(245, 117, 66); }
li.Ruby::before { color: rgb(215, 80, 60); }
li.Autoconf::before { color: rgb(189, 66, 48); }
li.Python::before { color: rgb(94, 235, 184); }
li.Csharp::before { color: rgb(74, 190, 149); }
li.Assembler::before { color: rgb(221, 183, 0); }
li.Shell::before { color: rgb(247, 240, 157); }
li.SQL::before { color: rgb(243, 255, 181); }
li.Make::before { color: rgb(159, 58, 44); }
li.Perl::before { color: rgb(27, 39, 53); }
li.VisualBasicNET::before { color: rgb(67, 174, 136); }
.slice.Javascript { fill: #f0253d; }
.slice.C { fill: #266b85; }
.slice.Cplusplus { fill: #3cadd7; }
.slice.Java { fill: #afc4db; }
.slice.PHP { fill: #8996a8; }
.slice.XML_Schema { fill: #f57542; }
.slice.Ruby { fill: #d7503c; }
.slice.Autoconf { fill: #bd4230; }
.slice.Python { fill: #5eebb8; }
.slice.Csharp { fill: #4abe95; }
.slice.Assembler { fill: #ddb700; }
.slice.Shell { fill: #f7f09d; }
.slice.SQL { fill: #f3ffb5; }
.slice.Make { fill: #9f3a2c; }
.slice.Perl { fill: #1b2735; }
.slice.VisualBasicNET { fill: #43ae88; }
.line { stroke-width: 2pt; fill: rgba(0, 0, 0, 0.0); }
.line.Javascript, .line.JavaScript { stroke: #f0253d; }
.line.C { stroke: #266b85; }
.line.Cplusplus { stroke: #3cadd7; }
.line.Java { stroke: #afc4db; }
.line.PHP { stroke: #8996a8; }
.line.XML_Schema { stroke: #f57542; }
.line.Ruby { stroke: #d7503c; }
.line.Autoconf { stroke: #bd4230; }
.line.Python { stroke: #5eebb8; }
.line.Csharp { stroke: #4abe95; }
.line.Assembler { stroke: #ddb700; }
.line.Shell { stroke: #f7f09d; }
.line.SQL { stroke: #f3ffb5; }
.line.Make { stroke: #9f3a2c; }
.line.Perl { stroke: #1b2735; }
.line.VisualBasicNET { stroke: #43ae88; }
li.Bower::before { color: rgb(176, 37, 61); }
li.Clojars::before { color: black; }
li.CPAN::before { color: black; }
li.CPANsearch::before { color: black; }
li.CRAN::before { color: black; }
li.Crates::before { color: black; }
li.GoDoc::before { color: black; }
li.Hackage::before { color: black; }
li.Hex::before { color: black; }
li.LuaRocks::before { color: black; }
li.Maven::before { color: rgb(175, 196, 219); }
li.MELPA::before { color: black; }
li.npm::before { color: rgb(240, 37, 61); }
li.nuget::before { color: rgb(74, 190, 149); }
li.Packagist::before { color: rgb(137, 150, 168); }
li.Pear::before { color: rgb(137, 150, 184); }
li.PyPI::before { color: rgb(94, 235, 184); }
li.Rubygems::before { color: rgb(215, 80, 60); }
.line.Bower_JS { stroke: #b0253d; }
.line.Clojars_Closure { stroke: #000000; }
.line.CPAN { stroke: #000000; }
.line.CPAN_search { stroke: #000000; }
.line.CRAN_R.io { stroke: #000000; }
.line.Cratesio_Rust { stroke: #000000; }
.line.Drupal_php { stroke: #000000; }
.line.GoDoc_Go { stroke: #000000; }
.line.Hackage_Haskell { stroke: #000000; }
.line.Hexpm_ElixirErlang { stroke: #000000; }
.line.LuaRocks_Lua { stroke: #000000; }
.line.Maven_Central_Java { stroke: #afc4db; }
.line.MELPA_Emacs { stroke: #000000; }
.line.npm_nodejs { stroke: #f0253d; }
.line.nuget_NET { stroke: #4abe95; }
.line.Packagist_PHP { stroke: #8996a8; }
.line.Pear_PHP { stroke: #8996b8; }
.line.Perl_6_Ecosystem_perl_6 { stroke: #8996b8; }
.line.PyPI { stroke: #5eebb8; }
.line.Rubygemsorg { stroke: #d7503c; }
svg { border-top-width: 2px; border-right-width: 2px; border-bottom-width: 2px; border-left-width: 2px; border-top-style: dotted; border-right-style: dotted; border-bottom-style: dotted; border-left-style: dotted; border-top-color: black; border-right-color: black; border-bottom-color: black; border-left-color: black; }]]></style></defs><g transform="translate(100,20)"><g class="x axis" transform="translate(0,450)"><g class="tick" style="opacity: 1; " transform="translate(52.39062666321984,0)"><line y2="6" x2="0"></line><text dy=".71em" style="text-anchor: middle; " y="9" x="0">2009</text></g><g class="tick" style="opacity: 1; " transform="translate(156.29415611076473,0)"><line y2="6" x2="0"></line><text dy=".71em" style="text-anchor: middle; " y="9" x="0">2010</text></g><g class="tick" style="opacity: 1; " transform="translate(260.1976855583096,0)"><line y2="6" x2="0"></line><text dy=".71em" style="text-anchor: middle; " y="9" x="0">2011</text></g><g class="tick" style="opacity: 1; " transform="translate(364.10121500585456,0)"><line y2="6" x2="0"></line><text dy=".71em" style="text-anchor: middle; " y="9" x="0">2012</text></g><g class="tick" style="opacity: 1; " transform="translate(468.28941165736535,0)"><line y2="6" x2="0"></line><text dy=".71em" style="text-anchor: middle; " y="9" x="0">2013</text></g><g class="tick" style="opacity: 1; " transform="translate(572.1929411049102,0)"><line y2="6" x2="0"></line><text dy=".71em" style="text-anchor: middle; " y="9" x="0">2014</text></g><g class="tick" style="opacity: 1; " transform="translate(676.0964705524551,0)"><line y2="6" x2="0"></line><text dy=".71em" style="text-anchor: middle; " y="9" x="0">2015</text></g><g class="tick" style="opacity: 1; " transform="translate(780,0)"><line y2="6" x2="0"></line><text dy=".71em" style="text-anchor: middle; " y="9" x="0">2016</text></g><path class="domain" d="M0,6V0H780V6"></path></g><g class="y axis"><g class="tick" style="opacity: 1; " transform="translate(0,450)"><line x2="-6" y2="0"></line><text dy=".32em" style="text-anchor: end; " x="-9" y="0">0</text></g><g class="tick" style="opacity: 1; " transform="translate(0,416.0799758790939)"><line x2="-6" y2="0"></line><text dy=".32em" style="text-anchor: end; " x="-9" y="0">2,000</text></g><g class="tick" style="opacity: 1; " transform="translate(0,382.1599517581879)"><line x2="-6" y2="0"></line><text dy=".32em" style="text-anchor: end; " x="-9" y="0">4,000</text></g><g class="tick" style="opacity: 1; " transform="translate(0,348.2399276372819)"><line x2="-6" y2="0"></line><text dy=".32em" style="text-anchor: end; " x="-9" y="0">6,000</text></g><g class="tick" style="opacity: 1; " transform="translate(0,314.31990351637586)"><line x2="-6" y2="0"></line><text dy=".32em" style="text-anchor: end; " x="-9" y="0">8,000</text></g><g class="tick" style="opacity: 1; " transform="translate(0,280.3998793954698)"><line x2="-6" y2="0"></line><text dy=".32em" style="text-anchor: end; " x="-9" y="0">10,000</text></g><g class="tick" style="opacity: 1; " transform="translate(0,246.47985527456376)"><line x2="-6" y2="0"></line><text dy=".32em" style="text-anchor: end; " x="-9" y="0">12,000</text></g><g class="tick" style="opacity: 1; " transform="translate(0,212.55983115365774)"><line x2="-6" y2="0"></line><text dy=".32em" style="text-anchor: end; " x="-9" y="0">14,000</text></g><g class="tick" style="opacity: 1; " transform="translate(0,178.63980703275166)"><line x2="-6" y2="0"></line><text dy=".32em" style="text-anchor: end; " x="-9" y="0">16,000</text></g><g class="tick" style="opacity: 1; " transform="translate(0,144.71978291184564)"><line x2="-6" y2="0"></line><text dy=".32em" style="text-anchor: end; " x="-9" y="0">18,000</text></g><g class="tick" style="opacity: 1; " transform="translate(0,110.79975879093958)"><line x2="-6" y2="0"></line><text dy=".32em" style="text-anchor: end; " x="-9" y="0">20,000</text></g><g class="tick" style="opacity: 1; " transform="translate(0,76.87973467003356)"><line x2="-6" y2="0"></line><text dy=".32em" style="text-anchor: end; " x="-9" y="0">22,000</text></g><g class="tick" style="opacity: 1; " transform="translate(0,42.95971054912749)"><line x2="-6" y2="0"></line><text dy=".32em" style="text-anchor: end; " x="-9" y="0">24,000</text></g><g class="tick" style="opacity: 1; " transform="translate(0,9.039686428221477)"><line x2="-6" y2="0"></line><text dy=".32em" style="text-anchor: end; " x="-9" y="0">26,000</text></g><path class="domain" d="M-6,0H0V450H-6"></path><text transform="rotate(-90)" y="6" dy=".71em" style="text-anchor: end; ">count</text></g><text transform="rotate(-90)" y="-100" x="-225" dy="1em" style="text-anchor: middle; ">Tags</text><g class="serie"><path class="line C" d="M8.82468332294217,448.4905589266197L10.295463876765865,447.79237176346436C11.766244430589559,447.09418460030906,14.707805538236949,445.69781027399836,17.601922111890026,445.0872498398221C20.496038685543102,444.47668940564574,23.342710725201865,444.6519428636037,26.238804154438036,444.86111634568266C29.13489758367421,445.0702898277616,32.080412402487795,445.31338333396144,34.97650583172397,445.6412769004635C37.87259926096014,445.96917046696564,40.71927130061891,446.38186409377,43.613387874271986,446.2009572984585C46.50750444792506,446.020050503147,49.449065555572446,445.24554328571963,52.39062666321984,444.83567632759195C55.33218777086723,444.4258093694644,58.273748878514624,444.3805826706365,61.07297638417907,444.06964911619485C63.87220388984352,443.7587155617532,66.52909779352504,443.18207515169786,69.32634844360639,442.8146082237214C72.12359909368774,442.4471412957449,75.06120649016894,442.28884784984734,77.95334620823891,442.15599442204046C80.8454859263089,442.0231409942336,83.69215796596767,441.9157275845174,86.58627453962075,441.78852749406406C89.48039111327382,441.6613274036106,92.42195222092121,441.51434063241993,95.31606879457429,441.33343383710843C98.21018536822737,441.15252704179693,101.05685740788613,440.9377002223645,103.9509739815392,440.86420683676926C106.84509055519229,440.79071345117393,109.78665166283966,440.85855349941573,112.72821277048706,440.7624467644065C115.66977387813445,440.66634002939725,118.61133498578184,440.406286511137,121.50545155943492,439.71092601665845C124.399568133088,439.0155655221799,127.24624017274677,437.884898051483,130.14233360198295,436.75140391210937C133.0384270312191,435.6179097727358,135.9839418500327,434.48158896468544,138.88003527926887,434.25828213922284C141.77612870850504,434.0349753137602,144.6228007481638,434.7246824708853,147.5169173218169,434.6851091094109C150.41103389546996,434.6455357479365,153.35259500311733,433.8766818678626,156.29415611076473,433.3509214939885C159.2357172184121,432.8251611201145,162.1772783260595,432.5424942524403,164.97650583172395,432.15241397504985C167.77573333738843,431.76233369765947,170.43262724106992,431.26484001055286,173.2298778911513,430.85779972110197C176.02712854123263,430.45075943165114,178.96473593771384,430.134172539856,181.8568756557838,429.96739908792824C184.7490153738538,429.80062563600046,187.59568741351256,429.78366562394,190.4898039871656,429.83171899144463C193.3839205608187,429.87977235894925,196.32548166846607,429.9928391060189,199.21959824211916,429.69321222628423C202.11371481577225,429.39358534654957,204.960386855431,428.6812648400105,207.8545034290841,428.0650510684808C210.74862000273717,427.44883729695096,213.69018111038457,426.92873026043037,216.63174221803195,426.63758338672596C219.57330332567932,426.3464365130215,222.51486443332672,426.28424980213316,225.4089810069798,426.07224965137743C228.30309758063288,425.8602495006218,231.14976962029164,425.4984359099988,234.0458630495278,424.6984886744808C236.94195647876398,423.89854143896275,239.88747129757758,422.6604605585497,242.78356472681372,422.61240719104507C245.67965815604992,422.5643538235405,248.52633019570868,423.7063279689443,251.42044676936177,424.26318169826254C254.31456334301484,424.82003542758076,257.25612445066224,424.7917687408134,260.19768555830956,424.3084083970905C263.139246665957,423.82504805336754,266.0808077736044,422.88659405268913,268.88003527926884,421.10579278634157C271.67926278493326,419.324991519994,274.3361566886148,416.7018429879773,277.13340733869614,415.5485621678664C279.9306579887775,414.39528134775566,282.8682653852587,414.71186823955077,285.7604051033287,415.4637621075642C288.6525448213987,416.2156559755776,291.49921686105745,417.4028568198093,294.39333343471054,418.18584404326685C297.28745000836363,418.96883126672446,300.229011116011,419.3476048694079,303.1231276896641,419.8366185504843C306.01724426331714,420.3256322315607,308.8639163029759,420.92488599103,311.758032876629,420.7835525571929C314.6521494502821,420.64221912335574,317.59371055792946,419.7602984962122,320.53527166557683,419.05080465834993C323.47683277322426,418.34131082048765,326.4183938808716,417.8042437719066,329.3125104545247,416.89405645799565C332.20662702817776,415.9838691440847,335.0532990678365,414.7005615648437,337.9493924970727,413.8469076244676C340.8454859263089,412.9932536840914,343.79100074512246,412.56925338258014,346.6870941743586,412.9169336298194C349.5831876035948,413.26461387705876,352.4298596432536,414.38397467304867,355.3239762169067,414.3133079561301C358.21809279055975,414.24264123921154,361.1596538982071,412.9819470093845,364.10121500585456,411.8399728639807C367.04277611350193,410.69799871857686,369.9843372211493,409.6747446575962,372.83100926080806,408.2048769456903C375.6776813004668,406.73500923378435,378.42946427213695,404.8185278709531,381.2741594562126,404.06380733426295C384.1188546402883,403.30908679757283,387.05646203676946,403.71612708702366,389.9486017548395,404.4510609429767C392.84074147290943,405.18599479892964,395.6874135125682,406.24882222138467,398.5815300862213,407.24098292692116C401.4756466598743,408.23314363245765,404.41720776752175,409.1546376210756,407.3113243411749,409.4344778200731C410.20544091482793,409.71431801907056,413.0521129544867,409.35250442844756,415.9462295281398,409.33837108506384C418.8403461017929,409.3242377416802,421.78190720944025,409.65778464553574,424.7234683170876,409.19703765122676C427.665029424735,408.7362906569178,430.60659053238237,407.48124976444427,433.50070710603546,405.0927147325971C436.39482367968856,402.70417970075,439.2414957193473,399.1821505295292,442.1375891485835,397.3250292089096C445.03368257781966,395.46790788829003,447.97919739663325,395.27569441827154,450.8752908258694,396.9321222628425C453.77138425510554,398.58855010741337,456.6180562947643,402.0936192665737,459.5121728684174,402.8879131647382C462.4062894420705,403.68220706290276,465.3478505497179,401.7657257000716,468.28941165736535,400.23932461463085C471.2309727650127,398.71292352919005,474.1725338726601,397.5766027211397,476.9717613783245,395.9936682621641C479.77098888398893,394.41073380318846,482.42788278767046,392.3811856932876,485.2251334377518,391.10635812007683C488.0223840878332,389.83153054686613,490.9599914843144,389.31142351034555,493.8521312023844,390.03505069159155C496.74427092045437,390.75867787283755,499.5909429601131,392.72603927185014,502.4850595337662,394.44182715863263C505.3791761074193,396.1576150454151,508.3207372150667,397.6218294199676,511.2148537887197,398.13628311913465C514.1089703623728,398.6507368183017,516.9556424020316,398.2154298420834,519.8497589756846,398.08540308295323C522.7438755493378,397.95537632382315,525.6854366569852,398.1306297817812,528.6269977646326,397.0593223532959C531.5685588722799,395.9880149248106,534.5101199799274,393.670146609882,537.4042365535804,390.0887573964497C540.2983531272334,386.5073681830173,543.1450251668922,381.6624580710813,546.0411185961284,379.155202954811C548.9372120253645,376.6479478385407,551.8827268441781,376.4783477179362,554.7788202734143,378.5587758640184C557.6749137026505,380.6392040101006,560.5215857423093,384.9696604228696,563.4157023159623,386.5073681830173C566.3098188896154,388.0450759431651,569.2513799972628,386.7900350506916,572.1929411049102,385.4982474654204C575.1345022125575,384.2064598801492,578.076063320205,382.8779256020804,580.8752908258695,380.44699054008214C583.6745183315339,378.0160554780839,586.3314122352155,374.48271963215615,589.1286628852968,374.2961594994912C591.9259135353782,374.10959936682616,594.8635209318593,377.2698149474239,597.7556606499293,381.02363095013754C600.6478003679993,384.77744695285116,603.494472407658,389.1248633776806,606.388588981311,392.7288659405269C609.2827055549642,396.3328685033731,612.2242666626115,399.1934572042362,615.1183832362645,400.43719142200274C618.0124998099177,401.6809256397693,620.8591718495763,401.30780537443934,623.7532884232295,401.607432254174C626.6474049968825,401.9070591339087,629.58896610453,402.879433158708,632.5305272121774,401.74311235065767C635.4720883198248,400.6067915426073,638.4136494274723,397.3617759017073,641.3077660011254,394.108280254777C644.2018825747784,390.8547846078468,647.0485546144371,387.5928089548863,649.9446480436733,386.33211472505934C652.8407414729095,385.0714204952323,655.786256291723,385.81200768853876,658.6823497209592,387.6380356537142C661.5784431501954,389.46406361888967,664.4251151898541,392.37553235593407,667.3192317635072,393.44401311574256C670.2133483371603,394.5124938755512,673.1549094448077,393.73798665812376,676.0964705524551,392.9210794105453C679.0380316601024,392.10417216296685,681.9795927677499,391.24486488523723,684.7788202734143,389.10790336562013C687.5780477790788,386.97094184600303,690.2349416827602,383.55632608449855,693.0321923328415,381.76139147476727C695.829442982923,379.966456865036,698.767050379404,379.791203407078,701.6591900974742,380.9755775826329C704.551329815544,382.1599517581879,707.3980018552029,384.70395356725584,710.2921184288559,387.1122752798401C713.186235002509,389.5205969924245,716.1277961101564,391.7932386085252,719.0219126838094,393.8849734293144C721.9160292574626,395.9767082501036,724.7627012971213,397.88753627558134,727.6568178707745,399.5439641201522C730.5509344444275,401.20039196472317,733.4924955520748,402.6024196283873,736.4340566597223,401.83921908566685C739.3756177673697,401.0760185429465,742.317178875017,398.1475897938416,745.2112954486702,394.88844080955784C748.1054120223232,391.6292918252741,750.9520840619821,388.0394226058116,753.8481774912183,386.34342139976627C756.7442709204544,384.647420193721,759.689785739268,384.84528700109297,762.5858791685041,385.93355444163865C765.4819725977402,387.02182188218444,768.328644637399,389.00048995590396,771.2227612110521,399.33761730675C774.1168777847051,409.6747446575962,777.0584388923526,428.3703312855689,778.5292194461763,437.7181245995552L780,447.0659179135416"></path></g><g class="serie"><path class="line Cplusplus" d="M8.82468332294217,447.1846379979648L10.295463876765865,445.4745034485358C11.766244430589559,443.7643688991068,14.707805538236949,440.3440998002487,17.601922111890026,438.51241849771975C20.496038685543102,436.6807371951909,23.342710725201865,436.4376436889911,26.238804154438036,436.5196170806166C29.13489758367421,436.6015904722421,32.080412402487795,437.0086307616929,34.97650583172397,437.5032977801228C37.87259926096014,437.9979647985527,40.71927130061891,438.5802585459616,43.613387874271986,438.23540496739906C46.50750444792506,437.89055138883657,49.449065555572446,436.6185504843026,52.39062666321984,435.9995100440961C55.33218777086723,435.38046960388954,58.273748878514624,435.41438962801044,61.07297638417907,434.85188256133875C63.87220388984352,434.28937549466707,66.52909779352504,433.13044133720274,69.32634844360639,432.6470809934798C72.12359909368774,432.1637206497569,75.06120649016894,432.3559341197754,77.95334620823891,431.87822711340596C80.8454859263089,431.4005201070365,83.69215796596767,430.2528926242792,86.58627453962075,429.5773188105378C89.48039111327382,428.9017449967964,92.42195222092121,428.698224852071,95.31606879457429,428.0141710322994C98.21018536822737,427.33011721252774,101.05685740788613,426.16552971771,103.9509739815392,425.7358760788452C106.84509055519229,425.3062224399804,109.78665166283966,425.6115026570685,112.72821277048706,425.6143293257453C115.66977387813445,425.61715599442203,118.61133498578184,425.3175291146874,121.50545155943492,424.52040854784605C124.399568133088,423.7232879810048,127.24624017274677,422.4286737270569,130.14233360198295,421.583499792711C133.0384270312191,420.73832585836504,135.9839418500327,420.3425922436211,138.88003527926887,420.4386989786303C141.77612870850504,420.53480571363957,144.6228007481638,421.12275279840196,147.5169173218169,420.475445671428C150.41103389546996,419.8281385444541,153.35259500311733,417.94557720574375,156.29415611076473,416.1873892888101C159.2357172184121,414.4292013718765,162.1772783260595,412.7953868767196,164.97650583172395,411.5177326348321C167.77573333738843,410.24007839294467,170.43262724106992,409.3185844043267,173.2298778911513,408.6967172954435C176.02712854123263,408.0748501865601,178.96473593771384,407.7526099574115,181.8568756557838,407.8289300116835C184.7490153738538,407.90525006595556,187.59568741351256,408.38013040364825,190.4898039871656,407.42471639090945C193.3839205608187,406.46930237817054,196.32548166846607,404.08359401500013,199.21959824211916,403.2779934421286C202.11371481577225,402.4723928692571,204.960386855431,403.2469000866845,207.8545034290841,403.7443937737911C210.74862000273717,404.2418874608977,213.69018111038457,404.46236761768364,216.63174221803195,404.30407417178606C219.57330332567932,404.14578072588847,222.51486443332672,403.6087136773075,225.4089810069798,402.7465797309011C228.30309758063288,401.88444578449474,231.14976962029164,400.69724494026303,234.0458630495278,398.9023103305317C236.94195647876398,397.10737572080046,239.88747129757758,394.7047073455696,242.78356472681372,394.1563336222816C245.67965815604992,393.6079598989936,248.52633019570868,394.91388082764854,251.42044676936177,394.5209738815814C254.31456334301484,394.12806693551425,257.25612445066224,392.03633211472504,260.19768555830956,391.1289714694908C263.139246665957,390.2216108242566,266.0808077736044,390.4986243545773,268.88003527926884,388.55952964233217C271.67926278493326,386.6204349300871,274.3361566886148,382.4652319752761,277.13340733869614,380.3904571665473C279.9306579887775,378.31568235781856,282.8682653852587,378.321335695172,285.7604051033287,379.0986695812761C288.6525448213987,379.87600346738026,291.49921686105745,381.42501790223497,294.39333343471054,382.4595786379226C297.28745000836363,383.4941393736102,300.229011116011,384.01424641013074,303.1231276896641,384.16123318132134C306.01724426331714,384.30821995251193,308.8639163029759,384.0820864583726,311.758032876629,383.68352617495196C314.6521494502821,383.28496589153133,317.59371055792946,382.7139788188294,320.53527166557683,382.47653864998307C323.47683277322426,382.2390984811367,326.4183938808716,382.33520521614594,329.3125104545247,381.2130177514793C332.20662702817776,380.09083028681266,335.0532990678365,377.75034862247014,337.9493924970727,376.1674141634945C340.8454859263089,374.5844797045189,343.79100074512246,373.7590924509102,346.6870941743586,373.6686390532544C349.5831876035948,373.5781856555987,352.4298596432536,374.2226661138959,355.3239762169067,373.9710926016659C358.21809279055975,373.7195190894358,361.1596538982071,372.5718916066785,364.10121500585456,370.46037010515204C367.04277611350193,368.34884860362564,369.9843372211493,365.27343308333013,372.83100926080806,363.345645045792C375.6776813004668,361.4178570082538,378.42946427213695,360.63769645347304,381.2741594562126,360.02430935061994C384.1188546402883,359.4109222477669,387.05646203676946,358.96430859684165,389.9486017548395,359.65401575396675C392.84074147290943,360.34372291109185,395.6874135125682,362.1697508762673,398.5815300862213,364.0664455583613C401.4756466598743,365.9631402404553,404.41720776752175,367.9305016394678,407.3113243411749,367.0598876870313C410.20544091482793,366.1892737345946,413.0521129544867,362.4806844307089,415.9462295281398,360.98820336938905C418.8403461017929,359.49572230806916,421.78190720944025,360.21934948931516,424.7234683170876,361.3302302792748C427.665029424735,362.4411110692345,430.60659053238237,363.9392454679079,433.50070710603546,361.8277239663815C436.39482367968856,359.7162024648551,439.2414957193473,353.99502506312894,442.1375891485835,350.0970489579015C445.03368257781966,346.199072852674,447.97919739663325,344.12429804394526,450.8752908258694,344.7405118154751C453.77138425510554,345.35672558700486,456.6180562947643,348.6639279387932,459.5121728684174,349.3027550597369C462.4062894420705,349.94158218068065,465.3478505497179,347.9120340707798,468.28941165736535,346.7078732144876C471.2309727650127,345.50371235819546,474.1725338726601,345.124938755512,476.9717613783245,341.71032299400747C479.77098888398893,338.29570723250293,482.42788278767046,331.8452493121773,485.2251334377518,328.8263671654167C488.0223840878332,325.80748501865605,490.9599914843144,326.2201786454604,493.8521312023844,327.3734594655712C496.74427092045437,328.52674028568197,499.5909429601131,330.42060829909923,502.4850595337662,333.2472769758414C505.3791761074193,336.0739456525836,508.3207372150667,339.83341499265066,511.2148537887197,340.6559755775826C514.1089703623728,341.47853616251456,516.9556424020316,339.36418799231143,519.8497589756846,339.23416123318134C522.7438755493378,339.1041344740512,525.6854366569852,340.95842912599403,528.6269977646326,340.98669581276147C531.5685588722799,341.0149624995289,534.5101199799274,339.21720122112083,537.4042365535804,334.1913843138733C540.2983531272334,329.16556740662566,543.1450251668922,320.91169487053855,546.0411185961284,316.3890249877511C548.9372120253645,311.86635510496365,551.8827268441781,311.0748878754758,554.7788202734143,313.83088983529944C557.6749137026505,316.58689179512305,560.5215857423093,322.8903629442581,563.4157023159623,324.1482305054083C566.3098188896154,325.4060980665586,569.2513799972628,321.61836203972416,572.1929411049102,319.73014736366036C575.1345022125575,317.84193268759657,578.076063320205,317.85323936230355,580.8752908258695,314.9926506614405C583.6745183315339,312.1320619605774,586.3314122352155,306.39957788414426,589.1286628852968,305.0795236121057C591.9259135353782,303.7594693400671,594.8635209318593,306.85184487242304,597.7556606499293,312.20272867749594C600.6478003679993,317.55361248256884,603.494472407658,325.1630045603588,606.388588981311,332.0544227942562C609.2827055549642,338.9458410281536,612.2242666626115,345.1192854181585,615.1183832362645,346.58915313006446C618.0124998099177,348.0590208419703,620.8591718495763,344.8253118757773,623.7532884232295,344.3108581766102C626.6474049968825,343.79640447744316,629.58896610453,346.00120604530207,632.5305272121774,346.11992612972523C635.4720883198248,346.2386462141484,638.4136494274723,344.27128481513586,641.3077660011254,341.5463762107564C644.2018825747784,338.8214676063769,647.0485546144371,335.3390117966306,649.9446480436733,334.27618437417556C652.8407414729095,333.21335695172047,655.786256291723,334.5701579165567,658.6823497209592,336.70146609882033C661.5784431501954,338.83277428108386,664.4251151898541,341.7385896807748,667.3192317635072,342.0975766027211C670.2133483371603,342.45656352466733,673.1549094448077,340.26872196886893,676.0964705524551,338.2335205216146C679.0380316601024,336.1983190743602,681.9795927677499,334.31575773565,684.7788202734143,330.41495496174576C687.5780477790788,326.51415218784155,690.2349416827602,320.59510797874344,693.0321923328415,318.5401198507519C695.829442982923,316.48513172276034,698.767050379404,318.2941996758753,701.6591900974742,320.1032676289903C704.551329815544,321.91233558210524,707.3980018552029,323.72140353522025,710.2921184288559,325.3636980364075C713.186235002509,327.0059925375947,716.1277961101564,328.48151358685413,719.0219126838094,328.8489805148306C721.9160292574626,329.21644744280707,724.7627012971213,328.4758602495006,727.6568178707745,330.4714883352806C730.5509344444275,332.46711642106055,733.4924955520748,337.19895978592695,736.4340566597223,339.54226811894625C739.3756177673697,341.8855764519655,742.317178875017,341.8403497531376,745.2112954486702,338.27026721441223C748.1054120223232,334.70018467568684,750.9520840619821,327.60524629706396,753.8481774912183,323.8938303245015C756.7442709204544,320.18241435193903,759.689785739268,319.854520785437,762.5858791685041,319.94497418309277C765.4819725977402,320.03542758074855,768.328644637399,320.5442279425621,771.2227612110521,341.3174160479403C774.1168777847051,362.0906041533185,777.0584388923526,403.12818000226133,778.5292194461763,423.64696792673277L780,444.16575585120415"></path></g><g class="serie"><path class="line Java" d="M0,449.94911996381865L1.4707805538236949,448.530132288094C2.9415611076473898,447.1111446123695,5.8831222152947795,444.2731692609204,8.82468332294217,439.61199261297253C11.766244430589559,434.95081596502473,14.707805538236949,428.46643802057815,17.601922111890026,424.26318169826254C20.496038685543102,420.05992537594693,23.342710725201865,418.1377906757623,26.238804154438036,417.92013718765315C29.13489758367421,417.70248369954396,32.080412402487795,419.18931142351033,34.97650583172397,420.3086722195002C37.87259926096014,421.4280330154901,40.71927130061891,422.1799268835035,43.613387874271986,420.3369389062677C46.50750444792506,418.4939509290317,49.449065555572446,414.05608110654657,52.39062666321984,411.1926657370067C55.33218777086723,408.3292503674669,58.273748878514624,407.0402894508725,61.07297638417907,404.8241812083066C63.87220388984352,402.6080729657407,66.52909779352504,399.46481739720343,69.32634844360639,397.42113594391884C72.12359909368774,395.37745449063425,75.06120649016894,394.43334715260244,77.95334620823891,393.2885463385218C80.8454859263089,392.1437455244412,83.69215796596767,390.7982512343119,86.58627453962075,389.20118343195264C89.48039111327382,387.6041156295933,92.42195222092121,385.755474315004,95.31606879457429,383.36693928315685C98.21018536822737,380.9784042513097,101.05685740788613,378.0499755022048,103.9509739815392,376.4444276938152C106.84509055519229,374.8388798854257,109.78665166283966,374.5562130177515,112.72821277048706,374.66645309614444C115.66977387813445,374.77669317453734,118.61133498578184,375.2798401989975,121.50545155943492,374.48837296950967C124.399568133088,373.69690574002186,127.24624017274677,371.6108242565861,130.14233360198295,370.6865035992915C133.0384270312191,369.76218294199674,135.9839418500327,369.9996231108431,138.88003527926887,370.6497569064938C141.77612870850504,371.29989070214447,144.6228007481638,372.36271812459955,147.5169173218169,371.0850638827121C150.41103389546996,369.80740964082463,153.35259500311733,366.1892737345947,156.29415611076473,364.42543248030756C159.2357172184121,362.66159122602045,162.1772783260595,362.75204462367617,164.97650583172395,360.09497606753854C167.77573333738843,357.4379075114009,170.43262724106992,352.03331700146987,173.2298778911513,350.091395620548C176.02712854123263,348.1494742396261,178.96473593771384,349.6702219877134,181.8568756557838,349.9557155240643C184.7490153738538,350.2412090604153,187.59568741351256,349.2914483850299,190.4898039871656,348.22014095654464C193.3839205608187,347.14883352805936,196.32548166846607,345.9559793464742,199.21959824211916,343.776617796706C202.11371481577225,341.5972562469378,204.960386855431,338.43138732898655,207.8545034290841,335.9891455922813C210.74862000273717,333.5469038555761,213.69018111038457,331.8282893001168,216.63174221803195,332.6056231862209C219.57330332567932,333.382957072325,222.51486443332672,336.65623939999244,225.4089810069798,337.35442656314774C228.30309758063288,338.0526137263031,231.14976962029164,336.1757057249463,234.0458630495278,333.5638638676365C236.94195647876398,330.9520220103267,239.88747129757758,327.605246297064,242.78356472681372,326.5508988806391C245.67965815604992,325.49655146421435,248.52633019570868,326.73463234462736,251.42044676936177,324.78423095767533C254.31456334301484,322.8338295707232,257.25612445066224,317.69494591640597,260.19768555830956,314.438623600799C263.139246665957,311.182301285192,266.0808077736044,309.80854030829533,268.88003527926884,304.09866958127617C271.67926278493326,298.38879885425695,274.3361566886148,288.3428183771153,277.13340733869614,285.3522029171221C279.9306579887775,282.36158745712885,282.8682653852587,286.42633701428406,285.7604051033287,286.262390231033C288.6525448213987,286.09844344778196,291.49921686105745,281.70580032412465,294.39333343471054,280.2811593110466C297.28745000836363,278.85651829796853,300.229011116011,280.3998793954697,303.1231276896641,281.5729468963177C306.01724426331714,282.74601439716577,308.8639163029759,283.54878830136056,311.758032876629,282.7318810537821C314.6521494502821,281.9149738062036,317.59371055792946,279.4783854068519,320.53527166557683,280.419666076207C323.47683277322426,281.36094674556216,326.4183938808716,285.68009648362414,329.3125104545247,288.0771115215015C332.20662702817776,290.4741265593789,335.0532990678365,290.94900689707157,337.9493924970727,289.28409904647043C340.8454859263089,287.6191911958693,343.79100074512246,283.8144951569743,346.6870941743586,283.51486827723966C349.5831876035948,283.215241397505,352.4298596432536,286.4206836769306,355.3239762169067,284.81513586854106C358.21809279055975,283.2095880601515,361.1596538982071,276.79305016394676,364.10121500585456,272.6491538838427C367.04277611350193,268.5052576037387,369.9843372211493,266.63400293973535,372.83100926080806,263.0978404251309C375.6776813004668,259.56167791052644,378.42946427213695,254.3606075453209,381.2741594562126,253.18754004447288C384.1188546402883,252.01447254362492,387.05646203676946,254.8694079071345,389.9486017548395,255.01356800964837C392.84074147290943,255.1577281121622,395.6874135125682,252.59111295368032,398.5815300862213,252.0823125918667C401.4756466598743,251.57351223005313,404.41720776752175,253.1225266649078,407.3113243411749,250.87815173557453C410.20544091482793,248.63377680624123,413.0521129544867,242.59601251271997,415.9462295281398,240.79825123431195C418.8403461017929,239.00048995590396,421.78190720944025,241.44273169260921,424.7234683170876,244.71318735159988C427.665029424735,247.98364301059058,430.60659053238237,252.08231259186672,433.50070710603546,249.86337768062413C436.39482367968856,247.6444427693815,439.2414957193473,239.10790336562013,442.1375891485835,236.32646138770585C445.03368257781966,233.54501940979156,447.97919739663325,236.51867485772433,450.8752908258694,241.6038518071835C453.77138425510554,246.68902875664267,456.6180562947643,253.88572720762824,459.5121728684174,252.13601929672484C462.4062894420705,250.38631138582141,465.3478505497179,239.69019711302903,468.28941165736535,235.0035804469905C471.2309727650127,230.316963780952,474.1725338726601,231.63984472166734,476.9717613783245,227.3715750197867C479.77098888398893,223.103305317906,482.42788278767046,213.24388497342932,485.2251334377518,209.36004221158558C488.0223840878332,205.47619944974184,490.9599914843144,207.56793427053105,493.8521312023844,210.01300267591301C496.74427092045437,212.458071081295,499.5909429601131,215.25647307126974,502.4850595337662,218.6456488146836C505.3791761074193,222.03482455809745,508.3207372150667,226.01477405495044,511.2148537887197,224.00218595711C514.1089703623728,221.98959785926957,516.9556424020316,213.98447216673574,519.8497589756846,211.04191007424714C522.7438755493378,208.09934798175854,525.6854366569852,210.21934948931516,528.6269977646326,211.48287038781893C531.5685588722799,212.74639128632268,534.5101199799274,213.15343157577354,537.4042365535804,209.31198884408093C540.2983531272334,205.47054611238832,543.1450251668922,197.38062035955224,546.0411185961284,195.0570987072702C548.9372120253645,192.7335770549881,551.8827268441781,196.17645950326005,554.7788202734143,200.58888930765457C557.6749137026505,205.0013191120491,560.5215857423093,210.3832962725662,563.4157023159623,208.09934798175854C566.3098188896154,205.81539969095087,569.2513799972628,195.86552594881843,572.1929411049102,191.6198695963517C575.1345022125575,187.37421324388495,578.076063320205,188.8327742810839,580.8752908258695,186.40183921908564C583.6745183315339,183.97090415708738,586.3314122352155,177.6504729958919,589.1286628852968,176.9720725134738C591.9259135353782,176.29367203105568,594.8635209318593,181.25730222741493,597.7556606499293,187.72754682847773C600.6478003679993,194.19779142954056,603.494472407658,202.17465043530694,606.388588981311,210.10345607356874C609.2827055549642,218.03226171183053,612.2242666626115,225.91301398258773,615.1183832362645,226.4896543926431C618.0124998099177,227.06629480269854,620.8591718495763,220.33882335205215,623.7532884232295,220.4688501111823C626.6474049968825,220.5988768703124,629.58896610453,227.58640183921906,632.5305272121774,231.5380846493046C635.4720883198248,235.48976745939018,638.4136494274723,236.40560811065464,641.3077660011254,236.17947461651525C644.2018825747784,235.9533411223759,647.0485546144371,234.58523348283268,649.9446480436733,235.83744770662946C652.8407414729095,237.08966193042625,655.786256291723,240.96219801756303,658.6823497209592,245.117400972374C661.5784431501954,249.272603927185,664.4251151898541,253.71047374967023,667.3192317635072,251.05623186220933C670.2133483371603,248.4019899747484,673.1549094448077,238.6556363773414,676.0964705524551,233.41499265066142C679.0380316601024,228.17434892398143,681.9795927677499,227.4394150680285,684.7788202734143,222.2439980401764C687.5780477790788,217.0485810123243,690.2349416827602,207.39268081257302,693.0321923328415,203.65865149059658C695.829442982923,199.9246221686202,698.767050379404,202.11246372441866,701.6591900974742,202.60147740549505C704.551329815544,203.09049108657143,707.3980018552029,201.88067689292578,710.2921184288559,200.430595861757C713.186235002509,198.9805148305883,716.1277961101564,197.2901669618965,719.0219126838094,194.44088493574037C721.9160292574626,191.59160290958428,724.7627012971213,187.5833867259639,727.6568178707745,188.56141408811666C730.5509344444275,189.53944145026946,733.4924955520748,195.50371235819543,736.4340566597223,199.37059510797872C739.3756177673697,203.237477857762,742.317178875017,205.0069724494026,745.2112954486702,205.70798628123467C748.1054120223232,206.40900011306672,750.9520840619821,206.04153318509026,753.8481774912183,207.0365205593035C756.7442709204544,208.03150793351676,759.689785739268,210.38894960991973,762.5858791685041,210.23913617005238C765.4819725977402,210.08932273018505,768.328644637399,207.4322541740474,771.2227612110521,245.41137451475518C774.1168777847051,283.390494855463,777.0584388923526,362.0058040930162,778.5292194461763,401.3134587117928L780,440.6211133305695"></path></g><g class="serie"><path class="line PHP" d="M8.82468332294217,447.2524780462066L10.295463876765865,446.31685071420486C11.766244430589559,445.38122338220325,14.707805538236949,443.50996871819996,17.601922111890026,442.20122112086835C20.496038685543102,440.89247352353675,23.342710725201865,440.1462329928768,26.238804154438036,440.1038329627257C29.13489758367421,440.06143293257446,32.080412402487795,440.7228734029321,34.97650583172397,441.12991369238307C37.87259926096014,441.5369539818339,40.71927130061891,441.689594090378,43.613387874271986,441.2995138129876C46.50750444792506,440.90943353559715,49.449065555572446,439.97663287227226,52.39062666321984,439.1399389439566C55.33218777086723,438.30324501564087,58.273748878514624,437.5626578223345,61.07297638417907,436.81924396035123C63.87220388984352,436.07583009836804,66.52909779352504,435.3295895677081,69.32634844360639,434.7614291636829C72.12359909368774,434.1932687596577,75.06120649016894,433.80318848226733,77.95334620823891,433.00606791542606C80.8454859263089,432.20894734858473,83.69215796596767,431.0047864922926,86.58627453962075,429.2833452681566C89.48039111327382,427.5619040440206,92.42195222092121,425.3231824520408,95.31606879457429,422.909207402103C98.21018536822737,420.4952323521652,101.05685740788613,417.90600384426943,103.9509739815392,416.1534692646893C106.84509055519229,414.4009346851091,109.78665166283966,413.48509403384463,112.72821277048706,412.81234688878C115.66977387813445,412.13959974371534,118.61133498578184,411.70994610485053,121.50545155943492,411.20397241171366C124.399568133088,410.69799871857686,127.24624017274677,410.11570497116793,130.14233360198295,408.9002374401688C133.0384270312191,407.6847699091697,135.9839418500327,405.8361285945804,138.88003527926887,404.53303433460223C141.77612870850504,403.2299400746241,144.6228007481638,402.47239286925713,147.5169173218169,400.33543134964003C150.41103389546996,398.198469830023,153.35259500311733,394.6820939961557,156.29415611076473,393.72102664606336C159.2357172184121,392.75995929597104,162.1772783260595,394.3542004296536,164.97650583172395,393.4892398145705C167.77573333738843,392.6242791994874,170.43262724106992,389.30011683563856,173.2298778911513,387.89808917197445C176.02712854123263,386.49606150831033,178.96473593771384,387.0161685448309,181.8568756557838,386.3208080503524C184.7490153738538,385.6254475558738,187.59568741351256,383.7146195303961,190.4898039871656,382.41717860777146C193.3839205608187,381.1197376851468,196.32548166846607,380.4356838653752,199.21959824211916,378.5757358760789C202.11371481577225,376.71578788678255,204.960386855431,373.6799457279614,207.8545034290841,370.59887687031244C210.74862000273717,367.51780801266347,213.69018111038457,364.39151245618666,216.63174221803195,364.13711227527983C219.57330332567932,363.882712094373,222.51486443332672,366.50020728903627,225.4089810069798,368.28948856141403C228.30309758063288,370.07876983379185,231.14976962029164,371.0398371838842,234.0458630495278,369.75935627332C236.94195647876398,368.4788753627558,239.88747129757758,364.9568461915351,242.78356472681372,362.4156710511438C245.67965815604992,359.87449591075267,248.52633019570868,358.314174801191,251.42044676936177,354.56318546715414C254.31456334301484,350.81219613311725,257.25612445066224,344.87053857460523,260.19768555830956,341.06018919835674C263.139246665957,337.2498398221083,266.0808077736044,335.57079862812344,268.88003527926884,330.6552217992688C271.67926278493326,325.7396449704142,274.3361566886148,317.58753250668974,277.13340733869614,314.8145705348057C279.9306579887775,312.0416085629216,282.8682653852587,314.6477970828779,285.7604051033287,314.7721705046546C288.6525448213987,314.8965439264312,291.49921686105745,312.53910225002824,294.39333343471054,311.5667282252289C297.28745000836363,310.5943542004296,300.229011116011,311.00704782723403,303.1231276896641,309.26581992236083C306.01724426331714,307.52459201748763,308.8639163029759,303.62944258093694,311.758032876629,300.9469340067086C314.6521494502821,298.2644254324803,317.59371055792946,296.7945577205744,320.53527166557683,298.44815889646856C323.47683277322426,300.1017600723627,326.4183938808716,304.878830136057,329.3125104545247,307.3549918968831C332.20662702817776,309.83115365770925,335.0532990678365,310.00640711566723,337.9493924970727,308.29627256623826C340.8454859263089,306.58613801680923,343.79100074512246,302.9906154599932,346.6870941743586,302.2443749293333C349.5831876035948,301.4981343986733,352.4298596432536,303.6011758941695,355.3239762169067,301.7836279350243C358.21809279055975,299.9660799758791,361.1596538982071,294.2279425620925,364.10121500585456,289.56676591414464C367.04277611350193,284.9055892661968,369.9843372211493,281.32137338408774,372.83100926080806,276.63475671804923C375.6776813004668,271.9481400520107,378.42946427213695,266.1591226020427,381.2741594562126,264.6327215166019C384.1188546402883,263.1063204311612,387.05646203676946,265.8425357102476,389.9486017548395,265.7294689631779C392.84074147290943,265.6164022161082,395.6874135125682,262.65405344288246,398.5815300862213,262.19047977989675C401.4756466598743,261.726906116911,404.41720776752175,263.7621075641654,407.3113243411749,261.37074586364145C410.20544091482793,258.97938416311763,413.0521129544867,252.16145931481552,415.9462295281398,248.28044322164854C418.8403461017929,244.39942712848153,421.78190720944025,243.45531979044964,424.7234683170876,245.84102815362002C427.665029424735,248.22673651679042,430.60659053238237,253.9422605811631,433.50070710603546,254.40018090679536C436.39482367968856,254.8581012324276,439.2414957193473,250.05841781931937,442.1375891485835,247.52572268495837C445.03368257781966,244.9930275505974,447.97919739663325,244.72732069498358,450.8752908258694,246.64945539516827C453.77138425510554,248.57159009535295,456.6180562947643,252.68156635133607,459.5121728684174,249.5722308069197C462.4062894420705,246.4628952625033,465.3478505497179,236.13424791768742,468.28941165736535,231.5550446613651C471.2309727650127,226.9758414050428,474.1725338726601,228.14608223721405,476.9717613783245,224.12090604153317C479.77098888398893,220.0957298458523,482.42788278767046,210.87513662231936,485.2251334377518,208.47812158444196C488.0223840878332,206.08110654656463,490.9599914843144,210.5076696943429,493.8521312023844,213.806392040101C496.74427092045437,217.1051143858591,499.5909429601131,219.2759959295971,502.4850595337662,221.63061093732333C505.3791761074193,223.98522594504954,508.3207372150667,226.523574416764,511.2148537887197,223.12026532996643C514.1089703623728,219.71695624316885,516.9556424020316,210.37198959785923,519.8497589756846,205.83801304036479C522.7438755493378,201.30403648287034,525.6854366569852,201.5810500131911,528.6269977646326,201.7958768326235C531.5685588722799,202.0107036520559,534.5101199799274,202.1633437606,537.4042365535804,199.00878151735571C540.2983531272334,195.85421927411147,543.1450251668922,189.39245467907887,546.0411185961284,187.57208005125693C548.9372120253645,185.75170542343497,551.8827268441781,188.57272076282365,554.7788202734143,191.26936268043568C557.6749137026505,193.9660045980477,560.5215857423093,196.53827309388308,563.4157023159623,190.78600233671278C566.3098188896154,185.03373157954246,569.2513799972628,170.95692156936644,572.1929411049102,164.69019711302903C575.1345022125575,158.42347265669167,578.076063320205,159.96683375419286,580.8752908258695,155.52613726303093C583.6745183315339,151.08544077186897,586.3314122352155,140.66068669204384,589.1286628852968,137.30543097275088C591.9259135353782,133.95017525345793,594.8635209318593,137.66441789469715,597.7556606499293,147.8969585045038C600.6478003679993,158.12949911431048,603.494472407658,174.88033769268458,606.388588981311,188.37202728677494C609.2827055549642,201.86371688086533,612.2242666626115,212.09625749067197,615.1183832362645,213.60287189537556C618.0124998099177,215.10948630007914,620.8591718495763,207.89017449967963,623.7532884232295,207.38702747521953C626.6474049968825,206.88388045075942,629.58896610453,213.09689820223872,632.5305272121774,215.7709267704368C635.4720883198248,218.44495533863488,638.4136494274723,217.57999472355178,641.3077660011254,216.42106056608748C644.2018825747784,215.2621264086232,647.0485546144371,213.80921870877773,649.9446480436733,214.7476727094561C652.8407414729095,215.68612671013454,655.786256291723,219.01594241133682,658.6823497209592,222.47861154034595C661.5784431501954,225.94128066935514,664.4251151898541,229.53680322617117,667.3192317635072,224.70885312629554C670.2133483371603,219.8809030264199,673.1549094448077,206.62948026985265,676.0964705524551,200.33166245807107C679.0380316601024,194.03384464628954,681.9795927677499,194.68963177929368,684.7788202734143,190.21501526401084C687.5780477790788,185.74039874872796,690.2349416827602,176.1353785851581,693.0321923328415,171.94342893754944C695.829442982923,167.7514792899408,698.767050379404,168.9726001582934,701.6591900974742,170.9145215392153C704.551329815544,172.85644292013717,707.3980018552029,175.51916481362827,710.2921184288559,176.8335657483134C713.186235002509,178.14796668299851,716.1277961101564,178.1140466588776,719.0219126838094,174.8633776806241C721.9160292574626,171.6127087023706,724.7627012971213,165.1452907699845,727.6568178707745,165.47601100516334C730.5509344444275,165.8067312403422,733.4924955520748,172.93558964308596,736.4340566597223,178.54370029774242C739.3756177673697,184.15181095239888,742.317178875017,188.23917385896806,745.2112954486702,189.09000113066747C748.1054120223232,189.94082840236683,750.9520840619821,187.55512003919645,753.8481774912183,188.11762710586817C756.7442709204544,188.68013417253985,759.689785739268,192.1908566690536,762.5858791685041,189.0928277993442C765.4819725977402,185.99479892963478,768.328644637399,176.28801869370216,771.2227612110521,216.28538046960387C774.1168777847051,256.2827422455056,777.0584388923526,345.9842460332416,778.5292194461763,390.8349979271096L780,435.68574982097766"></path></g><g class="serie"><path class="line Ruby" d="M8.82468332294217,448.72799909546603L10.295463876765865,448.11743866128967C11.766244430589559,447.50687822711336,14.707805538236949,446.28575735876075,17.601922111890026,445.78261033430067C20.496038685543102,445.27946330984054,23.342710725201865,445.49429012927294,26.238804154438036,445.8617570572494C29.13489758367421,446.2292239852259,32.080412402487795,446.74933102174646,34.97650583172397,447.0037312026532C37.87259926096014,447.25813138356006,40.71927130061891,447.24682470885307,43.613387874271986,447.105491275016C46.50750444792506,446.9641578411789,49.449065555572446,446.69279764821164,52.39062666321984,446.33663739494216C55.33218777086723,445.9804771416726,58.273748878514624,445.5395168281009,61.07297638417907,445.2003165868918C63.87220388984352,444.8611163456827,66.52909779352504,444.62367617683634,69.32634844360639,444.4258093694644C72.12359909368774,444.2279425620924,75.06120649016894,444.06964911619485,77.95334620823891,443.85482229676245C80.8454859263089,443.63999547733005,83.69215796596767,443.36863528436277,86.58627453962075,443.1566351336071C89.48039111327382,442.9446349828515,92.42195222092121,442.7919948743074,95.31606879457429,442.51498134398673C98.21018536822737,442.237967813666,101.05685740788613,441.8365808615686,103.9509739815392,441.689594090378C106.84509055519229,441.5426073191874,109.78665166283966,441.6500207289036,112.72821277048706,441.71786077714535C115.66977387813445,441.7857008253872,118.61133498578184,441.81396751215465,121.50545155943492,441.7941808314174C124.399568133088,441.7743941506803,127.24624017274677,441.7065541024385,130.14233360198295,441.1949270719481C133.0384270312191,440.6833000414578,135.9839418500327,439.72788602871896,138.88003527926887,439.5045792032563C141.77612870850504,439.2812723777937,144.6228007481638,439.79007273960724,147.5169173218169,439.7109260166585C150.41103389546996,439.63177929370966,153.35259500311733,438.96468548599853,156.29415611076473,438.6170052387593C159.2357172184121,438.26932499152,162.1772783260595,438.24105830475264,164.97650583172395,438.22127162401546C167.77573333738843,438.2014849432782,170.43262724106992,438.19017826857123,173.2298778911513,438.0149248106132C176.02712854123263,437.83967135265516,178.96473593771384,437.5004711114461,181.8568756557838,437.260204273923C184.7490153738538,437.0199374363999,187.59568741351256,436.8786040025628,190.4898039871656,436.5733237854746C193.3839205608187,436.2680435683865,196.32548166846607,435.7988165680473,199.21959824211916,435.4115629593336C202.11371481577225,435.0243093506199,204.960386855431,434.71902913353176,207.8545034290841,434.31198884408093C210.74862000273717,433.90494855463004,213.69018111038457,433.39614819281644,216.63174221803195,433.3113481325142C219.57330332567932,433.2265480722119,222.51486443332672,433.56574831342095,225.4089810069798,433.78905513888355C228.30309758063288,434.0123619643462,231.14976962029164,434.11977537406244,234.0458630495278,434.15652206686013C236.94195647876398,434.19326875965777,239.88747129757758,434.15934873553687,242.78356472681372,433.87668186786266C245.67965815604992,433.59401500018845,248.52633019570868,433.06260128896093,251.42044676936177,432.2796140655034C254.31456334301484,431.49662684204577,257.25612445066224,430.4620661063581,260.19768555830956,429.81193231070745C263.139246665957,429.1617985150567,266.0808077736044,428.89609165944296,268.88003527926884,427.6523574416764C271.67926278493326,426.40862322390984,274.3361566886148,424.1868616439905,277.13340733869614,423.55368786040026C279.9306579887775,422.92051407681,282.8682653852587,423.87592808954884,285.7604051033287,424.09640824633476C288.6525448213987,424.31688840312063,291.49921686105745,423.80243470395357,294.39333343471054,423.55651452907705C297.28745000836363,423.3105943542004,300.229011116011,423.33320770361433,303.1231276896641,423.26254098669574C306.01724426331714,423.1918742697772,308.8639163029759,423.02792748652615,311.758032876629,422.1460068593826C314.6521494502821,421.26408623223904,317.59371055792946,419.66419176120297,320.53527166557683,419.7602984962123C323.47683277322426,419.85640523122146,326.4183938808716,421.648513172276,329.3125104545247,422.38910036558246C332.20662702817776,423.1296875588889,335.0532990678365,422.81875400444727,337.9493924970727,422.27320694983604C340.8454859263089,421.72765989522475,343.79100074512246,420.9474993404439,346.6870941743586,420.68179248483017C349.5831876035948,420.4160856292164,352.4298596432536,420.6648324727697,355.3239762169067,420.1814721290468C358.21809279055975,419.69811178532393,361.1596538982071,418.4826442543248,364.10121500585456,417.51592356687894C367.04277611350193,416.5492028794331,369.9843372211493,415.8312290355406,372.83100926080806,415.0001884445784C375.6776813004668,414.1691478536162,378.42946427213695,413.2250405155843,381.2741594562126,413.3776806241284C384.1188546402883,413.53032073267246,387.05646203676946,414.7797082877925,389.9486017548395,415.3620020352014C392.84074147290943,415.9442957826103,395.6874135125682,415.85949572230805,398.5815300862213,416.12520257792187C401.4756466598743,416.3909094335356,404.41720776752175,417.0071232050654,407.3113243411749,416.80925639769345C410.20544091482793,416.6113895903215,413.0521129544867,415.5994422040478,415.9462295281398,415.0849885048807C418.8403461017929,414.57053480571363,421.78190720944025,414.5535747936532,424.7234683170876,414.8786416914785C427.665029424735,415.20370858930386,430.60659053238237,415.870802397015,433.50070710603546,415.3252553424037C436.39482367968856,414.7797082877925,439.2414957193473,413.0215203708589,442.1375891485835,412.52685335242904C445.03368257781966,412.03218633399916,447.97919739663325,412.801040214073,450.8752908258694,413.8271209437304C453.77138425510554,414.8532016733878,456.6180562947643,416.13650925262874,459.5121728684174,415.61922888478495C462.4062894420705,415.1019485169411,465.3478505497179,412.78408020201255,468.28941165736535,411.81453284588997C471.2309727650127,410.8449854897674,474.1725338726601,411.2237590924509,476.9717613783245,410.4633852184072C479.77098888398893,409.7030113443636,482.42788278767046,407.80348999359285,485.2251334377518,407.122262842498C488.0223840878332,406.4410356914031,490.9599914843144,406.97810273998414,493.8521312023844,407.64519654769526C496.74427092045437,408.31229035540645,499.5909429601131,409.1094109222477,502.4850595337662,409.84717144687744C505.3791761074193,410.5849319715071,508.3207372150667,411.2633324539253,511.2148537887197,410.9891455922813C514.1089703623728,410.7149587306373,516.9556424020316,409.48818452493117,519.8497589756846,408.756077337655C522.7438755493378,408.0239701503788,525.6854366569852,407.78652998153245,528.6269977646326,407.92221007801606C531.5685588722799,408.0578901744997,534.5101199799274,408.5666905363133,537.4042365535804,407.71868993329065C540.2983531272334,406.87068933026796,543.1450251668922,404.66588776240906,546.0411185961284,404.1599140692722C548.9372120253645,403.6539403761354,551.8827268441781,404.84679455772056,554.7788202734143,405.7993819017826C557.6749137026505,406.75196924584475,560.5215857423093,407.4642897523838,563.4157023159623,406.91026269174233C566.3098188896154,406.3562356311009,569.2513799972628,404.5358610032789,572.1929411049102,404.04402065352576C575.1345022125575,403.5521803037726,578.076063320205,404.3888742320883,580.8752908258695,403.877247201598C583.6745183315339,403.36562017110765,586.3314122352155,401.5056721818113,589.1286628852968,401.16081860324874C591.9259135353782,400.8159650246862,594.8635209318593,401.98620585685745,597.7556606499293,402.791806429729C600.6478003679993,403.59740700260045,603.494472407658,404.0383673161723,606.388588981311,405.1888214676063C609.2827055549642,406.3392756190404,612.2242666626115,408.19922360833675,615.1183832362645,408.5186371688086C618.0124998099177,408.83805072928044,620.8591718495763,407.6169298609278,623.7532884232295,407.2579429389816C626.6474049968825,406.89895601703535,629.58896610453,407.4021030414955,632.5305272121774,408.21335695172047C635.4720883198248,409.0246108619455,638.4136494274723,410.1439716579354,641.3077660011254,410.5001319112049C644.2018825747784,410.85629216447444,647.0485546144371,410.44925187502355,649.9446480436733,410.8902121885953C652.8407414729095,411.3311725021671,655.786256291723,412.6201334187615,658.6823497209592,413.14306712395876C661.5784431501954,413.6660008291561,664.4251151898541,413.42290732295623,667.3192317635072,411.96717295443403C670.2133483371603,410.51143858591183,673.1549094448077,407.8430633550672,676.0964705524551,406.94418271586323C679.0380316601024,406.04530207665925,681.9795927677499,406.9159160290958,684.7788202734143,406.85655598688425C687.5780477790788,406.7971959446727,690.2349416827602,405.80786190781293,693.0321923328415,405.18316813025285C695.829442982923,404.5584743526929,698.767050379404,404.2984208344326,701.6591900974742,404.17970075000943C704.551329815544,404.06098066558627,707.3980018552029,404.0835940150002,710.2921184288559,403.8348471714469C713.186235002509,403.5861003278935,716.1277961101564,403.065993291373,719.0219126838094,402.9048731767987C721.9160292574626,402.74375306222436,724.7627012971213,402.94161986959625,727.6568178707745,403.78962047261894C730.5509344444275,404.6376210756416,733.4924955520748,406.135755474315,736.4340566597223,407.39927637281875C739.3756177673697,408.6627972713225,742.317178875017,409.6917046696567,745.2112954486702,410.028078242189C748.1054120223232,410.3644518147213,750.9520840619821,410.00829156145176,753.8481774912183,410.4492518750235C756.7442709204544,410.8902121885953,759.689785739268,412.12829306900835,762.5858791685041,412.4081332680058C765.4819725977402,412.6879734670033,768.328644637399,412.0095729845852,771.2227612110521,417.855123808088C774.1168777847051,423.7006746315908,777.0584388923526,436.0701767610146,778.5292194461763,442.25492782572644L780,448.43967889043836"></path></g><g class="serie"><path class="line Python" d="M8.82468332294217,447.81215844420154L10.295463876765865,446.6390909433535C11.766244430589559,445.4660234425055,14.707805538236949,443.1198884408095,17.601922111890026,442.02596766291026C20.496038685543102,440.93204688501106,23.342710725201865,441.09034033090865,26.238804154438036,441.33908717446195C29.13489758367421,441.5878340180153,32.080412402487795,441.92703425922434,34.97650583172397,442.1249010665963C37.87259926096014,442.32276787396825,40.71927130061891,442.3793012475031,43.613387874271986,441.8676742170128C46.50750444792506,441.35604718652246,49.449065555572446,440.2762597520069,52.39062666321984,439.7278860287189C55.33218777086723,439.179512305431,58.273748878514624,439.1625522933705,61.07297638417907,438.7922586967173C63.87220388984352,438.4219651000641,66.52909779352504,437.6983379188181,69.32634844360639,437.33087099084156C72.12359909368774,436.9634040628651,75.06120649016894,436.9520973881581,77.95334620823891,436.2878302491237C80.8454859263089,435.6235631100893,83.69215796596767,434.30633550672746,86.58627453962075,433.5261749519466C89.48039111327382,432.74601439716577,92.42195222092121,432.5029208909659,95.31606879457429,432.0252138845965C98.21018536822737,431.54750687822707,101.05685740788613,430.83518637168805,103.9509739815392,430.55251950401384C106.84509055519229,430.26985263633964,109.78665166283966,430.41683940753023,112.72821277048706,430.4027060641465C115.66977387813445,430.3885727207628,118.61133498578184,430.21331926280476,121.50545155943492,429.41054535861C124.399568133088,428.60777145441523,127.24624017274677,427.1774771039837,130.14233360198295,426.0524629706403C133.0384270312191,424.92744883729694,135.9839418500327,424.10771492104175,138.88003527926887,423.62718124599553C141.77612870850504,423.14664757094937,144.6228007481638,423.00531413711224,147.5169173218169,421.91422002788977C150.41103389546996,420.8231259186673,153.35259500311733,418.78227113405944,156.29415611076473,418.00493724795535C159.2357172184121,417.22760336185127,162.1772783260595,417.71379037425095,164.97650583172395,417.36611012701167C167.77573333738843,417.0184298797723,170.43262724106992,415.8368823728941,173.2298778911513,415.9669091320243C176.02712854123263,416.0969358911544,178.96473593771384,417.5385369162929,181.8568756557838,417.6940036935137C184.7490153738538,417.84947047073456,187.59568741351256,416.71880300003767,190.4898039871656,415.5711755172804C193.3839205608187,414.42354803452304,196.32548166846607,413.25896053970524,199.21959824211916,411.54317265292275C202.11371481577225,409.82738476614026,204.960386855431,407.56039648739306,207.8545034290841,406.771755926582C210.74862000273717,405.9831153657709,213.69018111038457,406.672822522896,216.63174221803195,407.70172992123014C219.57330332567932,408.7306373195643,222.51486443332672,410.09874495910753,225.4089810069798,409.58994459729394C228.30309758063288,409.08114423548034,231.14976962029164,406.69543587230993,234.0458630495278,405.663701805299C236.94195647876398,404.63196773828815,239.88747129757758,404.95420796743673,242.78356472681372,405.4601816605736C245.67965815604992,405.9661553537104,248.52633019570868,406.6558625108355,251.42044676936177,405.80503523913615C254.31456334301484,404.9542079674368,257.25612445066224,402.56284626691286,260.19768555830956,401.0590585308861C263.139246665957,399.5552707948592,266.0808077736044,398.9390570233294,268.88003527926884,396.5335619794218C271.67926278493326,394.1280669355142,274.3361566886148,389.93329061922884,277.13340733869614,388.989183281197C279.9306579887775,388.0450759431651,282.8682653852587,390.3516375833867,285.7604051033287,391.0215580597746C288.6525448213987,391.6914785361625,291.49921686105745,390.72475784871665,294.39333343471054,390.39969095089134C297.28745000836363,390.074624053066,300.229011116011,390.3912109448611,303.1231276896641,389.94742396261256C306.01724426331714,389.50363698036404,308.8639163029759,388.2994761240719,311.758032876629,387.25360871367724C314.6521494502821,386.20774130328266,317.59371055792946,385.3201673387856,320.53527166557683,385.7893943391248C323.47683277322426,386.258621339464,326.4183938808716,388.08464930463947,329.3125104545247,388.65846304601814C332.20662702817776,389.2322767873968,335.0532990678365,388.5538763049787,337.9493924970727,387.5277955753213C340.8454859263089,386.50171484566386,343.79100074512246,385.1279538687672,346.6870941743586,385.14774054950436C349.5831876035948,385.16752723024155,352.4298596432536,386.5808615686126,355.3239762169067,385.6282742245505C358.21809279055975,384.6756868804884,361.1596538982071,381.3571778539931,364.10121500585456,378.8725360871367C367.04277611350193,376.3878943202804,369.9843372211493,374.737119813063,372.83100926080806,372.35423811856936C375.6776813004668,369.9713564240757,378.42946427213695,366.8563675423058,381.2741594562126,365.62111333056953C384.1188546402883,364.38585911883314,387.05646203676946,365.03033957713035,389.9486017548395,364.8183394263747C392.84074147290943,364.606339275619,395.6874135125682,363.5378585158105,398.5815300862213,362.54569781027396C401.4756466598743,361.55353710473753,404.41720776752175,360.63769645347304,407.3113243411749,358.82297516300457C410.20544091482793,357.0082538725361,413.0521129544867,354.2946519428636,415.9462295281398,352.6438774356461C418.8403461017929,350.9931029284287,421.78190720944025,350.40515584366636,424.7234683170876,351.78457015791656C427.665029424735,353.1639844721667,430.60659053238237,356.5107601854295,433.50070710603546,355.6853729318207C436.39482367968856,354.859985678212,439.2414957193473,349.86243545773186,442.1375891485835,346.6117664794783C445.03368257781966,343.3610975012249,447.97919739663325,341.857309765198,450.8752908258694,342.93709719971355C453.77138425510554,344.01688463422903,456.6180562947643,347.6802472392869,459.5121728684174,347.1375268533524C462.4062894420705,346.5948064674179,465.3478505497179,341.8460030904911,468.28941165736535,338.98258772095124C471.2309727650127,336.1191723514114,474.1725338726601,335.14114498925863,476.9717613783245,332.0883428183771C479.77098888398893,329.03554064749557,482.42788278767046,323.90796366788527,485.2251334377518,320.5385746052086C488.0223840878332,317.1691855425319,490.9599914843144,315.5579843967889,493.8521312023844,315.11985075189386C496.74427092045437,314.6817171069988,499.5909429601131,315.41665096295173,502.4850595337662,316.40598499981155C505.3791761074193,317.39531903667125,508.3207372150667,318.63905325443784,511.2148537887197,316.422945011872C514.1089703623728,314.20683676930616,516.9556424020316,308.53088606640785,519.8497589756846,307.6206987524969C522.7438755493378,306.7105114385859,525.6854366569852,310.56608751366224,528.6269977646326,312.3695021294237C531.5685588722799,314.17291674518526,534.5101199799274,313.9241699016319,537.4042365535804,309.4241133682583C540.2983531272334,304.9240568348848,543.1450251668922,296.1726906116911,546.0411185961284,291.8139675121547C548.9372120253645,287.45524441261824,551.8827268441781,287.48916443673915,554.7788202734143,290.4232465231975C557.6749137026505,293.3573286096559,560.5215857423093,299.19157275845174,563.4157023159623,298.2107187276222C566.3098188896154,297.2298646967927,569.2513799972628,289.43391248633776,572.1929411049102,285.3493762484453C575.1345022125575,281.26484001055286,578.076063320205,280.8917197452229,580.8752908258695,276.37187653111215C583.6745183315339,271.8520333170014,586.3314122352155,263.1854671541099,589.1286628852968,260.61319865827454C591.9259135353782,258.04093016243917,594.8635209318593,261.56295933365993,597.7556606499293,267.6459503260091C600.6478003679993,273.72894131835824,603.494472407658,282.37289413183584,606.388588981311,287.71529793087853C609.2827055549642,293.05770172992123,612.2242666626115,295.09855651452904,615.1183832362645,293.1849018203746C618.0124998099177,291.27124712622015,620.8591718495763,285.4030829533034,623.7532884232295,284.7953491878038C626.6474049968825,284.18761542230425,629.58896610453,288.84031206422185,632.5305272121774,292.0853277051219C635.4720883198248,295.3303433460219,638.4136494274723,297.16767798590433,641.3077660011254,295.7515169788565C644.2018825747784,294.33535597180867,647.0485546144371,289.6656993178306,649.9446480436733,287.3845776956997C652.8407414729095,285.10345607356874,655.786256291723,285.21086948328497,658.6823497209592,286.79097727358385C661.5784431501954,288.3710850638827,664.4251151898541,291.42388723476427,667.3192317635072,289.27279237176344C670.2133483371603,287.1216975087626,673.1549094448077,279.7667056118795,676.0964705524551,274.3734217766555C679.0380316601024,268.9801379414314,681.9795927677499,265.5485621678664,684.7788202734143,259.62669129009157C687.5780477790788,253.70482041231674,690.2349416827602,245.29265443033205,693.0321923328415,241.8384653073531C695.829442982923,238.3842761843742,698.767050379404,239.888063920401,701.6591900974742,241.34379828892324C704.551329815544,242.79953265744547,707.3980018552029,244.20721365846305,710.2921184288559,242.88433271774772C713.186235002509,241.56145177703237,716.1277961101564,237.50800889458412,719.0219126838094,233.61568612671016C721.9160292574626,229.72336335883617,724.7627012971213,225.9921607055365,727.6568178707745,227.58640183921906C730.5509344444275,229.18064297290164,733.4924955520748,236.1003278935665,736.4340566597223,240.50427769193078C739.3756177673697,244.90822749029508,742.317178875017,246.79644216635887,745.2112954486702,242.58187916933628C748.1054120223232,238.3673161723137,750.9520840619821,228.0499755022048,753.8481774912183,223.59514566765915C756.7442709204544,219.14031583311348,759.689785739268,220.54799683413108,762.5858791685041,221.56277088908152C765.4819725977402,222.57754494403196,768.328644637399,223.19941205291522,771.2227612110521,259.5362378924358C774.1168777847051,295.8730637319564,777.0584388923526,367.9248483021143,778.5292194461763,403.9507405871933L780,439.97663287227226"></path></g><g class="serie"><path class="line SQL" d="M8.82468332294217,447.47295820299246L10.295463876765865,446.4779708287792C11.766244430589559,445.48298345456595,14.707805538236949,443.49300870613945,17.601922111890026,442.38778125353326C20.496038685543102,441.2825538009271,23.342710725201865,441.0620736441412,26.238804154438036,441.3108204876945C29.13489758367421,441.5595673312478,32.080412402487795,442.2775411751403,34.97650583172397,442.59978140428893C37.87259926096014,442.92202163343757,40.71927130061891,442.8485282478423,43.613387874271986,442.3538612294124C46.50750444792506,441.85919421098254,49.449065555572446,440.94335355971805,52.39062666321984,440.2564730712697C55.33218777086723,439.5695925828213,58.273748878514624,439.1116722571891,61.07297638417907,438.89967210643346C63.87220388984352,438.68767195567784,66.52909779352504,438.72159197979875,69.32634844360639,438.51241849771975C72.12359909368774,438.30324501564087,75.06120649016894,437.8509780273621,77.95334620823891,437.33087099084156C80.8454859263089,436.81076395432103,83.69215796596767,436.22281686955864,86.58627453962075,435.6998831643613C89.48039111327382,435.176949459164,92.42195222092121,434.71902913353176,95.31606879457429,434.04345531979044C98.21018536822737,433.367881506049,101.05685740788613,432.4746542041985,103.9509739815392,432.1835073304941C106.84509055519229,431.8923604567897,109.78665166283966,432.20329401123126,112.72821277048706,431.4259601251272C115.66977387813445,430.6486262390231,118.61133498578184,428.7830249123732,121.50545155943492,427.513850676516C124.399568133088,426.24467644065874,127.24624017274677,425.57192929559415,130.14233360198295,425.9733162476915C133.0384270312191,426.37470319978894,135.9839418500327,427.8502242490483,138.88003527926887,428.6784381713338C141.77612870850504,429.50665209361927,144.6228007481638,429.68755888893077,147.5169173218169,429.5688388045076C150.41103389546996,429.45011872008445,153.35259500311733,429.03177175592657,156.29415611076473,428.7293182075151C159.2357172184121,428.4268646591037,162.1772783260595,428.24030452643876,164.97650583172395,427.6523574416764C167.77573333738843,427.064410356914,170.43262724106992,426.0750763200542,173.2298778911513,425.98179625372177C176.02712854123263,425.88851618738926,178.96473593771384,426.69129009158405,181.8568756557838,426.7393434590887C184.7490153738538,426.7873968265933,187.59568741351256,426.08072965740774,190.4898039871656,425.20728903629447C193.3839205608187,424.3338484151811,196.32548166846607,423.29363434213997,199.21959824211916,422.18558022085705C202.11371481577225,421.07752609957413,204.960386855431,419.90163193004935,207.8545034290841,419.0790713451173C210.74862000273717,418.2565107601854,213.69018111038457,417.7872837598462,216.63174221803195,418.0501639467832C219.57330332567932,418.3130441337202,222.51486443332672,419.30803150793344,225.4089810069798,419.48611163456815C228.30309758063288,419.66419176120297,231.14976962029164,419.0253646402593,234.0458630495278,418.36392416990157C236.94195647876398,417.70248369954396,239.88747129757758,417.0184298797723,242.78356472681372,416.91384313873283C245.67965815604992,416.8092563976934,248.52633019570868,417.2841367353861,251.42044676936177,416.21848264425427C254.31456334301484,415.1528285531225,257.25612445066224,412.5466400331662,260.19768555830956,411.8767195567783C263.139246665957,411.2067990803904,266.0808077736044,412.4731466475709,268.88003527926884,411.5883993517506C271.67926278493326,410.7036520559303,274.3361566886148,407.66780989710924,277.13340733869614,407.18162288470955C279.9306579887775,406.69543587230993,282.8682653852587,408.7589040063317,285.7604051033287,408.6232239098481C288.6525448213987,408.4875438133645,291.49921686105745,406.1527154863754,294.39333343471054,405.1435947687785C297.28745000836363,404.13447405118154,300.229011116011,404.45106094297665,303.1231276896641,404.53020766592545C306.01724426331714,404.60935438887424,308.8639163029759,404.4510609429767,311.758032876629,404.38604756341164C314.6521494502821,404.32103418384656,317.59371055792946,404.34930087061394,320.53527166557683,404.6037010515207C323.47683277322426,404.85810123242754,326.4183938808716,405.33863490747365,329.3125104545247,405.5732484076433C332.20662702817776,405.8078619078129,335.0532990678365,405.7965552331059,337.9493924970727,405.08140805789014C340.8454859263089,404.3662608826744,343.79100074512246,402.94727320694983,346.6870941743586,402.9444465382731C349.5831876035948,402.94161986959637,352.4298596432536,404.3549542079674,355.3239762169067,404.4821542984208C358.21809279055975,404.6093543888742,361.1596538982071,403.4504202314099,364.10121500585456,401.85900576640404C367.04277611350193,400.26759130139817,369.9843372211493,398.2436965288508,372.83100926080806,395.9088682018618C375.6776813004668,393.57403987487277,378.42946427213695,390.92827799344207,381.2741594562126,390.3601175894169C384.1188546402883,389.79195718539177,387.05646203676946,391.30139825877205,389.9486017548395,391.60950514453697C392.84074147290943,391.9176120303018,395.6874135125682,391.0243847284513,398.5815300862213,391.11201145743036C401.4756466598743,391.19963818640935,404.41720776752175,392.2681189462179,407.3113243411749,391.6349451626276C410.20544091482793,391.00177137903734,413.0521129544867,388.66694305204834,415.9462295281398,387.58715561753286C418.8403461017929,386.5073681830173,421.78190720944025,386.6826216409754,424.7234683170876,387.01051520747745C427.665029424735,387.3384087739796,430.60659053238237,387.8189424490257,433.50070710603546,386.6487016168545C436.39482367968856,385.4784607846832,439.2414957193473,382.65744544529457,442.1375891485835,380.579843967889C445.03368257781966,378.5022424904835,447.97919739663325,377.1680548750612,450.8752908258694,377.8125353333584C453.77138425510554,378.45701579165564,456.6180562947643,381.08016432367236,459.5121728684174,380.16149700373114C462.4062894420705,379.24282968379,465.3478505497179,374.78234651189086,468.28941165736535,372.7754117514039C471.2309727650127,370.76847699091695,474.1725338726601,371.2150906418422,476.9717613783245,369.52474277315036C479.77098888398893,367.8343949044586,482.42788278767046,364.0070855161497,485.2251334377518,362.64463121396C488.0223840878332,361.28217691177025,490.9599914843144,362.3845776956997,493.8521312023844,363.1647382504805C496.74427092045437,363.94489880526135,499.5909429601131,364.4028191308936,502.4850595337662,365.32431311951154C505.3791761074193,366.2458071081295,508.3207372150667,367.63087475973316,511.2148537887197,366.4210605660875C514.1089703623728,365.21124637244185,516.9556424020316,361.4065503335469,519.8497589756846,359.6285757358761C522.7438755493378,357.85060113820526,525.6854366569852,358.09934798175857,528.6269977646326,356.7001469867712C531.5685588722799,355.3009459917838,534.5101199799274,352.2537971582558,537.4042365535804,348.03640749255646C540.2983531272334,343.81901782685713,543.1450251668922,338.43138732898655,546.0411185961284,336.5375193155693C548.9372120253645,334.643651302152,551.8827268441781,336.2435457731881,554.7788202734143,337.90562695511244C557.6749137026505,339.5677081370369,560.5215857423093,341.2919760298496,563.4157023159623,339.872988354125C566.3098188896154,338.45400067840046,569.2513799972628,333.89175743413864,572.1929411049102,331.8848226736517C575.1345022125575,329.8778879131647,578.076063320205,330.4262616364527,580.8752908258695,328.4080202012588C583.6745183315339,326.38977876606486,586.3314122352155,321.80492217238907,589.1286628852968,319.3089737308257C591.9259135353782,316.8130252892624,594.8635209318593,316.4059849998115,597.7556606499293,319.1450269475747C600.6478003679993,321.8840688953378,603.494472407658,327.76919308031506,606.388588981311,331.87916933629816C609.2827055549642,335.98914559228126,612.2242666626115,338.3239739192703,615.1183832362645,338.09218708777746C618.0124998099177,337.8604002562846,620.8591718495763,335.06199826630984,623.7532884232295,335.50861191723516C626.6474049968825,335.95522556816036,629.58896610453,339.64685485998564,632.5305272121774,341.156295933366C635.4720883198248,342.6657370067463,638.4136494274723,341.9929898616816,641.3077660011254,344.20344476689405C644.2018825747784,346.41389967210637,647.0485546144371,351.5075566275958,649.9446480436733,357.40398748727995C652.8407414729095,363.30041834696414,655.786256291723,369.9996231108431,658.6823497209592,373.552745637508C661.5784431501954,377.10586816417293,664.4251151898541,377.51290845362377,667.3192317635072,376.51792107941054C670.2133483371603,375.52293370519726,673.1549094448077,373.1259186673199,676.0964705524551,372.05461123883464C679.0380316601024,370.98330381034935,681.9795927677499,371.2377039912561,684.7788202734143,369.5925828213922C687.5780477790788,367.9474616515282,690.2349416827602,364.4028191308936,693.0321923328415,363.14212490106655C695.829442982923,361.88143067123957,698.767050379404,362.9046847322203,701.6591900974742,363.9562054799684C704.551329815544,365.00772622771643,707.3980018552029,366.0875136622319,710.2921184288559,366.48042060829914C713.186235002509,366.87332755436626,716.1277961101564,366.57935401198506,719.0219126838094,365.8557268307391C721.9160292574626,365.13209964949306,724.7627012971213,363.97881882938225,727.6568178707745,364.7080993479818C730.5509344444275,365.43737986658124,733.4924955520748,368.04922172389104,736.4340566597223,369.73391625522936C739.3756177673697,371.4186107865677,742.317178875017,372.1761579919346,745.2112954486702,372.15919797987414C748.1054120223232,372.1422379678137,750.9520840619821,371.3507707383259,753.8481774912183,371.1839972863981C756.7442709204544,371.0172238344703,759.689785739268,371.4751441601025,762.5858791685041,371.5401575396676C765.4819725977402,371.6051709192326,768.328644637399,371.2772773527305,771.2227612110521,383.8163796027588C774.1168777847051,396.3554818527871,777.0584388923526,421.76157991934565,778.5292194461763,434.464628952625L780,447.16767798590433"></path></g><g class="serie"><path class="line Javascript" d="M8.82468332294217,447.20159801002524L10.295463876765865,445.8561037198959C11.766244430589559,444.51060942976665,14.707805538236949,441.8196208495081,17.601922111890026,440.24233972788596C20.496038685543102,438.66505860626387,23.342710725201865,438.20148494327816,26.238804154438036,438.39369841329665C29.13489758367421,438.5859118833151,32.080412402487795,439.4339124863377,34.97650583172397,439.69679267327473C37.87259926096014,439.95967286021175,40.71927130061891,439.6374326310632,43.613387874271986,439.0240455282101C46.50750444792506,438.4106584253571,49.449065555572446,437.5061244487996,52.39062666321984,436.5959371348886C55.33218777086723,435.6857498209776,58.273748878514624,434.7699091697131,61.07297638417907,434.1480420608298C63.87220388984352,433.5261749519466,66.52909779352504,433.1982813854445,69.32634844360639,432.9099611804168C72.12359909368774,432.62164097538914,75.06120649016894,432.3728941318358,77.95334620823891,431.1687332755437C80.8454859263089,429.96457241925145,83.69215796596767,427.8049975502205,86.58627453962075,426.37187653111215C89.48039111327382,424.9387555120039,92.42195222092121,424.2320883428183,95.31606879457429,423.3416877096446C98.21018536822737,422.45128707647075,101.05685740788613,421.3771529793087,103.9509739815392,420.51784570157906C106.84509055519229,419.65853842384945,109.78665166283966,419.0140579655523,112.72821277048706,419.0140579655523C115.66977387813445,419.0140579655523,118.61133498578184,419.65853842384945,121.50545155943492,419.1695247427731C124.399568133088,418.6805110616967,127.24624017274677,417.0580032412467,130.14233360198295,415.6983756077337C133.0384270312191,414.3387479742207,135.9839418500327,413.2420005276448,138.88003527926887,412.4872799909547C141.77612870850504,411.73255945426445,144.6228007481638,411.31986582746015,147.5169173218169,410.21746504353064C150.41103389546996,409.11506425960124,153.35259500311733,407.32295631854674,156.29415611076473,406.35058229374744C159.2357172184121,405.37820826894813,162.1772783260595,405.225568160404,164.97650583172395,404.1881807560396C167.77573333738843,403.15079335167525,170.43262724106992,401.2286586514906,173.2298778911513,400.14039121094487C176.02712854123263,399.05212377039913,178.96473593771384,398.7977235894923,181.8568756557838,398.099536426337C184.7490153738538,397.40134926318166,187.59568741351256,396.25937511777784,190.4898039871656,394.942147514416C193.3839205608187,393.6249199110541,196.32548166846607,392.1324388497343,199.21959824211916,390.25270417970074C202.11371481577225,388.3729695096672,204.960386855431,386.10598123091995,207.8545034290841,384.5400067840048C210.74862000273717,382.9740323370896,213.69018111038457,382.10907172200655,216.63174221803195,381.6511513963743C219.57330332567932,381.1932310707421,222.51486443332672,381.14235103456076,225.4089810069798,380.8059774620284C228.30309758063288,380.4696038894961,231.14976962029164,379.8477367806128,234.0458630495278,378.2958956770813C236.94195647876398,376.7440545735499,239.88747129757758,374.2622394753703,242.78356472681372,371.84826442543243C245.67965815604992,369.43428937549464,248.52633019570868,367.08815437379866,251.42044676936177,364.53849922737726C254.31456334301484,361.9888440809558,257.25612445066224,359.2356687898089,260.19768555830956,357.41246749331026C263.139246665957,355.58926619681154,266.0808077736044,354.69603889496096,268.88003527926884,350.90547619944977C271.67926278493326,347.11491350393845,274.3361566886148,340.4270154147665,277.13340733869614,336.57709267704365C279.9306579887775,332.7271699393208,282.8682653852587,331.7152225530471,285.7604051033287,330.1690347868692C288.6525448213987,328.6228470206912,291.49921686105745,326.5424188746089,294.39333343471054,324.43089737308253C297.28745000836363,322.31937587155613,300.229011116011,320.1767610145856,303.1231276896641,317.957826103343C306.01724426331714,315.7388911921004,308.8639163029759,313.4436362265858,311.758032876629,309.95552707948593C314.6521494502821,306.46741793238607,317.59371055792946,301.78645460370103,320.53527166557683,301.4500810311687C323.47683277322426,301.1137074586364,326.4183938808716,305.1219236422568,329.3125104545247,307.6206987524969C332.20662702817776,310.119473862737,335.0532990678365,311.10880789959674,337.9493924970727,309.74070026005353C340.8454859263089,308.3725926205103,343.79100074512246,304.64704330456414,346.6870941743586,303.8527494063996C349.5831876035948,303.05845550823506,352.4298596432536,305.1954170278521,355.3239762169067,302.58922850789577C358.21809279055975,299.9830399879395,361.1596538982071,292.6337014284099,364.10121500585456,287.7774846417669C367.04277611350193,282.9212678551238,369.9843372211493,280.55817284136737,372.83100926080806,277.2424904835488C375.6776813004668,273.9268081257302,378.42946427213695,269.65853842384956,381.2741594562126,267.592243621151C384.1188546402883,265.52594881845243,387.05646203676946,265.66162891493605,389.9486017548395,263.31549391324006C392.84074147290943,260.9693589115441,395.6874135125682,256.1414088116685,398.5815300862213,254.56978102739984C401.4756466598743,252.99815324313118,404.41720776752175,254.68284777446954,407.3113243411749,252.33953944145026C410.20544091482793,249.996231108431,413.0521129544867,243.62491991105412,415.9462295281398,240.18203746278215C418.8403461017929,236.7391550145102,421.78190720944025,236.22470131534314,424.7234683170876,239.70715712508948C427.665029424735,243.18961293483585,430.60659053238237,250.66897825349565,433.50070710603546,250.82161836203971C436.39482367968856,250.97425847058383,439.2414957193473,243.8001733690122,442.1375891485835,240.34033090867976C445.03368257781966,236.88048844834736,447.97919739663325,237.13488862925414,450.8752908258694,239.00048995590393C453.77138425510554,240.86609128255378,456.6180562947643,244.34289375494666,459.5121728684174,240.06897071571248C462.4062894420705,235.7950476764783,465.3478505497179,223.77039912561713,468.28941165736535,217.91354162740734C471.2309727650127,212.05668412919758,474.1725338726601,212.36761768363925,476.9717613783245,207.92409452380056C479.77098888398893,203.48057136396187,482.42788278767046,194.28259148984284,485.2251334377518,189.61858817321826C488.0223840878332,184.95458485659367,490.9599914843144,184.82455809746352,493.8521312023844,186.00045226698825C496.74427092045437,187.17634643651303,499.5909429601131,189.65816153469262,502.4850595337662,192.1230166208118C505.3791761074193,194.58787170693097,508.3207372150667,197.0357667809897,511.2148537887197,191.86578977122826C514.1089703623728,186.69581276146684,516.9556424020316,173.90796366788527,519.8497589756846,167.4999057777108C522.7438755493378,161.0918478875363,525.6854366569852,161.06358120076885,528.6269977646326,158.55632608449855C531.5685588722799,156.04907096822825,534.5101199799274,151.06282742245506,537.4042365535804,142.7722081935703C540.2983531272334,134.4815889646855,543.1450251668922,122.88659405268912,546.0411185961284,120.5800324124675C548.9372120253645,118.27347077224589,551.8827268441781,125.25534240379903,554.7788202734143,130.13417253985602C557.6749137026505,135.01300267591301,560.5215857423093,137.78879131647383,563.4157023159623,130.3461726906117C566.3098188896154,122.90355406474957,569.2513799972628,105.24252817246449,572.1929411049102,96.24524177439416C575.1345022125575,87.24795537632383,578.076063320205,86.91440847246824,580.8752908258695,82.33803188482267C583.6745183315339,77.76165529717709,586.3314122352155,68.94244902574152,589.1286628852968,68.02378170580032C591.9259135353782,67.10511438585911,594.8635209318593,74.08698601741226,597.7556606499293,82.22213846907623C600.6478003679993,90.3572909207402,603.494472407658,99.64572419251499,606.388588981311,108.53277051219237C609.2827055549642,117.41981683186975,612.2242666626115,125.90547619944974,615.1183832362645,125.08008894584103C618.0124998099177,124.25470169223232,620.8591718495763,114.1182678174349,623.7532884232295,113.66600082915615C626.6474049968825,113.21373384087741,629.58896610453,122.44563373911731,632.5305272121774,128.16681114084346C635.4720883198248,133.88798854256962,638.4136494274723,136.098443447782,641.3077660011254,134.82644254324802C644.2018825747784,133.55444163871405,647.0485546144371,128.79998492443372,649.9446480436733,129.03177175592657C652.8407414729095,129.26355858741945,655.786256291723,134.4815889646855,658.6823497209592,139.9314061734444C661.5784431501954,145.3812233822033,664.4251151898541,151.06282742245503,667.3192317635072,144.64346285757355C670.2133483371603,138.22409829269208,673.1549094448077,119.70376512267741,676.0964705524551,109.90653148908906C679.0380316601024,100.1092978555007,681.9795927677499,99.03516375833867,684.7788202734143,92.17201221120868C687.5780477790788,85.30886066407868,690.2349416827602,72.65669166698073,693.0321923328415,66.50020728903628C695.829442982923,60.34372291109184,698.767050379404,60.682923152300894,701.6591900974742,57.01108054121281C704.551329815544,53.33923793012474,707.3980018552029,45.65635246673952,710.2921184288559,39.841894998680885C713.186235002509,34.027437530622244,716.1277961101564,30.081408057890183,719.0219126838094,23.752496890664467C721.9160292574626,17.423585723438748,724.7627012971213,8.711792861719374,727.6568178707745,9.915953718011536C730.5509344444275,11.1201145743037,733.4924955520748,22.2402291486074,736.4340566597223,29.849621226397325C739.3756177673697,37.459013304187245,742.317178875017,41.557682885463386,745.2112954486702,42.06082990992349C748.1054120223232,42.5639769343836,750.9520840619821,39.471601402027666,753.8481774912183,39.35570798628124C756.7442709204544,39.23981457053481,759.689785739268,42.10040327139789,762.5858791685041,41.520936192665744C765.4819725977402,40.94146911393359,768.328644637399,36.92194625560622,771.2227612110521,101.57633889872989C774.1168777847051,166.23073154185354,777.0584388923526,299.5590396864282,778.5292194461763,366.2231937587156L780,432.8873478310029"></path></g></g></svg>