<?xml version="1.0" standalone="no"?><!DOCTYPE svg PUBLIC "-//W3C//DTD SVG 1.1//EN" "http://www.w3.org/Graphics/SVG/1.1/DTD/svg11.dtd"><svg width="600" height="300" class="chart" filename="tiobe.svg" version="1.1" xmlns="http://www.w3.org/2000/svg" xlink="http://www.w3.org/1999/xlink"><defs><style type="text/css"><![CDATA[
html, body  { width: 1000px; height: 100%; margin-top: auto; margin-right: auto; margin-bottom: auto; margin-left: auto; }
text { font-family: Helvetica; color: blue; }
.axis path, .axis line { fill: none; stroke: #000000; shape-rendering: crispedges; }
.grid .tick { stroke: #d3d3d3; opacity: 0.7; }
.grid path { stroke-width: 0px; }
.line { stroke-width: 1.5pt; fill: rgba(0, 0, 0, 0.0); }
.label.Javascript, .slice.Javascript { fill: #e31a1c; }
.line.Javascript { stroke: #e31a1c; }
.label.Ruby, .slice.Ruby { fill: #fc4e2a; }
.line.Ruby { stroke: #fc4e2a; }
.label.Python, .slice.Python { fill: #fd8d3c; }
.line.Python { stroke: #fd8d3c; }
.label.Csharp, .slice.Csharp { fill: #bd0026; }
.line.Csharp { stroke: #bd0026; }
.label.PHP, .slice.PHP { fill: #78c679; }
.line.PHP { stroke: #78c679; }
.label.XML_Schema, .slice.XML_Schema { fill: #41ab5d; }
.line.XML_Schema { stroke: #41ab5d; }
.label.SQL, .slice.SQL { fill: #238443; }
.line.SQL { stroke: #238443; }
.label.Perl, .slice.Perl { fill: #006837; }
.line.Perl { stroke: #006837; }
.label.C, .slice.C { fill: #41b6c4; }
.line.C { stroke: #41b6c4; }
.label.Cplusplus, .slice.Cplusplus { fill: #1d91c0; }
.line.Cplusplus { stroke: #1d91c0; }
.label.Java, .slice.Java { fill: #225ea8; }
.line.Java { stroke: #225ea8; }
.label.VisualBasicNET, .slice.VisualBasicNET { fill: #253494; }
.line.VisualBasicNET { stroke: #253494; }
.label.Autoconf, .slice.Autoconf { fill: #f768a1; }
.line.Autoconf { stroke: #f768a1; }
.label.Assembler, .slice.Assembler { fill: #dd3497; }
.line.Assembler { stroke: #dd3497; }
.label.Shell, .slice.Shell { fill: #ae017e; }
.line.Shell { stroke: #ae017e; }
.label.Make, .slice.Make { fill: #7a0177; }
.line.Make { stroke: #7a0177; }
.label.Swift, .slice.Swift { fill: #addd8e; }
.line.Swift { stroke: #addd8e; }
.label.ObjectiveC, .slice.ObjectiveC, .label.iOS, .slice.iOS { fill: #78c679; }
.line.ObjectiveC, .line.iOS { stroke: #78c679; }
.label.CSS, .slice.CSS { fill: #41ab5d; }
.line.CSS { stroke: #41ab5d; }
.slice.Arduino__Raspberry_Pi { fill: #7fcdbb; }
.line.Arduino__Raspberry_Pi { stroke: #7fcdbb; }
.slice.Android { fill: #41b6c4; }
.line.Android { stroke: #41b6c4; }
.label.AngularJS, .slice.AngularJS { fill: #feb24c; }
.line.AngularJS { stroke: #feb24c; }
.label.Nodejs, .slice.Nodejs { fill: #fd8d3c; }
.line.Nodejs { stroke: #fd8d3c; }
.label.Bower { fill: #bd0026; }
.line.Bower { stroke: #bd0026; }
.label.npm { fill: #e31a1c; }
.line.npm { stroke: #e31a1c; }
.label.PyPI { fill: #fd8d3c; }
.line.PyPI { stroke: #fd8d3c; }
.label.Rubygems { fill: #fc4e2a; }
.line.Rubygems { stroke: #fc4e2a; }
.label.Clojars { fill: #000000; }
.line.Clojars { stroke: #000000; }
.label.Hackage { fill: #000000; }
.line.Hackage { stroke: #000000; }
.label.Hex { fill: #000000; }
.line.Hex { stroke: #000000; }
.label.LuaRocks { fill: #000000; }
.line.LuaRocks { stroke: #000000; }
.label.CPAN { fill: #41ab5d; }
.line.CPAN { stroke: #41ab5d; }
.label.CPAN_search { fill: #000000; }
.line.CPAN_search { stroke: #000000; }
.label.CRAN { fill: #000000; }
.line.CRAN { stroke: #000000; }
.label.Perl6Eco { fill: #006837; }
.line.Perl6Eco { stroke: #006837; }
.label.Drupal { fill: #000000; }
.line.Drupal { stroke: #000000; }
.label.Packagist { fill: #dd3497; }
.line.Packagist { stroke: #dd3497; }
.label.Pear { fill: #8996b8; }
.line.Pear { stroke: #8996b8; }
.label.MELPA { fill: #000000; }
.line.MELPA { stroke: #000000; }
.label.Crates { fill: #000000; }
.line.Crates { stroke: #000000; }
.label.GoDoc { fill: #41b6c4; }
.line.GoDoc { stroke: #41b6c4; }
.label.Maven { fill: #225ea8; }
.line.Maven { stroke: #225ea8; }
.label.nugets { fill: #253494; }
.line.nugets { stroke: #253494; }
.slice.nocont { fill: #feb24c; }
.line.nocont { stroke: #feb24c; }
.slice.eval { fill: #fd8d3c; }
.line.eval { stroke: #fd8d3c; }
.slice.lib { fill: #fc4e2a; }
.line.lib { stroke: #fc4e2a; }
.slice.err { fill: #e31a1c; }
.line.err { stroke: #e31a1c; }
.slice.fail { fill: #bd0026; }
.line.fail { stroke: #bd0026; }
.slice.notest { fill: #800026; }
.line.notest { stroke: #800026; }
.slice.ok { fill: #7fcdbb; }
.line.ok { stroke: #7fcdbb; }
svg { overflow-x: visible; overflow-y: visible; border-top-width: 2px; border-right-width: 2px; border-bottom-width: 2px; border-left-width: 2px; border-top-style: dotted; border-right-style: dotted; border-bottom-style: dotted; border-left-style: dotted; border-top-color: black; border-right-color: black; border-bottom-color: black; border-left-color: black; }]]></style></defs><g transform="translate(20,20)"><g class="x axis" transform="translate(0,260)"><g class="tick" style="opacity: 1; " transform="translate(0.10575931885962496,0)"><line y2="3" x2="0" stroke-width="0.4pt"></line></g><g class="tick" style="opacity: 1; " transform="translate(3.3842982035079987,0)"><line y2="3" x2="0" stroke-width="0.4pt"></line></g><g class="tick" style="opacity: 1; " transform="translate(6.6628370881563725,0)"><line y2="3" x2="0" stroke-width="0.4pt"></line></g><g class="tick" style="opacity: 1; " transform="translate(9.835616653945122,0)"><line y2="3" x2="0" stroke-width="0.4pt"></line></g><g class="tick" style="opacity: 1; " transform="translate(13.118562176879312,0)"><line y2="3" x2="0" stroke-width="0.4pt"></line></g><g class="tick" style="opacity: 1; " transform="translate(16.291341742668063,0)"><line y2="3" x2="0" stroke-width="0.4pt"></line></g><g class="tick" style="opacity: 1; " transform="translate(19.569880627316437,0)"><line y2="6" x2="0" stroke-width="1pt"></line><text dy="3pt" style="text-anchor: middle; font-family: cmr10; " y="14" x="0">2002</text></g><g class="tick" style="opacity: 1; " transform="translate(22.84841951196481,0)"><line y2="3" x2="0" stroke-width="0.4pt"></line></g><g class="tick" style="opacity: 1; " transform="translate(25.80968044003431,0)"><line y2="3" x2="0" stroke-width="0.4pt"></line></g><g class="tick" style="opacity: 1; " transform="translate(29.083812686396865,0)"><line y2="3" x2="0" stroke-width="0.4pt"></line></g><g class="tick" style="opacity: 1; " transform="translate(32.25659225218561,0)"><line y2="3" x2="0" stroke-width="0.4pt"></line></g><g class="tick" style="opacity: 1; " transform="translate(35.53513113683399,0)"><line y2="3" x2="0" stroke-width="0.4pt"></line></g><g class="tick" style="opacity: 1; " transform="translate(38.70791070262273,0)"><line y2="3" x2="0" stroke-width="0.4pt"></line></g><g class="tick" style="opacity: 1; " transform="translate(41.98644958727111,0)"><line y2="3" x2="0" stroke-width="0.4pt"></line></g><g class="tick" style="opacity: 1; " transform="translate(45.26498847191948,0)"><line y2="3" x2="0" stroke-width="0.4pt"></line></g><g class="tick" style="opacity: 1; " transform="translate(48.43776803770823,0)"><line y2="3" x2="0" stroke-width="0.4pt"></line></g><g class="tick" style="opacity: 1; " transform="translate(51.72071356064243,0)"><line y2="3" x2="0" stroke-width="0.4pt"></line></g><g class="tick" style="opacity: 1; " transform="translate(54.893493126431174,0)"><line y2="3" x2="0" stroke-width="0.4pt"></line></g><g class="tick" style="opacity: 1; " transform="translate(58.17203201107955,0)"><line y2="6" x2="0" stroke-width="1pt"></line></g><g class="tick" style="opacity: 1; " transform="translate(61.45057089572792,0)"><line y2="3" x2="0" stroke-width="0.4pt"></line></g><g class="tick" style="opacity: 1; " transform="translate(64.41183182379743,0)"><line y2="3" x2="0" stroke-width="0.4pt"></line></g><g class="tick" style="opacity: 1; " transform="translate(67.68596407015998,0)"><line y2="3" x2="0" stroke-width="0.4pt"></line></g><g class="tick" style="opacity: 1; " transform="translate(70.85874363594873,0)"><line y2="3" x2="0" stroke-width="0.4pt"></line></g><g class="tick" style="opacity: 1; " transform="translate(74.1372825205971,0)"><line y2="3" x2="0" stroke-width="0.4pt"></line></g><g class="tick" style="opacity: 1; " transform="translate(77.31006208638586,0)"><line y2="3" x2="0" stroke-width="0.4pt"></line></g><g class="tick" style="opacity: 1; " transform="translate(80.58860097103423,0)"><line y2="3" x2="0" stroke-width="0.4pt"></line></g><g class="tick" style="opacity: 1; " transform="translate(83.8671398556826,0)"><line y2="3" x2="0" stroke-width="0.4pt"></line></g><g class="tick" style="opacity: 1; " transform="translate(87.03991942147134,0)"><line y2="3" x2="0" stroke-width="0.4pt"></line></g><g class="tick" style="opacity: 1; " transform="translate(90.32286494440554,0)"><line y2="3" x2="0" stroke-width="0.4pt"></line></g><g class="tick" style="opacity: 1; " transform="translate(93.4956445101943,0)"><line y2="3" x2="0" stroke-width="0.4pt"></line></g><g class="tick" style="opacity: 1; " transform="translate(96.77418339484265,0)"><line y2="6" x2="0" stroke-width="1pt"></line><text dy="3pt" style="text-anchor: middle; font-family: cmr10; " y="14" x="0">2004</text></g><g class="tick" style="opacity: 1; " transform="translate(100.05272227949104,0)"><line y2="3" x2="0" stroke-width="0.4pt"></line></g><g class="tick" style="opacity: 1; " transform="translate(103.11974252642017,0)"><line y2="3" x2="0" stroke-width="0.4pt"></line></g><g class="tick" style="opacity: 1; " transform="translate(106.39387477278271,0)"><line y2="3" x2="0" stroke-width="0.4pt"></line></g><g class="tick" style="opacity: 1; " transform="translate(109.56665433857147,0)"><line y2="3" x2="0" stroke-width="0.4pt"></line></g><g class="tick" style="opacity: 1; " transform="translate(112.84519322321984,0)"><line y2="3" x2="0" stroke-width="0.4pt"></line></g><g class="tick" style="opacity: 1; " transform="translate(116.01797278900858,0)"><line y2="3" x2="0" stroke-width="0.4pt"></line></g><g class="tick" style="opacity: 1; " transform="translate(119.29651167365695,0)"><line y2="3" x2="0" stroke-width="0.4pt"></line></g><g class="tick" style="opacity: 1; " transform="translate(122.57505055830532,0)"><line y2="3" x2="0" stroke-width="0.4pt"></line></g><g class="tick" style="opacity: 1; " transform="translate(125.74783012409408,0)"><line y2="3" x2="0" stroke-width="0.4pt"></line></g><g class="tick" style="opacity: 1; " transform="translate(129.03077564702826,0)"><line y2="3" x2="0" stroke-width="0.4pt"></line></g><g class="tick" style="opacity: 1; " transform="translate(132.20355521281704,0)"><line y2="3" x2="0" stroke-width="0.4pt"></line></g><g class="tick" style="opacity: 1; " transform="translate(135.4820940974654,0)"><line y2="6" x2="0" stroke-width="1pt"></line></g><g class="tick" style="opacity: 1; " transform="translate(138.76063298211378,0)"><line y2="3" x2="0" stroke-width="0.4pt"></line></g><g class="tick" style="opacity: 1; " transform="translate(141.72189391018327,0)"><line y2="3" x2="0" stroke-width="0.4pt"></line></g><g class="tick" style="opacity: 1; " transform="translate(144.99602615654584,0)"><line y2="3" x2="0" stroke-width="0.4pt"></line></g><g class="tick" style="opacity: 1; " transform="translate(148.16880572233455,0)"><line y2="3" x2="0" stroke-width="0.4pt"></line></g><g class="tick" style="opacity: 1; " transform="translate(151.44734460698294,0)"><line y2="3" x2="0" stroke-width="0.4pt"></line></g><g class="tick" style="opacity: 1; " transform="translate(154.6201241727717,0)"><line y2="3" x2="0" stroke-width="0.4pt"></line></g><g class="tick" style="opacity: 1; " transform="translate(157.89866305742007,0)"><line y2="3" x2="0" stroke-width="0.4pt"></line></g><g class="tick" style="opacity: 1; " transform="translate(161.17720194206845,0)"><line y2="3" x2="0" stroke-width="0.4pt"></line></g><g class="tick" style="opacity: 1; " transform="translate(164.34998150785717,0)"><line y2="3" x2="0" stroke-width="0.4pt"></line></g><g class="tick" style="opacity: 1; " transform="translate(167.6329270307914,0)"><line y2="3" x2="0" stroke-width="0.4pt"></line></g><g class="tick" style="opacity: 1; " transform="translate(170.80570659658014,0)"><line y2="3" x2="0" stroke-width="0.4pt"></line></g><g class="tick" style="opacity: 1; " transform="translate(174.0842454812285,0)"><line y2="6" x2="0" stroke-width="1pt"></line><text dy="3pt" style="text-anchor: middle; font-family: cmr10; " y="14" x="0">2006</text></g><g class="tick" style="opacity: 1; " transform="translate(177.3627843658769,0)"><line y2="3" x2="0" stroke-width="0.4pt"></line></g><g class="tick" style="opacity: 1; " transform="translate(180.32404529394637,0)"><line y2="3" x2="0" stroke-width="0.4pt"></line></g><g class="tick" style="opacity: 1; " transform="translate(183.59817754030894,0)"><line y2="3" x2="0" stroke-width="0.4pt"></line></g><g class="tick" style="opacity: 1; " transform="translate(186.77095710609768,0)"><line y2="3" x2="0" stroke-width="0.4pt"></line></g><g class="tick" style="opacity: 1; " transform="translate(190.04949599074607,0)"><line y2="3" x2="0" stroke-width="0.4pt"></line></g><g class="tick" style="opacity: 1; " transform="translate(193.2222755565348,0)"><line y2="3" x2="0" stroke-width="0.4pt"></line></g><g class="tick" style="opacity: 1; " transform="translate(196.50081444118317,0)"><line y2="3" x2="0" stroke-width="0.4pt"></line></g><g class="tick" style="opacity: 1; " transform="translate(199.77935332583155,0)"><line y2="3" x2="0" stroke-width="0.4pt"></line></g><g class="tick" style="opacity: 1; " transform="translate(202.95213289162032,0)"><line y2="3" x2="0" stroke-width="0.4pt"></line></g><g class="tick" style="opacity: 1; " transform="translate(206.2350784145545,0)"><line y2="3" x2="0" stroke-width="0.4pt"></line></g><g class="tick" style="opacity: 1; " transform="translate(209.40785798034327,0)"><line y2="3" x2="0" stroke-width="0.4pt"></line></g><g class="tick" style="opacity: 1; " transform="translate(212.68639686499162,0)"><line y2="6" x2="0" stroke-width="1pt"></line></g><g class="tick" style="opacity: 1; " transform="translate(215.96493574964,0)"><line y2="3" x2="0" stroke-width="0.4pt"></line></g><g class="tick" style="opacity: 1; " transform="translate(218.9261966777095,0)"><line y2="3" x2="0" stroke-width="0.4pt"></line></g><g class="tick" style="opacity: 1; " transform="translate(222.20032892407207,0)"><line y2="3" x2="0" stroke-width="0.4pt"></line></g><g class="tick" style="opacity: 1; " transform="translate(225.3731084898608,0)"><line y2="3" x2="0" stroke-width="0.4pt"></line></g><g class="tick" style="opacity: 1; " transform="translate(228.65164737450917,0)"><line y2="3" x2="0" stroke-width="0.4pt"></line></g><g class="tick" style="opacity: 1; " transform="translate(231.8244269402979,0)"><line y2="3" x2="0" stroke-width="0.4pt"></line></g><g class="tick" style="opacity: 1; " transform="translate(235.1029658249463,0)"><line y2="3" x2="0" stroke-width="0.4pt"></line></g><g class="tick" style="opacity: 1; " transform="translate(238.38150470959468,0)"><line y2="3" x2="0" stroke-width="0.4pt"></line></g><g class="tick" style="opacity: 1; " transform="translate(241.55428427538342,0)"><line y2="3" x2="0" stroke-width="0.4pt"></line></g><g class="tick" style="opacity: 1; " transform="translate(244.83722979831762,0)"><line y2="3" x2="0" stroke-width="0.4pt"></line></g><g class="tick" style="opacity: 1; " transform="translate(248.01000936410637,0)"><line y2="3" x2="0" stroke-width="0.4pt"></line></g><g class="tick" style="opacity: 1; " transform="translate(251.28854824875472,0)"><line y2="6" x2="0" stroke-width="1pt"></line><text dy="3pt" style="text-anchor: middle; font-family: cmr10; " y="14" x="0">2008</text></g><g class="tick" style="opacity: 1; " transform="translate(254.5670871334031,0)"><line y2="3" x2="0" stroke-width="0.4pt"></line></g><g class="tick" style="opacity: 1; " transform="translate(257.63410738033224,0)"><line y2="3" x2="0" stroke-width="0.4pt"></line></g><g class="tick" style="opacity: 1; " transform="translate(260.9082396266948,0)"><line y2="3" x2="0" stroke-width="0.4pt"></line></g><g class="tick" style="opacity: 1; " transform="translate(264.08101919248355,0)"><line y2="3" x2="0" stroke-width="0.4pt"></line></g><g class="tick" style="opacity: 1; " transform="translate(267.3595580771319,0)"><line y2="3" x2="0" stroke-width="0.4pt"></line></g><g class="tick" style="opacity: 1; " transform="translate(270.53233764292065,0)"><line y2="3" x2="0" stroke-width="0.4pt"></line></g><g class="tick" style="opacity: 1; " transform="translate(273.81087652756906,0)"><line y2="3" x2="0" stroke-width="0.4pt"></line></g><g class="tick" style="opacity: 1; " transform="translate(277.0894154122174,0)"><line y2="3" x2="0" stroke-width="0.4pt"></line></g><g class="tick" style="opacity: 1; " transform="translate(280.26219497800616,0)"><line y2="3" x2="0" stroke-width="0.4pt"></line></g><g class="tick" style="opacity: 1; " transform="translate(283.54514050094036,0)"><line y2="3" x2="0" stroke-width="0.4pt"></line></g><g class="tick" style="opacity: 1; " transform="translate(286.7179200667291,0)"><line y2="3" x2="0" stroke-width="0.4pt"></line></g><g class="tick" style="opacity: 1; " transform="translate(289.99645895137746,0)"><line y2="6" x2="0" stroke-width="1pt"></line></g><g class="tick" style="opacity: 1; " transform="translate(293.2749978360258,0)"><line y2="3" x2="0" stroke-width="0.4pt"></line></g><g class="tick" style="opacity: 1; " transform="translate(296.23625876409534,0)"><line y2="3" x2="0" stroke-width="0.4pt"></line></g><g class="tick" style="opacity: 1; " transform="translate(299.51039101045785,0)"><line y2="3" x2="0" stroke-width="0.4pt"></line></g><g class="tick" style="opacity: 1; " transform="translate(302.68317057624665,0)"><line y2="3" x2="0" stroke-width="0.4pt"></line></g><g class="tick" style="opacity: 1; " transform="translate(305.961709460895,0)"><line y2="3" x2="0" stroke-width="0.4pt"></line></g><g class="tick" style="opacity: 1; " transform="translate(309.13448902668375,0)"><line y2="3" x2="0" stroke-width="0.4pt"></line></g><g class="tick" style="opacity: 1; " transform="translate(312.41302791133216,0)"><line y2="3" x2="0" stroke-width="0.4pt"></line></g><g class="tick" style="opacity: 1; " transform="translate(315.6915667959805,0)"><line y2="3" x2="0" stroke-width="0.4pt"></line></g><g class="tick" style="opacity: 1; " transform="translate(318.86434636176926,0)"><line y2="3" x2="0" stroke-width="0.4pt"></line></g><g class="tick" style="opacity: 1; " transform="translate(322.1472918847034,0)"><line y2="3" x2="0" stroke-width="0.4pt"></line></g><g class="tick" style="opacity: 1; " transform="translate(325.3200714504922,0)"><line y2="3" x2="0" stroke-width="0.4pt"></line></g><g class="tick" style="opacity: 1; " transform="translate(328.5986103351406,0)"><line y2="6" x2="0" stroke-width="1pt"></line><text dy="3pt" style="text-anchor: middle; font-family: cmr10; " y="14" x="0">2010</text></g><g class="tick" style="opacity: 1; " transform="translate(331.877149219789,0)"><line y2="3" x2="0" stroke-width="0.4pt"></line></g><g class="tick" style="opacity: 1; " transform="translate(334.83841014785844,0)"><line y2="3" x2="0" stroke-width="0.4pt"></line></g><g class="tick" style="opacity: 1; " transform="translate(338.112542394221,0)"><line y2="3" x2="0" stroke-width="0.4pt"></line></g><g class="tick" style="opacity: 1; " transform="translate(341.28532196000975,0)"><line y2="3" x2="0" stroke-width="0.4pt"></line></g><g class="tick" style="opacity: 1; " transform="translate(344.5638608446581,0)"><line y2="3" x2="0" stroke-width="0.4pt"></line></g><g class="tick" style="opacity: 1; " transform="translate(347.7366404104469,0)"><line y2="3" x2="0" stroke-width="0.4pt"></line></g><g class="tick" style="opacity: 1; " transform="translate(351.01517929509527,0)"><line y2="3" x2="0" stroke-width="0.4pt"></line></g><g class="tick" style="opacity: 1; " transform="translate(354.2937181797436,0)"><line y2="3" x2="0" stroke-width="0.4pt"></line></g><g class="tick" style="opacity: 1; " transform="translate(357.46649774553237,0)"><line y2="3" x2="0" stroke-width="0.4pt"></line></g><g class="tick" style="opacity: 1; " transform="translate(360.74944326846656,0)"><line y2="3" x2="0" stroke-width="0.4pt"></line></g><g class="tick" style="opacity: 1; " transform="translate(363.9222228342553,0)"><line y2="3" x2="0" stroke-width="0.4pt"></line></g><g class="tick" style="opacity: 1; " transform="translate(367.20076171890366,0)"><line y2="6" x2="0" stroke-width="1pt"></line></g><g class="tick" style="opacity: 1; " transform="translate(370.479300603552,0)"><line y2="3" x2="0" stroke-width="0.4pt"></line></g><g class="tick" style="opacity: 1; " transform="translate(373.4405615316216,0)"><line y2="3" x2="0" stroke-width="0.4pt"></line></g><g class="tick" style="opacity: 1; " transform="translate(376.7146937779841,0)"><line y2="3" x2="0" stroke-width="0.4pt"></line></g><g class="tick" style="opacity: 1; " transform="translate(379.88747334377285,0)"><line y2="3" x2="0" stroke-width="0.4pt"></line></g><g class="tick" style="opacity: 1; " transform="translate(383.1660122284212,0)"><line y2="3" x2="0" stroke-width="0.4pt"></line></g><g class="tick" style="opacity: 1; " transform="translate(386.33879179420995,0)"><line y2="3" x2="0" stroke-width="0.4pt"></line></g><g class="tick" style="opacity: 1; " transform="translate(389.61733067885837,0)"><line y2="3" x2="0" stroke-width="0.4pt"></line></g><g class="tick" style="opacity: 1; " transform="translate(392.8958695635067,0)"><line y2="3" x2="0" stroke-width="0.4pt"></line></g><g class="tick" style="opacity: 1; " transform="translate(396.0686491292955,0)"><line y2="3" x2="0" stroke-width="0.4pt"></line></g><g class="tick" style="opacity: 1; " transform="translate(399.35159465222966,0)"><line y2="3" x2="0" stroke-width="0.4pt"></line></g><g class="tick" style="opacity: 1; " transform="translate(402.5243742180184,0)"><line y2="3" x2="0" stroke-width="0.4pt"></line></g><g class="tick" style="opacity: 1; " transform="translate(405.8029131026668,0)"><line y2="6" x2="0" stroke-width="1pt"></line><text dy="3pt" style="text-anchor: middle; font-family: cmr10; " y="14" x="0">2012</text></g><g class="tick" style="opacity: 1; " transform="translate(409.0814519873152,0)"><line y2="3" x2="0" stroke-width="0.4pt"></line></g><g class="tick" style="opacity: 1; " transform="translate(412.14847223424425,0)"><line y2="3" x2="0" stroke-width="0.4pt"></line></g><g class="tick" style="opacity: 1; " transform="translate(415.4226044806068,0)"><line y2="3" x2="0" stroke-width="0.4pt"></line></g><g class="tick" style="opacity: 1; " transform="translate(418.5953840463956,0)"><line y2="3" x2="0" stroke-width="0.4pt"></line></g><g class="tick" style="opacity: 1; " transform="translate(421.873922931044,0)"><line y2="3" x2="0" stroke-width="0.4pt"></line></g><g class="tick" style="opacity: 1; " transform="translate(425.0467024968327,0)"><line y2="3" x2="0" stroke-width="0.4pt"></line></g><g class="tick" style="opacity: 1; " transform="translate(428.32524138148113,0)"><line y2="3" x2="0" stroke-width="0.4pt"></line></g><g class="tick" style="opacity: 1; " transform="translate(431.6037802661295,0)"><line y2="3" x2="0" stroke-width="0.4pt"></line></g><g class="tick" style="opacity: 1; " transform="translate(434.77655983191823,0)"><line y2="3" x2="0" stroke-width="0.4pt"></line></g><g class="tick" style="opacity: 1; " transform="translate(438.0595053548524,0)"><line y2="3" x2="0" stroke-width="0.4pt"></line></g><g class="tick" style="opacity: 1; " transform="translate(441.2322849206412,0)"><line y2="3" x2="0" stroke-width="0.4pt"></line></g><g class="tick" style="opacity: 1; " transform="translate(444.5108238052896,0)"><line y2="6" x2="0" stroke-width="1pt"></line></g><g class="tick" style="opacity: 1; " transform="translate(447.78936268993795,0)"><line y2="3" x2="0" stroke-width="0.4pt"></line></g><g class="tick" style="opacity: 1; " transform="translate(450.7506236180074,0)"><line y2="3" x2="0" stroke-width="0.4pt"></line></g><g class="tick" style="opacity: 1; " transform="translate(454.02475586437,0)"><line y2="3" x2="0" stroke-width="0.4pt"></line></g><g class="tick" style="opacity: 1; " transform="translate(457.1975354301587,0)"><line y2="3" x2="0" stroke-width="0.4pt"></line></g><g class="tick" style="opacity: 1; " transform="translate(460.4760743148071,0)"><line y2="3" x2="0" stroke-width="0.4pt"></line></g><g class="tick" style="opacity: 1; " transform="translate(463.6488538805958,0)"><line y2="3" x2="0" stroke-width="0.4pt"></line></g><g class="tick" style="opacity: 1; " transform="translate(466.92739276524424,0)"><line y2="3" x2="0" stroke-width="0.4pt"></line></g><g class="tick" style="opacity: 1; " transform="translate(470.2059316498926,0)"><line y2="3" x2="0" stroke-width="0.4pt"></line></g><g class="tick" style="opacity: 1; " transform="translate(473.37871121568134,0)"><line y2="3" x2="0" stroke-width="0.4pt"></line></g><g class="tick" style="opacity: 1; " transform="translate(476.66165673861553,0)"><line y2="3" x2="0" stroke-width="0.4pt"></line></g><g class="tick" style="opacity: 1; " transform="translate(479.8344363044043,0)"><line y2="3" x2="0" stroke-width="0.4pt"></line></g><g class="tick" style="opacity: 1; " transform="translate(483.11297518905263,0)"><line y2="6" x2="0" stroke-width="1pt"></line><text dy="3pt" style="text-anchor: middle; font-family: cmr10; " y="14" x="0">2014</text></g><g class="tick" style="opacity: 1; " transform="translate(486.391514073701,0)"><line y2="3" x2="0" stroke-width="0.4pt"></line></g><g class="tick" style="opacity: 1; " transform="translate(489.3527750017705,0)"><line y2="3" x2="0" stroke-width="0.4pt"></line></g><g class="tick" style="opacity: 1; " transform="translate(492.6269072481331,0)"><line y2="3" x2="0" stroke-width="0.4pt"></line></g><g class="tick" style="opacity: 1; " transform="translate(495.7996868139218,0)"><line y2="3" x2="0" stroke-width="0.4pt"></line></g><g class="tick" style="opacity: 1; " transform="translate(499.0782256985702,0)"><line y2="3" x2="0" stroke-width="0.4pt"></line></g><g class="tick" style="opacity: 1; " transform="translate(502.2510052643589,0)"><line y2="3" x2="0" stroke-width="0.4pt"></line></g><g class="tick" style="opacity: 1; " transform="translate(505.52954414900734,0)"><line y2="3" x2="0" stroke-width="0.4pt"></line></g><g class="tick" style="opacity: 1; " transform="translate(508.8080830336557,0)"><line y2="3" x2="0" stroke-width="0.4pt"></line></g><g class="tick" style="opacity: 1; " transform="translate(511.98086259944444,0)"><line y2="3" x2="0" stroke-width="0.4pt"></line></g><g class="tick" style="opacity: 1; " transform="translate(515.2638081223787,0)"><line y2="3" x2="0" stroke-width="0.4pt"></line></g><g class="tick" style="opacity: 1; " transform="translate(518.4365876881674,0)"><line y2="3" x2="0" stroke-width="0.4pt"></line></g><g class="tick" style="opacity: 1; " transform="translate(521.7151265728157,0)"><line y2="6" x2="0" stroke-width="1pt"></line></g><g class="tick" style="opacity: 1; " transform="translate(524.9936654574641,0)"><line y2="3" x2="0" stroke-width="0.4pt"></line></g><g class="tick" style="opacity: 1; " transform="translate(527.9549263855336,0)"><line y2="3" x2="0" stroke-width="0.4pt"></line></g><g class="tick" style="opacity: 1; " transform="translate(531.2290586318961,0)"><line y2="3" x2="0" stroke-width="0.4pt"></line></g><g class="tick" style="opacity: 1; " transform="translate(534.4018381976849,0)"><line y2="3" x2="0" stroke-width="0.4pt"></line></g><g class="tick" style="opacity: 1; " transform="translate(537.6803770823334,0)"><line y2="3" x2="0" stroke-width="0.4pt"></line></g><g class="tick" style="opacity: 1; " transform="translate(540.8531566481221,0)"><line y2="3" x2="0" stroke-width="0.4pt"></line></g><g class="tick" style="opacity: 1; " transform="translate(544.1316955327704,0)"><line y2="3" x2="0" stroke-width="0.4pt"></line></g><g class="tick" style="opacity: 1; " transform="translate(547.4102344174188,0)"><line y2="3" x2="0" stroke-width="0.4pt"></line></g><g class="tick" style="opacity: 1; " transform="translate(550.5830139832076,0)"><line y2="3" x2="0" stroke-width="0.4pt"></line></g><g class="tick" style="opacity: 1; " transform="translate(553.8659595061417,0)"><line y2="3" x2="0" stroke-width="0.4pt"></line></g><g class="tick" style="opacity: 1; " transform="translate(557.0387390719305,0)"><line y2="3" x2="0" stroke-width="0.4pt"></line></g><path class="domain" d="M0,6V0H560V6"></path></g><g class="y axis"><g class="tick" style="opacity: 1; " transform="translate(0,260)"><line x2="-6" y2="0"></line><text dy="3pt" style="text-anchor: end; font-family: cmr10; " x="-9" y="0">0</text></g><g class="tick" style="opacity: 1; " transform="translate(0,240.37143288539937)"><line x2="-6" y2="0"></line><text dy="3pt" style="text-anchor: end; font-family: cmr10; " x="-9" y="0">2</text></g><g class="tick" style="opacity: 1; " transform="translate(0,220.74286577079872)"><line x2="-6" y2="0"></line><text dy="3pt" style="text-anchor: end; font-family: cmr10; " x="-9" y="0">4</text></g><g class="tick" style="opacity: 1; " transform="translate(0,201.1142986561981)"><line x2="-6" y2="0"></line><text dy="3pt" style="text-anchor: end; font-family: cmr10; " x="-9" y="0">6</text></g><g class="tick" style="opacity: 1; " transform="translate(0,181.48573154159746)"><line x2="-6" y2="0"></line><text dy="3pt" style="text-anchor: end; font-family: cmr10; " x="-9" y="0">8</text></g><g class="tick" style="opacity: 1; " transform="translate(0,161.8571644269968)"><line x2="-6" y2="0"></line><text dy="3pt" style="text-anchor: end; font-family: cmr10; " x="-9" y="0">10</text></g><g class="tick" style="opacity: 1; " transform="translate(0,142.22859731239618)"><line x2="-6" y2="0"></line><text dy="3pt" style="text-anchor: end; font-family: cmr10; " x="-9" y="0">12</text></g><g class="tick" style="opacity: 1; " transform="translate(0,122.60003019779558)"><line x2="-6" y2="0"></line><text dy="3pt" style="text-anchor: end; font-family: cmr10; " x="-9" y="0">14</text></g><g class="tick" style="opacity: 1; " transform="translate(0,102.97146308319493)"><line x2="-6" y2="0"></line><text dy="3pt" style="text-anchor: end; font-family: cmr10; " x="-9" y="0">16</text></g><g class="tick" style="opacity: 1; " transform="translate(0,83.34289596859429)"><line x2="-6" y2="0"></line><text dy="3pt" style="text-anchor: end; font-family: cmr10; " x="-9" y="0">18</text></g><g class="tick" style="opacity: 1; " transform="translate(0,63.71432885399366)"><line x2="-6" y2="0"></line><text dy="3pt" style="text-anchor: end; font-family: cmr10; " x="-9" y="0">20</text></g><g class="tick" style="opacity: 1; " transform="translate(0,44.08576173939302)"><line x2="-6" y2="0"></line><text dy="3pt" style="text-anchor: end; font-family: cmr10; " x="-9" y="0">22</text></g><g class="tick" style="opacity: 1; " transform="translate(0,24.457194624792386)"><line x2="-6" y2="0"></line><text dy="3pt" style="text-anchor: end; font-family: cmr10; " x="-9" y="0">24</text></g><g class="tick" style="opacity: 1; " transform="translate(0,4.828627510191779)"><line x2="-6" y2="0"></line><text dy="3pt" style="text-anchor: end; font-family: cmr10; " x="-9" y="0">26</text></g><path class="domain" d="M-6,0H0V260H-6"></path></g><text transform="rotate(-90)" y="-30" x="-130" dy="1em" style="text-anchor: middle; font-family: cmr10; ">Percentages</text><g class="serie"><path class="line Ruby" d="M25.598161802315058,258.13528612411295L28.770941368103806,258.14510040767027L32.04507361446637,255.77985807036086L35.21785318025511,255.81911520459008L38.49639206490348,255.67190095123055L41.880690268411485,256.1331722784237L44.9477105153406,256.241129397554L48.22624939998899,256.3490865166843L51.50919492292318,256.5061150536011L54.68197448871192,256.7514721425336L58.066272692219925,256.9673863807942L61.344811576868295,256.8005435603201L64.3060725049378,256.9968292314661L67.58020475130036,257.16367205194024L70.7529843170891,257.77215763249285L73.92576388287785,257.5464291106749L77.20430276752622,258.14510040767027L80.4828416521746,258.14510040767027L83.76138053682297,258.11565755699837L86.93416010261173,258.12547184055563L90.21710562554591,257.4581005586592L93.38988519133466,258.41008606371736L96.66842407598304,258.43952891438926L99.94696296063141,258.55730031707685L103.01398320756053,258.45915748150384L106.2881154539231,258.07640042276915L109.46089501971183,258.49841461573305L112.63367458550059,258.41008606371736L115.91221347014896,258.4787860486185L119.19075235479734,258.48860033217574L122.36353192058608,258.7830288388948L125.64207080523445,258.2726860939151L128.92060968988284,258.2726860939151L132.0977958939574,257.8212290502793L135.37633477860578,257.6347576626906L138.65487366325414,257.6838290804771L141.61613459132363,257.2029291861694L144.8902668376862,257.0851577834818L148.06304640347497,256.9183149630077L151.34158528812333,256.28038653178317L154.51436485391207,257.026272082138L157.79290373856043,257.3894005737581L161.0714426232088,257.1538577683829L164.24422218899758,256.85942926166393L171.0172252342994,256.8790578287785L174.40152343780738,256.3589008002416L177.4685436847365,255.99577230862147L180.32404529394637,255.42654386229805L183.70393685916855,255.16155820625096L186.77095710609768,255.52468669787106L190.04949599074607,255.29895817605313L193.32803487539445,255.03397252000605L196.6065737600428,252.10931601993053L199.88511264469116,250.7942020232523L202.95213289162032,249.38094519100105L206.34083773341413,243.14887513211536L209.40785798034327,237.09346217726105L212.79215618385126,235.2778197191605L216.17645438735923,235.1894911671448L219.13771531542872,232.7849916956062L222.20032892407207,232.5396346066737L225.7961457652993,234.16880567718556L228.7574066933688,239.07594745583572L231.93018625915755,239.39981881322663L235.5260031003848,241.29397553978558L238.4872640284543,239.73350445417483L241.8715622319623,236.58311943228145L245.15450775489649,229.73274950928584L248.2215280018256,229.68367809149933L251.500066886474,236.98550505813074L255.20164304656086,241.72580401630682L267.3595580771319,234.09029140872715L270.63809696178026,233.15793447078363L274.0223951652883,231.3422920126831L277.30093404993664,232.8929488147365L280.7909915723043,231.9311490261211L283.6508998198,231.83300619054808L286.92943870444833,220.4091801298505L290.1022182702371,229.0948210780613L293.2749978360258,227.82877849916954L296.65929603953384,234.47304846746187L300.14494692361563,234.7871055412955L302.68317057624665,233.57994866374756L306.2789874174739,234.19824852785746L309.2402483455434,234.80673410841007L312.41302791133216,235.56243394232223L316.114604071419,236.67144798429715L318.9701056806289,235.95500528461423L322.2530512035631,236.40646232825003L325.4258307693519,233.96270572248227L329.02164761057907,235.719462479239L332.5117051329467,236.0629624037445L335.47296606101617,237.16216216216216L338.5355796696595,238.202476219236L342.76595242404454,239.44889023101314L348.265437004745,240.5480899894308L350.803660657376,240.57753284010266L355.35131136833985,241.2841612562283L357.57225706439203,240.95047561528008L360.96096190618584,241.2841612562283L364.5567787474131,242.53057526800546L367.3065210377633,242.49131813377625L371.21961583556947,244.14993205496L374.18087676363893,245.29820323116414L376.9262124157034,245.45523176808095L379.9932326626325,246.05390306507627L383.58904950385977,245.43560320096634L385.9157545187715,245.43560320096634L387.07910702622735,246.99607428657708L389.8288493165776,246.95681715234787L393.84770343324334,245.92631737883136L396.91472368017253,245.02340329155973L399.98615056538745,245.25894609693492L402.8416521745973,245.33746036539333L406.54322833468416,245.89687452815943L409.5044892627537,244.7093462177261L413.20606542284054,246.13241733353465L416.1629197126242,245.18043182847651L419.44145859727263,245.75947455835725L422.8257568007806,243.48256077306357L425.36398045341156,242.64834667069303L429.27707525121775,243.40404650460516L431.7095395849891,243.08017514721425L435.19959710735674,242.31466102974483L438.37678331143127,242.93296089385476L441.3380442395008,243.04091801298506L444.93386108072804,242.57964668579191L448.5296779219553,242.80537520760984L451.8082168066037,238.89929035180432L454.6593117775277,240.64623282500378L457.93785066217606,243.61014645930845L461.3221488656841,245.48467461875282L464.2834097937536,244.47380341235092L464.8122063880517,244.47380341235092L467.24467072182307,239.71387588706025L471.2635248384888,246.43666012381098L474.330545085418,247.7714026876038L477.50773128949254,247.2119885248377L480.36323289870245,250.8530877245961L483.11297518905263,249.57723086214708L487.1318293057184,250.93160199305453L489.5642936394898,250.44088781518948L493.57874111786975,242.87407519251093L496.43424272707955,247.81065982183299L499.8185409305876,246.33851728823797L502.7798018586571,249.47908802657406L506.58713733760356,247.81065982183299L508.8080830336557,247.4279027630983L512.1923812371637,248.92948814736525L516.004123354396,248.11490261210932L519.0711436013252,250.40163068096027L522.2439231671138,248.90985958025064L525.4167027329026,251.4321304544768L528.5894822986915,249.89128793598067L532.4981704582117,249.51834516080325L535.6709500240005,247.50641703155668L538.2091736766314,246.66238864562888L542.0165091555779,246.47591725804014L544.6604921270686,246.10297448286278L547.8332716928572,242.50113241733354L550.9002919397865,242.08893250792693L554.5005154192995,239.99849011022195L557.3560170285093,239.77276158840405L560,239.91016155820623" fill="none"></path></g><g class="serie"><path class="line Assembler" d="M364.5567787474131,253.49313000150988L367.3065210377633,251.52045900649253L371.21961583556947,247.5456741657859L374.18087676363893,246.79978861543105L376.9262124157034,250.5095878000906L379.9932326626325,249.77351653329305L383.58904950385977,253.39498716593687L385.9157545187715,253.39498716593687L387.07910702622735,253.93477276158842L389.8288493165776,254.1212441491771L393.84770343324334,254.20957270119283L396.91472368017253,253.8955156273592L399.98615056538745,254.80824399818815L402.8416521745973,254.4745583572399L406.54322833468416,254.6512154612713L409.5044892627537,254.89657255020384L413.20606542284054,255.79948663747547L416.1629197126242,255.38728672806886L419.44145859727263,254.92601540087574L422.8257568007806,254.71991544617242L425.36398045341156,254.6217726105994L429.27707525121775,255.07322965423523L431.7095395849891,254.79842971463083L435.19959710735674,254.4254869394534L438.37678331143127,254.25864411897933L441.3380442395008,254.3077155367658L444.93386108072804,253.82681564245812L448.5296779219553,253.71885852332778L451.8082168066037,253.7875585082289L454.6593117775277,253.03185867431677L457.93785066217606,253.7384870904424L461.3221488656841,255.09285822134984L464.2834097937536,254.2979012532085L464.8122063880517,254.2979012532085L467.24467072182307,253.95440132870303L471.2635248384888,255.28914389249584L474.330545085418,255.37747244451154L477.50773128949254,254.77880114751622L480.36323289870245,254.27827268609394L483.11297518905263,255.18118677336554L487.1318293057184,256.0546580099653L489.5642936394898,252.81594443605616L493.57874111786975,251.62841612562283L496.43424272707955,252.41355881020684L499.8185409305876,252.43318737732145L502.7798018586571,252.37430167597765L506.58713733760356,253.5814585535256L508.8080830336557,254.28808696965123L512.1923812371637,255.96632945794957L516.004123354396,254.1212441491771L519.0711436013252,254.86712969953194L522.2439231671138,248.50747395440132L525.4167027329026,252.62947304846747L528.5894822986915,253.9151441944738L532.4981704582117,253.561829986411L535.6709500240005,252.53133021289446L538.2091736766314,252.60003019779558L542.0165091555779,244.935074739544L544.6604921270686,242.72686093915144L547.8332716928572,242.2754038955156L550.9002919397865,244.56213196436659L554.5005154192995,241.5197040616035L557.3560170285093,241.0976898686396L560,239.43907594745585" fill="none"></path></g><g class="serie"><path class="line VisualBasicNET" d="M355.35131136833985,256.7809149932055L357.57225706439203,256.8103578438774L360.96096190618584,256.829986410992L364.5567787474131,257.4581005586592L367.3065210377633,257.41884342443L371.21961583556947,254.22920126830743L374.18087676363893,254.4745583572399L376.9262124157034,256.64351502340327L379.9932326626325,255.29895817605313L383.58904950385977,255.74060093613167L385.9157545187715,255.74060093613167L387.07910702622735,255.24988675826665L389.8288493165776,255.44617242941266L393.84770343324334,256.9673863807942L396.91472368017253,255.27932960893853L399.98615056538745,254.76898686395893L402.8416521745973,256.42760078514266L406.54322833468416,255.29895817605313L409.5044892627537,252.18783028838894L413.20606542284054,252.30560169107656L416.1629197126242,250.40163068096027L419.44145859727263,247.4966027479994L422.8257568007806,248.06583119432284L425.36398045341156,251.00030197795562L429.27707525121775,251.39287332024762L431.7095395849891,251.75600181186772L435.19959710735674,254.1212441491771L438.37678331143127,252.45281594443605L441.3380442395008,251.27510191756002L444.93386108072804,249.76370224973576L448.5296779219553,250.11701645779857L451.8082168066037,251.28491620111734L454.6593117775277,249.25335950475616L457.93785066217606,248.90004529669335L461.3221488656841,249.52815944436057L464.2834097937536,247.69288841914542L464.8122063880517,247.69288841914542L467.24467072182307,247.0451457043636L471.2635248384888,241.90246112033822L474.330545085418,241.0289898837385L477.50773128949254,240.67567567567568L480.36323289870245,243.43348935527706L483.11297518905263,244.71916050128343L487.1318293057184,242.35391816397401L489.5642936394898,241.72580401630682L493.57874111786975,242.84463234183903L496.43424272707955,247.5947455835724L499.8185409305876,241.2154612713272L502.7798018586571,245.32764608183604L506.58713733760356,247.14328853993658L508.8080830336557,244.9645175902159L512.1923812371637,242.81518949116716L516.004123354396,239.77276158840405L519.0711436013252,238.0650762494338L522.2439231671138,249.45945945945945L525.4167027329026,240.11626151290957L528.5894822986915,237.17197644571945L532.4981704582117,239.13483315717954L535.6709500240005,230.87120640193265L538.2091736766314,228.9083496904726L542.0165091555779,236.21999094066135L544.6604921270686,233.42292012683072L547.8332716928572,239.76294730484676L550.9002919397865,235.8372338819266L554.5005154192995,238.1828476521214L557.3560170285093,236.54386229805226L560,234.6595198550506" fill="none"></path></g><g class="serie"><path class="line PHP" d="M0,241.3823040918013L3.172779565788749,246.47591725804014L6.451318450437123,244.75841763551261L9.518338697366246,244.7682319190699L12.479599625435746,242.55020383512002L15.974063786089188,212.16518194171823L19.46412130845681,188.61090140419748L22.636900874245562,178.7966178468972L25.598161802315058,186.96210176657104L28.770941368103806,191.01540087573608L32.04507361446637,210.4476823191907L35.21785318025511,208.81851124867885L38.49639206490348,209.18163974029898L41.880690268411485,196.22678544466254L44.9477105153406,207.5033972520006L48.22624939998899,211.32115355579043L51.50919492292318,208.22965423524084L54.68197448871192,188.37535859882232L58.066272692219925,185.3034878453873L61.344811576868295,215.90442397704967L64.3060725049378,220.65453721878305L67.58020475130036,214.79540993507473L70.7529843170891,215.51185263475764L73.92576388287785,213.0582817454326L77.20430276752622,222.3818511248679L80.4828416521746,214.07896723539181L83.76138053682297,206.6495545825155L86.93416010261173,203.12622678544466L90.21710562554591,224.96300770043786L93.38988519133466,203.70526951532537L96.66842407598304,198.06205646987772L99.94696296063141,188.7777442246716L103.01398320756053,185.10720217424128L106.2881154539231,164.2027781971916L109.46089501971183,189.6217726105994L112.63367458550059,174.51759021591425L115.91221347014896,158.6871508379888L119.19075235479734,157.6664653480296L122.36353192058608,179.2186320398611L125.64207080523445,187.16820172127436L128.92060968988284,185.5488449343198L132.0977958939574,147.64608183602599L135.37633477860578,166.9409633096784L138.65487366325414,159.12879359806735L141.61613459132363,167.64759172580403L144.8902668376862,174.38019024611202L148.06304640347497,169.6987769892798L151.34158528812333,181.7409029140873L154.51436485391207,169.98339121244152L157.79290373856043,182.7321455533746L161.0714426232088,172.70194775781368L164.24422218899758,165.08606371734865L171.0172252342994,165.49826362675523L174.40152343780738,167.72610599426244L177.4685436847365,172.49584780311037L180.32404529394637,162.36750717197646L183.70393685916855,153.22059489657255L186.77095710609768,159.69802204439077L190.04949599074607,165.85157783481807L193.32803487539445,158.42216518194172L196.6065737600428,165.40012079118225L199.88511264469116,170.4152196889627L202.95213289162032,163.21153555790426L206.34083773341413,169.6202627208214L209.40785798034327,176.2154612713272L212.79215618385126,182.0451457043636L216.17645438735923,173.1730333685641L219.13771531542872,167.1765061150536L222.20032892407207,175.21440434848256L225.7961457652993,174.24279027630985L228.7574066933688,172.9374905631889L231.93018625915755,175.07700437868036L235.5260031003848,164.84070662841614L238.4872640284543,159.85505058130755L241.8715622319623,166.7839347727616L245.15450775489649,174.74331873773215L248.2215280018256,177.62871810357842L251.500066886474,169.75766269062362L255.20164304656086,162.93673561829985L267.3595580771319,159.83542201419297L270.63809696178026,166.51894911671448L274.0223951652883,168.24626302279933L277.30093404993664,169.28657707987315L280.7909915723043,175.47939000452968L283.6508998198,172.26030499773518L286.92943870444833,170.4152196889627L290.1022182702371,172.8295334440586L293.2749978360258,173.84040465046053L296.65929603953384,166.91152045900648L300.14494692361563,162.95636418541446L302.68317057624665,162.63249282802357L306.2789874174739,165.04680658311943L309.2402483455434,169.03140570738339L312.41302791133216,167.84387739695L316.114604071419,160.326136192058L318.9701056806289,158.37309376415521L322.2530512035631,160.129850520912L325.4258307693519,164.1144496451759L329.02164761057907,161.16035029442853L332.5117051329467,161.84735014343954L335.47296606101617,162.76007851426846L338.5355796696595,165.17439226936432L342.76595242404454,170.95500528461423L348.265437004745,175.93084704816548L350.803660657376,169.90487694398308L355.35131136833985,177.85444662539635L357.57225706439203,178.31571795258947L360.96096190618584,183.32100256681264L364.5567787474131,186.2849162011173L367.3065210377633,183.105088328552L371.21961583556947,191.56500075494486L374.18087676363893,195.55941416276613L376.9262124157034,195.3827570587347L379.9932326626325,196.12864260908955L383.58904950385977,195.2060999547033L385.9157545187715,195.2060999547033L387.07910702622735,199.35754189944134L389.8288493165776,199.79918465951985L393.84770343324334,195.26498565604712L396.91472368017253,193.08621470632644L399.98615056538745,200.17212743469727L402.8416521745973,201.1044843726408L406.54322833468416,204.02914087271628L409.5044892627537,204.6376264532689L413.20606542284054,205.48165483919675L416.1629197126242,208.10206854899593L419.44145859727263,203.95062660425788L422.8257568007806,208.11188283255322L425.36398045341156,210.81081081081084L429.27707525121775,205.78589762947306L431.7095395849891,204.90261210931604L435.19959710735674,204.36282651366452L438.37678331143127,203.7445266495546L441.3380442395008,205.61905480899895L444.93386108072804,205.56998339121242L448.5296779219553,210.20232523025817L451.8082168066037,212.8031103729428L454.6593117775277,206.72806885097387L457.93785066217606,203.23418390457496L461.3221488656841,201.241884342443L464.2834097937536,189.4745583572399L464.8122063880517,189.4745583572399L467.24467072182307,194.30318586743167L471.2635248384888,196.89415672655895L474.330545085418,200.19175600181185L477.50773128949254,207.2089687452816L480.36323289870245,208.17076853389705L483.11297518905263,214.77578136796015L487.1318293057184,218.59353767174997L489.5642936394898,223.70677940510342L493.57874111786975,232.7849916956062L496.43424272707955,226.76883587498114L499.8185409305876,232.0489204288087L502.7798018586571,231.38154914691228L506.58713733760356,231.8918918918919L508.8080830336557,229.3696210176657L512.1923812371637,231.12637777442245L516.004123354396,230.13513513513513L519.0711436013252,233.04997735165333L522.2439231671138,222.86275101917562L525.4167027329026,228.88872112335798L528.5894822986915,220.77230862147064L532.4981704582117,230.46882077608336L535.6709500240005,233.30514872414315L538.2091736766314,231.85263475766268L542.0165091555779,231.60727766873018L544.6604921270686,233.21682017212743L547.8332716928572,235.1698626000302L550.9002919397865,234.8656198097539L554.5005154192995,228.1232070058886L557.3560170285093,232.59852030801753L560,233.44254869394533" fill="none"></path></g><g class="serie"><path class="line Python" d="M0,247.7321455533746L3.172779565788749,248.86078816246413L6.451318450437123,248.25230258191152L9.518338697366246,248.51728823795864L12.479599625435746,247.3984599124264L15.974063786089188,247.88917409029142L19.46412130845681,249.76370224973576L22.636900874245562,250.01887362222558L25.598161802315058,250.3133021289446L28.770941368103806,250.29367356183L32.04507361446637,249.50853087724596L35.21785318025511,249.62630227993358L38.49639206490348,248.95893099803715L41.880690268411485,249.39075947455837L44.9477105153406,248.05601691076552L48.22624939998899,249.39075947455837L51.50919492292318,248.35044541748454L54.68197448871192,250.13664502491318L58.066272692219925,250.16608787558508L61.344811576868295,249.86184508530877L64.3060725049378,250.44088781518948L67.58020475130036,250.3034878453873L70.7529843170891,250.11701645779857L73.92576388287785,248.60561678997433L77.20430276752622,247.3886456288691L80.4828416521746,247.2708742261815L83.76138053682297,246.01464593084705L86.93416010261173,245.41597463385173L90.21710562554591,242.66797523780764L93.38988519133466,249.23373093764155L96.66842407598304,248.95893099803715L99.94696296063141,250.1268307413559L103.01398320756053,250.0090593386683L106.2881154539231,250.10720217424128L109.46089501971183,215.19779556092405L112.63367458550059,195.43182847652122L115.91221347014896,211.29171070511853L119.19075235479734,213.83361014645934L122.36353192058608,205.0694549297901L125.64207080523445,216.4442095727012L128.92060968988284,208.96572550203834L132.0977958939574,230.27253510493733L135.37633477860578,232.10780613015248L138.65487366325414,235.4054054054054L141.61613459132363,236.21017665710403L144.8902668376862,233.53087724596105L148.06304640347497,235.6605767778952L151.34158528812333,232.5003774724445L154.51436485391207,235.2189340178167L157.79290373856043,231.7054205043032L161.0714426232088,230.24309225426543L164.24422218899758,231.7152347878605L171.0172252342994,233.71734863354973L174.40152343780738,234.43379133323268L177.4685436847365,233.80567718556546L180.32404529394637,229.6444209572701L183.70393685916855,232.92239166540844L186.77095710609768,230.14494941869245L190.04949599074607,226.00332175751169L193.32803487539445,230.39030650762496L196.6065737600428,229.86033519553072L199.88511264469116,229.14389249584778L202.95213289162032,225.9836931903971L206.34083773341413,224.26619356786952L209.40785798034327,223.0786652574362L212.79215618385126,225.6303789823343L216.17645438735923,225.00226483466707L219.13771531542872,221.75373697720067L222.20032892407207,222.56832251245658L225.7961457652993,222.9118224369621L228.7574066933688,228.9770496753737L231.93018625915755,230.32160652272384L235.5260031003848,233.02053450098143L238.4872640284543,230.31179223916655L241.8715622319623,226.30756454778802L245.15450775489649,218.51502340329156L248.2215280018256,213.9023101313604L251.500066886474,205.64849765967082L255.20164304656086,213.2545674165786L267.3595580771319,211.91982485278575L270.63809696178026,211.19356786954552L274.0223951652883,211.17393930243094L277.30093404993664,210.81081081081084L280.7909915723043,215.19779556092405L283.6508998198,209.55458251547637L286.92943870444833,219.08425184961496L290.1022182702371,213.5686244904122L293.2749978360258,215.17816699380944L296.65929603953384,209.11293975539786L300.14494692361563,200.32915597161409L302.68317057624665,205.55035482409784L306.2789874174739,213.32326740147968L309.2402483455434,216.4736524233731L312.41302791133216,215.9436811112789L316.114604071419,221.42986561980976L318.9701056806289,221.71447984297146L322.2530512035631,214.1476672202929L325.4258307693519,209.11293975539786L329.02164761057907,216.2969953193417L332.5117051329467,217.66118073380645L335.47296606101617,218.48558055261967L338.5355796696595,218.73093764155215L342.76595242404454,219.7908802657406L348.265437004745,218.61316623886458L350.803660657376,218.55428053752075L355.35131136833985,215.02113845689266L357.57225706439203,212.30258191152046L360.96096190618584,204.2646836780915L364.5567787474131,196.38381398157935L367.3065210377633,198.51351351351354L371.21961583556947,190.92707232372038L374.18087676363893,203.6954552317681L376.9262124157034,211.60576777895213L379.9932326626325,215.02113845689266L383.58904950385977,221.73410841008607L385.9157545187715,221.73410841008607L387.07910702622735,224.83542201419297L389.8288493165776,226.48422165181944L393.84770343324334,220.74286577079872L396.91472368017253,221.29246565000753L399.98615056538745,224.50173637324477L402.8416521745973,225.7285218179073L406.54322833468416,228.46670693039408L409.5044892627537,229.10463536161862L413.20606542284054,227.70119281292466L416.1629197126242,224.03065076249433L419.44145859727263,222.5192510946701L422.8257568007806,222.2346368715084L425.36398045341156,220.74286577079872L429.27707525121775,221.95983693190396L431.7095395849891,222.1070511852635L435.19959710735674,221.77336554431525L438.37678331143127,220.1343801902461L441.3380442395008,222.2346368715084L444.93386108072804,219.04499471538577L448.5296779219553,211.42911067492074L451.8082168066037,216.9349237505662L454.6593117775277,216.404952438472L457.93785066217606,217.58266646534804L461.3221488656841,218.94685187981278L464.2834097937536,220.39936584629322L464.8122063880517,220.39936584629322L467.24467072182307,224.63913634304694L471.2635248384888,228.8985354069153L474.330545085418,229.5070209874679L477.50773128949254,229.47757813679604L480.36323289870245,238.3104333383663L483.11297518905263,236.71070511852633L487.1318293057184,238.8305903669032L489.5642936394898,240.16533293069608L493.57874111786975,240.44013287030046L496.43424272707955,229.99773516533293L499.8185409305876,233.40329155971617L502.7798018586571,233.93326287181037L506.58713733760356,229.3696210176657L508.8080830336557,232.69666314359054L512.1923812371637,237.10327646081836L516.004123354396,234.5908198701495L519.0711436013252,237.5547335044542L522.2439231671138,234.3552770647743L525.4167027329026,231.7152347878605L528.5894822986915,234.34546278121698L532.4981704582117,233.59957723086214L535.6709500240005,223.44179374905633L538.2091736766314,220.75268005435603L542.0165091555779,218.22059489657255L544.6604921270686,220.09512305601692L547.8332716928572,224.04046504605162L550.9002919397865,215.717952589461L554.5005154192995,222.9903367054205L557.3560170285093,216.5325381247169L560,222.17575117016457" fill="none"></path></g><g class="serie"><path class="line Csharp" d="M0,256.22150083043937L3.172779565788749,255.78967235391818L6.451318450437123,256.2313151139967L9.518338697366246,256.16261512909557L12.479599625435746,255.83874377170469L15.974063786089188,252.50188736222256L19.46412130845681,254.1997584176355L22.636900874245562,253.95440132870303L25.598161802315058,252.69817303336856L28.770941368103806,252.72761588404046L32.04507361446637,248.4387739695002L35.21785318025511,248.57617393930244L38.49639206490348,245.63188887211234L41.880690268411485,246.65257436207156L44.9477105153406,245.63188887211234L48.22624939998899,243.77698927978258L51.50919492292318,242.53057526800546L54.68197448871192,236.64200513362525L58.066272692219925,235.90593386682772L61.344811576868295,240.50883285520158L64.3060725049378,240.60697569077456L67.58020475130036,236.67144798429715L70.7529843170891,241.50988977804622L73.92576388287785,241.00936131662388L77.20430276752622,242.56983240223462L80.4828416521746,240.36161860184205L83.76138053682297,239.76294730484676L86.93416010261173,240.96028989883737L90.21710562554591,241.3626755246867L93.38988519133466,243.26664653480296L96.66842407598304,242.34410388041672L99.94696296063141,238.6343046957572L103.01398320756053,238.04544768231918L106.2881154539231,239.0268760380492L109.46089501971183,241.5785897629473L112.63367458550059,243.8162464140118L115.91221347014896,243.64940359353767L119.19075235479734,243.97327495092858L122.36353192058608,243.96346066737127L125.64207080523445,243.86531783179828L128.92060968988284,245.2393175298203L132.0977958939574,240.8915899139363L135.37633477860578,238.37913332326738L138.65487366325414,236.80884795409935L141.61613459132363,235.1993054507021L144.8902668376862,232.32372036841312L148.06304640347497,232.84387739695L151.34158528812333,232.68684886003322L154.51436485391207,229.1635210629624L157.79290373856043,225.7972218028084L161.0714426232088,227.71100709648195L164.24422218899758,226.0229503246263L171.0172252342994,227.51472142533598L174.40152343780738,225.11022195379738L177.4685436847365,221.01766571040315L180.32404529394637,229.12426392873323L183.70393685916855,221.25320851577837L186.77095710609768,227.89747848407066L190.04949599074607,228.22134984146157L193.32803487539445,226.6216216216216L196.6065737600428,233.66827721576325L199.88511264469116,230.63566359655746L202.95213289162032,229.91922089687452L206.34083773341413,230.33142080628116L209.40785798034327,228.8789068398007L212.79215618385126,225.44390759474558L216.17645438735923,228.7022497357693L219.13771531542872,226.97493582968443L222.20032892407207,225.1494790880266L225.7961457652993,224.11897931451006L228.7574066933688,225.816850369923L231.93018625915755,223.58900800241585L235.5260031003848,220.87045145704363L238.4872640284543,224.83542201419297L241.8715622319623,223.2945794956968L245.15450775489649,221.55745130605467L248.2215280018256,220.80175147214254L251.500066886474,212.34183904574965L255.20164304656086,215.73758115657557L267.3595580771319,220.17363732447532L270.63809696178026,220.74286577079872L274.0223951652883,223.71659368866074L277.30093404993664,217.46489506266042L280.7909915723043,223.0295938396497L283.6508998198,220.48769439830892L286.92943870444833,215.07020987467916L290.1022182702371,204.95168352710255L293.2749978360258,210.3200966329458L296.65929603953384,217.59248074890533L300.14494692361563,220.163823040918L302.68317057624665,218.13226634455685L306.2789874174739,215.48240978408575L309.2402483455434,215.44315264985656L312.41302791133216,216.39513815491472L316.114604071419,218.91740902914088L318.9701056806289,216.65030952740452L322.2530512035631,207.5328401026725L325.4258307693519,198.5822134984146L329.02164761057907,203.40102672504906L332.5117051329467,210.7813679601389L335.47296606101617,218.15189491167143L338.5355796696595,216.4736524233731L342.76595242404454,213.09753887966178L348.265437004745,203.76415521666917L350.803660657376,211.06598218330063L355.35131136833985,210.77155367658162L357.57225706439203,211.29171070511853L360.96096190618584,203.99969802204438L364.5567787474131,194.37188585233278L367.3065210377633,198.89627057224823L371.21961583556947,193.17454325834214L374.18087676363893,189.2390155518647L376.9262124157034,189.48437264079723L379.9932326626325,186.01011626151293L383.58904950385977,192.83104333383665L385.9157545187715,192.83104333383665L387.07910702622735,198.94534199003473L389.8288493165776,200.7020987467915L393.84770343324334,193.07640042276915L396.91472368017253,194.01857164426997L399.98615056538745,188.16925864411897L402.8416521745973,179.47380341235092L406.54322833468416,173.9974331873773L409.5044892627537,175.07700437868036L413.20606542284054,179.0910463536162L416.1629197126242,187.88464442095727L419.44145859727263,193.03714328853994L422.8257568007806,191.044843726408L425.36398045341156,194.55835723992146L429.27707525121775,195.3238713573909L431.7095395849891,195.26498565604712L435.19959710735674,195.91272837082892L438.37678331143127,205.12834063113394L441.3380442395008,205.56016910765516L444.93386108072804,199.19069907896724L448.5296779219553,194.4405858372339L451.8082168066037,195.2551713724898L454.6593117775277,199.64215612260307L457.93785066217606,199.94639891287937L461.3221488656841,203.24399818813228L464.2834097937536,199.03367054205043L464.8122063880517,199.03367054205043L467.24467072182307,199.96602747999395L471.2635248384888,205.39332628718103L474.330545085418,203.8819266193568L477.50773128949254,200.8787558508229L480.36323289870245,204.8437264079722L483.11297518905263,202.58644118979316L487.1318293057184,196.69787105541297L489.5642936394898,205.31481201872265L493.57874111786975,212.69515325381246L496.43424272707955,223.24550807791033L499.8185409305876,221.29246565000753L502.7798018586571,220.2423373093764L506.58713733760356,226.54310735316324L508.8080830336557,217.28823795862903L512.1923812371637,213.40178166993812L516.004123354396,211.07579646685792L519.0711436013252,217.52378076400421L522.2439231671138,210.48693945341992L525.4167027329026,203.68564094821076L528.5894822986915,211.68428204741053L532.4981704582117,211.44873924203534L535.6709500240005,208.33761135437112L538.2091736766314,210.3789823342896L542.0165091555779,204.52966933413862L544.6604921270686,212.52831043333836L547.8332716928572,211.82168201721274L550.9002919397865,212.64608183602599L554.5005154192995,217.62192359957723L557.3560170285093,219.6240374452665L560,213.8041672957874" fill="none"></path></g><g class="serie"><path class="line Cplusplus" d="M0,120.63717348633551L3.172779565788749,101.88207760833458L6.451318450437123,101.7544919220897L9.518338697366246,104.42397704967536L12.479599625435746,102.01947757813677L15.974063786089188,106.18073380643213L19.46412130845681,113.14887513211536L22.636900874245562,110.99954703306658L25.598161802315058,107.51547637022497L28.770941368103806,103.83512003623736L32.04507361446637,109.13483315717953L35.21785318025511,114.18918918918921L38.49639206490348,120.8432734410388L41.880690268411485,113.38441793749057L44.9477105153406,115.05284614223163L48.22624939998899,103.98233428959686L51.50919492292318,112.44224671598974L54.68197448871192,126.09391514419447L58.066272692219925,130.588857013438L61.344811576868295,116.37777442246717L64.3060725049378,107.55473350445418L67.58020475130036,116.98626000301978L70.7529843170891,104.92450551109769L73.92576388287785,107.05420504303189L77.20430276752622,95.91499320549599L80.4828416521746,97.30862147063264L83.76138053682297,87.94579495696814L86.93416010261173,101.273592027782L90.21710562554591,99.90940661331723L93.38988519133466,89.01555186471386L96.66842407598304,102.15687754793902L99.94696296063141,105.81760531481201L103.01398320756053,117.69288841914542L106.2881154539231,103.06960591876795L109.46089501971183,139.57874075192512L112.63367458550059,136.8503699229956L115.91221347014896,128.07640042276915L119.19075235479734,109.78257587196136L122.36353192058608,113.61014645930847L125.64207080523445,112.62871810357844L128.92060968988284,123.92495847803112L132.0977958939574,143.07262569832403L135.37633477860578,142.94504001207915L138.65487366325414,148.73546731088632L141.61613459132363,145.84025366148273L144.8902668376862,159.98263626755246L148.06304640347497,162.80914993205494L151.34158528812333,164.58553525592632L154.51436485391207,151.4540238562585L157.79290373856043,156.81262267854447L161.0714426232088,150.39408123207008L164.24422218899758,143.99516835271024L171.0172252342994,151.7778952136494L174.40152343780738,147.47923901555188L177.4685436847365,149.1476672202929L180.32404529394637,150.48240978408575L183.70393685916855,153.02430922542655L186.77095710609768,152.68080930092106L190.04949599074607,155.2815944436056L193.32803487539445,164.0261210931602L196.6065737600428,159.36433640344254L199.88511264469116,154.4670089083497L202.95213289162032,151.42458100558662L206.34083773341413,151.50309527404502L209.40785798034327,157.843122452061L212.79215618385126,157.6860939151442L216.17645438735923,154.3197946549902L219.13771531542872,150.9731239619508L222.20032892407207,154.8105088328552L225.7961457652993,160.7383361014646L228.7574066933688,150.88479540993507L231.93018625915755,156.9303940812321L235.5260031003848,160.76777895213647L238.4872640284543,162.46565000754944L241.8715622319623,165.93990638683377L245.15450775489649,174.12501887362222L248.2215280018256,182.75177412048922L251.500066886474,174.32130454476822L255.20164304656086,168.98233428959688L267.3595580771319,153.94685187981278L270.63809696178026,155.0558659217877L274.0223951652883,161.2977502642307L277.30093404993664,154.8301373999698L280.7909915723043,152.49433791333232L283.6508998198,158.3534651970406L286.92943870444833,160.91499320549602L290.1022182702371,160.71870753435L293.2749978360258,165.45900649252607L296.65929603953384,158.3534651970406L300.14494692361563,154.5847803110373L302.68317057624665,151.3755095878001L306.2789874174739,156.02747999396044L309.2402483455434,157.744979616488L312.41302791133216,156.94020836478938L316.114604071419,161.97493582968443L318.9701056806289,163.04469273743018L322.2530512035631,161.83753585988222L325.4258307693519,169.95394836176956L329.02164761057907,164.71312094217123L332.5117051329467,167.2844632341839L335.47296606101617,165.68473501434397L338.5355796696595,164.7327495092858L342.76595242404454,158.14736524233732L348.265437004745,157.25426543862298L350.803660657376,165.21364940359354L355.35131136833985,163.7022497357693L357.57225706439203,163.80039257134231L360.96096190618584,166.7937490563189L364.5567787474131,171.53404801449494L367.3065210377633,173.8011475162313L371.21961583556947,179.65046051638234L374.18087676363893,174.08576173939306L376.9262124157034,169.46323418390458L379.9932326626325,170.2385625849313L383.58904950385977,163.5255926317379L385.9157545187715,163.5255926317379L387.07910702622735,171.50460516382304L389.8288493165776,177.23614676128642L393.84770343324334,173.1534048014495L396.91472368017253,170.96481956817155L399.98615056538745,180.66133172278424L402.8416521745973,179.01253208515777L406.54322833468416,180.97538879661784L409.5044892627537,182.9284312245206L413.20606542284054,181.02446021440431L416.1629197126242,172.69213347425637L419.44145859727263,163.5746640495244L422.8257568007806,168.15793447078363L425.36398045341156,170.51336252453572L429.27707525121775,168.40329155971617L431.7095395849891,170.228748301374L435.19959710735674,169.11973425939905L438.37678331143127,164.82107806130153L441.3380442395008,169.67914842216518L444.93386108072804,170.29744828627508L448.5296779219553,174.04650460516385L451.8082168066037,170.54280537520762L454.6593117775277,164.66404952438472L457.93785066217606,169.72821983995166L461.3221488656841,173.4478333081685L464.2834097937536,174.13483315717954L464.8122063880517,174.13483315717954L467.24467072182307,168.03034878453872L471.2635248384888,174.96904725955005L474.330545085418,174.96904725955005L477.50773128949254,177.86426090895364L480.36323289870245,178.85550354824096L483.11297518905263,185.784387739695L487.1318293057184,192.3599577230862L489.5642936394898,198.0424279027631L493.57874111786975,199.76974180884798L496.43424272707955,201.25169862600032L499.8185409305876,196.94322814434545L502.7798018586571,205.82515476370224L506.58713733760356,213.921938698475L508.8080830336557,214.1280386531783L512.1923812371637,212.22406764306206L516.004123354396,200.15249886758266L519.0711436013252,200.09361316623887L522.2439231671138,194.19522874830136L525.4167027329026,195.1079571191303L528.5894822986915,194.87241431375512L532.4981704582117,191.67295787407522L535.6709500240005,182.71251698626003L538.2091736766314,183.88041672957874L542.0165091555779,175.19477578136795L544.6604921270686,184.08651668428206L547.8332716928572,193.43952891438926L550.9002919397865,203.57768382908048L554.5005154192995,199.17107051185263L557.3560170285093,201.67371281896422L560,192.1440434848256" fill="none"></path></g><g class="serie"><path class="line C" d="M0,61.35890080024161L3.172779565788749,56.127887664200536L6.451318450437123,56.38305903669034L9.518338697366246,56.13770194775784L12.479599625435746,66.15808545976142L15.974063786089188,71.44798429714633L19.46412130845681,62.37958629020084L22.636900874245562,75.24611203382155L25.598161802315058,64.81352861241128L28.770941368103806,65.16684282047412L32.04507361446637,65.48089989430773L35.21785318025511,63.84191454023858L38.49639206490348,67.90502793296089L41.880690268411485,71.06522723841158L44.9477105153406,81.75298203231165L48.22624939998899,76.52196889627058L51.50919492292318,76.20791182243697L54.68197448871192,88.20096632945798L58.066272692219925,90.61528008455385L61.344811576868295,80.89913936282653L64.3060725049378,78.04318284765215L67.58020475130036,91.06673712818963L70.7529843170891,83.1760531481202L73.92576388287785,78.42593990638683L77.20430276752622,78.27872565302735L80.4828416521746,83.64713875887061L83.76138053682297,85.54129548542956L86.93416010261173,80.31028234938849L90.21710562554591,93.13755095878001L93.38988519133466,78.70073984599127L96.66842407598304,77.4543258342141L99.94696296063141,81.42911067492074L103.01398320756053,74.2352408274196L106.2881154539231,85.7964668579194L109.46089501971183,83.823795862902L112.63367458550059,80.49675373697721L115.91221347014896,91.74392269364338L119.19075235479734,99.68367809149933L122.36353192058608,91.959836931904L125.64207080523445,81.65483919673864L128.92060968988284,83.42141023705271L132.0977958939574,66.69787105541296L135.37633477860578,56.756001811867755L138.65487366325414,65.48089989430773L141.61613459132363,68.96497055714933L144.8902668376862,77.1598973274951L148.06304640347497,78.21983995168354L151.34158528812333,69.91695606220749L154.51436485391207,65.22572852181793L157.79290373856043,68.88645628869095L161.0714426232088,71.95832704212593L164.24422218899758,75.75645477880114L171.0172252342994,67.32598520308018L174.40152343780738,73.4500981428356L177.4685436847365,80.10418239468522L180.32404529394637,85.36463838139817L183.70393685916855,86.40495243847201L186.77095710609768,86.38532387135737L190.04949599074607,80.85988222859733L193.32803487539445,85.02113845689266L196.6065737600428,88.93703759625548L199.88511264469116,82.76385323871355L202.95213289162032,86.64049524384718L206.34083773341413,91.21395138154915L209.40785798034327,96.92586441189795L212.79215618385126,104.8656198097539L216.17645438735923,101.9507775932357L219.13771531542872,106.57330514872415L222.20032892407207,113.40404650460516L225.7961457652993,111.29397553978562L228.7574066933688,103.29533444058585L231.93018625915755,99.40887815189492L235.5260031003848,105.92556243394233L238.4872640284543,113.68866072776687L241.8715622319623,116.79978861543108L245.15450775489649,122.90427298807188L248.2215280018256,130.71644269968291L251.500066886474,123.42443001660878L255.20164304656086,114.1695606220746L267.3595580771319,107.75101917560018L270.63809696178026,103.51124867884644L274.0223951652883,101.22452060999547L277.30093404993664,109.06613317227843L280.7909915723043,107.24067643062057L283.6508998198,110.07700437868036L286.92943870444833,112.61890382002116L290.1022182702371,103.64864864864866L293.2749978360258,104.57119130303488L296.65929603953384,104.32583421410239L300.14494692361563,108.1534048014495L302.68317057624665,101.7152347878605L306.2789874174739,95.32613619205797L309.2402483455434,90.02642307111583L312.41302791133216,90.99803714328856L316.114604071419,94.52136494035936L318.9701056806289,94.69802204439075L322.2530512035631,90.065680205345L325.4258307693519,100.17439226936433L329.02164761057907,100.86139211837535L332.5117051329467,97.06326438170014L335.47296606101617,90.41899441340782L338.5355796696595,82.77366752227088L342.76595242404454,81.51743922693645L348.265437004745,78.63203986109013L350.803660657376,84.65800996527254L355.35131136833985,91.71447984297149L357.57225706439203,91.42005133625246L360.96096190618584,95.93462177261063L364.5567787474131,102.2255775328401L367.3065210377633,104.7184055563944L371.21961583556947,112.92314661029744L374.18087676363893,110.21440434848257L376.9262124157034,101.38154914691229L379.9932326626325,101.30303487845384L383.58904950385977,100.24309225426546L385.9157545187715,100.24309225426546L387.07910702622735,90.40918012985051L389.8288493165776,89.3296089385475L393.84770343324334,83.3232674014797L396.91472368017253,86.21848105088328L399.98615056538745,89.99698022044392L402.8416521745973,92.5977653631285L406.54322833468416,93.48105088328552L409.5044892627537,97.83859278272688L413.20606542284054,92.3033368564095L416.1629197126242,87.71025215159295L419.44145859727263,89.7614374150687L422.8257568007806,86.04182394685186L425.36398045341156,80.09436811112789L429.27707525121775,74.14691227540389L431.7095395849891,70.63339876189036L435.19959710735674,65.46127132719313L438.37678331143127,71.33021289445871L441.3380442395008,76.51215461271325L444.93386108072804,84.76596708440286L448.5296779219553,92.3720368413106L451.8082168066037,91.7733655443153L454.6593117775277,84.69726709950174L457.93785066217606,76.18828325532237L461.3221488656841,85.21742412803864L464.2834097937536,86.99380945191002L464.8122063880517,86.99380945191002L467.24467072182307,103.22663445568473L471.2635248384888,93.40253661482711L474.330545085418,90.74286577079876L477.50773128949254,81.82168201721272L480.36323289870245,84.42246715989734L483.11297518905263,83.89249584780313L487.1318293057184,80.064925260456L489.5642936394898,87.90653782273894L493.57874111786975,86.96436660123811L496.43424272707955,93.88343650913484L499.8185409305876,101.09693492375058L502.7798018586571,91.73410841008607L506.58713733760356,99.0359353767175L508.8080830336557,95.89536463838141L512.1923812371637,86.7288237958629L516.004123354396,88.55428053752077L519.0711436013252,87.38638079420201L522.2439231671138,96.0720217424128L525.4167027329026,98.18209270723239L528.5894822986915,96.67069303940812L532.4981704582117,105.47410539030653L535.6709500240005,94.65876491016155L538.2091736766314,95.23780764004229L542.0165091555779,101.5287634002718L544.6604921270686,115.41597463385173L547.8332716928572,106.69107655141174L550.9002919397865,101.10674920730786L554.5005154192995,91.73410841008607L557.3560170285093,98.45689264683676L560,102.61814887513212" fill="none"></path></g><g class="serie"><path class="line Java" d="M0,0L3.172779565788749,14.368111127887692L6.451318450437123,17.97976747697418L9.518338697366246,16.43892495847804L12.479599625435746,8.008455382757074L15.974063786089188,20.835723992148594L19.46412130845681,22.54340933111883L22.636900874245562,23.8388947606825L25.598161802315058,24.40812320700591L28.770941368103806,20.44315264985658L32.04507361446637,14.162011173184368L35.21785318025511,12.72912577381851L38.49639206490348,22.533595047561526L41.880690268411485,19.216367205194047L44.9477105153406,35.390306507624956L48.22624939998899,19.72670995017365L51.50919492292318,22.484523629775023L54.68197448871192,23.318737732145564L58.066272692219925,22.22935225728522L61.344811576868295,16.69409633096784L64.3060725049378,16.85112486788466L67.58020475130036,18.6078816246414L70.7529843170891,17.94051034274498L73.92576388287785,33.21153555790426L77.20430276752622,40.77834818058281L80.4828416521746,32.22029291861696L83.76138053682297,41.71070511852634L86.93416010261173,45.04756152800845L90.21710562554591,33.447078363279495L93.38988519133466,14.564396799033688L96.66842407598304,28.647893703759618L99.94696296063141,38.550505813075645L103.01398320756053,32.573607126679775L106.2881154539231,22.101766571040333L109.46089501971183,76.55141174694248L112.63367458550059,87.86728068850974L115.91221347014896,92.61739393024311L119.19075235479734,93.18662237656652L122.36353192058608,103.99214857315417L125.64207080523445,92.66646534802959L128.92060968988284,114.70934621772611L132.0977958939574,99.71312094217123L135.37633477860578,88.46595198550506L138.65487366325414,80.00603955911218L141.61613459132363,74.79465499018575L144.8902668376862,93.34365091348332L148.06304640347497,89.26090895364639L151.34158528812333,77.75856862449041L154.51436485391207,67.06099954703308L157.79290373856043,51.8783028838895L161.0714426232088,39.74784840706631L164.24422218899758,45.35180431828479L171.0172252342994,42.82953344405859L174.40152343780738,41.58311943228145L177.4685436847365,39.86561980975389L180.32404529394637,45.17514721425337L183.70393685916855,51.20111731843578L186.77095710609768,50.79873169258646L190.04949599074607,52.643817001358904L193.32803487539445,45.528461422316155L196.6065737600428,40.38577683829082L199.88511264469116,48.678846444209576L202.95213289162032,52.21198852483768L206.34083773341413,59.78861543107356L209.40785798034327,64.62705722482258L212.79215618385126,71.95832704212593L216.17645438735923,73.74452664955457L219.13771531542872,82.91106749207307L222.20032892407207,79.8097538879662L225.7961457652993,72.15461271327193L228.7574066933688,63.46897176506116L231.93018625915755,53.76264532689115L235.5260031003848,46.36267552468669L238.4872640284543,47.02023252302582L241.8715622319623,47.85444662539636L245.15450775489649,58.39498716593688L248.2215280018256,63.23342895968596L251.500066886474,55.38200211384571L255.20164304656086,49.1597463385173L267.3595580771319,54.97961648799639L270.63809696178026,50.514117469424754L274.0223951652883,48.29608938547486L277.30093404993664,56.69711611052395L280.7909915723043,54.40057375811564L283.6508998198,60.779858070360866L286.92943870444833,84.1574815038502L290.1022182702371,73.31269817303338L293.2749978360258,69.59308470481655L296.65929603953384,65.70662841612562L300.14494692361563,70.18194171825456L302.68317057624665,68.25834214102373L306.2789874174739,62.27162917107053L309.2402483455434,59.2782726860939L312.41302791133216,68.35648497659672L316.114604071419,69.76974180884797L318.9701056806289,76.9636116563491L322.2530512035631,79.68216820172127L325.4258307693519,92.5585082288993L329.02164761057907,88.42669485127588L332.5117051329467,89.74180884795412L335.47296606101617,88.16170919522875L338.5355796696595,82.842367507172L342.76595242404454,83.76491016155822L348.265437004745,76.7378831345312L350.803660657376,83.4017816699381L355.35131136833985,84.17711007096484L357.57225706439203,81.71372489808245L360.96096190618584,78.34742563792842L364.5567787474131,83.3527102521516L367.3065210377633,85.57073833610147L371.21961583556947,78.61241129397555L374.18087676363893,66.55065680205347L376.9262124157034,73.10659821833009L379.9932326626325,81.77261059942626L383.58904950385977,77.65061150536013L385.9157545187715,77.65061150536013L387.07910702622735,71.06522723841158L389.8288493165776,69.51457043635817L393.84770343324334,75.87422618148877L396.91472368017253,84.19673863807941L399.98615056538745,84.57949569681416L402.8416521745973,87.65136645024914L406.54322833468416,88.56409482107807L409.5044892627537,92.66646534802959L413.20606542284054,92.07760833459157L416.1629197126242,92.90200815340481L419.44145859727263,97.09270723237205L422.8257568007806,100.37067794051035L425.36398045341156,102.11762041370982L429.27707525121775,99.5168352710252L431.7095395849891,100.35104937339575L435.19959710735674,91.26302279933563L438.37678331143127,88.69168050732299L441.3380442395008,87.59248074890533L444.93386108072804,89.06462328250036L448.5296779219553,79.54476823191908L451.8082168066037,81.81186773365546L454.6593117775277,86.47365242337308L457.93785066217606,94.00120791182243L461.3221488656841,96.53329306960593L464.2834097937536,103.89400573758115L464.8122063880517,103.89400573758115L467.24467072182307,103.18737732145553L471.2635248384888,101.4600634153707L474.330545085418,101.9213347425638L477.50773128949254,97.85822134984144L480.36323289870245,90.1049373395742L483.11297518905263,97.83859278272688L487.1318293057184,90.05586592178773L489.5642936394898,98.98686395893102L493.57874111786975,89.74180884795412L496.43424272707955,94.06990789672354L499.8185409305876,101.86244904121999L502.7798018586571,106.03351955307261L506.58713733760356,112.94277517741205L508.8080830336557,121.22603049977351L512.1923812371637,127.44828627510192L516.004123354396,118.76264532689116L519.0711436013252,113.18813226634457L522.2439231671138,107.60380492224068L525.4167027329026,109.39981881322663L528.5894822986915,107.09346217726106L532.4981704582117,102.56907745734561L535.6709500240005,94.44285067190096L538.2091736766314,85.08983844179376L542.0165091555779,86.01238109617996L544.6604921270686,70.83949871659368L547.8332716928572,67.9835422014193L550.9002919397865,68.19945643967992L554.5005154192995,59.75917258040166L557.3560170285093,54.16503095274047L560,49.33640344254869" fill="none"></path></g><g class="serie"><path class="line Javascript" d="M0,244.8173033368564L3.172779565788749,243.08998943077157L6.451318450437123,243.70828929488147L9.518338697366246,244.01253208515777L12.479599625435746,245.1706175449192L15.974063786089188,245.61226030499773L19.46412130845681,245.71040314057075L22.636900874245562,233.25607730635664L25.598161802315058,245.51411746942472L28.770941368103806,245.59263173788312L32.04507361446637,246.59368866072776L35.21785318025511,246.62313151139966L38.49639206490348,245.93613166238865L41.880690268411485,248.67431677487545L44.9477105153406,240.15551864713876L48.22624939998899,241.274346972671L51.50919492292318,240.58734712365998L54.68197448871192,235.60169107655142L58.066272692219925,236.21999094066135L61.344811576868295,231.3913634304696L64.3060725049378,232.4611203382153L67.58020475130036,234.22769137852936L70.7529843170891,228.04469273743018L73.92576388287785,243.16850369922994L77.20430276752622,243.45311792239167L80.4828416521746,242.42261814887513L83.76138053682297,241.3823040918013L86.93416010261173,243.74754642911068L90.21710562554591,241.176204137098L93.38988519133466,242.94277517741205L96.66842407598304,242.87407519251093L99.94696296063141,239.01706175449192L103.01398320756053,239.75313302128944L106.2881154539231,242.50113241733354L109.46089501971183,242.55020383512002L112.63367458550059,245.76928884191454L115.91221347014896,244.19900347274648L119.19075235479734,243.50218934017818L122.36353192058608,245.18043182847651L125.64207080523445,247.5653027329005L128.92060968988284,248.27193114902613L132.0977958939574,244.346217726106L135.37633477860578,243.28627510191757L138.65487366325414,242.54038955156273L141.61613459132363,243.80643213045448L144.8902668376862,243.88494639891286L148.06304640347497,245.83798882681563L151.34158528812333,246.38758870602447L154.51436485391207,242.54038955156273L157.79290373856043,241.1467612864261L161.0714426232088,242.64834667069303L164.24422218899758,240.01811867733656L171.0172252342994,241.961346821682L174.40152343780738,244.9056318888721L177.4685436847365,245.1608032613619L180.32404529394637,242.99184659519855L183.70393685916855,244.6210176657104L186.77095710609768,238.496904725955L190.04949599074607,245.71040314057075L193.32803487539445,239.31149026121093L196.6065737600428,240.18496149781066L199.88511264469116,236.0335195530726L202.95213289162032,238.3889476068247L206.34083773341413,237.32900498263626L209.40785798034327,234.85580552619658L212.79215618385126,232.07836327948058L216.17645438735923,230.73380643213048L219.13771531542872,225.7972218028084L222.20032892407207,229.2125924807489L225.7961457652993,229.8505209119734L228.7574066933688,234.32583421410237L231.93018625915755,235.3170768533897L235.5260031003848,234.72821983995166L238.4872640284543,233.28552015702854L241.8715622319623,233.64864864864865L245.15450775489649,231.26377774422468L248.2215280018256,233.17756303789824L251.500066886474,228.56484976596707L255.20164304656086,237.09346217726105L267.3595580771319,231.27359202778197L270.63809696178026,232.94202023252302L274.0223951652883,231.6170919522875L277.30093404993664,229.28129246565L280.7909915723043,233.79586290200814L283.6508998198,231.29322059489658L286.92943870444833,230.83194926770344L290.1022182702371,227.02400724747093L293.2749978360258,225.25743620715687L296.65929603953384,224.59987920881775L300.14494692361563,223.90306507624942L302.68317057624665,225.1789219386985L306.2789874174739,220.53676581609542L309.2402483455434,225.522421863204L312.41302791133216,232.40223463687153L316.114604071419,230.60622074588554L318.9701056806289,230.31179223916655L322.2530512035631,231.38154914691228L325.4258307693519,225.50279329608938L329.02164761057907,233.43273441038804L332.5117051329467,234.12954854295637L335.47296606101617,233.98233428959688L338.5355796696595,235.76853389702552L342.76595242404454,239.54703306658615L348.265437004745,236.13166238864562L350.803660657376,236.43590517892193L355.35131136833985,243.65921787709496L357.57225706439203,243.7181035784388L360.96096190618584,243.66903216065228L364.5567787474131,245.1902461120338L367.3065210377633,244.4051034274498L371.21961583556947,234.8950626604258L374.18087676363893,241.6865468820776L376.9262124157034,245.15098897780462L379.9932326626325,246.31888872112336L383.58904950385977,245.2687603804922L385.9157545187715,245.2687603804922L387.07910702622735,237.99637626453267L389.8288493165776,244.71916050128343L393.84770343324334,245.58281745432583L396.91472368017253,238.496904725955L399.98615056538745,234.82636267552468L402.8416521745973,238.4183904574966L406.54322833468416,237.27011928129247L409.5044892627537,235.8077910312547L413.20606542284054,226.76883587498114L416.1629197126242,231.7446776385324L419.44145859727263,239.04650460516382L422.8257568007806,245.53374603653933L425.36398045341156,245.73003170768536L429.27707525121775,246.60350294428505L431.7095395849891,246.96663143590519L435.19959710735674,247.6241884342443L438.37678331143127,247.45734561377017L441.3380442395008,247.0353314208063L444.93386108072804,240.60697569077456L448.5296779219553,246.03427449796166L451.8082168066037,246.55443152649855L454.6593117775277,245.1902461120338L457.93785066217606,244.92526045598672L461.3221488656841,243.7671749962253L464.2834097937536,241.90246112033822L464.8122063880517,241.90246112033822L467.24467072182307,239.45870451457043L471.2635248384888,240.22421863203988L474.330545085418,239.99849011022195L477.50773128949254,239.88071870753436L480.36323289870245,241.8239468518798L483.11297518905263,244.5326891136947L487.1318293057184,241.06824701796768L489.5642936394898,241.3626755246867L493.57874111786975,242.82500377472445L496.43424272707955,242.45206099954703L499.8185409305876,240.37143288539937L502.7798018586571,242.2754038955156L506.58713733760356,238.68337611354372L508.8080830336557,235.97463385172884L512.1923812371637,242.61890382002113L516.004123354396,239.50777593235694L519.0711436013252,236.12184810508833L522.2439231671138,227.86803563339876L525.4167027329026,225.5126075796467L528.5894822986915,224.38396497055714L532.4981704582117,227.64230711158086L535.6709500240005,229.3107353163219L538.2091736766314,237.47621923599579L542.0165091555779,238.4674618752831L544.6604921270686,238.7815189491167L547.8332716928572,237.01494790880264L550.9002919397865,237.50566208666768L554.5005154192995,235.7292767627963L557.3560170285093,236.80884795409935L560,234.82636267552468" fill="none"></path></g><g class="label " transform="translate(590,0)"><circle cy="0" cx="0" r="0.4em" class="label Javascript"></circle><text y="2pt" x="8pt" style="font-family: cmr10; ">Javascript</text></g><g class="label " transform="translate(590,20)"><circle cy="0" cx="0" r="0.4em" class="label Java"></circle><text y="2pt" x="8pt" style="font-family: cmr10; ">Java</text></g><g class="label " transform="translate(590,40)"><circle cy="0" cx="0" r="0.4em" class="label C"></circle><text y="2pt" x="8pt" style="font-family: cmr10; ">C</text></g><g class="label " transform="translate(590,60)"><circle cy="0" cx="0" r="0.4em" class="label Cplusplus"></circle><text y="2pt" x="8pt" style="font-family: cmr10; ">C++</text></g><g class="label " transform="translate(590,80)"><circle cy="0" cx="0" r="0.4em" class="label Csharp"></circle><text y="2pt" x="8pt" style="font-family: cmr10; ">C sharp</text></g><g class="label " transform="translate(590,100)"><circle cy="0" cx="0" r="0.4em" class="label Python"></circle><text y="2pt" x="8pt" style="font-family: cmr10; ">Python</text></g><g class="label " transform="translate(590,120)"><circle cy="0" cx="0" r="0.4em" class="label PHP"></circle><text y="2pt" x="8pt" style="font-family: cmr10; ">PHP</text></g><g class="label " transform="translate(590,140)"><circle cy="0" cx="0" r="0.4em" class="label VisualBasicNET"></circle><text y="2pt" x="8pt" style="font-family: cmr10; ">Visual Basic .NET</text></g><g class="label " transform="translate(590,160)"><circle cy="0" cx="0" r="0.4em" class="label Assembler"></circle><text y="2pt" x="8pt" style="font-family: cmr10; ">Assembler</text></g><g class="label " transform="translate(590,180)"><circle cy="0" cx="0" r="0.4em" class="label Ruby"></circle><text y="2pt" x="8pt" style="font-family: cmr10; ">Ruby</text></g></g></svg>